%TF.GenerationSoftware,KiCad,Pcbnew,(5.1.9-0-10_14)*%
%TF.CreationDate,2021-06-28T10:44:47+08:00*%
%TF.ProjectId,pdm,70646d2e-6b69-4636-9164-5f7063625858,rev?*%
%TF.SameCoordinates,Original*%
%TF.FileFunction,Copper,L3,Inr*%
%TF.FilePolarity,Positive*%
%FSLAX46Y46*%
G04 Gerber Fmt 4.6, Leading zero omitted, Abs format (unit mm)*
G04 Created by KiCad (PCBNEW (5.1.9-0-10_14)) date 2021-06-28 10:44:47*
%MOMM*%
%LPD*%
G01*
G04 APERTURE LIST*
%TA.AperFunction,ComponentPad*%
%ADD10O,2.000000X2.000000*%
%TD*%
%TA.AperFunction,ComponentPad*%
%ADD11R,2.000000X2.000000*%
%TD*%
%TA.AperFunction,ComponentPad*%
%ADD12O,1.700000X1.700000*%
%TD*%
%TA.AperFunction,ComponentPad*%
%ADD13R,1.700000X1.700000*%
%TD*%
%TA.AperFunction,ComponentPad*%
%ADD14C,0.100000*%
%TD*%
%TA.AperFunction,ComponentPad*%
%ADD15R,2.715000X2.715000*%
%TD*%
%TA.AperFunction,ComponentPad*%
%ADD16C,2.715000*%
%TD*%
%TA.AperFunction,ComponentPad*%
%ADD17C,6.000000*%
%TD*%
%TA.AperFunction,ComponentPad*%
%ADD18C,0.800000*%
%TD*%
%TA.AperFunction,ComponentPad*%
%ADD19C,2.640000*%
%TD*%
%TA.AperFunction,ComponentPad*%
%ADD20R,2.640000X2.640000*%
%TD*%
%TA.AperFunction,ViaPad*%
%ADD21C,0.600000*%
%TD*%
%TA.AperFunction,ViaPad*%
%ADD22C,0.800000*%
%TD*%
%TA.AperFunction,Conductor*%
%ADD23C,0.254000*%
%TD*%
%TA.AperFunction,Conductor*%
%ADD24C,0.100000*%
%TD*%
G04 APERTURE END LIST*
D10*
%TO.N,GND*%
%TO.C,D6*%
X216662000Y-94742000D03*
D11*
%TO.N,Net-(D6-Pad1)*%
X221742000Y-94742000D03*
%TD*%
D12*
%TO.N,/_N*%
%TO.C,J3*%
X150622000Y-82296000D03*
D13*
%TO.N,/_P*%
X150622000Y-79756000D03*
%TD*%
%TO.N,+3V3*%
%TO.C,J2*%
%TA.AperFunction,ComponentPad*%
G36*
G01*
X170211410Y-75442692D02*
X170211410Y-75442692D01*
G75*
G02*
X170211410Y-76644774I-601041J-601041D01*
G01*
X170211410Y-76644774D01*
G75*
G02*
X169009328Y-76644774I-601041J601041D01*
G01*
X169009328Y-76644774D01*
G75*
G02*
X169009328Y-75442692I601041J601041D01*
G01*
X169009328Y-75442692D01*
G75*
G02*
X170211410Y-75442692I601041J-601041D01*
G01*
G37*
%TD.AperFunction*%
%TO.N,/SWDIO*%
%TA.AperFunction,ComponentPad*%
G36*
G01*
X172007462Y-77238744D02*
X172007462Y-77238744D01*
G75*
G02*
X172007462Y-78440826I-601041J-601041D01*
G01*
X172007462Y-78440826D01*
G75*
G02*
X170805380Y-78440826I-601041J601041D01*
G01*
X170805380Y-78440826D01*
G75*
G02*
X170805380Y-77238744I601041J601041D01*
G01*
X170805380Y-77238744D01*
G75*
G02*
X172007462Y-77238744I601041J-601041D01*
G01*
G37*
%TD.AperFunction*%
%TO.N,/SWCLK*%
%TA.AperFunction,ComponentPad*%
G36*
G01*
X173803513Y-79034795D02*
X173803513Y-79034795D01*
G75*
G02*
X173803513Y-80236877I-601041J-601041D01*
G01*
X173803513Y-80236877D01*
G75*
G02*
X172601431Y-80236877I-601041J601041D01*
G01*
X172601431Y-80236877D01*
G75*
G02*
X172601431Y-79034795I601041J601041D01*
G01*
X172601431Y-79034795D01*
G75*
G02*
X173803513Y-79034795I601041J-601041D01*
G01*
G37*
%TD.AperFunction*%
%TA.AperFunction,ComponentPad*%
D14*
%TO.N,GND*%
G36*
X174998523Y-80229805D02*
G01*
X176200605Y-81431887D01*
X174998523Y-82633969D01*
X173796441Y-81431887D01*
X174998523Y-80229805D01*
G37*
%TD.AperFunction*%
%TD*%
D15*
%TO.N,GND*%
%TO.C,J4*%
X176972000Y-122174000D03*
D16*
X181417000Y-122174000D03*
%TO.N,/vout2*%
X185862000Y-122174000D03*
%TO.N,/vout3*%
X190312000Y-122174000D03*
%TO.N,/vout4*%
X194757000Y-122174000D03*
%TO.N,/vout5*%
X199202000Y-122174000D03*
X199202000Y-128524000D03*
%TO.N,/vout4*%
X194757000Y-128524000D03*
%TO.N,/vout3*%
X190312000Y-128524000D03*
%TO.N,/vout1*%
X185862000Y-128524000D03*
%TO.N,/_P*%
X181417000Y-128524000D03*
%TO.N,/_N*%
X176972000Y-128524000D03*
%TD*%
D17*
%TO.N,N/C*%
%TO.C,H4*%
X227457000Y-133604000D03*
D18*
X229707000Y-133604000D03*
X229047990Y-135194990D03*
X227457000Y-135854000D03*
X225866010Y-135194990D03*
X225207000Y-133604000D03*
X225866010Y-132013010D03*
X227457000Y-131354000D03*
X229047990Y-132013010D03*
%TD*%
D17*
%TO.N,N/C*%
%TO.C,H3*%
X227457000Y-54864000D03*
D18*
X229707000Y-54864000D03*
X229047990Y-56454990D03*
X227457000Y-57114000D03*
X225866010Y-56454990D03*
X225207000Y-54864000D03*
X225866010Y-53273010D03*
X227457000Y-52614000D03*
X229047990Y-53273010D03*
%TD*%
D17*
%TO.N,N/C*%
%TO.C,H2*%
X110617000Y-133604000D03*
D18*
X112867000Y-133604000D03*
X112207990Y-135194990D03*
X110617000Y-135854000D03*
X109026010Y-135194990D03*
X108367000Y-133604000D03*
X109026010Y-132013010D03*
X110617000Y-131354000D03*
X112207990Y-132013010D03*
%TD*%
D17*
%TO.N,N/C*%
%TO.C,H1*%
X110617000Y-54864000D03*
D18*
X112867000Y-54864000D03*
X112207990Y-56454990D03*
X110617000Y-57114000D03*
X109026010Y-56454990D03*
X108367000Y-54864000D03*
X109026010Y-53273010D03*
X110617000Y-52614000D03*
X112207990Y-53273010D03*
%TD*%
D19*
%TO.N,+12V*%
%TO.C,J1*%
X134742000Y-128224000D03*
X139192000Y-128224000D03*
D20*
%TO.N,GND*%
X134742000Y-121874000D03*
D19*
%TO.N,+12V*%
X139192000Y-121874000D03*
%TD*%
D21*
%TO.N,GND*%
X209296000Y-81788000D03*
X209296000Y-82550000D03*
X209296000Y-83312000D03*
X208534000Y-83312000D03*
X208534000Y-82550000D03*
X208534000Y-81788000D03*
D22*
X123190000Y-67437000D03*
X123190000Y-66548000D03*
X123190000Y-65659000D03*
X123190000Y-64770000D03*
X123190000Y-63881000D03*
X129794000Y-67564000D03*
X143336000Y-100638000D03*
X143336000Y-95875990D03*
X145688000Y-97860000D03*
X116591351Y-67560131D03*
X123190000Y-68326000D03*
X220726000Y-76962000D03*
X220472000Y-74422000D03*
D21*
X209296000Y-81026000D03*
X208534000Y-81026000D03*
X207772000Y-81026000D03*
X210058000Y-81026000D03*
X210058000Y-80264000D03*
X209296000Y-80264000D03*
X208534000Y-80264000D03*
X207772000Y-80264000D03*
X207772000Y-79502000D03*
X208534000Y-79502000D03*
X209296000Y-79502000D03*
X210058000Y-79502000D03*
X209296000Y-84074000D03*
X208534000Y-84074000D03*
X207772000Y-84074000D03*
X207772000Y-84836000D03*
X208534000Y-84836000D03*
X209296000Y-84836000D03*
X210058000Y-84836000D03*
D22*
X165000000Y-83000000D03*
X161036000Y-100584000D03*
X161036000Y-95821990D03*
X163388000Y-97806000D03*
X178814280Y-100585159D03*
X178814280Y-95823149D03*
X181166280Y-97807159D03*
X196579000Y-100594000D03*
X196579000Y-95831990D03*
X198931000Y-97816000D03*
%TO.N,+12V*%
X120396000Y-67818000D03*
X120396000Y-66802000D03*
X213514000Y-72748000D03*
X214530000Y-72748000D03*
X215546000Y-72748000D03*
X216562000Y-72748000D03*
X217578000Y-72748000D03*
X218594000Y-72748000D03*
X218594000Y-71732000D03*
X217578000Y-71732000D03*
X216562000Y-71732000D03*
X215546000Y-71732000D03*
X214530000Y-71732000D03*
X213514000Y-71732000D03*
X213514000Y-70716000D03*
X214530000Y-70716000D03*
X215546000Y-70716000D03*
X216562000Y-70716000D03*
X217578000Y-70716000D03*
X218594000Y-70716000D03*
X218594000Y-69700000D03*
X217578000Y-69700000D03*
X216562000Y-69700000D03*
X215546000Y-69700000D03*
X214530000Y-69700000D03*
X213514000Y-69700000D03*
X213514000Y-68684000D03*
X214530000Y-68684000D03*
X215546000Y-68684000D03*
X216562000Y-68684000D03*
X217578000Y-68684000D03*
X218594000Y-68684000D03*
X218594000Y-67668000D03*
X217578000Y-67668000D03*
X216562000Y-67668000D03*
X215546000Y-67668000D03*
X214530000Y-67668000D03*
X213514000Y-67668000D03*
X120396000Y-65786000D03*
X116332000Y-65786000D03*
X120396000Y-64770000D03*
X120396000Y-63754000D03*
X135890000Y-96266000D03*
X136906000Y-96266000D03*
X137922000Y-96266000D03*
X138938000Y-96266000D03*
X139954000Y-96266000D03*
X140970000Y-96266000D03*
X140970000Y-95250000D03*
X139954000Y-95250000D03*
X138938000Y-95250000D03*
X137922000Y-95250000D03*
X136906000Y-95250000D03*
X135890000Y-95250000D03*
X135890000Y-94234000D03*
X136906000Y-94234000D03*
X137922000Y-94234000D03*
X138938000Y-94234000D03*
X139954000Y-94234000D03*
X140970000Y-94234000D03*
X140970000Y-93218000D03*
X139954000Y-93218000D03*
X138938000Y-93218000D03*
X137922000Y-93218000D03*
X136906000Y-93218000D03*
X135890000Y-93218000D03*
X135890000Y-92202000D03*
X136906000Y-92202000D03*
X137922000Y-92202000D03*
X138938000Y-92202000D03*
X139954000Y-92202000D03*
X140970000Y-92202000D03*
X140970000Y-91186000D03*
X139954000Y-91186000D03*
X138938000Y-91186000D03*
X137922000Y-91186000D03*
X136906000Y-91186000D03*
X135890000Y-91186000D03*
X120396000Y-62738000D03*
X119380000Y-62738000D03*
X118364000Y-62738000D03*
X117348000Y-62738000D03*
X116332000Y-62738000D03*
X115316000Y-62738000D03*
X121412000Y-62738000D03*
X115316000Y-63754000D03*
X116332000Y-63754000D03*
X117348000Y-63754000D03*
X118364000Y-63754000D03*
X119380000Y-63754000D03*
X121412000Y-63754000D03*
X121412000Y-64770000D03*
X119380000Y-64770000D03*
X118364000Y-64770000D03*
X117348000Y-64770000D03*
X116332000Y-64770000D03*
X115316000Y-64770000D03*
X115316000Y-65786000D03*
X117348000Y-65786000D03*
X118364000Y-65786000D03*
X119380000Y-65786000D03*
X121412000Y-65786000D03*
X121412000Y-68834000D03*
X120396000Y-68834000D03*
X119380000Y-68834000D03*
X115316000Y-69850000D03*
X116332000Y-69850000D03*
X117348000Y-69850000D03*
X118364000Y-69850000D03*
X119380000Y-69850000D03*
X115316000Y-70866000D03*
X116332000Y-70866000D03*
X117348000Y-70866000D03*
X118364000Y-70866000D03*
X119380000Y-70866000D03*
X153590000Y-96212000D03*
X154606000Y-96212000D03*
X155622000Y-96212000D03*
X156638000Y-96212000D03*
X157654000Y-96212000D03*
X158670000Y-96212000D03*
X158670000Y-95196000D03*
X157654000Y-95196000D03*
X156638000Y-95196000D03*
X155622000Y-95196000D03*
X154606000Y-95196000D03*
X153590000Y-95196000D03*
X153590000Y-94180000D03*
X154606000Y-94180000D03*
X155622000Y-94180000D03*
X156638000Y-94180000D03*
X157654000Y-94180000D03*
X158670000Y-94180000D03*
X158670000Y-93164000D03*
X157654000Y-93164000D03*
X156638000Y-93164000D03*
X155622000Y-93164000D03*
X154606000Y-93164000D03*
X153590000Y-93164000D03*
X153590000Y-92148000D03*
X154606000Y-92148000D03*
X155622000Y-92148000D03*
X156638000Y-92148000D03*
X157654000Y-92148000D03*
X158670000Y-92148000D03*
X158670000Y-91132000D03*
X157654000Y-91132000D03*
X156638000Y-91132000D03*
X155622000Y-91132000D03*
X154606000Y-91132000D03*
X153590000Y-91132000D03*
X171368280Y-96213159D03*
X172384280Y-96213159D03*
X173400280Y-96213159D03*
X174416280Y-96213159D03*
X175432280Y-96213159D03*
X176448280Y-96213159D03*
X176448280Y-95197159D03*
X175432280Y-95197159D03*
X174416280Y-95197159D03*
X173400280Y-95197159D03*
X172384280Y-95197159D03*
X171368280Y-95197159D03*
X171368280Y-94181159D03*
X172384280Y-94181159D03*
X173400280Y-94181159D03*
X174416280Y-94181159D03*
X175432280Y-94181159D03*
X176448280Y-94181159D03*
X176448280Y-93165159D03*
X175432280Y-93165159D03*
X174416280Y-93165159D03*
X173400280Y-93165159D03*
X172384280Y-93165159D03*
X171368280Y-93165159D03*
X171368280Y-92149159D03*
X172384280Y-92149159D03*
X173400280Y-92149159D03*
X174416280Y-92149159D03*
X175432280Y-92149159D03*
X176448280Y-92149159D03*
X176448280Y-91133159D03*
X175432280Y-91133159D03*
X174416280Y-91133159D03*
X173400280Y-91133159D03*
X172384280Y-91133159D03*
X171368280Y-91133159D03*
X189133000Y-96222000D03*
X190149000Y-96222000D03*
X191165000Y-96222000D03*
X192181000Y-96222000D03*
X193197000Y-96222000D03*
X194213000Y-96222000D03*
X194213000Y-95206000D03*
X193197000Y-95206000D03*
X192181000Y-95206000D03*
X191165000Y-95206000D03*
X190149000Y-95206000D03*
X189133000Y-95206000D03*
X189133000Y-94190000D03*
X190149000Y-94190000D03*
X191165000Y-94190000D03*
X192181000Y-94190000D03*
X193197000Y-94190000D03*
X194213000Y-94190000D03*
X194213000Y-93174000D03*
X193197000Y-93174000D03*
X192181000Y-93174000D03*
X191165000Y-93174000D03*
X190149000Y-93174000D03*
X189133000Y-93174000D03*
X189133000Y-92158000D03*
X190149000Y-92158000D03*
X191165000Y-92158000D03*
X192181000Y-92158000D03*
X193197000Y-92158000D03*
X194213000Y-92158000D03*
X194213000Y-91142000D03*
X193197000Y-91142000D03*
X192181000Y-91142000D03*
X191165000Y-91142000D03*
X190149000Y-91142000D03*
X189133000Y-91142000D03*
X119380000Y-66802000D03*
X121412000Y-66802000D03*
X121412000Y-67818000D03*
X119380000Y-67818000D03*
%TO.N,+3V3*%
X125984000Y-67818000D03*
X125984000Y-66802000D03*
X125984000Y-65786000D03*
X125984000Y-64770000D03*
X125984000Y-63754000D03*
X124968000Y-62738000D03*
X125984000Y-62738000D03*
X127000000Y-62738000D03*
X128016000Y-62738000D03*
X129032000Y-62738000D03*
X130048000Y-62738000D03*
X131064000Y-62738000D03*
X124968000Y-63754000D03*
X127000000Y-63754000D03*
X128016000Y-63754000D03*
X129032000Y-63754000D03*
X130048000Y-63754000D03*
X131064000Y-63754000D03*
X131064000Y-64770000D03*
X130048000Y-64770000D03*
X129032000Y-64770000D03*
X128016000Y-64770000D03*
X127000000Y-64770000D03*
X124968000Y-64770000D03*
X124968000Y-65786000D03*
X127000000Y-65786000D03*
X128016000Y-65786000D03*
X129032000Y-65786000D03*
X131064000Y-66802000D03*
X128016000Y-66802000D03*
X127000000Y-66802000D03*
X124968000Y-66802000D03*
X124968000Y-67818000D03*
X127000000Y-67818000D03*
X128016000Y-67818000D03*
X131064000Y-67818000D03*
X131064000Y-68834000D03*
X130048000Y-68834000D03*
X129032000Y-68834000D03*
X128016000Y-68834000D03*
X127000000Y-68834000D03*
X125984000Y-68834000D03*
X124968000Y-68834000D03*
X128016000Y-69850000D03*
X129032000Y-69850000D03*
X130048000Y-69850000D03*
X131064000Y-69850000D03*
X131064000Y-70866000D03*
X130048000Y-70866000D03*
X129032000Y-70866000D03*
X127000000Y-69850000D03*
X127000000Y-70866000D03*
X128016000Y-70866000D03*
X145288000Y-102108000D03*
X220726000Y-71882000D03*
X165582383Y-74523383D03*
X165100000Y-69723000D03*
X174766146Y-67926782D03*
X174436202Y-64008306D03*
X173347356Y-62970377D03*
X167000000Y-83000000D03*
X162988000Y-102054000D03*
X180766280Y-102055159D03*
X198531000Y-102064000D03*
%TO.N,/sense5*%
X172645756Y-63793535D03*
X202184000Y-74422000D03*
%TO.N,/sense4*%
X171688003Y-64411516D03*
X172276303Y-83247697D03*
%TO.N,/sense3*%
X170688000Y-64411516D03*
X176022000Y-86001180D03*
%TO.N,/sense2*%
X145781029Y-86067242D03*
X143256000Y-85090000D03*
%TO.N,/_P*%
X155702000Y-79121000D03*
%TO.N,/_N*%
X155702000Y-82931000D03*
%TO.N,Net-(Q7-Pad3)*%
X161036000Y-92583000D03*
X164338000Y-92726000D03*
%TO.N,Net-(Q1-Pad3)*%
X178814280Y-92584159D03*
X182116280Y-92727159D03*
%TO.N,/vout5*%
X221700000Y-120000000D03*
X204724000Y-84899000D03*
%TO.N,Net-(D6-Pad1)*%
X211074000Y-84328000D03*
X219586000Y-88519000D03*
%TO.N,Net-(Q4-Pad3)*%
X143336000Y-92637000D03*
X146638000Y-92780000D03*
%TO.N,Net-(Q12-Pad3)*%
X196579000Y-92593000D03*
X199881000Y-92736000D03*
%TO.N,/DAC2*%
X167550883Y-65113116D03*
X203200000Y-81725000D03*
%TO.N,Net-(C12-Pad2)*%
X212026267Y-81123321D03*
D21*
X204711000Y-78740000D03*
D22*
%TO.N,/fuse5*%
X208534000Y-72644000D03*
X222488000Y-73472000D03*
%TO.N,Net-(Q15-Pad4)*%
X211284002Y-83312000D03*
X219586000Y-87249000D03*
%TD*%
D23*
%TO.N,+12V*%
X229576988Y-48869969D02*
X230400106Y-49095147D01*
X231170344Y-49462533D01*
X231863347Y-49960505D01*
X232457217Y-50573332D01*
X232933178Y-51281637D01*
X233276187Y-52063033D01*
X233475914Y-52894960D01*
X233528000Y-53604234D01*
X233528001Y-136130349D01*
X233459441Y-136829580D01*
X233260335Y-137489050D01*
X232936933Y-138097282D01*
X232501543Y-138631122D01*
X231970765Y-139070220D01*
X231364801Y-139397865D01*
X230734419Y-139593000D01*
X108478619Y-139593000D01*
X107673890Y-139372851D01*
X106903660Y-139005469D01*
X106210653Y-138507495D01*
X105616783Y-137894668D01*
X105140824Y-137186367D01*
X104797814Y-136404969D01*
X104598086Y-135573040D01*
X104546000Y-134863765D01*
X104546000Y-133246772D01*
X106990000Y-133246772D01*
X106990000Y-133961228D01*
X107129383Y-134661957D01*
X107402794Y-135322029D01*
X107799725Y-135916078D01*
X108304922Y-136421275D01*
X108898971Y-136818206D01*
X109559043Y-137091617D01*
X110259772Y-137231000D01*
X110974228Y-137231000D01*
X111674957Y-137091617D01*
X112335029Y-136818206D01*
X112929078Y-136421275D01*
X113434275Y-135916078D01*
X113831206Y-135322029D01*
X114104617Y-134661957D01*
X114213412Y-134115001D01*
X134845000Y-134115001D01*
X134845000Y-134532999D01*
X134926548Y-134942964D01*
X135086508Y-135329144D01*
X135318735Y-135676696D01*
X135614304Y-135972265D01*
X135961856Y-136204492D01*
X136348036Y-136364452D01*
X136758001Y-136446000D01*
X137175999Y-136446000D01*
X137585964Y-136364452D01*
X137972144Y-136204492D01*
X138319696Y-135972265D01*
X138615265Y-135676696D01*
X138847492Y-135329144D01*
X139007452Y-134942964D01*
X139089000Y-134532999D01*
X139089000Y-134415001D01*
X185965000Y-134415001D01*
X185965000Y-134832999D01*
X186046548Y-135242964D01*
X186206508Y-135629144D01*
X186438735Y-135976696D01*
X186734304Y-136272265D01*
X187081856Y-136504492D01*
X187468036Y-136664452D01*
X187878001Y-136746000D01*
X188295999Y-136746000D01*
X188705964Y-136664452D01*
X189092144Y-136504492D01*
X189439696Y-136272265D01*
X189735265Y-135976696D01*
X189967492Y-135629144D01*
X190127452Y-135242964D01*
X190209000Y-134832999D01*
X190209000Y-134415001D01*
X190127452Y-134005036D01*
X189967492Y-133618856D01*
X189735265Y-133271304D01*
X189710733Y-133246772D01*
X223830000Y-133246772D01*
X223830000Y-133961228D01*
X223969383Y-134661957D01*
X224242794Y-135322029D01*
X224639725Y-135916078D01*
X225144922Y-136421275D01*
X225738971Y-136818206D01*
X226399043Y-137091617D01*
X227099772Y-137231000D01*
X227814228Y-137231000D01*
X228514957Y-137091617D01*
X229175029Y-136818206D01*
X229769078Y-136421275D01*
X230274275Y-135916078D01*
X230671206Y-135322029D01*
X230944617Y-134661957D01*
X231084000Y-133961228D01*
X231084000Y-133246772D01*
X230944617Y-132546043D01*
X230671206Y-131885971D01*
X230274275Y-131291922D01*
X229769078Y-130786725D01*
X229175029Y-130389794D01*
X228514957Y-130116383D01*
X227814228Y-129977000D01*
X227099772Y-129977000D01*
X226399043Y-130116383D01*
X225738971Y-130389794D01*
X225144922Y-130786725D01*
X224639725Y-131291922D01*
X224242794Y-131885971D01*
X223969383Y-132546043D01*
X223830000Y-133246772D01*
X189710733Y-133246772D01*
X189439696Y-132975735D01*
X189092144Y-132743508D01*
X188705964Y-132583548D01*
X188295999Y-132502000D01*
X187878001Y-132502000D01*
X187468036Y-132583548D01*
X187081856Y-132743508D01*
X186734304Y-132975735D01*
X186438735Y-133271304D01*
X186206508Y-133618856D01*
X186046548Y-134005036D01*
X185965000Y-134415001D01*
X139089000Y-134415001D01*
X139089000Y-134115001D01*
X139007452Y-133705036D01*
X138847492Y-133318856D01*
X138615265Y-132971304D01*
X138319696Y-132675735D01*
X137972144Y-132443508D01*
X137585964Y-132283548D01*
X137175999Y-132202000D01*
X136758001Y-132202000D01*
X136348036Y-132283548D01*
X135961856Y-132443508D01*
X135614304Y-132675735D01*
X135318735Y-132971304D01*
X135086508Y-133318856D01*
X134926548Y-133705036D01*
X134845000Y-134115001D01*
X114213412Y-134115001D01*
X114244000Y-133961228D01*
X114244000Y-133246772D01*
X114104617Y-132546043D01*
X113831206Y-131885971D01*
X113434275Y-131291922D01*
X112929078Y-130786725D01*
X112335029Y-130389794D01*
X111674957Y-130116383D01*
X110974228Y-129977000D01*
X110259772Y-129977000D01*
X109559043Y-130116383D01*
X108898971Y-130389794D01*
X108304922Y-130786725D01*
X107799725Y-131291922D01*
X107402794Y-131885971D01*
X107129383Y-132546043D01*
X106990000Y-133246772D01*
X104546000Y-133246772D01*
X104546000Y-128328544D01*
X174987500Y-128328544D01*
X174987500Y-128719456D01*
X175063763Y-129102857D01*
X175213359Y-129464013D01*
X175430538Y-129789045D01*
X175706955Y-130065462D01*
X176031987Y-130282641D01*
X176393143Y-130432237D01*
X176776544Y-130508500D01*
X177167456Y-130508500D01*
X177550857Y-130432237D01*
X177912013Y-130282641D01*
X178237045Y-130065462D01*
X178513462Y-129789045D01*
X178730641Y-129464013D01*
X178880237Y-129102857D01*
X178956500Y-128719456D01*
X178956500Y-128328544D01*
X179432500Y-128328544D01*
X179432500Y-128719456D01*
X179508763Y-129102857D01*
X179658359Y-129464013D01*
X179875538Y-129789045D01*
X180151955Y-130065462D01*
X180476987Y-130282641D01*
X180838143Y-130432237D01*
X181221544Y-130508500D01*
X181612456Y-130508500D01*
X181995857Y-130432237D01*
X182357013Y-130282641D01*
X182682045Y-130065462D01*
X182958462Y-129789045D01*
X183175641Y-129464013D01*
X183325237Y-129102857D01*
X183401500Y-128719456D01*
X183401500Y-128328544D01*
X183877500Y-128328544D01*
X183877500Y-128719456D01*
X183953763Y-129102857D01*
X184103359Y-129464013D01*
X184320538Y-129789045D01*
X184596955Y-130065462D01*
X184921987Y-130282641D01*
X185283143Y-130432237D01*
X185666544Y-130508500D01*
X186057456Y-130508500D01*
X186440857Y-130432237D01*
X186802013Y-130282641D01*
X187127045Y-130065462D01*
X187403462Y-129789045D01*
X187620641Y-129464013D01*
X187770237Y-129102857D01*
X187846500Y-128719456D01*
X187846500Y-128328544D01*
X188327500Y-128328544D01*
X188327500Y-128719456D01*
X188403763Y-129102857D01*
X188553359Y-129464013D01*
X188770538Y-129789045D01*
X189046955Y-130065462D01*
X189371987Y-130282641D01*
X189733143Y-130432237D01*
X190116544Y-130508500D01*
X190507456Y-130508500D01*
X190890857Y-130432237D01*
X191252013Y-130282641D01*
X191577045Y-130065462D01*
X191853462Y-129789045D01*
X192070641Y-129464013D01*
X192220237Y-129102857D01*
X192296500Y-128719456D01*
X192296500Y-128328544D01*
X192772500Y-128328544D01*
X192772500Y-128719456D01*
X192848763Y-129102857D01*
X192998359Y-129464013D01*
X193215538Y-129789045D01*
X193491955Y-130065462D01*
X193816987Y-130282641D01*
X194178143Y-130432237D01*
X194561544Y-130508500D01*
X194952456Y-130508500D01*
X195335857Y-130432237D01*
X195697013Y-130282641D01*
X196022045Y-130065462D01*
X196298462Y-129789045D01*
X196515641Y-129464013D01*
X196665237Y-129102857D01*
X196741500Y-128719456D01*
X196741500Y-128328544D01*
X197217500Y-128328544D01*
X197217500Y-128719456D01*
X197293763Y-129102857D01*
X197443359Y-129464013D01*
X197660538Y-129789045D01*
X197936955Y-130065462D01*
X198261987Y-130282641D01*
X198623143Y-130432237D01*
X199006544Y-130508500D01*
X199397456Y-130508500D01*
X199780857Y-130432237D01*
X200142013Y-130282641D01*
X200467045Y-130065462D01*
X200743462Y-129789045D01*
X200960641Y-129464013D01*
X201110237Y-129102857D01*
X201186500Y-128719456D01*
X201186500Y-128328544D01*
X201110237Y-127945143D01*
X200960641Y-127583987D01*
X200743462Y-127258955D01*
X200467045Y-126982538D01*
X200142013Y-126765359D01*
X199780857Y-126615763D01*
X199397456Y-126539500D01*
X199006544Y-126539500D01*
X198623143Y-126615763D01*
X198261987Y-126765359D01*
X197936955Y-126982538D01*
X197660538Y-127258955D01*
X197443359Y-127583987D01*
X197293763Y-127945143D01*
X197217500Y-128328544D01*
X196741500Y-128328544D01*
X196665237Y-127945143D01*
X196515641Y-127583987D01*
X196298462Y-127258955D01*
X196022045Y-126982538D01*
X195697013Y-126765359D01*
X195335857Y-126615763D01*
X194952456Y-126539500D01*
X194561544Y-126539500D01*
X194178143Y-126615763D01*
X193816987Y-126765359D01*
X193491955Y-126982538D01*
X193215538Y-127258955D01*
X192998359Y-127583987D01*
X192848763Y-127945143D01*
X192772500Y-128328544D01*
X192296500Y-128328544D01*
X192220237Y-127945143D01*
X192070641Y-127583987D01*
X191853462Y-127258955D01*
X191577045Y-126982538D01*
X191252013Y-126765359D01*
X190890857Y-126615763D01*
X190507456Y-126539500D01*
X190116544Y-126539500D01*
X189733143Y-126615763D01*
X189371987Y-126765359D01*
X189046955Y-126982538D01*
X188770538Y-127258955D01*
X188553359Y-127583987D01*
X188403763Y-127945143D01*
X188327500Y-128328544D01*
X187846500Y-128328544D01*
X187770237Y-127945143D01*
X187620641Y-127583987D01*
X187403462Y-127258955D01*
X187127045Y-126982538D01*
X186802013Y-126765359D01*
X186440857Y-126615763D01*
X186057456Y-126539500D01*
X185666544Y-126539500D01*
X185283143Y-126615763D01*
X184921987Y-126765359D01*
X184596955Y-126982538D01*
X184320538Y-127258955D01*
X184103359Y-127583987D01*
X183953763Y-127945143D01*
X183877500Y-128328544D01*
X183401500Y-128328544D01*
X183325237Y-127945143D01*
X183175641Y-127583987D01*
X182958462Y-127258955D01*
X182682045Y-126982538D01*
X182357013Y-126765359D01*
X181995857Y-126615763D01*
X181612456Y-126539500D01*
X181221544Y-126539500D01*
X180838143Y-126615763D01*
X180476987Y-126765359D01*
X180151955Y-126982538D01*
X179875538Y-127258955D01*
X179658359Y-127583987D01*
X179508763Y-127945143D01*
X179432500Y-128328544D01*
X178956500Y-128328544D01*
X178880237Y-127945143D01*
X178730641Y-127583987D01*
X178513462Y-127258955D01*
X178237045Y-126982538D01*
X177912013Y-126765359D01*
X177550857Y-126615763D01*
X177167456Y-126539500D01*
X176776544Y-126539500D01*
X176393143Y-126615763D01*
X176031987Y-126765359D01*
X175706955Y-126982538D01*
X175430538Y-127258955D01*
X175213359Y-127583987D01*
X175063763Y-127945143D01*
X174987500Y-128328544D01*
X104546000Y-128328544D01*
X104546000Y-122685001D01*
X126195000Y-122685001D01*
X126195000Y-123102999D01*
X126276548Y-123512964D01*
X126436508Y-123899144D01*
X126668735Y-124246696D01*
X126964304Y-124542265D01*
X127311856Y-124774492D01*
X127698036Y-124934452D01*
X128108001Y-125016000D01*
X128525999Y-125016000D01*
X128935964Y-124934452D01*
X129322144Y-124774492D01*
X129669696Y-124542265D01*
X129965265Y-124246696D01*
X130197492Y-123899144D01*
X130357452Y-123512964D01*
X130439000Y-123102999D01*
X130439000Y-122685001D01*
X130357452Y-122275036D01*
X130197492Y-121888856D01*
X129965265Y-121541304D01*
X129669696Y-121245735D01*
X129322144Y-121013508D01*
X128935964Y-120853548D01*
X128525999Y-120772000D01*
X128108001Y-120772000D01*
X127698036Y-120853548D01*
X127311856Y-121013508D01*
X126964304Y-121245735D01*
X126668735Y-121541304D01*
X126436508Y-121888856D01*
X126276548Y-122275036D01*
X126195000Y-122685001D01*
X104546000Y-122685001D01*
X104546000Y-120554000D01*
X132791967Y-120554000D01*
X132791967Y-123194000D01*
X132804073Y-123316913D01*
X132839925Y-123435103D01*
X132898147Y-123544028D01*
X132976499Y-123639501D01*
X133071972Y-123717853D01*
X133180897Y-123776075D01*
X133299087Y-123811927D01*
X133422000Y-123824033D01*
X136062000Y-123824033D01*
X136184913Y-123811927D01*
X136303103Y-123776075D01*
X136412028Y-123717853D01*
X136507501Y-123639501D01*
X136585853Y-123544028D01*
X136644075Y-123435103D01*
X136679927Y-123316913D01*
X136692033Y-123194000D01*
X136692033Y-122685001D01*
X143495000Y-122685001D01*
X143495000Y-123102999D01*
X143576548Y-123512964D01*
X143736508Y-123899144D01*
X143968735Y-124246696D01*
X144264304Y-124542265D01*
X144611856Y-124774492D01*
X144998036Y-124934452D01*
X145408001Y-125016000D01*
X145825999Y-125016000D01*
X146235964Y-124934452D01*
X146622144Y-124774492D01*
X146969696Y-124542265D01*
X147265265Y-124246696D01*
X147497492Y-123899144D01*
X147657452Y-123512964D01*
X147739000Y-123102999D01*
X147739000Y-122975001D01*
X168425000Y-122975001D01*
X168425000Y-123392999D01*
X168506548Y-123802964D01*
X168666508Y-124189144D01*
X168898735Y-124536696D01*
X169194304Y-124832265D01*
X169541856Y-125064492D01*
X169928036Y-125224452D01*
X170338001Y-125306000D01*
X170755999Y-125306000D01*
X171165964Y-125224452D01*
X171552144Y-125064492D01*
X171899696Y-124832265D01*
X172195265Y-124536696D01*
X172427492Y-124189144D01*
X172587452Y-123802964D01*
X172669000Y-123392999D01*
X172669000Y-122975001D01*
X172587452Y-122565036D01*
X172427492Y-122178856D01*
X172195265Y-121831304D01*
X171899696Y-121535735D01*
X171552144Y-121303508D01*
X171165964Y-121143548D01*
X170755999Y-121062000D01*
X170338001Y-121062000D01*
X169928036Y-121143548D01*
X169541856Y-121303508D01*
X169194304Y-121535735D01*
X168898735Y-121831304D01*
X168666508Y-122178856D01*
X168506548Y-122565036D01*
X168425000Y-122975001D01*
X147739000Y-122975001D01*
X147739000Y-122685001D01*
X147657452Y-122275036D01*
X147497492Y-121888856D01*
X147265265Y-121541304D01*
X146969696Y-121245735D01*
X146622144Y-121013508D01*
X146235964Y-120853548D01*
X146049714Y-120816500D01*
X174984467Y-120816500D01*
X174984467Y-123531500D01*
X174996573Y-123654413D01*
X175032425Y-123772603D01*
X175090647Y-123881528D01*
X175168999Y-123977001D01*
X175264472Y-124055353D01*
X175373397Y-124113575D01*
X175491587Y-124149427D01*
X175614500Y-124161533D01*
X178329500Y-124161533D01*
X178452413Y-124149427D01*
X178570603Y-124113575D01*
X178679528Y-124055353D01*
X178775001Y-123977001D01*
X178853353Y-123881528D01*
X178911575Y-123772603D01*
X178947427Y-123654413D01*
X178959533Y-123531500D01*
X178959533Y-121978544D01*
X179432500Y-121978544D01*
X179432500Y-122369456D01*
X179508763Y-122752857D01*
X179658359Y-123114013D01*
X179875538Y-123439045D01*
X180151955Y-123715462D01*
X180476987Y-123932641D01*
X180838143Y-124082237D01*
X181221544Y-124158500D01*
X181612456Y-124158500D01*
X181995857Y-124082237D01*
X182357013Y-123932641D01*
X182682045Y-123715462D01*
X182958462Y-123439045D01*
X183175641Y-123114013D01*
X183325237Y-122752857D01*
X183401500Y-122369456D01*
X183401500Y-121978544D01*
X183877500Y-121978544D01*
X183877500Y-122369456D01*
X183953763Y-122752857D01*
X184103359Y-123114013D01*
X184320538Y-123439045D01*
X184596955Y-123715462D01*
X184921987Y-123932641D01*
X185283143Y-124082237D01*
X185666544Y-124158500D01*
X186057456Y-124158500D01*
X186440857Y-124082237D01*
X186802013Y-123932641D01*
X187127045Y-123715462D01*
X187403462Y-123439045D01*
X187620641Y-123114013D01*
X187770237Y-122752857D01*
X187846500Y-122369456D01*
X187846500Y-121978544D01*
X188327500Y-121978544D01*
X188327500Y-122369456D01*
X188403763Y-122752857D01*
X188553359Y-123114013D01*
X188770538Y-123439045D01*
X189046955Y-123715462D01*
X189371987Y-123932641D01*
X189733143Y-124082237D01*
X190116544Y-124158500D01*
X190507456Y-124158500D01*
X190890857Y-124082237D01*
X191252013Y-123932641D01*
X191577045Y-123715462D01*
X191853462Y-123439045D01*
X192070641Y-123114013D01*
X192220237Y-122752857D01*
X192296500Y-122369456D01*
X192296500Y-121978544D01*
X192772500Y-121978544D01*
X192772500Y-122369456D01*
X192848763Y-122752857D01*
X192998359Y-123114013D01*
X193215538Y-123439045D01*
X193491955Y-123715462D01*
X193816987Y-123932641D01*
X194178143Y-124082237D01*
X194561544Y-124158500D01*
X194952456Y-124158500D01*
X195335857Y-124082237D01*
X195697013Y-123932641D01*
X196022045Y-123715462D01*
X196298462Y-123439045D01*
X196515641Y-123114013D01*
X196665237Y-122752857D01*
X196741500Y-122369456D01*
X196741500Y-121978544D01*
X197217500Y-121978544D01*
X197217500Y-122369456D01*
X197293763Y-122752857D01*
X197443359Y-123114013D01*
X197660538Y-123439045D01*
X197936955Y-123715462D01*
X198261987Y-123932641D01*
X198623143Y-124082237D01*
X199006544Y-124158500D01*
X199397456Y-124158500D01*
X199780857Y-124082237D01*
X200142013Y-123932641D01*
X200467045Y-123715462D01*
X200743462Y-123439045D01*
X200960641Y-123114013D01*
X201018221Y-122975001D01*
X203505000Y-122975001D01*
X203505000Y-123392999D01*
X203586548Y-123802964D01*
X203746508Y-124189144D01*
X203978735Y-124536696D01*
X204274304Y-124832265D01*
X204621856Y-125064492D01*
X205008036Y-125224452D01*
X205418001Y-125306000D01*
X205835999Y-125306000D01*
X206245964Y-125224452D01*
X206632144Y-125064492D01*
X206979696Y-124832265D01*
X207275265Y-124536696D01*
X207507492Y-124189144D01*
X207667452Y-123802964D01*
X207749000Y-123392999D01*
X207749000Y-122975001D01*
X207667452Y-122565036D01*
X207507492Y-122178856D01*
X207275265Y-121831304D01*
X206979696Y-121535735D01*
X206632144Y-121303508D01*
X206245964Y-121143548D01*
X205835999Y-121062000D01*
X205418001Y-121062000D01*
X205008036Y-121143548D01*
X204621856Y-121303508D01*
X204274304Y-121535735D01*
X203978735Y-121831304D01*
X203746508Y-122178856D01*
X203586548Y-122565036D01*
X203505000Y-122975001D01*
X201018221Y-122975001D01*
X201110237Y-122752857D01*
X201186500Y-122369456D01*
X201186500Y-121978544D01*
X201110237Y-121595143D01*
X200960641Y-121233987D01*
X200743462Y-120908955D01*
X200467045Y-120632538D01*
X200142013Y-120415359D01*
X199780857Y-120265763D01*
X199397456Y-120189500D01*
X199006544Y-120189500D01*
X198623143Y-120265763D01*
X198261987Y-120415359D01*
X197936955Y-120632538D01*
X197660538Y-120908955D01*
X197443359Y-121233987D01*
X197293763Y-121595143D01*
X197217500Y-121978544D01*
X196741500Y-121978544D01*
X196665237Y-121595143D01*
X196515641Y-121233987D01*
X196298462Y-120908955D01*
X196022045Y-120632538D01*
X195697013Y-120415359D01*
X195335857Y-120265763D01*
X194952456Y-120189500D01*
X194561544Y-120189500D01*
X194178143Y-120265763D01*
X193816987Y-120415359D01*
X193491955Y-120632538D01*
X193215538Y-120908955D01*
X192998359Y-121233987D01*
X192848763Y-121595143D01*
X192772500Y-121978544D01*
X192296500Y-121978544D01*
X192220237Y-121595143D01*
X192070641Y-121233987D01*
X191853462Y-120908955D01*
X191577045Y-120632538D01*
X191252013Y-120415359D01*
X190890857Y-120265763D01*
X190507456Y-120189500D01*
X190116544Y-120189500D01*
X189733143Y-120265763D01*
X189371987Y-120415359D01*
X189046955Y-120632538D01*
X188770538Y-120908955D01*
X188553359Y-121233987D01*
X188403763Y-121595143D01*
X188327500Y-121978544D01*
X187846500Y-121978544D01*
X187770237Y-121595143D01*
X187620641Y-121233987D01*
X187403462Y-120908955D01*
X187127045Y-120632538D01*
X186802013Y-120415359D01*
X186440857Y-120265763D01*
X186057456Y-120189500D01*
X185666544Y-120189500D01*
X185283143Y-120265763D01*
X184921987Y-120415359D01*
X184596955Y-120632538D01*
X184320538Y-120908955D01*
X184103359Y-121233987D01*
X183953763Y-121595143D01*
X183877500Y-121978544D01*
X183401500Y-121978544D01*
X183325237Y-121595143D01*
X183175641Y-121233987D01*
X182958462Y-120908955D01*
X182682045Y-120632538D01*
X182357013Y-120415359D01*
X181995857Y-120265763D01*
X181612456Y-120189500D01*
X181221544Y-120189500D01*
X180838143Y-120265763D01*
X180476987Y-120415359D01*
X180151955Y-120632538D01*
X179875538Y-120908955D01*
X179658359Y-121233987D01*
X179508763Y-121595143D01*
X179432500Y-121978544D01*
X178959533Y-121978544D01*
X178959533Y-120816500D01*
X178947427Y-120693587D01*
X178911575Y-120575397D01*
X178853353Y-120466472D01*
X178775001Y-120370999D01*
X178679528Y-120292647D01*
X178570603Y-120234425D01*
X178452413Y-120198573D01*
X178329500Y-120186467D01*
X175614500Y-120186467D01*
X175491587Y-120198573D01*
X175373397Y-120234425D01*
X175264472Y-120292647D01*
X175168999Y-120370999D01*
X175090647Y-120466472D01*
X175032425Y-120575397D01*
X174996573Y-120693587D01*
X174984467Y-120816500D01*
X146049714Y-120816500D01*
X145825999Y-120772000D01*
X145408001Y-120772000D01*
X144998036Y-120853548D01*
X144611856Y-121013508D01*
X144264304Y-121245735D01*
X143968735Y-121541304D01*
X143736508Y-121888856D01*
X143576548Y-122275036D01*
X143495000Y-122685001D01*
X136692033Y-122685001D01*
X136692033Y-120554000D01*
X136679927Y-120431087D01*
X136644075Y-120312897D01*
X136585853Y-120203972D01*
X136507501Y-120108499D01*
X136412028Y-120030147D01*
X136303103Y-119971925D01*
X136184913Y-119936073D01*
X136062000Y-119923967D01*
X133422000Y-119923967D01*
X133299087Y-119936073D01*
X133180897Y-119971925D01*
X133071972Y-120030147D01*
X132976499Y-120108499D01*
X132898147Y-120203972D01*
X132839925Y-120312897D01*
X132804073Y-120431087D01*
X132791967Y-120554000D01*
X104546000Y-120554000D01*
X104546000Y-119898849D01*
X220673000Y-119898849D01*
X220673000Y-120101151D01*
X220712467Y-120299565D01*
X220789885Y-120486467D01*
X220902277Y-120654674D01*
X221045326Y-120797723D01*
X221213533Y-120910115D01*
X221400435Y-120987533D01*
X221598849Y-121027000D01*
X221801151Y-121027000D01*
X221999565Y-120987533D01*
X222186467Y-120910115D01*
X222354674Y-120797723D01*
X222497723Y-120654674D01*
X222610115Y-120486467D01*
X222687533Y-120299565D01*
X222727000Y-120101151D01*
X222727000Y-119898849D01*
X222687533Y-119700435D01*
X222610115Y-119513533D01*
X222497723Y-119345326D01*
X222354674Y-119202277D01*
X222186467Y-119089885D01*
X221999565Y-119012467D01*
X221801151Y-118973000D01*
X221598849Y-118973000D01*
X221400435Y-119012467D01*
X221213533Y-119089885D01*
X221045326Y-119202277D01*
X220902277Y-119345326D01*
X220789885Y-119513533D01*
X220712467Y-119700435D01*
X220673000Y-119898849D01*
X104546000Y-119898849D01*
X104546000Y-106000000D01*
X214761000Y-106000000D01*
X214761000Y-116000000D01*
X214763440Y-116024776D01*
X214770667Y-116048601D01*
X214782403Y-116070557D01*
X214798197Y-116089803D01*
X214817443Y-116105597D01*
X214839399Y-116117333D01*
X214863224Y-116124560D01*
X214888000Y-116127000D01*
X229112000Y-116127000D01*
X229136776Y-116124560D01*
X229160601Y-116117333D01*
X229182557Y-116105597D01*
X229201803Y-116089803D01*
X229217597Y-116070557D01*
X229229333Y-116048601D01*
X229236560Y-116024776D01*
X229239000Y-116000000D01*
X229239000Y-106000000D01*
X229236560Y-105975224D01*
X229229333Y-105951399D01*
X229217597Y-105929443D01*
X229201803Y-105910197D01*
X229182557Y-105894403D01*
X229160601Y-105882667D01*
X229136776Y-105875440D01*
X229112000Y-105873000D01*
X214888000Y-105873000D01*
X214863224Y-105875440D01*
X214839399Y-105882667D01*
X214817443Y-105894403D01*
X214798197Y-105910197D01*
X214782403Y-105929443D01*
X214770667Y-105951399D01*
X214763440Y-105975224D01*
X214761000Y-106000000D01*
X104546000Y-106000000D01*
X104546000Y-102006849D01*
X144261000Y-102006849D01*
X144261000Y-102209151D01*
X144300467Y-102407565D01*
X144377885Y-102594467D01*
X144490277Y-102762674D01*
X144633326Y-102905723D01*
X144801533Y-103018115D01*
X144988435Y-103095533D01*
X145186849Y-103135000D01*
X145389151Y-103135000D01*
X145587565Y-103095533D01*
X145774467Y-103018115D01*
X145942674Y-102905723D01*
X146085723Y-102762674D01*
X146198115Y-102594467D01*
X146275533Y-102407565D01*
X146315000Y-102209151D01*
X146315000Y-102006849D01*
X146304259Y-101952849D01*
X161961000Y-101952849D01*
X161961000Y-102155151D01*
X162000467Y-102353565D01*
X162077885Y-102540467D01*
X162190277Y-102708674D01*
X162333326Y-102851723D01*
X162501533Y-102964115D01*
X162688435Y-103041533D01*
X162886849Y-103081000D01*
X163089151Y-103081000D01*
X163287565Y-103041533D01*
X163474467Y-102964115D01*
X163642674Y-102851723D01*
X163785723Y-102708674D01*
X163898115Y-102540467D01*
X163975533Y-102353565D01*
X164015000Y-102155151D01*
X164015000Y-101954008D01*
X179739280Y-101954008D01*
X179739280Y-102156310D01*
X179778747Y-102354724D01*
X179856165Y-102541626D01*
X179968557Y-102709833D01*
X180111606Y-102852882D01*
X180279813Y-102965274D01*
X180466715Y-103042692D01*
X180665129Y-103082159D01*
X180867431Y-103082159D01*
X181065845Y-103042692D01*
X181252747Y-102965274D01*
X181420954Y-102852882D01*
X181564003Y-102709833D01*
X181676395Y-102541626D01*
X181753813Y-102354724D01*
X181793280Y-102156310D01*
X181793280Y-101962849D01*
X197504000Y-101962849D01*
X197504000Y-102165151D01*
X197543467Y-102363565D01*
X197620885Y-102550467D01*
X197733277Y-102718674D01*
X197876326Y-102861723D01*
X198044533Y-102974115D01*
X198231435Y-103051533D01*
X198429849Y-103091000D01*
X198632151Y-103091000D01*
X198830565Y-103051533D01*
X199017467Y-102974115D01*
X199185674Y-102861723D01*
X199328723Y-102718674D01*
X199441115Y-102550467D01*
X199518533Y-102363565D01*
X199558000Y-102165151D01*
X199558000Y-101962849D01*
X199518533Y-101764435D01*
X199441115Y-101577533D01*
X199328723Y-101409326D01*
X199185674Y-101266277D01*
X199017467Y-101153885D01*
X198830565Y-101076467D01*
X198632151Y-101037000D01*
X198429849Y-101037000D01*
X198231435Y-101076467D01*
X198044533Y-101153885D01*
X197876326Y-101266277D01*
X197733277Y-101409326D01*
X197620885Y-101577533D01*
X197543467Y-101764435D01*
X197504000Y-101962849D01*
X181793280Y-101962849D01*
X181793280Y-101954008D01*
X181753813Y-101755594D01*
X181676395Y-101568692D01*
X181564003Y-101400485D01*
X181420954Y-101257436D01*
X181252747Y-101145044D01*
X181065845Y-101067626D01*
X180867431Y-101028159D01*
X180665129Y-101028159D01*
X180466715Y-101067626D01*
X180279813Y-101145044D01*
X180111606Y-101257436D01*
X179968557Y-101400485D01*
X179856165Y-101568692D01*
X179778747Y-101755594D01*
X179739280Y-101954008D01*
X164015000Y-101954008D01*
X164015000Y-101952849D01*
X163975533Y-101754435D01*
X163898115Y-101567533D01*
X163785723Y-101399326D01*
X163642674Y-101256277D01*
X163474467Y-101143885D01*
X163287565Y-101066467D01*
X163089151Y-101027000D01*
X162886849Y-101027000D01*
X162688435Y-101066467D01*
X162501533Y-101143885D01*
X162333326Y-101256277D01*
X162190277Y-101399326D01*
X162077885Y-101567533D01*
X162000467Y-101754435D01*
X161961000Y-101952849D01*
X146304259Y-101952849D01*
X146275533Y-101808435D01*
X146198115Y-101621533D01*
X146085723Y-101453326D01*
X145942674Y-101310277D01*
X145774467Y-101197885D01*
X145587565Y-101120467D01*
X145389151Y-101081000D01*
X145186849Y-101081000D01*
X144988435Y-101120467D01*
X144801533Y-101197885D01*
X144633326Y-101310277D01*
X144490277Y-101453326D01*
X144377885Y-101621533D01*
X144300467Y-101808435D01*
X144261000Y-102006849D01*
X104546000Y-102006849D01*
X104546000Y-100536849D01*
X142309000Y-100536849D01*
X142309000Y-100739151D01*
X142348467Y-100937565D01*
X142425885Y-101124467D01*
X142538277Y-101292674D01*
X142681326Y-101435723D01*
X142849533Y-101548115D01*
X143036435Y-101625533D01*
X143234849Y-101665000D01*
X143437151Y-101665000D01*
X143635565Y-101625533D01*
X143822467Y-101548115D01*
X143990674Y-101435723D01*
X144133723Y-101292674D01*
X144246115Y-101124467D01*
X144323533Y-100937565D01*
X144363000Y-100739151D01*
X144363000Y-100536849D01*
X144352259Y-100482849D01*
X160009000Y-100482849D01*
X160009000Y-100685151D01*
X160048467Y-100883565D01*
X160125885Y-101070467D01*
X160238277Y-101238674D01*
X160381326Y-101381723D01*
X160549533Y-101494115D01*
X160736435Y-101571533D01*
X160934849Y-101611000D01*
X161137151Y-101611000D01*
X161335565Y-101571533D01*
X161522467Y-101494115D01*
X161690674Y-101381723D01*
X161833723Y-101238674D01*
X161946115Y-101070467D01*
X162023533Y-100883565D01*
X162063000Y-100685151D01*
X162063000Y-100484008D01*
X177787280Y-100484008D01*
X177787280Y-100686310D01*
X177826747Y-100884724D01*
X177904165Y-101071626D01*
X178016557Y-101239833D01*
X178159606Y-101382882D01*
X178327813Y-101495274D01*
X178514715Y-101572692D01*
X178713129Y-101612159D01*
X178915431Y-101612159D01*
X179113845Y-101572692D01*
X179300747Y-101495274D01*
X179468954Y-101382882D01*
X179612003Y-101239833D01*
X179724395Y-101071626D01*
X179801813Y-100884724D01*
X179841280Y-100686310D01*
X179841280Y-100492849D01*
X195552000Y-100492849D01*
X195552000Y-100695151D01*
X195591467Y-100893565D01*
X195668885Y-101080467D01*
X195781277Y-101248674D01*
X195924326Y-101391723D01*
X196092533Y-101504115D01*
X196279435Y-101581533D01*
X196477849Y-101621000D01*
X196680151Y-101621000D01*
X196878565Y-101581533D01*
X197065467Y-101504115D01*
X197233674Y-101391723D01*
X197376723Y-101248674D01*
X197489115Y-101080467D01*
X197566533Y-100893565D01*
X197606000Y-100695151D01*
X197606000Y-100492849D01*
X197566533Y-100294435D01*
X197489115Y-100107533D01*
X197376723Y-99939326D01*
X197233674Y-99796277D01*
X197065467Y-99683885D01*
X196878565Y-99606467D01*
X196680151Y-99567000D01*
X196477849Y-99567000D01*
X196279435Y-99606467D01*
X196092533Y-99683885D01*
X195924326Y-99796277D01*
X195781277Y-99939326D01*
X195668885Y-100107533D01*
X195591467Y-100294435D01*
X195552000Y-100492849D01*
X179841280Y-100492849D01*
X179841280Y-100484008D01*
X179801813Y-100285594D01*
X179724395Y-100098692D01*
X179612003Y-99930485D01*
X179468954Y-99787436D01*
X179300747Y-99675044D01*
X179113845Y-99597626D01*
X178915431Y-99558159D01*
X178713129Y-99558159D01*
X178514715Y-99597626D01*
X178327813Y-99675044D01*
X178159606Y-99787436D01*
X178016557Y-99930485D01*
X177904165Y-100098692D01*
X177826747Y-100285594D01*
X177787280Y-100484008D01*
X162063000Y-100484008D01*
X162063000Y-100482849D01*
X162023533Y-100284435D01*
X161946115Y-100097533D01*
X161833723Y-99929326D01*
X161690674Y-99786277D01*
X161522467Y-99673885D01*
X161335565Y-99596467D01*
X161137151Y-99557000D01*
X160934849Y-99557000D01*
X160736435Y-99596467D01*
X160549533Y-99673885D01*
X160381326Y-99786277D01*
X160238277Y-99929326D01*
X160125885Y-100097533D01*
X160048467Y-100284435D01*
X160009000Y-100482849D01*
X144352259Y-100482849D01*
X144323533Y-100338435D01*
X144246115Y-100151533D01*
X144133723Y-99983326D01*
X143990674Y-99840277D01*
X143822467Y-99727885D01*
X143635565Y-99650467D01*
X143437151Y-99611000D01*
X143234849Y-99611000D01*
X143036435Y-99650467D01*
X142849533Y-99727885D01*
X142681326Y-99840277D01*
X142538277Y-99983326D01*
X142425885Y-100151533D01*
X142348467Y-100338435D01*
X142309000Y-100536849D01*
X104546000Y-100536849D01*
X104546000Y-97758849D01*
X144661000Y-97758849D01*
X144661000Y-97961151D01*
X144700467Y-98159565D01*
X144777885Y-98346467D01*
X144890277Y-98514674D01*
X145033326Y-98657723D01*
X145201533Y-98770115D01*
X145388435Y-98847533D01*
X145586849Y-98887000D01*
X145789151Y-98887000D01*
X145987565Y-98847533D01*
X146174467Y-98770115D01*
X146342674Y-98657723D01*
X146485723Y-98514674D01*
X146598115Y-98346467D01*
X146675533Y-98159565D01*
X146715000Y-97961151D01*
X146715000Y-97758849D01*
X146704259Y-97704849D01*
X162361000Y-97704849D01*
X162361000Y-97907151D01*
X162400467Y-98105565D01*
X162477885Y-98292467D01*
X162590277Y-98460674D01*
X162733326Y-98603723D01*
X162901533Y-98716115D01*
X163088435Y-98793533D01*
X163286849Y-98833000D01*
X163489151Y-98833000D01*
X163687565Y-98793533D01*
X163874467Y-98716115D01*
X164042674Y-98603723D01*
X164185723Y-98460674D01*
X164298115Y-98292467D01*
X164375533Y-98105565D01*
X164415000Y-97907151D01*
X164415000Y-97706008D01*
X180139280Y-97706008D01*
X180139280Y-97908310D01*
X180178747Y-98106724D01*
X180256165Y-98293626D01*
X180368557Y-98461833D01*
X180511606Y-98604882D01*
X180679813Y-98717274D01*
X180866715Y-98794692D01*
X181065129Y-98834159D01*
X181267431Y-98834159D01*
X181465845Y-98794692D01*
X181652747Y-98717274D01*
X181820954Y-98604882D01*
X181964003Y-98461833D01*
X182076395Y-98293626D01*
X182153813Y-98106724D01*
X182193280Y-97908310D01*
X182193280Y-97714849D01*
X197904000Y-97714849D01*
X197904000Y-97917151D01*
X197943467Y-98115565D01*
X198020885Y-98302467D01*
X198133277Y-98470674D01*
X198276326Y-98613723D01*
X198444533Y-98726115D01*
X198631435Y-98803533D01*
X198829849Y-98843000D01*
X199032151Y-98843000D01*
X199230565Y-98803533D01*
X199417467Y-98726115D01*
X199585674Y-98613723D01*
X199728723Y-98470674D01*
X199841115Y-98302467D01*
X199918533Y-98115565D01*
X199958000Y-97917151D01*
X199958000Y-97714849D01*
X199918533Y-97516435D01*
X199841115Y-97329533D01*
X199728723Y-97161326D01*
X199585674Y-97018277D01*
X199417467Y-96905885D01*
X199230565Y-96828467D01*
X199032151Y-96789000D01*
X198829849Y-96789000D01*
X198631435Y-96828467D01*
X198444533Y-96905885D01*
X198276326Y-97018277D01*
X198133277Y-97161326D01*
X198020885Y-97329533D01*
X197943467Y-97516435D01*
X197904000Y-97714849D01*
X182193280Y-97714849D01*
X182193280Y-97706008D01*
X182153813Y-97507594D01*
X182076395Y-97320692D01*
X181964003Y-97152485D01*
X181820954Y-97009436D01*
X181652747Y-96897044D01*
X181465845Y-96819626D01*
X181267431Y-96780159D01*
X181065129Y-96780159D01*
X180866715Y-96819626D01*
X180679813Y-96897044D01*
X180511606Y-97009436D01*
X180368557Y-97152485D01*
X180256165Y-97320692D01*
X180178747Y-97507594D01*
X180139280Y-97706008D01*
X164415000Y-97706008D01*
X164415000Y-97704849D01*
X164375533Y-97506435D01*
X164298115Y-97319533D01*
X164185723Y-97151326D01*
X164042674Y-97008277D01*
X163874467Y-96895885D01*
X163687565Y-96818467D01*
X163489151Y-96779000D01*
X163286849Y-96779000D01*
X163088435Y-96818467D01*
X162901533Y-96895885D01*
X162733326Y-97008277D01*
X162590277Y-97151326D01*
X162477885Y-97319533D01*
X162400467Y-97506435D01*
X162361000Y-97704849D01*
X146704259Y-97704849D01*
X146675533Y-97560435D01*
X146598115Y-97373533D01*
X146485723Y-97205326D01*
X146342674Y-97062277D01*
X146174467Y-96949885D01*
X145987565Y-96872467D01*
X145789151Y-96833000D01*
X145586849Y-96833000D01*
X145388435Y-96872467D01*
X145201533Y-96949885D01*
X145033326Y-97062277D01*
X144890277Y-97205326D01*
X144777885Y-97373533D01*
X144700467Y-97560435D01*
X144661000Y-97758849D01*
X104546000Y-97758849D01*
X104546000Y-95774839D01*
X142309000Y-95774839D01*
X142309000Y-95977141D01*
X142348467Y-96175555D01*
X142425885Y-96362457D01*
X142538277Y-96530664D01*
X142681326Y-96673713D01*
X142849533Y-96786105D01*
X143036435Y-96863523D01*
X143234849Y-96902990D01*
X143437151Y-96902990D01*
X143635565Y-96863523D01*
X143822467Y-96786105D01*
X143990674Y-96673713D01*
X144133723Y-96530664D01*
X144246115Y-96362457D01*
X144323533Y-96175555D01*
X144363000Y-95977141D01*
X144363000Y-95774839D01*
X144352259Y-95720839D01*
X160009000Y-95720839D01*
X160009000Y-95923141D01*
X160048467Y-96121555D01*
X160125885Y-96308457D01*
X160238277Y-96476664D01*
X160381326Y-96619713D01*
X160549533Y-96732105D01*
X160736435Y-96809523D01*
X160934849Y-96848990D01*
X161137151Y-96848990D01*
X161335565Y-96809523D01*
X161522467Y-96732105D01*
X161690674Y-96619713D01*
X161833723Y-96476664D01*
X161946115Y-96308457D01*
X162023533Y-96121555D01*
X162063000Y-95923141D01*
X162063000Y-95721998D01*
X177787280Y-95721998D01*
X177787280Y-95924300D01*
X177826747Y-96122714D01*
X177904165Y-96309616D01*
X178016557Y-96477823D01*
X178159606Y-96620872D01*
X178327813Y-96733264D01*
X178514715Y-96810682D01*
X178713129Y-96850149D01*
X178915431Y-96850149D01*
X179113845Y-96810682D01*
X179300747Y-96733264D01*
X179468954Y-96620872D01*
X179612003Y-96477823D01*
X179724395Y-96309616D01*
X179801813Y-96122714D01*
X179841280Y-95924300D01*
X179841280Y-95730839D01*
X195552000Y-95730839D01*
X195552000Y-95933141D01*
X195591467Y-96131555D01*
X195668885Y-96318457D01*
X195781277Y-96486664D01*
X195924326Y-96629713D01*
X196092533Y-96742105D01*
X196279435Y-96819523D01*
X196477849Y-96858990D01*
X196680151Y-96858990D01*
X196878565Y-96819523D01*
X197065467Y-96742105D01*
X197233674Y-96629713D01*
X197376723Y-96486664D01*
X197489115Y-96318457D01*
X197566533Y-96131555D01*
X197606000Y-95933141D01*
X197606000Y-95730839D01*
X197566533Y-95532425D01*
X197489115Y-95345523D01*
X197376723Y-95177316D01*
X197233674Y-95034267D01*
X197065467Y-94921875D01*
X196878565Y-94844457D01*
X196680151Y-94804990D01*
X196477849Y-94804990D01*
X196279435Y-94844457D01*
X196092533Y-94921875D01*
X195924326Y-95034267D01*
X195781277Y-95177316D01*
X195668885Y-95345523D01*
X195591467Y-95532425D01*
X195552000Y-95730839D01*
X179841280Y-95730839D01*
X179841280Y-95721998D01*
X179801813Y-95523584D01*
X179724395Y-95336682D01*
X179612003Y-95168475D01*
X179468954Y-95025426D01*
X179300747Y-94913034D01*
X179113845Y-94835616D01*
X178915431Y-94796149D01*
X178713129Y-94796149D01*
X178514715Y-94835616D01*
X178327813Y-94913034D01*
X178159606Y-95025426D01*
X178016557Y-95168475D01*
X177904165Y-95336682D01*
X177826747Y-95523584D01*
X177787280Y-95721998D01*
X162063000Y-95721998D01*
X162063000Y-95720839D01*
X162023533Y-95522425D01*
X161946115Y-95335523D01*
X161833723Y-95167316D01*
X161690674Y-95024267D01*
X161522467Y-94911875D01*
X161335565Y-94834457D01*
X161137151Y-94794990D01*
X160934849Y-94794990D01*
X160736435Y-94834457D01*
X160549533Y-94911875D01*
X160381326Y-95024267D01*
X160238277Y-95167316D01*
X160125885Y-95335523D01*
X160048467Y-95522425D01*
X160009000Y-95720839D01*
X144352259Y-95720839D01*
X144323533Y-95576425D01*
X144246115Y-95389523D01*
X144133723Y-95221316D01*
X143990674Y-95078267D01*
X143822467Y-94965875D01*
X143635565Y-94888457D01*
X143437151Y-94848990D01*
X143234849Y-94848990D01*
X143036435Y-94888457D01*
X142849533Y-94965875D01*
X142681326Y-95078267D01*
X142538277Y-95221316D01*
X142425885Y-95389523D01*
X142348467Y-95576425D01*
X142309000Y-95774839D01*
X104546000Y-95774839D01*
X104546000Y-94581755D01*
X215035000Y-94581755D01*
X215035000Y-94902245D01*
X215097525Y-95216578D01*
X215220172Y-95512673D01*
X215398227Y-95779152D01*
X215624848Y-96005773D01*
X215891327Y-96183828D01*
X216187422Y-96306475D01*
X216501755Y-96369000D01*
X216822245Y-96369000D01*
X217136578Y-96306475D01*
X217432673Y-96183828D01*
X217699152Y-96005773D01*
X217925773Y-95779152D01*
X218103828Y-95512673D01*
X218226475Y-95216578D01*
X218289000Y-94902245D01*
X218289000Y-94581755D01*
X218226475Y-94267422D01*
X218103828Y-93971327D01*
X217950598Y-93742000D01*
X220111967Y-93742000D01*
X220111967Y-95742000D01*
X220124073Y-95864913D01*
X220159925Y-95983103D01*
X220218147Y-96092028D01*
X220296499Y-96187501D01*
X220391972Y-96265853D01*
X220500897Y-96324075D01*
X220619087Y-96359927D01*
X220742000Y-96372033D01*
X222742000Y-96372033D01*
X222864913Y-96359927D01*
X222983103Y-96324075D01*
X223092028Y-96265853D01*
X223187501Y-96187501D01*
X223265853Y-96092028D01*
X223324075Y-95983103D01*
X223359927Y-95864913D01*
X223372033Y-95742000D01*
X223372033Y-93742000D01*
X223359927Y-93619087D01*
X223324075Y-93500897D01*
X223265853Y-93391972D01*
X223187501Y-93296499D01*
X223092028Y-93218147D01*
X222983103Y-93159925D01*
X222864913Y-93124073D01*
X222742000Y-93111967D01*
X220742000Y-93111967D01*
X220619087Y-93124073D01*
X220500897Y-93159925D01*
X220391972Y-93218147D01*
X220296499Y-93296499D01*
X220218147Y-93391972D01*
X220159925Y-93500897D01*
X220124073Y-93619087D01*
X220111967Y-93742000D01*
X217950598Y-93742000D01*
X217925773Y-93704848D01*
X217699152Y-93478227D01*
X217432673Y-93300172D01*
X217136578Y-93177525D01*
X216822245Y-93115000D01*
X216501755Y-93115000D01*
X216187422Y-93177525D01*
X215891327Y-93300172D01*
X215624848Y-93478227D01*
X215398227Y-93704848D01*
X215220172Y-93971327D01*
X215097525Y-94267422D01*
X215035000Y-94581755D01*
X104546000Y-94581755D01*
X104546000Y-92535849D01*
X142309000Y-92535849D01*
X142309000Y-92738151D01*
X142348467Y-92936565D01*
X142425885Y-93123467D01*
X142538277Y-93291674D01*
X142681326Y-93434723D01*
X142849533Y-93547115D01*
X143036435Y-93624533D01*
X143234849Y-93664000D01*
X143437151Y-93664000D01*
X143635565Y-93624533D01*
X143822467Y-93547115D01*
X143990674Y-93434723D01*
X144133723Y-93291674D01*
X144246115Y-93123467D01*
X144323533Y-92936565D01*
X144363000Y-92738151D01*
X144363000Y-92678849D01*
X145611000Y-92678849D01*
X145611000Y-92881151D01*
X145650467Y-93079565D01*
X145727885Y-93266467D01*
X145840277Y-93434674D01*
X145983326Y-93577723D01*
X146151533Y-93690115D01*
X146338435Y-93767533D01*
X146536849Y-93807000D01*
X146739151Y-93807000D01*
X146937565Y-93767533D01*
X147124467Y-93690115D01*
X147292674Y-93577723D01*
X147435723Y-93434674D01*
X147548115Y-93266467D01*
X147625533Y-93079565D01*
X147665000Y-92881151D01*
X147665000Y-92678849D01*
X147625815Y-92481849D01*
X160009000Y-92481849D01*
X160009000Y-92684151D01*
X160048467Y-92882565D01*
X160125885Y-93069467D01*
X160238277Y-93237674D01*
X160381326Y-93380723D01*
X160549533Y-93493115D01*
X160736435Y-93570533D01*
X160934849Y-93610000D01*
X161137151Y-93610000D01*
X161335565Y-93570533D01*
X161522467Y-93493115D01*
X161690674Y-93380723D01*
X161833723Y-93237674D01*
X161946115Y-93069467D01*
X162023533Y-92882565D01*
X162063000Y-92684151D01*
X162063000Y-92624849D01*
X163311000Y-92624849D01*
X163311000Y-92827151D01*
X163350467Y-93025565D01*
X163427885Y-93212467D01*
X163540277Y-93380674D01*
X163683326Y-93523723D01*
X163851533Y-93636115D01*
X164038435Y-93713533D01*
X164236849Y-93753000D01*
X164439151Y-93753000D01*
X164637565Y-93713533D01*
X164824467Y-93636115D01*
X164992674Y-93523723D01*
X165135723Y-93380674D01*
X165248115Y-93212467D01*
X165325533Y-93025565D01*
X165365000Y-92827151D01*
X165365000Y-92624849D01*
X165336787Y-92483008D01*
X177787280Y-92483008D01*
X177787280Y-92685310D01*
X177826747Y-92883724D01*
X177904165Y-93070626D01*
X178016557Y-93238833D01*
X178159606Y-93381882D01*
X178327813Y-93494274D01*
X178514715Y-93571692D01*
X178713129Y-93611159D01*
X178915431Y-93611159D01*
X179113845Y-93571692D01*
X179300747Y-93494274D01*
X179468954Y-93381882D01*
X179612003Y-93238833D01*
X179724395Y-93070626D01*
X179801813Y-92883724D01*
X179841280Y-92685310D01*
X179841280Y-92626008D01*
X181089280Y-92626008D01*
X181089280Y-92828310D01*
X181128747Y-93026724D01*
X181206165Y-93213626D01*
X181318557Y-93381833D01*
X181461606Y-93524882D01*
X181629813Y-93637274D01*
X181816715Y-93714692D01*
X182015129Y-93754159D01*
X182217431Y-93754159D01*
X182415845Y-93714692D01*
X182602747Y-93637274D01*
X182770954Y-93524882D01*
X182914003Y-93381833D01*
X183026395Y-93213626D01*
X183103813Y-93026724D01*
X183143280Y-92828310D01*
X183143280Y-92626008D01*
X183116595Y-92491849D01*
X195552000Y-92491849D01*
X195552000Y-92694151D01*
X195591467Y-92892565D01*
X195668885Y-93079467D01*
X195781277Y-93247674D01*
X195924326Y-93390723D01*
X196092533Y-93503115D01*
X196279435Y-93580533D01*
X196477849Y-93620000D01*
X196680151Y-93620000D01*
X196878565Y-93580533D01*
X197065467Y-93503115D01*
X197233674Y-93390723D01*
X197376723Y-93247674D01*
X197489115Y-93079467D01*
X197566533Y-92892565D01*
X197606000Y-92694151D01*
X197606000Y-92634849D01*
X198854000Y-92634849D01*
X198854000Y-92837151D01*
X198893467Y-93035565D01*
X198970885Y-93222467D01*
X199083277Y-93390674D01*
X199226326Y-93533723D01*
X199394533Y-93646115D01*
X199581435Y-93723533D01*
X199779849Y-93763000D01*
X199982151Y-93763000D01*
X200180565Y-93723533D01*
X200367467Y-93646115D01*
X200535674Y-93533723D01*
X200678723Y-93390674D01*
X200791115Y-93222467D01*
X200868533Y-93035565D01*
X200908000Y-92837151D01*
X200908000Y-92634849D01*
X200868533Y-92436435D01*
X200791115Y-92249533D01*
X200678723Y-92081326D01*
X200535674Y-91938277D01*
X200367467Y-91825885D01*
X200180565Y-91748467D01*
X199982151Y-91709000D01*
X199779849Y-91709000D01*
X199581435Y-91748467D01*
X199394533Y-91825885D01*
X199226326Y-91938277D01*
X199083277Y-92081326D01*
X198970885Y-92249533D01*
X198893467Y-92436435D01*
X198854000Y-92634849D01*
X197606000Y-92634849D01*
X197606000Y-92491849D01*
X197566533Y-92293435D01*
X197489115Y-92106533D01*
X197376723Y-91938326D01*
X197233674Y-91795277D01*
X197065467Y-91682885D01*
X196878565Y-91605467D01*
X196680151Y-91566000D01*
X196477849Y-91566000D01*
X196279435Y-91605467D01*
X196092533Y-91682885D01*
X195924326Y-91795277D01*
X195781277Y-91938326D01*
X195668885Y-92106533D01*
X195591467Y-92293435D01*
X195552000Y-92491849D01*
X183116595Y-92491849D01*
X183103813Y-92427594D01*
X183026395Y-92240692D01*
X182914003Y-92072485D01*
X182770954Y-91929436D01*
X182602747Y-91817044D01*
X182415845Y-91739626D01*
X182217431Y-91700159D01*
X182015129Y-91700159D01*
X181816715Y-91739626D01*
X181629813Y-91817044D01*
X181461606Y-91929436D01*
X181318557Y-92072485D01*
X181206165Y-92240692D01*
X181128747Y-92427594D01*
X181089280Y-92626008D01*
X179841280Y-92626008D01*
X179841280Y-92483008D01*
X179801813Y-92284594D01*
X179724395Y-92097692D01*
X179612003Y-91929485D01*
X179468954Y-91786436D01*
X179300747Y-91674044D01*
X179113845Y-91596626D01*
X178915431Y-91557159D01*
X178713129Y-91557159D01*
X178514715Y-91596626D01*
X178327813Y-91674044D01*
X178159606Y-91786436D01*
X178016557Y-91929485D01*
X177904165Y-92097692D01*
X177826747Y-92284594D01*
X177787280Y-92483008D01*
X165336787Y-92483008D01*
X165325533Y-92426435D01*
X165248115Y-92239533D01*
X165135723Y-92071326D01*
X164992674Y-91928277D01*
X164824467Y-91815885D01*
X164637565Y-91738467D01*
X164439151Y-91699000D01*
X164236849Y-91699000D01*
X164038435Y-91738467D01*
X163851533Y-91815885D01*
X163683326Y-91928277D01*
X163540277Y-92071326D01*
X163427885Y-92239533D01*
X163350467Y-92426435D01*
X163311000Y-92624849D01*
X162063000Y-92624849D01*
X162063000Y-92481849D01*
X162023533Y-92283435D01*
X161946115Y-92096533D01*
X161833723Y-91928326D01*
X161690674Y-91785277D01*
X161522467Y-91672885D01*
X161335565Y-91595467D01*
X161137151Y-91556000D01*
X160934849Y-91556000D01*
X160736435Y-91595467D01*
X160549533Y-91672885D01*
X160381326Y-91785277D01*
X160238277Y-91928326D01*
X160125885Y-92096533D01*
X160048467Y-92283435D01*
X160009000Y-92481849D01*
X147625815Y-92481849D01*
X147625533Y-92480435D01*
X147548115Y-92293533D01*
X147435723Y-92125326D01*
X147292674Y-91982277D01*
X147124467Y-91869885D01*
X146937565Y-91792467D01*
X146739151Y-91753000D01*
X146536849Y-91753000D01*
X146338435Y-91792467D01*
X146151533Y-91869885D01*
X145983326Y-91982277D01*
X145840277Y-92125326D01*
X145727885Y-92293533D01*
X145650467Y-92480435D01*
X145611000Y-92678849D01*
X144363000Y-92678849D01*
X144363000Y-92535849D01*
X144323533Y-92337435D01*
X144246115Y-92150533D01*
X144133723Y-91982326D01*
X143990674Y-91839277D01*
X143822467Y-91726885D01*
X143635565Y-91649467D01*
X143437151Y-91610000D01*
X143234849Y-91610000D01*
X143036435Y-91649467D01*
X142849533Y-91726885D01*
X142681326Y-91839277D01*
X142538277Y-91982326D01*
X142425885Y-92150533D01*
X142348467Y-92337435D01*
X142309000Y-92535849D01*
X104546000Y-92535849D01*
X104546000Y-87147849D01*
X218559000Y-87147849D01*
X218559000Y-87350151D01*
X218598467Y-87548565D01*
X218675885Y-87735467D01*
X218775131Y-87884000D01*
X218675885Y-88032533D01*
X218598467Y-88219435D01*
X218559000Y-88417849D01*
X218559000Y-88620151D01*
X218598467Y-88818565D01*
X218675885Y-89005467D01*
X218788277Y-89173674D01*
X218931326Y-89316723D01*
X219099533Y-89429115D01*
X219286435Y-89506533D01*
X219484849Y-89546000D01*
X219687151Y-89546000D01*
X219885565Y-89506533D01*
X220072467Y-89429115D01*
X220240674Y-89316723D01*
X220383723Y-89173674D01*
X220496115Y-89005467D01*
X220573533Y-88818565D01*
X220613000Y-88620151D01*
X220613000Y-88417849D01*
X220573533Y-88219435D01*
X220496115Y-88032533D01*
X220396869Y-87884000D01*
X220496115Y-87735467D01*
X220573533Y-87548565D01*
X220613000Y-87350151D01*
X220613000Y-87147849D01*
X220573533Y-86949435D01*
X220496115Y-86762533D01*
X220383723Y-86594326D01*
X220240674Y-86451277D01*
X220072467Y-86338885D01*
X219885565Y-86261467D01*
X219687151Y-86222000D01*
X219484849Y-86222000D01*
X219286435Y-86261467D01*
X219099533Y-86338885D01*
X218931326Y-86451277D01*
X218788277Y-86594326D01*
X218675885Y-86762533D01*
X218598467Y-86949435D01*
X218559000Y-87147849D01*
X104546000Y-87147849D01*
X104546000Y-84988849D01*
X142229000Y-84988849D01*
X142229000Y-85191151D01*
X142268467Y-85389565D01*
X142345885Y-85576467D01*
X142458277Y-85744674D01*
X142601326Y-85887723D01*
X142769533Y-86000115D01*
X142956435Y-86077533D01*
X143154849Y-86117000D01*
X143357151Y-86117000D01*
X143555565Y-86077533D01*
X143742467Y-86000115D01*
X143793387Y-85966091D01*
X144754029Y-85966091D01*
X144754029Y-86168393D01*
X144793496Y-86366807D01*
X144870914Y-86553709D01*
X144983306Y-86721916D01*
X145126355Y-86864965D01*
X145294562Y-86977357D01*
X145481464Y-87054775D01*
X145679878Y-87094242D01*
X145882180Y-87094242D01*
X146080594Y-87054775D01*
X146267496Y-86977357D01*
X146435703Y-86864965D01*
X146578752Y-86721916D01*
X146691144Y-86553709D01*
X146768562Y-86366807D01*
X146808029Y-86168393D01*
X146808029Y-85966091D01*
X146794889Y-85900029D01*
X174995000Y-85900029D01*
X174995000Y-86102331D01*
X175034467Y-86300745D01*
X175111885Y-86487647D01*
X175224277Y-86655854D01*
X175367326Y-86798903D01*
X175535533Y-86911295D01*
X175722435Y-86988713D01*
X175920849Y-87028180D01*
X176123151Y-87028180D01*
X176321565Y-86988713D01*
X176508467Y-86911295D01*
X176676674Y-86798903D01*
X176819723Y-86655854D01*
X176932115Y-86487647D01*
X177009533Y-86300745D01*
X177049000Y-86102331D01*
X177049000Y-85900029D01*
X177009533Y-85701615D01*
X176932115Y-85514713D01*
X176819723Y-85346506D01*
X176676674Y-85203457D01*
X176508467Y-85091065D01*
X176321565Y-85013647D01*
X176123151Y-84974180D01*
X175920849Y-84974180D01*
X175722435Y-85013647D01*
X175535533Y-85091065D01*
X175367326Y-85203457D01*
X175224277Y-85346506D01*
X175111885Y-85514713D01*
X175034467Y-85701615D01*
X174995000Y-85900029D01*
X146794889Y-85900029D01*
X146768562Y-85767677D01*
X146691144Y-85580775D01*
X146578752Y-85412568D01*
X146435703Y-85269519D01*
X146267496Y-85157127D01*
X146080594Y-85079709D01*
X145882180Y-85040242D01*
X145679878Y-85040242D01*
X145481464Y-85079709D01*
X145294562Y-85157127D01*
X145126355Y-85269519D01*
X144983306Y-85412568D01*
X144870914Y-85580775D01*
X144793496Y-85767677D01*
X144754029Y-85966091D01*
X143793387Y-85966091D01*
X143910674Y-85887723D01*
X144053723Y-85744674D01*
X144166115Y-85576467D01*
X144243533Y-85389565D01*
X144283000Y-85191151D01*
X144283000Y-84988849D01*
X144245008Y-84797849D01*
X203697000Y-84797849D01*
X203697000Y-85000151D01*
X203736467Y-85198565D01*
X203813885Y-85385467D01*
X203926277Y-85553674D01*
X204069326Y-85696723D01*
X204237533Y-85809115D01*
X204424435Y-85886533D01*
X204622849Y-85926000D01*
X204825151Y-85926000D01*
X205023565Y-85886533D01*
X205210467Y-85809115D01*
X205378674Y-85696723D01*
X205521723Y-85553674D01*
X205634115Y-85385467D01*
X205711533Y-85198565D01*
X205751000Y-85000151D01*
X205751000Y-84797849D01*
X205711533Y-84599435D01*
X205634115Y-84412533D01*
X205521723Y-84244326D01*
X205378674Y-84101277D01*
X205210467Y-83988885D01*
X205023565Y-83911467D01*
X204825151Y-83872000D01*
X204622849Y-83872000D01*
X204424435Y-83911467D01*
X204237533Y-83988885D01*
X204069326Y-84101277D01*
X203926277Y-84244326D01*
X203813885Y-84412533D01*
X203736467Y-84599435D01*
X203697000Y-84797849D01*
X144245008Y-84797849D01*
X144243533Y-84790435D01*
X144166115Y-84603533D01*
X144053723Y-84435326D01*
X143910674Y-84292277D01*
X143742467Y-84179885D01*
X143555565Y-84102467D01*
X143357151Y-84063000D01*
X143154849Y-84063000D01*
X142956435Y-84102467D01*
X142769533Y-84179885D01*
X142601326Y-84292277D01*
X142458277Y-84435326D01*
X142345885Y-84603533D01*
X142268467Y-84790435D01*
X142229000Y-84988849D01*
X104546000Y-84988849D01*
X104546000Y-78906000D01*
X149141967Y-78906000D01*
X149141967Y-80606000D01*
X149154073Y-80728913D01*
X149189925Y-80847103D01*
X149248147Y-80956028D01*
X149326499Y-81051501D01*
X149421972Y-81129853D01*
X149530897Y-81188075D01*
X149615475Y-81213731D01*
X149474739Y-81354467D01*
X149313099Y-81596378D01*
X149201760Y-81865175D01*
X149145000Y-82150528D01*
X149145000Y-82441472D01*
X149201760Y-82726825D01*
X149313099Y-82995622D01*
X149474739Y-83237533D01*
X149680467Y-83443261D01*
X149922378Y-83604901D01*
X150191175Y-83716240D01*
X150476528Y-83773000D01*
X150767472Y-83773000D01*
X151052825Y-83716240D01*
X151321622Y-83604901D01*
X151563533Y-83443261D01*
X151769261Y-83237533D01*
X151930901Y-82995622D01*
X151999566Y-82829849D01*
X154675000Y-82829849D01*
X154675000Y-83032151D01*
X154714467Y-83230565D01*
X154791885Y-83417467D01*
X154904277Y-83585674D01*
X155047326Y-83728723D01*
X155215533Y-83841115D01*
X155402435Y-83918533D01*
X155600849Y-83958000D01*
X155803151Y-83958000D01*
X156001565Y-83918533D01*
X156188467Y-83841115D01*
X156356674Y-83728723D01*
X156499723Y-83585674D01*
X156612115Y-83417467D01*
X156689533Y-83230565D01*
X156729000Y-83032151D01*
X156729000Y-82898849D01*
X163973000Y-82898849D01*
X163973000Y-83101151D01*
X164012467Y-83299565D01*
X164089885Y-83486467D01*
X164202277Y-83654674D01*
X164345326Y-83797723D01*
X164513533Y-83910115D01*
X164700435Y-83987533D01*
X164898849Y-84027000D01*
X165101151Y-84027000D01*
X165299565Y-83987533D01*
X165486467Y-83910115D01*
X165654674Y-83797723D01*
X165797723Y-83654674D01*
X165910115Y-83486467D01*
X165987533Y-83299565D01*
X166000000Y-83236889D01*
X166012467Y-83299565D01*
X166089885Y-83486467D01*
X166202277Y-83654674D01*
X166345326Y-83797723D01*
X166513533Y-83910115D01*
X166700435Y-83987533D01*
X166898849Y-84027000D01*
X167101151Y-84027000D01*
X167299565Y-83987533D01*
X167486467Y-83910115D01*
X167654674Y-83797723D01*
X167797723Y-83654674D01*
X167910115Y-83486467D01*
X167987533Y-83299565D01*
X168017970Y-83146546D01*
X171249303Y-83146546D01*
X171249303Y-83348848D01*
X171288770Y-83547262D01*
X171366188Y-83734164D01*
X171478580Y-83902371D01*
X171621629Y-84045420D01*
X171789836Y-84157812D01*
X171976738Y-84235230D01*
X172175152Y-84274697D01*
X172377454Y-84274697D01*
X172575868Y-84235230D01*
X172762770Y-84157812D01*
X172930977Y-84045420D01*
X173074026Y-83902371D01*
X173186418Y-83734164D01*
X173263836Y-83547262D01*
X173303303Y-83348848D01*
X173303303Y-83146546D01*
X173263836Y-82948132D01*
X173186418Y-82761230D01*
X173074026Y-82593023D01*
X172930977Y-82449974D01*
X172762770Y-82337582D01*
X172575868Y-82260164D01*
X172377454Y-82220697D01*
X172175152Y-82220697D01*
X171976738Y-82260164D01*
X171789836Y-82337582D01*
X171621629Y-82449974D01*
X171478580Y-82593023D01*
X171366188Y-82761230D01*
X171288770Y-82948132D01*
X171249303Y-83146546D01*
X168017970Y-83146546D01*
X168027000Y-83101151D01*
X168027000Y-82898849D01*
X167987533Y-82700435D01*
X167910115Y-82513533D01*
X167797723Y-82345326D01*
X167654674Y-82202277D01*
X167486467Y-82089885D01*
X167299565Y-82012467D01*
X167101151Y-81973000D01*
X166898849Y-81973000D01*
X166700435Y-82012467D01*
X166513533Y-82089885D01*
X166345326Y-82202277D01*
X166202277Y-82345326D01*
X166089885Y-82513533D01*
X166012467Y-82700435D01*
X166000000Y-82763111D01*
X165987533Y-82700435D01*
X165910115Y-82513533D01*
X165797723Y-82345326D01*
X165654674Y-82202277D01*
X165486467Y-82089885D01*
X165299565Y-82012467D01*
X165101151Y-81973000D01*
X164898849Y-81973000D01*
X164700435Y-82012467D01*
X164513533Y-82089885D01*
X164345326Y-82202277D01*
X164202277Y-82345326D01*
X164089885Y-82513533D01*
X164012467Y-82700435D01*
X163973000Y-82898849D01*
X156729000Y-82898849D01*
X156729000Y-82829849D01*
X156689533Y-82631435D01*
X156612115Y-82444533D01*
X156499723Y-82276326D01*
X156356674Y-82133277D01*
X156188467Y-82020885D01*
X156001565Y-81943467D01*
X155803151Y-81904000D01*
X155600849Y-81904000D01*
X155402435Y-81943467D01*
X155215533Y-82020885D01*
X155047326Y-82133277D01*
X154904277Y-82276326D01*
X154791885Y-82444533D01*
X154714467Y-82631435D01*
X154675000Y-82829849D01*
X151999566Y-82829849D01*
X152042240Y-82726825D01*
X152099000Y-82441472D01*
X152099000Y-82150528D01*
X152042240Y-81865175D01*
X151930901Y-81596378D01*
X151769261Y-81354467D01*
X151628525Y-81213731D01*
X151713103Y-81188075D01*
X151822028Y-81129853D01*
X151917501Y-81051501D01*
X151995853Y-80956028D01*
X152054075Y-80847103D01*
X152089927Y-80728913D01*
X152102033Y-80606000D01*
X152102033Y-79019849D01*
X154675000Y-79019849D01*
X154675000Y-79222151D01*
X154714467Y-79420565D01*
X154791885Y-79607467D01*
X154904277Y-79775674D01*
X155047326Y-79918723D01*
X155215533Y-80031115D01*
X155402435Y-80108533D01*
X155600849Y-80148000D01*
X155803151Y-80148000D01*
X156001565Y-80108533D01*
X156188467Y-80031115D01*
X156356674Y-79918723D01*
X156499723Y-79775674D01*
X156612115Y-79607467D01*
X156689533Y-79420565D01*
X156729000Y-79222151D01*
X156729000Y-79019849D01*
X156689533Y-78821435D01*
X156612115Y-78634533D01*
X156499723Y-78466326D01*
X156356674Y-78323277D01*
X156188467Y-78210885D01*
X156001565Y-78133467D01*
X155803151Y-78094000D01*
X155600849Y-78094000D01*
X155402435Y-78133467D01*
X155215533Y-78210885D01*
X155047326Y-78323277D01*
X154904277Y-78466326D01*
X154791885Y-78634533D01*
X154714467Y-78821435D01*
X154675000Y-79019849D01*
X152102033Y-79019849D01*
X152102033Y-78906000D01*
X152089927Y-78783087D01*
X152054075Y-78664897D01*
X151995853Y-78555972D01*
X151917501Y-78460499D01*
X151822028Y-78382147D01*
X151713103Y-78323925D01*
X151594913Y-78288073D01*
X151472000Y-78275967D01*
X149772000Y-78275967D01*
X149649087Y-78288073D01*
X149530897Y-78323925D01*
X149421972Y-78382147D01*
X149326499Y-78460499D01*
X149248147Y-78555972D01*
X149189925Y-78664897D01*
X149154073Y-78783087D01*
X149141967Y-78906000D01*
X104546000Y-78906000D01*
X104546000Y-75898261D01*
X168133369Y-75898261D01*
X168133369Y-76189205D01*
X168190129Y-76474558D01*
X168301468Y-76743355D01*
X168463108Y-76985266D01*
X168668836Y-77190994D01*
X168910747Y-77352634D01*
X169179544Y-77463973D01*
X169464897Y-77520733D01*
X169755841Y-77520733D01*
X169972521Y-77477633D01*
X169929421Y-77694313D01*
X169929421Y-77985257D01*
X169986181Y-78270610D01*
X170097520Y-78539407D01*
X170259160Y-78781318D01*
X170464888Y-78987046D01*
X170706799Y-79148686D01*
X170975596Y-79260025D01*
X171260949Y-79316785D01*
X171551893Y-79316785D01*
X171768572Y-79273685D01*
X171725472Y-79490364D01*
X171725472Y-79781308D01*
X171782232Y-80066661D01*
X171893571Y-80335458D01*
X172055211Y-80577369D01*
X172260939Y-80783097D01*
X172502850Y-80944737D01*
X172771647Y-81056076D01*
X173057000Y-81112836D01*
X173256030Y-81112836D01*
X173214366Y-81190784D01*
X173178514Y-81308974D01*
X173166408Y-81431887D01*
X173178514Y-81554800D01*
X173214366Y-81672990D01*
X173272588Y-81781915D01*
X173350940Y-81877388D01*
X174553022Y-83079470D01*
X174648495Y-83157822D01*
X174757420Y-83216044D01*
X174875610Y-83251896D01*
X174998523Y-83264002D01*
X175121436Y-83251896D01*
X175239626Y-83216044D01*
X175348551Y-83157822D01*
X175444024Y-83079470D01*
X176646106Y-81877388D01*
X176724458Y-81781915D01*
X176782680Y-81672990D01*
X176797586Y-81623849D01*
X202173000Y-81623849D01*
X202173000Y-81826151D01*
X202212467Y-82024565D01*
X202289885Y-82211467D01*
X202402277Y-82379674D01*
X202545326Y-82522723D01*
X202713533Y-82635115D01*
X202900435Y-82712533D01*
X203098849Y-82752000D01*
X203301151Y-82752000D01*
X203499565Y-82712533D01*
X203686467Y-82635115D01*
X203854674Y-82522723D01*
X203997723Y-82379674D01*
X204110115Y-82211467D01*
X204187533Y-82024565D01*
X204227000Y-81826151D01*
X204227000Y-81623849D01*
X204187533Y-81425435D01*
X204110115Y-81238533D01*
X203997723Y-81070326D01*
X203854674Y-80927277D01*
X203686467Y-80814885D01*
X203499565Y-80737467D01*
X203301151Y-80698000D01*
X203098849Y-80698000D01*
X202900435Y-80737467D01*
X202713533Y-80814885D01*
X202545326Y-80927277D01*
X202402277Y-81070326D01*
X202289885Y-81238533D01*
X202212467Y-81425435D01*
X202173000Y-81623849D01*
X176797586Y-81623849D01*
X176818532Y-81554800D01*
X176830638Y-81431887D01*
X176818532Y-81308974D01*
X176782680Y-81190784D01*
X176724458Y-81081859D01*
X176646106Y-80986386D01*
X175444024Y-79784304D01*
X175348551Y-79705952D01*
X175239626Y-79647730D01*
X175121436Y-79611878D01*
X174998523Y-79599772D01*
X174875610Y-79611878D01*
X174757420Y-79647730D01*
X174679472Y-79689394D01*
X174679472Y-79490364D01*
X174622712Y-79205011D01*
X174511373Y-78936214D01*
X174349733Y-78694303D01*
X174304129Y-78648699D01*
X203784000Y-78648699D01*
X203784000Y-78831301D01*
X203819624Y-79010396D01*
X203889504Y-79179099D01*
X203990952Y-79330928D01*
X204120072Y-79460048D01*
X204271901Y-79561496D01*
X204440604Y-79631376D01*
X204619699Y-79667000D01*
X204802301Y-79667000D01*
X204981396Y-79631376D01*
X205150099Y-79561496D01*
X205301928Y-79460048D01*
X205351277Y-79410699D01*
X206845000Y-79410699D01*
X206845000Y-79593301D01*
X206880624Y-79772396D01*
X206926438Y-79883000D01*
X206880624Y-79993604D01*
X206845000Y-80172699D01*
X206845000Y-80355301D01*
X206880624Y-80534396D01*
X206926438Y-80645000D01*
X206880624Y-80755604D01*
X206845000Y-80934699D01*
X206845000Y-81117301D01*
X206880624Y-81296396D01*
X206950504Y-81465099D01*
X207051952Y-81616928D01*
X207181072Y-81746048D01*
X207332901Y-81847496D01*
X207501604Y-81917376D01*
X207619227Y-81940773D01*
X207642624Y-82058396D01*
X207688438Y-82169000D01*
X207642624Y-82279604D01*
X207607000Y-82458699D01*
X207607000Y-82641301D01*
X207642624Y-82820396D01*
X207688438Y-82931000D01*
X207642624Y-83041604D01*
X207619227Y-83159227D01*
X207501604Y-83182624D01*
X207332901Y-83252504D01*
X207181072Y-83353952D01*
X207051952Y-83483072D01*
X206950504Y-83634901D01*
X206880624Y-83803604D01*
X206845000Y-83982699D01*
X206845000Y-84165301D01*
X206880624Y-84344396D01*
X206926438Y-84455000D01*
X206880624Y-84565604D01*
X206845000Y-84744699D01*
X206845000Y-84927301D01*
X206880624Y-85106396D01*
X206950504Y-85275099D01*
X207051952Y-85426928D01*
X207181072Y-85556048D01*
X207332901Y-85657496D01*
X207501604Y-85727376D01*
X207680699Y-85763000D01*
X207863301Y-85763000D01*
X208042396Y-85727376D01*
X208153000Y-85681562D01*
X208263604Y-85727376D01*
X208442699Y-85763000D01*
X208625301Y-85763000D01*
X208804396Y-85727376D01*
X208915000Y-85681562D01*
X209025604Y-85727376D01*
X209204699Y-85763000D01*
X209387301Y-85763000D01*
X209566396Y-85727376D01*
X209677000Y-85681562D01*
X209787604Y-85727376D01*
X209966699Y-85763000D01*
X210149301Y-85763000D01*
X210328396Y-85727376D01*
X210497099Y-85657496D01*
X210648928Y-85556048D01*
X210778048Y-85426928D01*
X210843323Y-85329236D01*
X210972849Y-85355000D01*
X211175151Y-85355000D01*
X211373565Y-85315533D01*
X211560467Y-85238115D01*
X211728674Y-85125723D01*
X211871723Y-84982674D01*
X211984115Y-84814467D01*
X212061533Y-84627565D01*
X212101000Y-84429151D01*
X212101000Y-84226849D01*
X212061533Y-84028435D01*
X212049358Y-83999041D01*
X212081725Y-83966674D01*
X212194117Y-83798467D01*
X212271535Y-83611565D01*
X212311002Y-83413151D01*
X212311002Y-83210849D01*
X212271535Y-83012435D01*
X212194117Y-82825533D01*
X212081725Y-82657326D01*
X211938676Y-82514277D01*
X211770469Y-82401885D01*
X211583567Y-82324467D01*
X211385153Y-82285000D01*
X211182851Y-82285000D01*
X210984437Y-82324467D01*
X210797535Y-82401885D01*
X210629328Y-82514277D01*
X210486279Y-82657326D01*
X210373887Y-82825533D01*
X210296469Y-83012435D01*
X210257002Y-83210849D01*
X210257002Y-83413151D01*
X210296469Y-83611565D01*
X210308644Y-83640959D01*
X210276277Y-83673326D01*
X210187801Y-83805740D01*
X210187376Y-83803604D01*
X210141562Y-83693000D01*
X210187376Y-83582396D01*
X210223000Y-83403301D01*
X210223000Y-83220699D01*
X210187376Y-83041604D01*
X210141562Y-82931000D01*
X210187376Y-82820396D01*
X210223000Y-82641301D01*
X210223000Y-82458699D01*
X210187376Y-82279604D01*
X210141562Y-82169000D01*
X210187376Y-82058396D01*
X210210773Y-81940773D01*
X210328396Y-81917376D01*
X210497099Y-81847496D01*
X210648928Y-81746048D01*
X210778048Y-81616928D01*
X210879496Y-81465099D01*
X210949376Y-81296396D01*
X210985000Y-81117301D01*
X210985000Y-81022170D01*
X210999267Y-81022170D01*
X210999267Y-81224472D01*
X211038734Y-81422886D01*
X211116152Y-81609788D01*
X211228544Y-81777995D01*
X211371593Y-81921044D01*
X211539800Y-82033436D01*
X211726702Y-82110854D01*
X211925116Y-82150321D01*
X212127418Y-82150321D01*
X212325832Y-82110854D01*
X212512734Y-82033436D01*
X212680941Y-81921044D01*
X212823990Y-81777995D01*
X212936382Y-81609788D01*
X213013800Y-81422886D01*
X213053267Y-81224472D01*
X213053267Y-81022170D01*
X213013800Y-80823756D01*
X212936382Y-80636854D01*
X212823990Y-80468647D01*
X212680941Y-80325598D01*
X212512734Y-80213206D01*
X212325832Y-80135788D01*
X212127418Y-80096321D01*
X211925116Y-80096321D01*
X211726702Y-80135788D01*
X211539800Y-80213206D01*
X211371593Y-80325598D01*
X211228544Y-80468647D01*
X211116152Y-80636854D01*
X211038734Y-80823756D01*
X210999267Y-81022170D01*
X210985000Y-81022170D01*
X210985000Y-80934699D01*
X210949376Y-80755604D01*
X210903562Y-80645000D01*
X210949376Y-80534396D01*
X210985000Y-80355301D01*
X210985000Y-80172699D01*
X210949376Y-79993604D01*
X210903562Y-79883000D01*
X210949376Y-79772396D01*
X210985000Y-79593301D01*
X210985000Y-79410699D01*
X210949376Y-79231604D01*
X210879496Y-79062901D01*
X210778048Y-78911072D01*
X210648928Y-78781952D01*
X210497099Y-78680504D01*
X210328396Y-78610624D01*
X210149301Y-78575000D01*
X209966699Y-78575000D01*
X209787604Y-78610624D01*
X209677000Y-78656438D01*
X209566396Y-78610624D01*
X209387301Y-78575000D01*
X209204699Y-78575000D01*
X209025604Y-78610624D01*
X208915000Y-78656438D01*
X208804396Y-78610624D01*
X208625301Y-78575000D01*
X208442699Y-78575000D01*
X208263604Y-78610624D01*
X208153000Y-78656438D01*
X208042396Y-78610624D01*
X207863301Y-78575000D01*
X207680699Y-78575000D01*
X207501604Y-78610624D01*
X207332901Y-78680504D01*
X207181072Y-78781952D01*
X207051952Y-78911072D01*
X206950504Y-79062901D01*
X206880624Y-79231604D01*
X206845000Y-79410699D01*
X205351277Y-79410699D01*
X205431048Y-79330928D01*
X205532496Y-79179099D01*
X205602376Y-79010396D01*
X205638000Y-78831301D01*
X205638000Y-78648699D01*
X205602376Y-78469604D01*
X205532496Y-78300901D01*
X205431048Y-78149072D01*
X205301928Y-78019952D01*
X205150099Y-77918504D01*
X204981396Y-77848624D01*
X204802301Y-77813000D01*
X204619699Y-77813000D01*
X204440604Y-77848624D01*
X204271901Y-77918504D01*
X204120072Y-78019952D01*
X203990952Y-78149072D01*
X203889504Y-78300901D01*
X203819624Y-78469604D01*
X203784000Y-78648699D01*
X174304129Y-78648699D01*
X174144005Y-78488575D01*
X173902094Y-78326935D01*
X173633297Y-78215596D01*
X173347944Y-78158836D01*
X173057000Y-78158836D01*
X172840321Y-78201936D01*
X172883421Y-77985257D01*
X172883421Y-77694313D01*
X172826661Y-77408960D01*
X172715322Y-77140163D01*
X172553682Y-76898252D01*
X172516279Y-76860849D01*
X219699000Y-76860849D01*
X219699000Y-77063151D01*
X219738467Y-77261565D01*
X219815885Y-77448467D01*
X219928277Y-77616674D01*
X220071326Y-77759723D01*
X220239533Y-77872115D01*
X220426435Y-77949533D01*
X220624849Y-77989000D01*
X220827151Y-77989000D01*
X221025565Y-77949533D01*
X221212467Y-77872115D01*
X221380674Y-77759723D01*
X221523723Y-77616674D01*
X221636115Y-77448467D01*
X221713533Y-77261565D01*
X221753000Y-77063151D01*
X221753000Y-76860849D01*
X221713533Y-76662435D01*
X221636115Y-76475533D01*
X221523723Y-76307326D01*
X221380674Y-76164277D01*
X221212467Y-76051885D01*
X221025565Y-75974467D01*
X220827151Y-75935000D01*
X220624849Y-75935000D01*
X220426435Y-75974467D01*
X220239533Y-76051885D01*
X220071326Y-76164277D01*
X219928277Y-76307326D01*
X219815885Y-76475533D01*
X219738467Y-76662435D01*
X219699000Y-76860849D01*
X172516279Y-76860849D01*
X172347954Y-76692524D01*
X172106043Y-76530884D01*
X171837246Y-76419545D01*
X171551893Y-76362785D01*
X171260949Y-76362785D01*
X171044269Y-76405885D01*
X171087369Y-76189205D01*
X171087369Y-75898261D01*
X171030609Y-75612908D01*
X170919270Y-75344111D01*
X170757630Y-75102200D01*
X170551902Y-74896472D01*
X170309991Y-74734832D01*
X170041194Y-74623493D01*
X169755841Y-74566733D01*
X169464897Y-74566733D01*
X169179544Y-74623493D01*
X168910747Y-74734832D01*
X168668836Y-74896472D01*
X168463108Y-75102200D01*
X168301468Y-75344111D01*
X168190129Y-75612908D01*
X168133369Y-75898261D01*
X104546000Y-75898261D01*
X104546000Y-74422232D01*
X164555383Y-74422232D01*
X164555383Y-74624534D01*
X164594850Y-74822948D01*
X164672268Y-75009850D01*
X164784660Y-75178057D01*
X164927709Y-75321106D01*
X165095916Y-75433498D01*
X165282818Y-75510916D01*
X165481232Y-75550383D01*
X165683534Y-75550383D01*
X165881948Y-75510916D01*
X166068850Y-75433498D01*
X166237057Y-75321106D01*
X166380106Y-75178057D01*
X166492498Y-75009850D01*
X166569916Y-74822948D01*
X166609383Y-74624534D01*
X166609383Y-74422232D01*
X166589217Y-74320849D01*
X201157000Y-74320849D01*
X201157000Y-74523151D01*
X201196467Y-74721565D01*
X201273885Y-74908467D01*
X201386277Y-75076674D01*
X201529326Y-75219723D01*
X201697533Y-75332115D01*
X201884435Y-75409533D01*
X202082849Y-75449000D01*
X202285151Y-75449000D01*
X202483565Y-75409533D01*
X202670467Y-75332115D01*
X202838674Y-75219723D01*
X202981723Y-75076674D01*
X203094115Y-74908467D01*
X203171533Y-74721565D01*
X203211000Y-74523151D01*
X203211000Y-74320849D01*
X219445000Y-74320849D01*
X219445000Y-74523151D01*
X219484467Y-74721565D01*
X219561885Y-74908467D01*
X219674277Y-75076674D01*
X219817326Y-75219723D01*
X219985533Y-75332115D01*
X220172435Y-75409533D01*
X220370849Y-75449000D01*
X220573151Y-75449000D01*
X220771565Y-75409533D01*
X220958467Y-75332115D01*
X221126674Y-75219723D01*
X221269723Y-75076674D01*
X221382115Y-74908467D01*
X221459533Y-74721565D01*
X221499000Y-74523151D01*
X221499000Y-74320849D01*
X221459533Y-74122435D01*
X221382115Y-73935533D01*
X221269723Y-73767326D01*
X221126674Y-73624277D01*
X220958467Y-73511885D01*
X220771565Y-73434467D01*
X220573151Y-73395000D01*
X220370849Y-73395000D01*
X220172435Y-73434467D01*
X219985533Y-73511885D01*
X219817326Y-73624277D01*
X219674277Y-73767326D01*
X219561885Y-73935533D01*
X219484467Y-74122435D01*
X219445000Y-74320849D01*
X203211000Y-74320849D01*
X203171533Y-74122435D01*
X203094115Y-73935533D01*
X202981723Y-73767326D01*
X202838674Y-73624277D01*
X202670467Y-73511885D01*
X202483565Y-73434467D01*
X202285151Y-73395000D01*
X202082849Y-73395000D01*
X201884435Y-73434467D01*
X201697533Y-73511885D01*
X201529326Y-73624277D01*
X201386277Y-73767326D01*
X201273885Y-73935533D01*
X201196467Y-74122435D01*
X201157000Y-74320849D01*
X166589217Y-74320849D01*
X166569916Y-74223818D01*
X166492498Y-74036916D01*
X166380106Y-73868709D01*
X166237057Y-73725660D01*
X166068850Y-73613268D01*
X165881948Y-73535850D01*
X165683534Y-73496383D01*
X165481232Y-73496383D01*
X165282818Y-73535850D01*
X165095916Y-73613268D01*
X164927709Y-73725660D01*
X164784660Y-73868709D01*
X164672268Y-74036916D01*
X164594850Y-74223818D01*
X164555383Y-74422232D01*
X104546000Y-74422232D01*
X104546000Y-72542849D01*
X207507000Y-72542849D01*
X207507000Y-72745151D01*
X207546467Y-72943565D01*
X207623885Y-73130467D01*
X207736277Y-73298674D01*
X207879326Y-73441723D01*
X208047533Y-73554115D01*
X208234435Y-73631533D01*
X208432849Y-73671000D01*
X208635151Y-73671000D01*
X208833565Y-73631533D01*
X209020467Y-73554115D01*
X209188674Y-73441723D01*
X209259548Y-73370849D01*
X221461000Y-73370849D01*
X221461000Y-73573151D01*
X221500467Y-73771565D01*
X221577885Y-73958467D01*
X221690277Y-74126674D01*
X221833326Y-74269723D01*
X222001533Y-74382115D01*
X222188435Y-74459533D01*
X222386849Y-74499000D01*
X222589151Y-74499000D01*
X222787565Y-74459533D01*
X222974467Y-74382115D01*
X223142674Y-74269723D01*
X223285723Y-74126674D01*
X223398115Y-73958467D01*
X223475533Y-73771565D01*
X223515000Y-73573151D01*
X223515000Y-73370849D01*
X223475533Y-73172435D01*
X223398115Y-72985533D01*
X223285723Y-72817326D01*
X223142674Y-72674277D01*
X222974467Y-72561885D01*
X222787565Y-72484467D01*
X222589151Y-72445000D01*
X222386849Y-72445000D01*
X222188435Y-72484467D01*
X222001533Y-72561885D01*
X221833326Y-72674277D01*
X221690277Y-72817326D01*
X221577885Y-72985533D01*
X221500467Y-73172435D01*
X221461000Y-73370849D01*
X209259548Y-73370849D01*
X209331723Y-73298674D01*
X209444115Y-73130467D01*
X209521533Y-72943565D01*
X209561000Y-72745151D01*
X209561000Y-72542849D01*
X209521533Y-72344435D01*
X209444115Y-72157533D01*
X209331723Y-71989326D01*
X209188674Y-71846277D01*
X209090754Y-71780849D01*
X219699000Y-71780849D01*
X219699000Y-71983151D01*
X219738467Y-72181565D01*
X219815885Y-72368467D01*
X219928277Y-72536674D01*
X220071326Y-72679723D01*
X220239533Y-72792115D01*
X220426435Y-72869533D01*
X220624849Y-72909000D01*
X220827151Y-72909000D01*
X221025565Y-72869533D01*
X221212467Y-72792115D01*
X221380674Y-72679723D01*
X221523723Y-72536674D01*
X221636115Y-72368467D01*
X221713533Y-72181565D01*
X221753000Y-71983151D01*
X221753000Y-71780849D01*
X221713533Y-71582435D01*
X221636115Y-71395533D01*
X221523723Y-71227326D01*
X221380674Y-71084277D01*
X221212467Y-70971885D01*
X221025565Y-70894467D01*
X220827151Y-70855000D01*
X220624849Y-70855000D01*
X220426435Y-70894467D01*
X220239533Y-70971885D01*
X220071326Y-71084277D01*
X219928277Y-71227326D01*
X219815885Y-71395533D01*
X219738467Y-71582435D01*
X219699000Y-71780849D01*
X209090754Y-71780849D01*
X209020467Y-71733885D01*
X208833565Y-71656467D01*
X208635151Y-71617000D01*
X208432849Y-71617000D01*
X208234435Y-71656467D01*
X208047533Y-71733885D01*
X207879326Y-71846277D01*
X207736277Y-71989326D01*
X207623885Y-72157533D01*
X207546467Y-72344435D01*
X207507000Y-72542849D01*
X104546000Y-72542849D01*
X104546000Y-67458980D01*
X115564351Y-67458980D01*
X115564351Y-67661282D01*
X115603818Y-67859696D01*
X115681236Y-68046598D01*
X115793628Y-68214805D01*
X115936677Y-68357854D01*
X116104884Y-68470246D01*
X116291786Y-68547664D01*
X116490200Y-68587131D01*
X116692502Y-68587131D01*
X116890916Y-68547664D01*
X117077818Y-68470246D01*
X117246025Y-68357854D01*
X117389074Y-68214805D01*
X117501466Y-68046598D01*
X117578884Y-67859696D01*
X117618351Y-67661282D01*
X117618351Y-67458980D01*
X117578884Y-67260566D01*
X117501466Y-67073664D01*
X117389074Y-66905457D01*
X117246025Y-66762408D01*
X117077818Y-66650016D01*
X116890916Y-66572598D01*
X116692502Y-66533131D01*
X116490200Y-66533131D01*
X116291786Y-66572598D01*
X116104884Y-66650016D01*
X115936677Y-66762408D01*
X115793628Y-66905457D01*
X115681236Y-67073664D01*
X115603818Y-67260566D01*
X115564351Y-67458980D01*
X104546000Y-67458980D01*
X104546000Y-63779849D01*
X122163000Y-63779849D01*
X122163000Y-63982151D01*
X122202467Y-64180565D01*
X122262502Y-64325500D01*
X122202467Y-64470435D01*
X122163000Y-64668849D01*
X122163000Y-64871151D01*
X122202467Y-65069565D01*
X122262502Y-65214500D01*
X122202467Y-65359435D01*
X122163000Y-65557849D01*
X122163000Y-65760151D01*
X122202467Y-65958565D01*
X122262502Y-66103500D01*
X122202467Y-66248435D01*
X122163000Y-66446849D01*
X122163000Y-66649151D01*
X122202467Y-66847565D01*
X122262502Y-66992500D01*
X122202467Y-67137435D01*
X122163000Y-67335849D01*
X122163000Y-67538151D01*
X122202467Y-67736565D01*
X122262502Y-67881500D01*
X122202467Y-68026435D01*
X122163000Y-68224849D01*
X122163000Y-68427151D01*
X122202467Y-68625565D01*
X122279885Y-68812467D01*
X122392277Y-68980674D01*
X122535326Y-69123723D01*
X122703533Y-69236115D01*
X122890435Y-69313533D01*
X123088849Y-69353000D01*
X123291151Y-69353000D01*
X123489565Y-69313533D01*
X123676467Y-69236115D01*
X123844674Y-69123723D01*
X123956305Y-69012092D01*
X123980467Y-69133565D01*
X124057885Y-69320467D01*
X124170277Y-69488674D01*
X124313326Y-69631723D01*
X124481533Y-69744115D01*
X124668435Y-69821533D01*
X124866849Y-69861000D01*
X125069151Y-69861000D01*
X125267565Y-69821533D01*
X125454467Y-69744115D01*
X125476000Y-69729727D01*
X125497533Y-69744115D01*
X125684435Y-69821533D01*
X125882849Y-69861000D01*
X125973000Y-69861000D01*
X125973000Y-69951151D01*
X126012467Y-70149565D01*
X126089885Y-70336467D01*
X126104273Y-70358000D01*
X126089885Y-70379533D01*
X126012467Y-70566435D01*
X125973000Y-70764849D01*
X125973000Y-70967151D01*
X126012467Y-71165565D01*
X126089885Y-71352467D01*
X126202277Y-71520674D01*
X126345326Y-71663723D01*
X126513533Y-71776115D01*
X126700435Y-71853533D01*
X126898849Y-71893000D01*
X127101151Y-71893000D01*
X127299565Y-71853533D01*
X127486467Y-71776115D01*
X127508000Y-71761727D01*
X127529533Y-71776115D01*
X127716435Y-71853533D01*
X127914849Y-71893000D01*
X128117151Y-71893000D01*
X128315565Y-71853533D01*
X128502467Y-71776115D01*
X128524000Y-71761727D01*
X128545533Y-71776115D01*
X128732435Y-71853533D01*
X128930849Y-71893000D01*
X129133151Y-71893000D01*
X129331565Y-71853533D01*
X129518467Y-71776115D01*
X129540000Y-71761727D01*
X129561533Y-71776115D01*
X129748435Y-71853533D01*
X129946849Y-71893000D01*
X130149151Y-71893000D01*
X130347565Y-71853533D01*
X130534467Y-71776115D01*
X130556000Y-71761727D01*
X130577533Y-71776115D01*
X130764435Y-71853533D01*
X130962849Y-71893000D01*
X131165151Y-71893000D01*
X131363565Y-71853533D01*
X131550467Y-71776115D01*
X131718674Y-71663723D01*
X131861723Y-71520674D01*
X131974115Y-71352467D01*
X132051533Y-71165565D01*
X132091000Y-70967151D01*
X132091000Y-70764849D01*
X132051533Y-70566435D01*
X131974115Y-70379533D01*
X131959727Y-70358000D01*
X131974115Y-70336467D01*
X132051533Y-70149565D01*
X132091000Y-69951151D01*
X132091000Y-69748849D01*
X132065739Y-69621849D01*
X164073000Y-69621849D01*
X164073000Y-69824151D01*
X164112467Y-70022565D01*
X164189885Y-70209467D01*
X164302277Y-70377674D01*
X164445326Y-70520723D01*
X164613533Y-70633115D01*
X164800435Y-70710533D01*
X164998849Y-70750000D01*
X165201151Y-70750000D01*
X165399565Y-70710533D01*
X165586467Y-70633115D01*
X165754674Y-70520723D01*
X165897723Y-70377674D01*
X166010115Y-70209467D01*
X166087533Y-70022565D01*
X166127000Y-69824151D01*
X166127000Y-69621849D01*
X166087533Y-69423435D01*
X166010115Y-69236533D01*
X165897723Y-69068326D01*
X165754674Y-68925277D01*
X165586467Y-68812885D01*
X165399565Y-68735467D01*
X165201151Y-68696000D01*
X164998849Y-68696000D01*
X164800435Y-68735467D01*
X164613533Y-68812885D01*
X164445326Y-68925277D01*
X164302277Y-69068326D01*
X164189885Y-69236533D01*
X164112467Y-69423435D01*
X164073000Y-69621849D01*
X132065739Y-69621849D01*
X132051533Y-69550435D01*
X131974115Y-69363533D01*
X131959727Y-69342000D01*
X131974115Y-69320467D01*
X132051533Y-69133565D01*
X132091000Y-68935151D01*
X132091000Y-68732849D01*
X132051533Y-68534435D01*
X131974115Y-68347533D01*
X131959727Y-68326000D01*
X131974115Y-68304467D01*
X132051533Y-68117565D01*
X132091000Y-67919151D01*
X132091000Y-67825631D01*
X173739146Y-67825631D01*
X173739146Y-68027933D01*
X173778613Y-68226347D01*
X173856031Y-68413249D01*
X173968423Y-68581456D01*
X174111472Y-68724505D01*
X174279679Y-68836897D01*
X174466581Y-68914315D01*
X174664995Y-68953782D01*
X174867297Y-68953782D01*
X175065711Y-68914315D01*
X175252613Y-68836897D01*
X175420820Y-68724505D01*
X175563869Y-68581456D01*
X175676261Y-68413249D01*
X175753679Y-68226347D01*
X175793146Y-68027933D01*
X175793146Y-67825631D01*
X175753679Y-67627217D01*
X175676261Y-67440315D01*
X175563869Y-67272108D01*
X175420820Y-67129059D01*
X175252613Y-67016667D01*
X175065711Y-66939249D01*
X174867297Y-66899782D01*
X174664995Y-66899782D01*
X174466581Y-66939249D01*
X174279679Y-67016667D01*
X174111472Y-67129059D01*
X173968423Y-67272108D01*
X173856031Y-67440315D01*
X173778613Y-67627217D01*
X173739146Y-67825631D01*
X132091000Y-67825631D01*
X132091000Y-67716849D01*
X132051533Y-67518435D01*
X131974115Y-67331533D01*
X131959727Y-67310000D01*
X131974115Y-67288467D01*
X132051533Y-67101565D01*
X132091000Y-66903151D01*
X132091000Y-66700849D01*
X132051533Y-66502435D01*
X131974115Y-66315533D01*
X131861723Y-66147326D01*
X131718674Y-66004277D01*
X131550467Y-65891885D01*
X131363565Y-65814467D01*
X131220452Y-65786000D01*
X131363565Y-65757533D01*
X131550467Y-65680115D01*
X131718674Y-65567723D01*
X131861723Y-65424674D01*
X131974115Y-65256467D01*
X132051533Y-65069565D01*
X132062990Y-65011965D01*
X166523883Y-65011965D01*
X166523883Y-65214267D01*
X166563350Y-65412681D01*
X166640768Y-65599583D01*
X166753160Y-65767790D01*
X166896209Y-65910839D01*
X167064416Y-66023231D01*
X167251318Y-66100649D01*
X167449732Y-66140116D01*
X167652034Y-66140116D01*
X167850448Y-66100649D01*
X168037350Y-66023231D01*
X168205557Y-65910839D01*
X168348606Y-65767790D01*
X168460998Y-65599583D01*
X168538416Y-65412681D01*
X168577883Y-65214267D01*
X168577883Y-65011965D01*
X168538416Y-64813551D01*
X168460998Y-64626649D01*
X168348606Y-64458442D01*
X168205557Y-64315393D01*
X168198033Y-64310365D01*
X169661000Y-64310365D01*
X169661000Y-64512667D01*
X169700467Y-64711081D01*
X169777885Y-64897983D01*
X169890277Y-65066190D01*
X170033326Y-65209239D01*
X170201533Y-65321631D01*
X170388435Y-65399049D01*
X170586849Y-65438516D01*
X170789151Y-65438516D01*
X170987565Y-65399049D01*
X171174467Y-65321631D01*
X171188002Y-65312588D01*
X171201536Y-65321631D01*
X171388438Y-65399049D01*
X171586852Y-65438516D01*
X171789154Y-65438516D01*
X171987568Y-65399049D01*
X172174470Y-65321631D01*
X172342677Y-65209239D01*
X172485726Y-65066190D01*
X172598118Y-64897983D01*
X172630198Y-64820535D01*
X172746907Y-64820535D01*
X172945321Y-64781068D01*
X173132223Y-64703650D01*
X173300430Y-64591258D01*
X173443479Y-64448209D01*
X173482568Y-64389709D01*
X173526087Y-64494773D01*
X173638479Y-64662980D01*
X173781528Y-64806029D01*
X173949735Y-64918421D01*
X174136637Y-64995839D01*
X174335051Y-65035306D01*
X174537353Y-65035306D01*
X174735767Y-64995839D01*
X174922669Y-64918421D01*
X175090876Y-64806029D01*
X175233925Y-64662980D01*
X175346317Y-64494773D01*
X175423735Y-64307871D01*
X175463202Y-64109457D01*
X175463202Y-63907155D01*
X175423735Y-63708741D01*
X175346317Y-63521839D01*
X175233925Y-63353632D01*
X175090876Y-63210583D01*
X174922669Y-63098191D01*
X174735767Y-63020773D01*
X174537353Y-62981306D01*
X174374356Y-62981306D01*
X174374356Y-62869226D01*
X174334889Y-62670812D01*
X174257471Y-62483910D01*
X174145079Y-62315703D01*
X174002030Y-62172654D01*
X173833823Y-62060262D01*
X173646921Y-61982844D01*
X173448507Y-61943377D01*
X173246205Y-61943377D01*
X173047791Y-61982844D01*
X172860889Y-62060262D01*
X172692682Y-62172654D01*
X172549633Y-62315703D01*
X172437241Y-62483910D01*
X172359823Y-62670812D01*
X172331741Y-62811987D01*
X172159289Y-62883420D01*
X171991082Y-62995812D01*
X171848033Y-63138861D01*
X171735641Y-63307068D01*
X171703561Y-63384516D01*
X171586852Y-63384516D01*
X171388438Y-63423983D01*
X171201536Y-63501401D01*
X171188002Y-63510444D01*
X171174467Y-63501401D01*
X170987565Y-63423983D01*
X170789151Y-63384516D01*
X170586849Y-63384516D01*
X170388435Y-63423983D01*
X170201533Y-63501401D01*
X170033326Y-63613793D01*
X169890277Y-63756842D01*
X169777885Y-63925049D01*
X169700467Y-64111951D01*
X169661000Y-64310365D01*
X168198033Y-64310365D01*
X168037350Y-64203001D01*
X167850448Y-64125583D01*
X167652034Y-64086116D01*
X167449732Y-64086116D01*
X167251318Y-64125583D01*
X167064416Y-64203001D01*
X166896209Y-64315393D01*
X166753160Y-64458442D01*
X166640768Y-64626649D01*
X166563350Y-64813551D01*
X166523883Y-65011965D01*
X132062990Y-65011965D01*
X132091000Y-64871151D01*
X132091000Y-64668849D01*
X132051533Y-64470435D01*
X131974115Y-64283533D01*
X131959727Y-64262000D01*
X131974115Y-64240467D01*
X132051533Y-64053565D01*
X132091000Y-63855151D01*
X132091000Y-63652849D01*
X132051533Y-63454435D01*
X131974115Y-63267533D01*
X131959727Y-63246000D01*
X131974115Y-63224467D01*
X132051533Y-63037565D01*
X132091000Y-62839151D01*
X132091000Y-62636849D01*
X132051533Y-62438435D01*
X131974115Y-62251533D01*
X131861723Y-62083326D01*
X131718674Y-61940277D01*
X131550467Y-61827885D01*
X131363565Y-61750467D01*
X131165151Y-61711000D01*
X130962849Y-61711000D01*
X130764435Y-61750467D01*
X130577533Y-61827885D01*
X130556000Y-61842273D01*
X130534467Y-61827885D01*
X130347565Y-61750467D01*
X130149151Y-61711000D01*
X129946849Y-61711000D01*
X129748435Y-61750467D01*
X129561533Y-61827885D01*
X129540000Y-61842273D01*
X129518467Y-61827885D01*
X129331565Y-61750467D01*
X129133151Y-61711000D01*
X128930849Y-61711000D01*
X128732435Y-61750467D01*
X128545533Y-61827885D01*
X128524000Y-61842273D01*
X128502467Y-61827885D01*
X128315565Y-61750467D01*
X128117151Y-61711000D01*
X127914849Y-61711000D01*
X127716435Y-61750467D01*
X127529533Y-61827885D01*
X127508000Y-61842273D01*
X127486467Y-61827885D01*
X127299565Y-61750467D01*
X127101151Y-61711000D01*
X126898849Y-61711000D01*
X126700435Y-61750467D01*
X126513533Y-61827885D01*
X126492000Y-61842273D01*
X126470467Y-61827885D01*
X126283565Y-61750467D01*
X126085151Y-61711000D01*
X125882849Y-61711000D01*
X125684435Y-61750467D01*
X125497533Y-61827885D01*
X125476000Y-61842273D01*
X125454467Y-61827885D01*
X125267565Y-61750467D01*
X125069151Y-61711000D01*
X124866849Y-61711000D01*
X124668435Y-61750467D01*
X124481533Y-61827885D01*
X124313326Y-61940277D01*
X124170277Y-62083326D01*
X124057885Y-62251533D01*
X123980467Y-62438435D01*
X123941000Y-62636849D01*
X123941000Y-62839151D01*
X123980467Y-63037565D01*
X124057885Y-63224467D01*
X124072273Y-63246000D01*
X124057885Y-63267533D01*
X124041572Y-63306916D01*
X123987723Y-63226326D01*
X123844674Y-63083277D01*
X123676467Y-62970885D01*
X123489565Y-62893467D01*
X123291151Y-62854000D01*
X123088849Y-62854000D01*
X122890435Y-62893467D01*
X122703533Y-62970885D01*
X122535326Y-63083277D01*
X122392277Y-63226326D01*
X122279885Y-63394533D01*
X122202467Y-63581435D01*
X122163000Y-63779849D01*
X104546000Y-63779849D01*
X104546000Y-54506772D01*
X106990000Y-54506772D01*
X106990000Y-55221228D01*
X107129383Y-55921957D01*
X107402794Y-56582029D01*
X107799725Y-57176078D01*
X108304922Y-57681275D01*
X108898971Y-58078206D01*
X109559043Y-58351617D01*
X110259772Y-58491000D01*
X110974228Y-58491000D01*
X111674957Y-58351617D01*
X112335029Y-58078206D01*
X112929078Y-57681275D01*
X113434275Y-57176078D01*
X113831206Y-56582029D01*
X114104617Y-55921957D01*
X114244000Y-55221228D01*
X114244000Y-54506772D01*
X223830000Y-54506772D01*
X223830000Y-55221228D01*
X223969383Y-55921957D01*
X224242794Y-56582029D01*
X224639725Y-57176078D01*
X225144922Y-57681275D01*
X225738971Y-58078206D01*
X226399043Y-58351617D01*
X227099772Y-58491000D01*
X227814228Y-58491000D01*
X228514957Y-58351617D01*
X229175029Y-58078206D01*
X229769078Y-57681275D01*
X230274275Y-57176078D01*
X230671206Y-56582029D01*
X230944617Y-55921957D01*
X231084000Y-55221228D01*
X231084000Y-54506772D01*
X230944617Y-53806043D01*
X230671206Y-53145971D01*
X230274275Y-52551922D01*
X229769078Y-52046725D01*
X229175029Y-51649794D01*
X228514957Y-51376383D01*
X227814228Y-51237000D01*
X227099772Y-51237000D01*
X226399043Y-51376383D01*
X225738971Y-51649794D01*
X225144922Y-52046725D01*
X224639725Y-52551922D01*
X224242794Y-53145971D01*
X223969383Y-53806043D01*
X223830000Y-54506772D01*
X114244000Y-54506772D01*
X114104617Y-53806043D01*
X113831206Y-53145971D01*
X113434275Y-52551922D01*
X112929078Y-52046725D01*
X112335029Y-51649794D01*
X111674957Y-51376383D01*
X110974228Y-51237000D01*
X110259772Y-51237000D01*
X109559043Y-51376383D01*
X108898971Y-51649794D01*
X108304922Y-52046725D01*
X107799725Y-52551922D01*
X107402794Y-53145971D01*
X107129383Y-53806043D01*
X106990000Y-54506772D01*
X104546000Y-54506772D01*
X104546000Y-53606420D01*
X104622969Y-52744012D01*
X104848147Y-51920894D01*
X105215533Y-51150656D01*
X105713505Y-50457653D01*
X106326332Y-49863783D01*
X107034637Y-49387822D01*
X107816033Y-49044813D01*
X108647960Y-48845086D01*
X109357234Y-48793000D01*
X228714580Y-48793000D01*
X229576988Y-48869969D01*
%TA.AperFunction,Conductor*%
D24*
G36*
X229576988Y-48869969D02*
G01*
X230400106Y-49095147D01*
X231170344Y-49462533D01*
X231863347Y-49960505D01*
X232457217Y-50573332D01*
X232933178Y-51281637D01*
X233276187Y-52063033D01*
X233475914Y-52894960D01*
X233528000Y-53604234D01*
X233528001Y-136130349D01*
X233459441Y-136829580D01*
X233260335Y-137489050D01*
X232936933Y-138097282D01*
X232501543Y-138631122D01*
X231970765Y-139070220D01*
X231364801Y-139397865D01*
X230734419Y-139593000D01*
X108478619Y-139593000D01*
X107673890Y-139372851D01*
X106903660Y-139005469D01*
X106210653Y-138507495D01*
X105616783Y-137894668D01*
X105140824Y-137186367D01*
X104797814Y-136404969D01*
X104598086Y-135573040D01*
X104546000Y-134863765D01*
X104546000Y-133246772D01*
X106990000Y-133246772D01*
X106990000Y-133961228D01*
X107129383Y-134661957D01*
X107402794Y-135322029D01*
X107799725Y-135916078D01*
X108304922Y-136421275D01*
X108898971Y-136818206D01*
X109559043Y-137091617D01*
X110259772Y-137231000D01*
X110974228Y-137231000D01*
X111674957Y-137091617D01*
X112335029Y-136818206D01*
X112929078Y-136421275D01*
X113434275Y-135916078D01*
X113831206Y-135322029D01*
X114104617Y-134661957D01*
X114213412Y-134115001D01*
X134845000Y-134115001D01*
X134845000Y-134532999D01*
X134926548Y-134942964D01*
X135086508Y-135329144D01*
X135318735Y-135676696D01*
X135614304Y-135972265D01*
X135961856Y-136204492D01*
X136348036Y-136364452D01*
X136758001Y-136446000D01*
X137175999Y-136446000D01*
X137585964Y-136364452D01*
X137972144Y-136204492D01*
X138319696Y-135972265D01*
X138615265Y-135676696D01*
X138847492Y-135329144D01*
X139007452Y-134942964D01*
X139089000Y-134532999D01*
X139089000Y-134415001D01*
X185965000Y-134415001D01*
X185965000Y-134832999D01*
X186046548Y-135242964D01*
X186206508Y-135629144D01*
X186438735Y-135976696D01*
X186734304Y-136272265D01*
X187081856Y-136504492D01*
X187468036Y-136664452D01*
X187878001Y-136746000D01*
X188295999Y-136746000D01*
X188705964Y-136664452D01*
X189092144Y-136504492D01*
X189439696Y-136272265D01*
X189735265Y-135976696D01*
X189967492Y-135629144D01*
X190127452Y-135242964D01*
X190209000Y-134832999D01*
X190209000Y-134415001D01*
X190127452Y-134005036D01*
X189967492Y-133618856D01*
X189735265Y-133271304D01*
X189710733Y-133246772D01*
X223830000Y-133246772D01*
X223830000Y-133961228D01*
X223969383Y-134661957D01*
X224242794Y-135322029D01*
X224639725Y-135916078D01*
X225144922Y-136421275D01*
X225738971Y-136818206D01*
X226399043Y-137091617D01*
X227099772Y-137231000D01*
X227814228Y-137231000D01*
X228514957Y-137091617D01*
X229175029Y-136818206D01*
X229769078Y-136421275D01*
X230274275Y-135916078D01*
X230671206Y-135322029D01*
X230944617Y-134661957D01*
X231084000Y-133961228D01*
X231084000Y-133246772D01*
X230944617Y-132546043D01*
X230671206Y-131885971D01*
X230274275Y-131291922D01*
X229769078Y-130786725D01*
X229175029Y-130389794D01*
X228514957Y-130116383D01*
X227814228Y-129977000D01*
X227099772Y-129977000D01*
X226399043Y-130116383D01*
X225738971Y-130389794D01*
X225144922Y-130786725D01*
X224639725Y-131291922D01*
X224242794Y-131885971D01*
X223969383Y-132546043D01*
X223830000Y-133246772D01*
X189710733Y-133246772D01*
X189439696Y-132975735D01*
X189092144Y-132743508D01*
X188705964Y-132583548D01*
X188295999Y-132502000D01*
X187878001Y-132502000D01*
X187468036Y-132583548D01*
X187081856Y-132743508D01*
X186734304Y-132975735D01*
X186438735Y-133271304D01*
X186206508Y-133618856D01*
X186046548Y-134005036D01*
X185965000Y-134415001D01*
X139089000Y-134415001D01*
X139089000Y-134115001D01*
X139007452Y-133705036D01*
X138847492Y-133318856D01*
X138615265Y-132971304D01*
X138319696Y-132675735D01*
X137972144Y-132443508D01*
X137585964Y-132283548D01*
X137175999Y-132202000D01*
X136758001Y-132202000D01*
X136348036Y-132283548D01*
X135961856Y-132443508D01*
X135614304Y-132675735D01*
X135318735Y-132971304D01*
X135086508Y-133318856D01*
X134926548Y-133705036D01*
X134845000Y-134115001D01*
X114213412Y-134115001D01*
X114244000Y-133961228D01*
X114244000Y-133246772D01*
X114104617Y-132546043D01*
X113831206Y-131885971D01*
X113434275Y-131291922D01*
X112929078Y-130786725D01*
X112335029Y-130389794D01*
X111674957Y-130116383D01*
X110974228Y-129977000D01*
X110259772Y-129977000D01*
X109559043Y-130116383D01*
X108898971Y-130389794D01*
X108304922Y-130786725D01*
X107799725Y-131291922D01*
X107402794Y-131885971D01*
X107129383Y-132546043D01*
X106990000Y-133246772D01*
X104546000Y-133246772D01*
X104546000Y-128328544D01*
X174987500Y-128328544D01*
X174987500Y-128719456D01*
X175063763Y-129102857D01*
X175213359Y-129464013D01*
X175430538Y-129789045D01*
X175706955Y-130065462D01*
X176031987Y-130282641D01*
X176393143Y-130432237D01*
X176776544Y-130508500D01*
X177167456Y-130508500D01*
X177550857Y-130432237D01*
X177912013Y-130282641D01*
X178237045Y-130065462D01*
X178513462Y-129789045D01*
X178730641Y-129464013D01*
X178880237Y-129102857D01*
X178956500Y-128719456D01*
X178956500Y-128328544D01*
X179432500Y-128328544D01*
X179432500Y-128719456D01*
X179508763Y-129102857D01*
X179658359Y-129464013D01*
X179875538Y-129789045D01*
X180151955Y-130065462D01*
X180476987Y-130282641D01*
X180838143Y-130432237D01*
X181221544Y-130508500D01*
X181612456Y-130508500D01*
X181995857Y-130432237D01*
X182357013Y-130282641D01*
X182682045Y-130065462D01*
X182958462Y-129789045D01*
X183175641Y-129464013D01*
X183325237Y-129102857D01*
X183401500Y-128719456D01*
X183401500Y-128328544D01*
X183877500Y-128328544D01*
X183877500Y-128719456D01*
X183953763Y-129102857D01*
X184103359Y-129464013D01*
X184320538Y-129789045D01*
X184596955Y-130065462D01*
X184921987Y-130282641D01*
X185283143Y-130432237D01*
X185666544Y-130508500D01*
X186057456Y-130508500D01*
X186440857Y-130432237D01*
X186802013Y-130282641D01*
X187127045Y-130065462D01*
X187403462Y-129789045D01*
X187620641Y-129464013D01*
X187770237Y-129102857D01*
X187846500Y-128719456D01*
X187846500Y-128328544D01*
X188327500Y-128328544D01*
X188327500Y-128719456D01*
X188403763Y-129102857D01*
X188553359Y-129464013D01*
X188770538Y-129789045D01*
X189046955Y-130065462D01*
X189371987Y-130282641D01*
X189733143Y-130432237D01*
X190116544Y-130508500D01*
X190507456Y-130508500D01*
X190890857Y-130432237D01*
X191252013Y-130282641D01*
X191577045Y-130065462D01*
X191853462Y-129789045D01*
X192070641Y-129464013D01*
X192220237Y-129102857D01*
X192296500Y-128719456D01*
X192296500Y-128328544D01*
X192772500Y-128328544D01*
X192772500Y-128719456D01*
X192848763Y-129102857D01*
X192998359Y-129464013D01*
X193215538Y-129789045D01*
X193491955Y-130065462D01*
X193816987Y-130282641D01*
X194178143Y-130432237D01*
X194561544Y-130508500D01*
X194952456Y-130508500D01*
X195335857Y-130432237D01*
X195697013Y-130282641D01*
X196022045Y-130065462D01*
X196298462Y-129789045D01*
X196515641Y-129464013D01*
X196665237Y-129102857D01*
X196741500Y-128719456D01*
X196741500Y-128328544D01*
X197217500Y-128328544D01*
X197217500Y-128719456D01*
X197293763Y-129102857D01*
X197443359Y-129464013D01*
X197660538Y-129789045D01*
X197936955Y-130065462D01*
X198261987Y-130282641D01*
X198623143Y-130432237D01*
X199006544Y-130508500D01*
X199397456Y-130508500D01*
X199780857Y-130432237D01*
X200142013Y-130282641D01*
X200467045Y-130065462D01*
X200743462Y-129789045D01*
X200960641Y-129464013D01*
X201110237Y-129102857D01*
X201186500Y-128719456D01*
X201186500Y-128328544D01*
X201110237Y-127945143D01*
X200960641Y-127583987D01*
X200743462Y-127258955D01*
X200467045Y-126982538D01*
X200142013Y-126765359D01*
X199780857Y-126615763D01*
X199397456Y-126539500D01*
X199006544Y-126539500D01*
X198623143Y-126615763D01*
X198261987Y-126765359D01*
X197936955Y-126982538D01*
X197660538Y-127258955D01*
X197443359Y-127583987D01*
X197293763Y-127945143D01*
X197217500Y-128328544D01*
X196741500Y-128328544D01*
X196665237Y-127945143D01*
X196515641Y-127583987D01*
X196298462Y-127258955D01*
X196022045Y-126982538D01*
X195697013Y-126765359D01*
X195335857Y-126615763D01*
X194952456Y-126539500D01*
X194561544Y-126539500D01*
X194178143Y-126615763D01*
X193816987Y-126765359D01*
X193491955Y-126982538D01*
X193215538Y-127258955D01*
X192998359Y-127583987D01*
X192848763Y-127945143D01*
X192772500Y-128328544D01*
X192296500Y-128328544D01*
X192220237Y-127945143D01*
X192070641Y-127583987D01*
X191853462Y-127258955D01*
X191577045Y-126982538D01*
X191252013Y-126765359D01*
X190890857Y-126615763D01*
X190507456Y-126539500D01*
X190116544Y-126539500D01*
X189733143Y-126615763D01*
X189371987Y-126765359D01*
X189046955Y-126982538D01*
X188770538Y-127258955D01*
X188553359Y-127583987D01*
X188403763Y-127945143D01*
X188327500Y-128328544D01*
X187846500Y-128328544D01*
X187770237Y-127945143D01*
X187620641Y-127583987D01*
X187403462Y-127258955D01*
X187127045Y-126982538D01*
X186802013Y-126765359D01*
X186440857Y-126615763D01*
X186057456Y-126539500D01*
X185666544Y-126539500D01*
X185283143Y-126615763D01*
X184921987Y-126765359D01*
X184596955Y-126982538D01*
X184320538Y-127258955D01*
X184103359Y-127583987D01*
X183953763Y-127945143D01*
X183877500Y-128328544D01*
X183401500Y-128328544D01*
X183325237Y-127945143D01*
X183175641Y-127583987D01*
X182958462Y-127258955D01*
X182682045Y-126982538D01*
X182357013Y-126765359D01*
X181995857Y-126615763D01*
X181612456Y-126539500D01*
X181221544Y-126539500D01*
X180838143Y-126615763D01*
X180476987Y-126765359D01*
X180151955Y-126982538D01*
X179875538Y-127258955D01*
X179658359Y-127583987D01*
X179508763Y-127945143D01*
X179432500Y-128328544D01*
X178956500Y-128328544D01*
X178880237Y-127945143D01*
X178730641Y-127583987D01*
X178513462Y-127258955D01*
X178237045Y-126982538D01*
X177912013Y-126765359D01*
X177550857Y-126615763D01*
X177167456Y-126539500D01*
X176776544Y-126539500D01*
X176393143Y-126615763D01*
X176031987Y-126765359D01*
X175706955Y-126982538D01*
X175430538Y-127258955D01*
X175213359Y-127583987D01*
X175063763Y-127945143D01*
X174987500Y-128328544D01*
X104546000Y-128328544D01*
X104546000Y-122685001D01*
X126195000Y-122685001D01*
X126195000Y-123102999D01*
X126276548Y-123512964D01*
X126436508Y-123899144D01*
X126668735Y-124246696D01*
X126964304Y-124542265D01*
X127311856Y-124774492D01*
X127698036Y-124934452D01*
X128108001Y-125016000D01*
X128525999Y-125016000D01*
X128935964Y-124934452D01*
X129322144Y-124774492D01*
X129669696Y-124542265D01*
X129965265Y-124246696D01*
X130197492Y-123899144D01*
X130357452Y-123512964D01*
X130439000Y-123102999D01*
X130439000Y-122685001D01*
X130357452Y-122275036D01*
X130197492Y-121888856D01*
X129965265Y-121541304D01*
X129669696Y-121245735D01*
X129322144Y-121013508D01*
X128935964Y-120853548D01*
X128525999Y-120772000D01*
X128108001Y-120772000D01*
X127698036Y-120853548D01*
X127311856Y-121013508D01*
X126964304Y-121245735D01*
X126668735Y-121541304D01*
X126436508Y-121888856D01*
X126276548Y-122275036D01*
X126195000Y-122685001D01*
X104546000Y-122685001D01*
X104546000Y-120554000D01*
X132791967Y-120554000D01*
X132791967Y-123194000D01*
X132804073Y-123316913D01*
X132839925Y-123435103D01*
X132898147Y-123544028D01*
X132976499Y-123639501D01*
X133071972Y-123717853D01*
X133180897Y-123776075D01*
X133299087Y-123811927D01*
X133422000Y-123824033D01*
X136062000Y-123824033D01*
X136184913Y-123811927D01*
X136303103Y-123776075D01*
X136412028Y-123717853D01*
X136507501Y-123639501D01*
X136585853Y-123544028D01*
X136644075Y-123435103D01*
X136679927Y-123316913D01*
X136692033Y-123194000D01*
X136692033Y-122685001D01*
X143495000Y-122685001D01*
X143495000Y-123102999D01*
X143576548Y-123512964D01*
X143736508Y-123899144D01*
X143968735Y-124246696D01*
X144264304Y-124542265D01*
X144611856Y-124774492D01*
X144998036Y-124934452D01*
X145408001Y-125016000D01*
X145825999Y-125016000D01*
X146235964Y-124934452D01*
X146622144Y-124774492D01*
X146969696Y-124542265D01*
X147265265Y-124246696D01*
X147497492Y-123899144D01*
X147657452Y-123512964D01*
X147739000Y-123102999D01*
X147739000Y-122975001D01*
X168425000Y-122975001D01*
X168425000Y-123392999D01*
X168506548Y-123802964D01*
X168666508Y-124189144D01*
X168898735Y-124536696D01*
X169194304Y-124832265D01*
X169541856Y-125064492D01*
X169928036Y-125224452D01*
X170338001Y-125306000D01*
X170755999Y-125306000D01*
X171165964Y-125224452D01*
X171552144Y-125064492D01*
X171899696Y-124832265D01*
X172195265Y-124536696D01*
X172427492Y-124189144D01*
X172587452Y-123802964D01*
X172669000Y-123392999D01*
X172669000Y-122975001D01*
X172587452Y-122565036D01*
X172427492Y-122178856D01*
X172195265Y-121831304D01*
X171899696Y-121535735D01*
X171552144Y-121303508D01*
X171165964Y-121143548D01*
X170755999Y-121062000D01*
X170338001Y-121062000D01*
X169928036Y-121143548D01*
X169541856Y-121303508D01*
X169194304Y-121535735D01*
X168898735Y-121831304D01*
X168666508Y-122178856D01*
X168506548Y-122565036D01*
X168425000Y-122975001D01*
X147739000Y-122975001D01*
X147739000Y-122685001D01*
X147657452Y-122275036D01*
X147497492Y-121888856D01*
X147265265Y-121541304D01*
X146969696Y-121245735D01*
X146622144Y-121013508D01*
X146235964Y-120853548D01*
X146049714Y-120816500D01*
X174984467Y-120816500D01*
X174984467Y-123531500D01*
X174996573Y-123654413D01*
X175032425Y-123772603D01*
X175090647Y-123881528D01*
X175168999Y-123977001D01*
X175264472Y-124055353D01*
X175373397Y-124113575D01*
X175491587Y-124149427D01*
X175614500Y-124161533D01*
X178329500Y-124161533D01*
X178452413Y-124149427D01*
X178570603Y-124113575D01*
X178679528Y-124055353D01*
X178775001Y-123977001D01*
X178853353Y-123881528D01*
X178911575Y-123772603D01*
X178947427Y-123654413D01*
X178959533Y-123531500D01*
X178959533Y-121978544D01*
X179432500Y-121978544D01*
X179432500Y-122369456D01*
X179508763Y-122752857D01*
X179658359Y-123114013D01*
X179875538Y-123439045D01*
X180151955Y-123715462D01*
X180476987Y-123932641D01*
X180838143Y-124082237D01*
X181221544Y-124158500D01*
X181612456Y-124158500D01*
X181995857Y-124082237D01*
X182357013Y-123932641D01*
X182682045Y-123715462D01*
X182958462Y-123439045D01*
X183175641Y-123114013D01*
X183325237Y-122752857D01*
X183401500Y-122369456D01*
X183401500Y-121978544D01*
X183877500Y-121978544D01*
X183877500Y-122369456D01*
X183953763Y-122752857D01*
X184103359Y-123114013D01*
X184320538Y-123439045D01*
X184596955Y-123715462D01*
X184921987Y-123932641D01*
X185283143Y-124082237D01*
X185666544Y-124158500D01*
X186057456Y-124158500D01*
X186440857Y-124082237D01*
X186802013Y-123932641D01*
X187127045Y-123715462D01*
X187403462Y-123439045D01*
X187620641Y-123114013D01*
X187770237Y-122752857D01*
X187846500Y-122369456D01*
X187846500Y-121978544D01*
X188327500Y-121978544D01*
X188327500Y-122369456D01*
X188403763Y-122752857D01*
X188553359Y-123114013D01*
X188770538Y-123439045D01*
X189046955Y-123715462D01*
X189371987Y-123932641D01*
X189733143Y-124082237D01*
X190116544Y-124158500D01*
X190507456Y-124158500D01*
X190890857Y-124082237D01*
X191252013Y-123932641D01*
X191577045Y-123715462D01*
X191853462Y-123439045D01*
X192070641Y-123114013D01*
X192220237Y-122752857D01*
X192296500Y-122369456D01*
X192296500Y-121978544D01*
X192772500Y-121978544D01*
X192772500Y-122369456D01*
X192848763Y-122752857D01*
X192998359Y-123114013D01*
X193215538Y-123439045D01*
X193491955Y-123715462D01*
X193816987Y-123932641D01*
X194178143Y-124082237D01*
X194561544Y-124158500D01*
X194952456Y-124158500D01*
X195335857Y-124082237D01*
X195697013Y-123932641D01*
X196022045Y-123715462D01*
X196298462Y-123439045D01*
X196515641Y-123114013D01*
X196665237Y-122752857D01*
X196741500Y-122369456D01*
X196741500Y-121978544D01*
X197217500Y-121978544D01*
X197217500Y-122369456D01*
X197293763Y-122752857D01*
X197443359Y-123114013D01*
X197660538Y-123439045D01*
X197936955Y-123715462D01*
X198261987Y-123932641D01*
X198623143Y-124082237D01*
X199006544Y-124158500D01*
X199397456Y-124158500D01*
X199780857Y-124082237D01*
X200142013Y-123932641D01*
X200467045Y-123715462D01*
X200743462Y-123439045D01*
X200960641Y-123114013D01*
X201018221Y-122975001D01*
X203505000Y-122975001D01*
X203505000Y-123392999D01*
X203586548Y-123802964D01*
X203746508Y-124189144D01*
X203978735Y-124536696D01*
X204274304Y-124832265D01*
X204621856Y-125064492D01*
X205008036Y-125224452D01*
X205418001Y-125306000D01*
X205835999Y-125306000D01*
X206245964Y-125224452D01*
X206632144Y-125064492D01*
X206979696Y-124832265D01*
X207275265Y-124536696D01*
X207507492Y-124189144D01*
X207667452Y-123802964D01*
X207749000Y-123392999D01*
X207749000Y-122975001D01*
X207667452Y-122565036D01*
X207507492Y-122178856D01*
X207275265Y-121831304D01*
X206979696Y-121535735D01*
X206632144Y-121303508D01*
X206245964Y-121143548D01*
X205835999Y-121062000D01*
X205418001Y-121062000D01*
X205008036Y-121143548D01*
X204621856Y-121303508D01*
X204274304Y-121535735D01*
X203978735Y-121831304D01*
X203746508Y-122178856D01*
X203586548Y-122565036D01*
X203505000Y-122975001D01*
X201018221Y-122975001D01*
X201110237Y-122752857D01*
X201186500Y-122369456D01*
X201186500Y-121978544D01*
X201110237Y-121595143D01*
X200960641Y-121233987D01*
X200743462Y-120908955D01*
X200467045Y-120632538D01*
X200142013Y-120415359D01*
X199780857Y-120265763D01*
X199397456Y-120189500D01*
X199006544Y-120189500D01*
X198623143Y-120265763D01*
X198261987Y-120415359D01*
X197936955Y-120632538D01*
X197660538Y-120908955D01*
X197443359Y-121233987D01*
X197293763Y-121595143D01*
X197217500Y-121978544D01*
X196741500Y-121978544D01*
X196665237Y-121595143D01*
X196515641Y-121233987D01*
X196298462Y-120908955D01*
X196022045Y-120632538D01*
X195697013Y-120415359D01*
X195335857Y-120265763D01*
X194952456Y-120189500D01*
X194561544Y-120189500D01*
X194178143Y-120265763D01*
X193816987Y-120415359D01*
X193491955Y-120632538D01*
X193215538Y-120908955D01*
X192998359Y-121233987D01*
X192848763Y-121595143D01*
X192772500Y-121978544D01*
X192296500Y-121978544D01*
X192220237Y-121595143D01*
X192070641Y-121233987D01*
X191853462Y-120908955D01*
X191577045Y-120632538D01*
X191252013Y-120415359D01*
X190890857Y-120265763D01*
X190507456Y-120189500D01*
X190116544Y-120189500D01*
X189733143Y-120265763D01*
X189371987Y-120415359D01*
X189046955Y-120632538D01*
X188770538Y-120908955D01*
X188553359Y-121233987D01*
X188403763Y-121595143D01*
X188327500Y-121978544D01*
X187846500Y-121978544D01*
X187770237Y-121595143D01*
X187620641Y-121233987D01*
X187403462Y-120908955D01*
X187127045Y-120632538D01*
X186802013Y-120415359D01*
X186440857Y-120265763D01*
X186057456Y-120189500D01*
X185666544Y-120189500D01*
X185283143Y-120265763D01*
X184921987Y-120415359D01*
X184596955Y-120632538D01*
X184320538Y-120908955D01*
X184103359Y-121233987D01*
X183953763Y-121595143D01*
X183877500Y-121978544D01*
X183401500Y-121978544D01*
X183325237Y-121595143D01*
X183175641Y-121233987D01*
X182958462Y-120908955D01*
X182682045Y-120632538D01*
X182357013Y-120415359D01*
X181995857Y-120265763D01*
X181612456Y-120189500D01*
X181221544Y-120189500D01*
X180838143Y-120265763D01*
X180476987Y-120415359D01*
X180151955Y-120632538D01*
X179875538Y-120908955D01*
X179658359Y-121233987D01*
X179508763Y-121595143D01*
X179432500Y-121978544D01*
X178959533Y-121978544D01*
X178959533Y-120816500D01*
X178947427Y-120693587D01*
X178911575Y-120575397D01*
X178853353Y-120466472D01*
X178775001Y-120370999D01*
X178679528Y-120292647D01*
X178570603Y-120234425D01*
X178452413Y-120198573D01*
X178329500Y-120186467D01*
X175614500Y-120186467D01*
X175491587Y-120198573D01*
X175373397Y-120234425D01*
X175264472Y-120292647D01*
X175168999Y-120370999D01*
X175090647Y-120466472D01*
X175032425Y-120575397D01*
X174996573Y-120693587D01*
X174984467Y-120816500D01*
X146049714Y-120816500D01*
X145825999Y-120772000D01*
X145408001Y-120772000D01*
X144998036Y-120853548D01*
X144611856Y-121013508D01*
X144264304Y-121245735D01*
X143968735Y-121541304D01*
X143736508Y-121888856D01*
X143576548Y-122275036D01*
X143495000Y-122685001D01*
X136692033Y-122685001D01*
X136692033Y-120554000D01*
X136679927Y-120431087D01*
X136644075Y-120312897D01*
X136585853Y-120203972D01*
X136507501Y-120108499D01*
X136412028Y-120030147D01*
X136303103Y-119971925D01*
X136184913Y-119936073D01*
X136062000Y-119923967D01*
X133422000Y-119923967D01*
X133299087Y-119936073D01*
X133180897Y-119971925D01*
X133071972Y-120030147D01*
X132976499Y-120108499D01*
X132898147Y-120203972D01*
X132839925Y-120312897D01*
X132804073Y-120431087D01*
X132791967Y-120554000D01*
X104546000Y-120554000D01*
X104546000Y-119898849D01*
X220673000Y-119898849D01*
X220673000Y-120101151D01*
X220712467Y-120299565D01*
X220789885Y-120486467D01*
X220902277Y-120654674D01*
X221045326Y-120797723D01*
X221213533Y-120910115D01*
X221400435Y-120987533D01*
X221598849Y-121027000D01*
X221801151Y-121027000D01*
X221999565Y-120987533D01*
X222186467Y-120910115D01*
X222354674Y-120797723D01*
X222497723Y-120654674D01*
X222610115Y-120486467D01*
X222687533Y-120299565D01*
X222727000Y-120101151D01*
X222727000Y-119898849D01*
X222687533Y-119700435D01*
X222610115Y-119513533D01*
X222497723Y-119345326D01*
X222354674Y-119202277D01*
X222186467Y-119089885D01*
X221999565Y-119012467D01*
X221801151Y-118973000D01*
X221598849Y-118973000D01*
X221400435Y-119012467D01*
X221213533Y-119089885D01*
X221045326Y-119202277D01*
X220902277Y-119345326D01*
X220789885Y-119513533D01*
X220712467Y-119700435D01*
X220673000Y-119898849D01*
X104546000Y-119898849D01*
X104546000Y-106000000D01*
X214761000Y-106000000D01*
X214761000Y-116000000D01*
X214763440Y-116024776D01*
X214770667Y-116048601D01*
X214782403Y-116070557D01*
X214798197Y-116089803D01*
X214817443Y-116105597D01*
X214839399Y-116117333D01*
X214863224Y-116124560D01*
X214888000Y-116127000D01*
X229112000Y-116127000D01*
X229136776Y-116124560D01*
X229160601Y-116117333D01*
X229182557Y-116105597D01*
X229201803Y-116089803D01*
X229217597Y-116070557D01*
X229229333Y-116048601D01*
X229236560Y-116024776D01*
X229239000Y-116000000D01*
X229239000Y-106000000D01*
X229236560Y-105975224D01*
X229229333Y-105951399D01*
X229217597Y-105929443D01*
X229201803Y-105910197D01*
X229182557Y-105894403D01*
X229160601Y-105882667D01*
X229136776Y-105875440D01*
X229112000Y-105873000D01*
X214888000Y-105873000D01*
X214863224Y-105875440D01*
X214839399Y-105882667D01*
X214817443Y-105894403D01*
X214798197Y-105910197D01*
X214782403Y-105929443D01*
X214770667Y-105951399D01*
X214763440Y-105975224D01*
X214761000Y-106000000D01*
X104546000Y-106000000D01*
X104546000Y-102006849D01*
X144261000Y-102006849D01*
X144261000Y-102209151D01*
X144300467Y-102407565D01*
X144377885Y-102594467D01*
X144490277Y-102762674D01*
X144633326Y-102905723D01*
X144801533Y-103018115D01*
X144988435Y-103095533D01*
X145186849Y-103135000D01*
X145389151Y-103135000D01*
X145587565Y-103095533D01*
X145774467Y-103018115D01*
X145942674Y-102905723D01*
X146085723Y-102762674D01*
X146198115Y-102594467D01*
X146275533Y-102407565D01*
X146315000Y-102209151D01*
X146315000Y-102006849D01*
X146304259Y-101952849D01*
X161961000Y-101952849D01*
X161961000Y-102155151D01*
X162000467Y-102353565D01*
X162077885Y-102540467D01*
X162190277Y-102708674D01*
X162333326Y-102851723D01*
X162501533Y-102964115D01*
X162688435Y-103041533D01*
X162886849Y-103081000D01*
X163089151Y-103081000D01*
X163287565Y-103041533D01*
X163474467Y-102964115D01*
X163642674Y-102851723D01*
X163785723Y-102708674D01*
X163898115Y-102540467D01*
X163975533Y-102353565D01*
X164015000Y-102155151D01*
X164015000Y-101954008D01*
X179739280Y-101954008D01*
X179739280Y-102156310D01*
X179778747Y-102354724D01*
X179856165Y-102541626D01*
X179968557Y-102709833D01*
X180111606Y-102852882D01*
X180279813Y-102965274D01*
X180466715Y-103042692D01*
X180665129Y-103082159D01*
X180867431Y-103082159D01*
X181065845Y-103042692D01*
X181252747Y-102965274D01*
X181420954Y-102852882D01*
X181564003Y-102709833D01*
X181676395Y-102541626D01*
X181753813Y-102354724D01*
X181793280Y-102156310D01*
X181793280Y-101962849D01*
X197504000Y-101962849D01*
X197504000Y-102165151D01*
X197543467Y-102363565D01*
X197620885Y-102550467D01*
X197733277Y-102718674D01*
X197876326Y-102861723D01*
X198044533Y-102974115D01*
X198231435Y-103051533D01*
X198429849Y-103091000D01*
X198632151Y-103091000D01*
X198830565Y-103051533D01*
X199017467Y-102974115D01*
X199185674Y-102861723D01*
X199328723Y-102718674D01*
X199441115Y-102550467D01*
X199518533Y-102363565D01*
X199558000Y-102165151D01*
X199558000Y-101962849D01*
X199518533Y-101764435D01*
X199441115Y-101577533D01*
X199328723Y-101409326D01*
X199185674Y-101266277D01*
X199017467Y-101153885D01*
X198830565Y-101076467D01*
X198632151Y-101037000D01*
X198429849Y-101037000D01*
X198231435Y-101076467D01*
X198044533Y-101153885D01*
X197876326Y-101266277D01*
X197733277Y-101409326D01*
X197620885Y-101577533D01*
X197543467Y-101764435D01*
X197504000Y-101962849D01*
X181793280Y-101962849D01*
X181793280Y-101954008D01*
X181753813Y-101755594D01*
X181676395Y-101568692D01*
X181564003Y-101400485D01*
X181420954Y-101257436D01*
X181252747Y-101145044D01*
X181065845Y-101067626D01*
X180867431Y-101028159D01*
X180665129Y-101028159D01*
X180466715Y-101067626D01*
X180279813Y-101145044D01*
X180111606Y-101257436D01*
X179968557Y-101400485D01*
X179856165Y-101568692D01*
X179778747Y-101755594D01*
X179739280Y-101954008D01*
X164015000Y-101954008D01*
X164015000Y-101952849D01*
X163975533Y-101754435D01*
X163898115Y-101567533D01*
X163785723Y-101399326D01*
X163642674Y-101256277D01*
X163474467Y-101143885D01*
X163287565Y-101066467D01*
X163089151Y-101027000D01*
X162886849Y-101027000D01*
X162688435Y-101066467D01*
X162501533Y-101143885D01*
X162333326Y-101256277D01*
X162190277Y-101399326D01*
X162077885Y-101567533D01*
X162000467Y-101754435D01*
X161961000Y-101952849D01*
X146304259Y-101952849D01*
X146275533Y-101808435D01*
X146198115Y-101621533D01*
X146085723Y-101453326D01*
X145942674Y-101310277D01*
X145774467Y-101197885D01*
X145587565Y-101120467D01*
X145389151Y-101081000D01*
X145186849Y-101081000D01*
X144988435Y-101120467D01*
X144801533Y-101197885D01*
X144633326Y-101310277D01*
X144490277Y-101453326D01*
X144377885Y-101621533D01*
X144300467Y-101808435D01*
X144261000Y-102006849D01*
X104546000Y-102006849D01*
X104546000Y-100536849D01*
X142309000Y-100536849D01*
X142309000Y-100739151D01*
X142348467Y-100937565D01*
X142425885Y-101124467D01*
X142538277Y-101292674D01*
X142681326Y-101435723D01*
X142849533Y-101548115D01*
X143036435Y-101625533D01*
X143234849Y-101665000D01*
X143437151Y-101665000D01*
X143635565Y-101625533D01*
X143822467Y-101548115D01*
X143990674Y-101435723D01*
X144133723Y-101292674D01*
X144246115Y-101124467D01*
X144323533Y-100937565D01*
X144363000Y-100739151D01*
X144363000Y-100536849D01*
X144352259Y-100482849D01*
X160009000Y-100482849D01*
X160009000Y-100685151D01*
X160048467Y-100883565D01*
X160125885Y-101070467D01*
X160238277Y-101238674D01*
X160381326Y-101381723D01*
X160549533Y-101494115D01*
X160736435Y-101571533D01*
X160934849Y-101611000D01*
X161137151Y-101611000D01*
X161335565Y-101571533D01*
X161522467Y-101494115D01*
X161690674Y-101381723D01*
X161833723Y-101238674D01*
X161946115Y-101070467D01*
X162023533Y-100883565D01*
X162063000Y-100685151D01*
X162063000Y-100484008D01*
X177787280Y-100484008D01*
X177787280Y-100686310D01*
X177826747Y-100884724D01*
X177904165Y-101071626D01*
X178016557Y-101239833D01*
X178159606Y-101382882D01*
X178327813Y-101495274D01*
X178514715Y-101572692D01*
X178713129Y-101612159D01*
X178915431Y-101612159D01*
X179113845Y-101572692D01*
X179300747Y-101495274D01*
X179468954Y-101382882D01*
X179612003Y-101239833D01*
X179724395Y-101071626D01*
X179801813Y-100884724D01*
X179841280Y-100686310D01*
X179841280Y-100492849D01*
X195552000Y-100492849D01*
X195552000Y-100695151D01*
X195591467Y-100893565D01*
X195668885Y-101080467D01*
X195781277Y-101248674D01*
X195924326Y-101391723D01*
X196092533Y-101504115D01*
X196279435Y-101581533D01*
X196477849Y-101621000D01*
X196680151Y-101621000D01*
X196878565Y-101581533D01*
X197065467Y-101504115D01*
X197233674Y-101391723D01*
X197376723Y-101248674D01*
X197489115Y-101080467D01*
X197566533Y-100893565D01*
X197606000Y-100695151D01*
X197606000Y-100492849D01*
X197566533Y-100294435D01*
X197489115Y-100107533D01*
X197376723Y-99939326D01*
X197233674Y-99796277D01*
X197065467Y-99683885D01*
X196878565Y-99606467D01*
X196680151Y-99567000D01*
X196477849Y-99567000D01*
X196279435Y-99606467D01*
X196092533Y-99683885D01*
X195924326Y-99796277D01*
X195781277Y-99939326D01*
X195668885Y-100107533D01*
X195591467Y-100294435D01*
X195552000Y-100492849D01*
X179841280Y-100492849D01*
X179841280Y-100484008D01*
X179801813Y-100285594D01*
X179724395Y-100098692D01*
X179612003Y-99930485D01*
X179468954Y-99787436D01*
X179300747Y-99675044D01*
X179113845Y-99597626D01*
X178915431Y-99558159D01*
X178713129Y-99558159D01*
X178514715Y-99597626D01*
X178327813Y-99675044D01*
X178159606Y-99787436D01*
X178016557Y-99930485D01*
X177904165Y-100098692D01*
X177826747Y-100285594D01*
X177787280Y-100484008D01*
X162063000Y-100484008D01*
X162063000Y-100482849D01*
X162023533Y-100284435D01*
X161946115Y-100097533D01*
X161833723Y-99929326D01*
X161690674Y-99786277D01*
X161522467Y-99673885D01*
X161335565Y-99596467D01*
X161137151Y-99557000D01*
X160934849Y-99557000D01*
X160736435Y-99596467D01*
X160549533Y-99673885D01*
X160381326Y-99786277D01*
X160238277Y-99929326D01*
X160125885Y-100097533D01*
X160048467Y-100284435D01*
X160009000Y-100482849D01*
X144352259Y-100482849D01*
X144323533Y-100338435D01*
X144246115Y-100151533D01*
X144133723Y-99983326D01*
X143990674Y-99840277D01*
X143822467Y-99727885D01*
X143635565Y-99650467D01*
X143437151Y-99611000D01*
X143234849Y-99611000D01*
X143036435Y-99650467D01*
X142849533Y-99727885D01*
X142681326Y-99840277D01*
X142538277Y-99983326D01*
X142425885Y-100151533D01*
X142348467Y-100338435D01*
X142309000Y-100536849D01*
X104546000Y-100536849D01*
X104546000Y-97758849D01*
X144661000Y-97758849D01*
X144661000Y-97961151D01*
X144700467Y-98159565D01*
X144777885Y-98346467D01*
X144890277Y-98514674D01*
X145033326Y-98657723D01*
X145201533Y-98770115D01*
X145388435Y-98847533D01*
X145586849Y-98887000D01*
X145789151Y-98887000D01*
X145987565Y-98847533D01*
X146174467Y-98770115D01*
X146342674Y-98657723D01*
X146485723Y-98514674D01*
X146598115Y-98346467D01*
X146675533Y-98159565D01*
X146715000Y-97961151D01*
X146715000Y-97758849D01*
X146704259Y-97704849D01*
X162361000Y-97704849D01*
X162361000Y-97907151D01*
X162400467Y-98105565D01*
X162477885Y-98292467D01*
X162590277Y-98460674D01*
X162733326Y-98603723D01*
X162901533Y-98716115D01*
X163088435Y-98793533D01*
X163286849Y-98833000D01*
X163489151Y-98833000D01*
X163687565Y-98793533D01*
X163874467Y-98716115D01*
X164042674Y-98603723D01*
X164185723Y-98460674D01*
X164298115Y-98292467D01*
X164375533Y-98105565D01*
X164415000Y-97907151D01*
X164415000Y-97706008D01*
X180139280Y-97706008D01*
X180139280Y-97908310D01*
X180178747Y-98106724D01*
X180256165Y-98293626D01*
X180368557Y-98461833D01*
X180511606Y-98604882D01*
X180679813Y-98717274D01*
X180866715Y-98794692D01*
X181065129Y-98834159D01*
X181267431Y-98834159D01*
X181465845Y-98794692D01*
X181652747Y-98717274D01*
X181820954Y-98604882D01*
X181964003Y-98461833D01*
X182076395Y-98293626D01*
X182153813Y-98106724D01*
X182193280Y-97908310D01*
X182193280Y-97714849D01*
X197904000Y-97714849D01*
X197904000Y-97917151D01*
X197943467Y-98115565D01*
X198020885Y-98302467D01*
X198133277Y-98470674D01*
X198276326Y-98613723D01*
X198444533Y-98726115D01*
X198631435Y-98803533D01*
X198829849Y-98843000D01*
X199032151Y-98843000D01*
X199230565Y-98803533D01*
X199417467Y-98726115D01*
X199585674Y-98613723D01*
X199728723Y-98470674D01*
X199841115Y-98302467D01*
X199918533Y-98115565D01*
X199958000Y-97917151D01*
X199958000Y-97714849D01*
X199918533Y-97516435D01*
X199841115Y-97329533D01*
X199728723Y-97161326D01*
X199585674Y-97018277D01*
X199417467Y-96905885D01*
X199230565Y-96828467D01*
X199032151Y-96789000D01*
X198829849Y-96789000D01*
X198631435Y-96828467D01*
X198444533Y-96905885D01*
X198276326Y-97018277D01*
X198133277Y-97161326D01*
X198020885Y-97329533D01*
X197943467Y-97516435D01*
X197904000Y-97714849D01*
X182193280Y-97714849D01*
X182193280Y-97706008D01*
X182153813Y-97507594D01*
X182076395Y-97320692D01*
X181964003Y-97152485D01*
X181820954Y-97009436D01*
X181652747Y-96897044D01*
X181465845Y-96819626D01*
X181267431Y-96780159D01*
X181065129Y-96780159D01*
X180866715Y-96819626D01*
X180679813Y-96897044D01*
X180511606Y-97009436D01*
X180368557Y-97152485D01*
X180256165Y-97320692D01*
X180178747Y-97507594D01*
X180139280Y-97706008D01*
X164415000Y-97706008D01*
X164415000Y-97704849D01*
X164375533Y-97506435D01*
X164298115Y-97319533D01*
X164185723Y-97151326D01*
X164042674Y-97008277D01*
X163874467Y-96895885D01*
X163687565Y-96818467D01*
X163489151Y-96779000D01*
X163286849Y-96779000D01*
X163088435Y-96818467D01*
X162901533Y-96895885D01*
X162733326Y-97008277D01*
X162590277Y-97151326D01*
X162477885Y-97319533D01*
X162400467Y-97506435D01*
X162361000Y-97704849D01*
X146704259Y-97704849D01*
X146675533Y-97560435D01*
X146598115Y-97373533D01*
X146485723Y-97205326D01*
X146342674Y-97062277D01*
X146174467Y-96949885D01*
X145987565Y-96872467D01*
X145789151Y-96833000D01*
X145586849Y-96833000D01*
X145388435Y-96872467D01*
X145201533Y-96949885D01*
X145033326Y-97062277D01*
X144890277Y-97205326D01*
X144777885Y-97373533D01*
X144700467Y-97560435D01*
X144661000Y-97758849D01*
X104546000Y-97758849D01*
X104546000Y-95774839D01*
X142309000Y-95774839D01*
X142309000Y-95977141D01*
X142348467Y-96175555D01*
X142425885Y-96362457D01*
X142538277Y-96530664D01*
X142681326Y-96673713D01*
X142849533Y-96786105D01*
X143036435Y-96863523D01*
X143234849Y-96902990D01*
X143437151Y-96902990D01*
X143635565Y-96863523D01*
X143822467Y-96786105D01*
X143990674Y-96673713D01*
X144133723Y-96530664D01*
X144246115Y-96362457D01*
X144323533Y-96175555D01*
X144363000Y-95977141D01*
X144363000Y-95774839D01*
X144352259Y-95720839D01*
X160009000Y-95720839D01*
X160009000Y-95923141D01*
X160048467Y-96121555D01*
X160125885Y-96308457D01*
X160238277Y-96476664D01*
X160381326Y-96619713D01*
X160549533Y-96732105D01*
X160736435Y-96809523D01*
X160934849Y-96848990D01*
X161137151Y-96848990D01*
X161335565Y-96809523D01*
X161522467Y-96732105D01*
X161690674Y-96619713D01*
X161833723Y-96476664D01*
X161946115Y-96308457D01*
X162023533Y-96121555D01*
X162063000Y-95923141D01*
X162063000Y-95721998D01*
X177787280Y-95721998D01*
X177787280Y-95924300D01*
X177826747Y-96122714D01*
X177904165Y-96309616D01*
X178016557Y-96477823D01*
X178159606Y-96620872D01*
X178327813Y-96733264D01*
X178514715Y-96810682D01*
X178713129Y-96850149D01*
X178915431Y-96850149D01*
X179113845Y-96810682D01*
X179300747Y-96733264D01*
X179468954Y-96620872D01*
X179612003Y-96477823D01*
X179724395Y-96309616D01*
X179801813Y-96122714D01*
X179841280Y-95924300D01*
X179841280Y-95730839D01*
X195552000Y-95730839D01*
X195552000Y-95933141D01*
X195591467Y-96131555D01*
X195668885Y-96318457D01*
X195781277Y-96486664D01*
X195924326Y-96629713D01*
X196092533Y-96742105D01*
X196279435Y-96819523D01*
X196477849Y-96858990D01*
X196680151Y-96858990D01*
X196878565Y-96819523D01*
X197065467Y-96742105D01*
X197233674Y-96629713D01*
X197376723Y-96486664D01*
X197489115Y-96318457D01*
X197566533Y-96131555D01*
X197606000Y-95933141D01*
X197606000Y-95730839D01*
X197566533Y-95532425D01*
X197489115Y-95345523D01*
X197376723Y-95177316D01*
X197233674Y-95034267D01*
X197065467Y-94921875D01*
X196878565Y-94844457D01*
X196680151Y-94804990D01*
X196477849Y-94804990D01*
X196279435Y-94844457D01*
X196092533Y-94921875D01*
X195924326Y-95034267D01*
X195781277Y-95177316D01*
X195668885Y-95345523D01*
X195591467Y-95532425D01*
X195552000Y-95730839D01*
X179841280Y-95730839D01*
X179841280Y-95721998D01*
X179801813Y-95523584D01*
X179724395Y-95336682D01*
X179612003Y-95168475D01*
X179468954Y-95025426D01*
X179300747Y-94913034D01*
X179113845Y-94835616D01*
X178915431Y-94796149D01*
X178713129Y-94796149D01*
X178514715Y-94835616D01*
X178327813Y-94913034D01*
X178159606Y-95025426D01*
X178016557Y-95168475D01*
X177904165Y-95336682D01*
X177826747Y-95523584D01*
X177787280Y-95721998D01*
X162063000Y-95721998D01*
X162063000Y-95720839D01*
X162023533Y-95522425D01*
X161946115Y-95335523D01*
X161833723Y-95167316D01*
X161690674Y-95024267D01*
X161522467Y-94911875D01*
X161335565Y-94834457D01*
X161137151Y-94794990D01*
X160934849Y-94794990D01*
X160736435Y-94834457D01*
X160549533Y-94911875D01*
X160381326Y-95024267D01*
X160238277Y-95167316D01*
X160125885Y-95335523D01*
X160048467Y-95522425D01*
X160009000Y-95720839D01*
X144352259Y-95720839D01*
X144323533Y-95576425D01*
X144246115Y-95389523D01*
X144133723Y-95221316D01*
X143990674Y-95078267D01*
X143822467Y-94965875D01*
X143635565Y-94888457D01*
X143437151Y-94848990D01*
X143234849Y-94848990D01*
X143036435Y-94888457D01*
X142849533Y-94965875D01*
X142681326Y-95078267D01*
X142538277Y-95221316D01*
X142425885Y-95389523D01*
X142348467Y-95576425D01*
X142309000Y-95774839D01*
X104546000Y-95774839D01*
X104546000Y-94581755D01*
X215035000Y-94581755D01*
X215035000Y-94902245D01*
X215097525Y-95216578D01*
X215220172Y-95512673D01*
X215398227Y-95779152D01*
X215624848Y-96005773D01*
X215891327Y-96183828D01*
X216187422Y-96306475D01*
X216501755Y-96369000D01*
X216822245Y-96369000D01*
X217136578Y-96306475D01*
X217432673Y-96183828D01*
X217699152Y-96005773D01*
X217925773Y-95779152D01*
X218103828Y-95512673D01*
X218226475Y-95216578D01*
X218289000Y-94902245D01*
X218289000Y-94581755D01*
X218226475Y-94267422D01*
X218103828Y-93971327D01*
X217950598Y-93742000D01*
X220111967Y-93742000D01*
X220111967Y-95742000D01*
X220124073Y-95864913D01*
X220159925Y-95983103D01*
X220218147Y-96092028D01*
X220296499Y-96187501D01*
X220391972Y-96265853D01*
X220500897Y-96324075D01*
X220619087Y-96359927D01*
X220742000Y-96372033D01*
X222742000Y-96372033D01*
X222864913Y-96359927D01*
X222983103Y-96324075D01*
X223092028Y-96265853D01*
X223187501Y-96187501D01*
X223265853Y-96092028D01*
X223324075Y-95983103D01*
X223359927Y-95864913D01*
X223372033Y-95742000D01*
X223372033Y-93742000D01*
X223359927Y-93619087D01*
X223324075Y-93500897D01*
X223265853Y-93391972D01*
X223187501Y-93296499D01*
X223092028Y-93218147D01*
X222983103Y-93159925D01*
X222864913Y-93124073D01*
X222742000Y-93111967D01*
X220742000Y-93111967D01*
X220619087Y-93124073D01*
X220500897Y-93159925D01*
X220391972Y-93218147D01*
X220296499Y-93296499D01*
X220218147Y-93391972D01*
X220159925Y-93500897D01*
X220124073Y-93619087D01*
X220111967Y-93742000D01*
X217950598Y-93742000D01*
X217925773Y-93704848D01*
X217699152Y-93478227D01*
X217432673Y-93300172D01*
X217136578Y-93177525D01*
X216822245Y-93115000D01*
X216501755Y-93115000D01*
X216187422Y-93177525D01*
X215891327Y-93300172D01*
X215624848Y-93478227D01*
X215398227Y-93704848D01*
X215220172Y-93971327D01*
X215097525Y-94267422D01*
X215035000Y-94581755D01*
X104546000Y-94581755D01*
X104546000Y-92535849D01*
X142309000Y-92535849D01*
X142309000Y-92738151D01*
X142348467Y-92936565D01*
X142425885Y-93123467D01*
X142538277Y-93291674D01*
X142681326Y-93434723D01*
X142849533Y-93547115D01*
X143036435Y-93624533D01*
X143234849Y-93664000D01*
X143437151Y-93664000D01*
X143635565Y-93624533D01*
X143822467Y-93547115D01*
X143990674Y-93434723D01*
X144133723Y-93291674D01*
X144246115Y-93123467D01*
X144323533Y-92936565D01*
X144363000Y-92738151D01*
X144363000Y-92678849D01*
X145611000Y-92678849D01*
X145611000Y-92881151D01*
X145650467Y-93079565D01*
X145727885Y-93266467D01*
X145840277Y-93434674D01*
X145983326Y-93577723D01*
X146151533Y-93690115D01*
X146338435Y-93767533D01*
X146536849Y-93807000D01*
X146739151Y-93807000D01*
X146937565Y-93767533D01*
X147124467Y-93690115D01*
X147292674Y-93577723D01*
X147435723Y-93434674D01*
X147548115Y-93266467D01*
X147625533Y-93079565D01*
X147665000Y-92881151D01*
X147665000Y-92678849D01*
X147625815Y-92481849D01*
X160009000Y-92481849D01*
X160009000Y-92684151D01*
X160048467Y-92882565D01*
X160125885Y-93069467D01*
X160238277Y-93237674D01*
X160381326Y-93380723D01*
X160549533Y-93493115D01*
X160736435Y-93570533D01*
X160934849Y-93610000D01*
X161137151Y-93610000D01*
X161335565Y-93570533D01*
X161522467Y-93493115D01*
X161690674Y-93380723D01*
X161833723Y-93237674D01*
X161946115Y-93069467D01*
X162023533Y-92882565D01*
X162063000Y-92684151D01*
X162063000Y-92624849D01*
X163311000Y-92624849D01*
X163311000Y-92827151D01*
X163350467Y-93025565D01*
X163427885Y-93212467D01*
X163540277Y-93380674D01*
X163683326Y-93523723D01*
X163851533Y-93636115D01*
X164038435Y-93713533D01*
X164236849Y-93753000D01*
X164439151Y-93753000D01*
X164637565Y-93713533D01*
X164824467Y-93636115D01*
X164992674Y-93523723D01*
X165135723Y-93380674D01*
X165248115Y-93212467D01*
X165325533Y-93025565D01*
X165365000Y-92827151D01*
X165365000Y-92624849D01*
X165336787Y-92483008D01*
X177787280Y-92483008D01*
X177787280Y-92685310D01*
X177826747Y-92883724D01*
X177904165Y-93070626D01*
X178016557Y-93238833D01*
X178159606Y-93381882D01*
X178327813Y-93494274D01*
X178514715Y-93571692D01*
X178713129Y-93611159D01*
X178915431Y-93611159D01*
X179113845Y-93571692D01*
X179300747Y-93494274D01*
X179468954Y-93381882D01*
X179612003Y-93238833D01*
X179724395Y-93070626D01*
X179801813Y-92883724D01*
X179841280Y-92685310D01*
X179841280Y-92626008D01*
X181089280Y-92626008D01*
X181089280Y-92828310D01*
X181128747Y-93026724D01*
X181206165Y-93213626D01*
X181318557Y-93381833D01*
X181461606Y-93524882D01*
X181629813Y-93637274D01*
X181816715Y-93714692D01*
X182015129Y-93754159D01*
X182217431Y-93754159D01*
X182415845Y-93714692D01*
X182602747Y-93637274D01*
X182770954Y-93524882D01*
X182914003Y-93381833D01*
X183026395Y-93213626D01*
X183103813Y-93026724D01*
X183143280Y-92828310D01*
X183143280Y-92626008D01*
X183116595Y-92491849D01*
X195552000Y-92491849D01*
X195552000Y-92694151D01*
X195591467Y-92892565D01*
X195668885Y-93079467D01*
X195781277Y-93247674D01*
X195924326Y-93390723D01*
X196092533Y-93503115D01*
X196279435Y-93580533D01*
X196477849Y-93620000D01*
X196680151Y-93620000D01*
X196878565Y-93580533D01*
X197065467Y-93503115D01*
X197233674Y-93390723D01*
X197376723Y-93247674D01*
X197489115Y-93079467D01*
X197566533Y-92892565D01*
X197606000Y-92694151D01*
X197606000Y-92634849D01*
X198854000Y-92634849D01*
X198854000Y-92837151D01*
X198893467Y-93035565D01*
X198970885Y-93222467D01*
X199083277Y-93390674D01*
X199226326Y-93533723D01*
X199394533Y-93646115D01*
X199581435Y-93723533D01*
X199779849Y-93763000D01*
X199982151Y-93763000D01*
X200180565Y-93723533D01*
X200367467Y-93646115D01*
X200535674Y-93533723D01*
X200678723Y-93390674D01*
X200791115Y-93222467D01*
X200868533Y-93035565D01*
X200908000Y-92837151D01*
X200908000Y-92634849D01*
X200868533Y-92436435D01*
X200791115Y-92249533D01*
X200678723Y-92081326D01*
X200535674Y-91938277D01*
X200367467Y-91825885D01*
X200180565Y-91748467D01*
X199982151Y-91709000D01*
X199779849Y-91709000D01*
X199581435Y-91748467D01*
X199394533Y-91825885D01*
X199226326Y-91938277D01*
X199083277Y-92081326D01*
X198970885Y-92249533D01*
X198893467Y-92436435D01*
X198854000Y-92634849D01*
X197606000Y-92634849D01*
X197606000Y-92491849D01*
X197566533Y-92293435D01*
X197489115Y-92106533D01*
X197376723Y-91938326D01*
X197233674Y-91795277D01*
X197065467Y-91682885D01*
X196878565Y-91605467D01*
X196680151Y-91566000D01*
X196477849Y-91566000D01*
X196279435Y-91605467D01*
X196092533Y-91682885D01*
X195924326Y-91795277D01*
X195781277Y-91938326D01*
X195668885Y-92106533D01*
X195591467Y-92293435D01*
X195552000Y-92491849D01*
X183116595Y-92491849D01*
X183103813Y-92427594D01*
X183026395Y-92240692D01*
X182914003Y-92072485D01*
X182770954Y-91929436D01*
X182602747Y-91817044D01*
X182415845Y-91739626D01*
X182217431Y-91700159D01*
X182015129Y-91700159D01*
X181816715Y-91739626D01*
X181629813Y-91817044D01*
X181461606Y-91929436D01*
X181318557Y-92072485D01*
X181206165Y-92240692D01*
X181128747Y-92427594D01*
X181089280Y-92626008D01*
X179841280Y-92626008D01*
X179841280Y-92483008D01*
X179801813Y-92284594D01*
X179724395Y-92097692D01*
X179612003Y-91929485D01*
X179468954Y-91786436D01*
X179300747Y-91674044D01*
X179113845Y-91596626D01*
X178915431Y-91557159D01*
X178713129Y-91557159D01*
X178514715Y-91596626D01*
X178327813Y-91674044D01*
X178159606Y-91786436D01*
X178016557Y-91929485D01*
X177904165Y-92097692D01*
X177826747Y-92284594D01*
X177787280Y-92483008D01*
X165336787Y-92483008D01*
X165325533Y-92426435D01*
X165248115Y-92239533D01*
X165135723Y-92071326D01*
X164992674Y-91928277D01*
X164824467Y-91815885D01*
X164637565Y-91738467D01*
X164439151Y-91699000D01*
X164236849Y-91699000D01*
X164038435Y-91738467D01*
X163851533Y-91815885D01*
X163683326Y-91928277D01*
X163540277Y-92071326D01*
X163427885Y-92239533D01*
X163350467Y-92426435D01*
X163311000Y-92624849D01*
X162063000Y-92624849D01*
X162063000Y-92481849D01*
X162023533Y-92283435D01*
X161946115Y-92096533D01*
X161833723Y-91928326D01*
X161690674Y-91785277D01*
X161522467Y-91672885D01*
X161335565Y-91595467D01*
X161137151Y-91556000D01*
X160934849Y-91556000D01*
X160736435Y-91595467D01*
X160549533Y-91672885D01*
X160381326Y-91785277D01*
X160238277Y-91928326D01*
X160125885Y-92096533D01*
X160048467Y-92283435D01*
X160009000Y-92481849D01*
X147625815Y-92481849D01*
X147625533Y-92480435D01*
X147548115Y-92293533D01*
X147435723Y-92125326D01*
X147292674Y-91982277D01*
X147124467Y-91869885D01*
X146937565Y-91792467D01*
X146739151Y-91753000D01*
X146536849Y-91753000D01*
X146338435Y-91792467D01*
X146151533Y-91869885D01*
X145983326Y-91982277D01*
X145840277Y-92125326D01*
X145727885Y-92293533D01*
X145650467Y-92480435D01*
X145611000Y-92678849D01*
X144363000Y-92678849D01*
X144363000Y-92535849D01*
X144323533Y-92337435D01*
X144246115Y-92150533D01*
X144133723Y-91982326D01*
X143990674Y-91839277D01*
X143822467Y-91726885D01*
X143635565Y-91649467D01*
X143437151Y-91610000D01*
X143234849Y-91610000D01*
X143036435Y-91649467D01*
X142849533Y-91726885D01*
X142681326Y-91839277D01*
X142538277Y-91982326D01*
X142425885Y-92150533D01*
X142348467Y-92337435D01*
X142309000Y-92535849D01*
X104546000Y-92535849D01*
X104546000Y-87147849D01*
X218559000Y-87147849D01*
X218559000Y-87350151D01*
X218598467Y-87548565D01*
X218675885Y-87735467D01*
X218775131Y-87884000D01*
X218675885Y-88032533D01*
X218598467Y-88219435D01*
X218559000Y-88417849D01*
X218559000Y-88620151D01*
X218598467Y-88818565D01*
X218675885Y-89005467D01*
X218788277Y-89173674D01*
X218931326Y-89316723D01*
X219099533Y-89429115D01*
X219286435Y-89506533D01*
X219484849Y-89546000D01*
X219687151Y-89546000D01*
X219885565Y-89506533D01*
X220072467Y-89429115D01*
X220240674Y-89316723D01*
X220383723Y-89173674D01*
X220496115Y-89005467D01*
X220573533Y-88818565D01*
X220613000Y-88620151D01*
X220613000Y-88417849D01*
X220573533Y-88219435D01*
X220496115Y-88032533D01*
X220396869Y-87884000D01*
X220496115Y-87735467D01*
X220573533Y-87548565D01*
X220613000Y-87350151D01*
X220613000Y-87147849D01*
X220573533Y-86949435D01*
X220496115Y-86762533D01*
X220383723Y-86594326D01*
X220240674Y-86451277D01*
X220072467Y-86338885D01*
X219885565Y-86261467D01*
X219687151Y-86222000D01*
X219484849Y-86222000D01*
X219286435Y-86261467D01*
X219099533Y-86338885D01*
X218931326Y-86451277D01*
X218788277Y-86594326D01*
X218675885Y-86762533D01*
X218598467Y-86949435D01*
X218559000Y-87147849D01*
X104546000Y-87147849D01*
X104546000Y-84988849D01*
X142229000Y-84988849D01*
X142229000Y-85191151D01*
X142268467Y-85389565D01*
X142345885Y-85576467D01*
X142458277Y-85744674D01*
X142601326Y-85887723D01*
X142769533Y-86000115D01*
X142956435Y-86077533D01*
X143154849Y-86117000D01*
X143357151Y-86117000D01*
X143555565Y-86077533D01*
X143742467Y-86000115D01*
X143793387Y-85966091D01*
X144754029Y-85966091D01*
X144754029Y-86168393D01*
X144793496Y-86366807D01*
X144870914Y-86553709D01*
X144983306Y-86721916D01*
X145126355Y-86864965D01*
X145294562Y-86977357D01*
X145481464Y-87054775D01*
X145679878Y-87094242D01*
X145882180Y-87094242D01*
X146080594Y-87054775D01*
X146267496Y-86977357D01*
X146435703Y-86864965D01*
X146578752Y-86721916D01*
X146691144Y-86553709D01*
X146768562Y-86366807D01*
X146808029Y-86168393D01*
X146808029Y-85966091D01*
X146794889Y-85900029D01*
X174995000Y-85900029D01*
X174995000Y-86102331D01*
X175034467Y-86300745D01*
X175111885Y-86487647D01*
X175224277Y-86655854D01*
X175367326Y-86798903D01*
X175535533Y-86911295D01*
X175722435Y-86988713D01*
X175920849Y-87028180D01*
X176123151Y-87028180D01*
X176321565Y-86988713D01*
X176508467Y-86911295D01*
X176676674Y-86798903D01*
X176819723Y-86655854D01*
X176932115Y-86487647D01*
X177009533Y-86300745D01*
X177049000Y-86102331D01*
X177049000Y-85900029D01*
X177009533Y-85701615D01*
X176932115Y-85514713D01*
X176819723Y-85346506D01*
X176676674Y-85203457D01*
X176508467Y-85091065D01*
X176321565Y-85013647D01*
X176123151Y-84974180D01*
X175920849Y-84974180D01*
X175722435Y-85013647D01*
X175535533Y-85091065D01*
X175367326Y-85203457D01*
X175224277Y-85346506D01*
X175111885Y-85514713D01*
X175034467Y-85701615D01*
X174995000Y-85900029D01*
X146794889Y-85900029D01*
X146768562Y-85767677D01*
X146691144Y-85580775D01*
X146578752Y-85412568D01*
X146435703Y-85269519D01*
X146267496Y-85157127D01*
X146080594Y-85079709D01*
X145882180Y-85040242D01*
X145679878Y-85040242D01*
X145481464Y-85079709D01*
X145294562Y-85157127D01*
X145126355Y-85269519D01*
X144983306Y-85412568D01*
X144870914Y-85580775D01*
X144793496Y-85767677D01*
X144754029Y-85966091D01*
X143793387Y-85966091D01*
X143910674Y-85887723D01*
X144053723Y-85744674D01*
X144166115Y-85576467D01*
X144243533Y-85389565D01*
X144283000Y-85191151D01*
X144283000Y-84988849D01*
X144245008Y-84797849D01*
X203697000Y-84797849D01*
X203697000Y-85000151D01*
X203736467Y-85198565D01*
X203813885Y-85385467D01*
X203926277Y-85553674D01*
X204069326Y-85696723D01*
X204237533Y-85809115D01*
X204424435Y-85886533D01*
X204622849Y-85926000D01*
X204825151Y-85926000D01*
X205023565Y-85886533D01*
X205210467Y-85809115D01*
X205378674Y-85696723D01*
X205521723Y-85553674D01*
X205634115Y-85385467D01*
X205711533Y-85198565D01*
X205751000Y-85000151D01*
X205751000Y-84797849D01*
X205711533Y-84599435D01*
X205634115Y-84412533D01*
X205521723Y-84244326D01*
X205378674Y-84101277D01*
X205210467Y-83988885D01*
X205023565Y-83911467D01*
X204825151Y-83872000D01*
X204622849Y-83872000D01*
X204424435Y-83911467D01*
X204237533Y-83988885D01*
X204069326Y-84101277D01*
X203926277Y-84244326D01*
X203813885Y-84412533D01*
X203736467Y-84599435D01*
X203697000Y-84797849D01*
X144245008Y-84797849D01*
X144243533Y-84790435D01*
X144166115Y-84603533D01*
X144053723Y-84435326D01*
X143910674Y-84292277D01*
X143742467Y-84179885D01*
X143555565Y-84102467D01*
X143357151Y-84063000D01*
X143154849Y-84063000D01*
X142956435Y-84102467D01*
X142769533Y-84179885D01*
X142601326Y-84292277D01*
X142458277Y-84435326D01*
X142345885Y-84603533D01*
X142268467Y-84790435D01*
X142229000Y-84988849D01*
X104546000Y-84988849D01*
X104546000Y-78906000D01*
X149141967Y-78906000D01*
X149141967Y-80606000D01*
X149154073Y-80728913D01*
X149189925Y-80847103D01*
X149248147Y-80956028D01*
X149326499Y-81051501D01*
X149421972Y-81129853D01*
X149530897Y-81188075D01*
X149615475Y-81213731D01*
X149474739Y-81354467D01*
X149313099Y-81596378D01*
X149201760Y-81865175D01*
X149145000Y-82150528D01*
X149145000Y-82441472D01*
X149201760Y-82726825D01*
X149313099Y-82995622D01*
X149474739Y-83237533D01*
X149680467Y-83443261D01*
X149922378Y-83604901D01*
X150191175Y-83716240D01*
X150476528Y-83773000D01*
X150767472Y-83773000D01*
X151052825Y-83716240D01*
X151321622Y-83604901D01*
X151563533Y-83443261D01*
X151769261Y-83237533D01*
X151930901Y-82995622D01*
X151999566Y-82829849D01*
X154675000Y-82829849D01*
X154675000Y-83032151D01*
X154714467Y-83230565D01*
X154791885Y-83417467D01*
X154904277Y-83585674D01*
X155047326Y-83728723D01*
X155215533Y-83841115D01*
X155402435Y-83918533D01*
X155600849Y-83958000D01*
X155803151Y-83958000D01*
X156001565Y-83918533D01*
X156188467Y-83841115D01*
X156356674Y-83728723D01*
X156499723Y-83585674D01*
X156612115Y-83417467D01*
X156689533Y-83230565D01*
X156729000Y-83032151D01*
X156729000Y-82898849D01*
X163973000Y-82898849D01*
X163973000Y-83101151D01*
X164012467Y-83299565D01*
X164089885Y-83486467D01*
X164202277Y-83654674D01*
X164345326Y-83797723D01*
X164513533Y-83910115D01*
X164700435Y-83987533D01*
X164898849Y-84027000D01*
X165101151Y-84027000D01*
X165299565Y-83987533D01*
X165486467Y-83910115D01*
X165654674Y-83797723D01*
X165797723Y-83654674D01*
X165910115Y-83486467D01*
X165987533Y-83299565D01*
X166000000Y-83236889D01*
X166012467Y-83299565D01*
X166089885Y-83486467D01*
X166202277Y-83654674D01*
X166345326Y-83797723D01*
X166513533Y-83910115D01*
X166700435Y-83987533D01*
X166898849Y-84027000D01*
X167101151Y-84027000D01*
X167299565Y-83987533D01*
X167486467Y-83910115D01*
X167654674Y-83797723D01*
X167797723Y-83654674D01*
X167910115Y-83486467D01*
X167987533Y-83299565D01*
X168017970Y-83146546D01*
X171249303Y-83146546D01*
X171249303Y-83348848D01*
X171288770Y-83547262D01*
X171366188Y-83734164D01*
X171478580Y-83902371D01*
X171621629Y-84045420D01*
X171789836Y-84157812D01*
X171976738Y-84235230D01*
X172175152Y-84274697D01*
X172377454Y-84274697D01*
X172575868Y-84235230D01*
X172762770Y-84157812D01*
X172930977Y-84045420D01*
X173074026Y-83902371D01*
X173186418Y-83734164D01*
X173263836Y-83547262D01*
X173303303Y-83348848D01*
X173303303Y-83146546D01*
X173263836Y-82948132D01*
X173186418Y-82761230D01*
X173074026Y-82593023D01*
X172930977Y-82449974D01*
X172762770Y-82337582D01*
X172575868Y-82260164D01*
X172377454Y-82220697D01*
X172175152Y-82220697D01*
X171976738Y-82260164D01*
X171789836Y-82337582D01*
X171621629Y-82449974D01*
X171478580Y-82593023D01*
X171366188Y-82761230D01*
X171288770Y-82948132D01*
X171249303Y-83146546D01*
X168017970Y-83146546D01*
X168027000Y-83101151D01*
X168027000Y-82898849D01*
X167987533Y-82700435D01*
X167910115Y-82513533D01*
X167797723Y-82345326D01*
X167654674Y-82202277D01*
X167486467Y-82089885D01*
X167299565Y-82012467D01*
X167101151Y-81973000D01*
X166898849Y-81973000D01*
X166700435Y-82012467D01*
X166513533Y-82089885D01*
X166345326Y-82202277D01*
X166202277Y-82345326D01*
X166089885Y-82513533D01*
X166012467Y-82700435D01*
X166000000Y-82763111D01*
X165987533Y-82700435D01*
X165910115Y-82513533D01*
X165797723Y-82345326D01*
X165654674Y-82202277D01*
X165486467Y-82089885D01*
X165299565Y-82012467D01*
X165101151Y-81973000D01*
X164898849Y-81973000D01*
X164700435Y-82012467D01*
X164513533Y-82089885D01*
X164345326Y-82202277D01*
X164202277Y-82345326D01*
X164089885Y-82513533D01*
X164012467Y-82700435D01*
X163973000Y-82898849D01*
X156729000Y-82898849D01*
X156729000Y-82829849D01*
X156689533Y-82631435D01*
X156612115Y-82444533D01*
X156499723Y-82276326D01*
X156356674Y-82133277D01*
X156188467Y-82020885D01*
X156001565Y-81943467D01*
X155803151Y-81904000D01*
X155600849Y-81904000D01*
X155402435Y-81943467D01*
X155215533Y-82020885D01*
X155047326Y-82133277D01*
X154904277Y-82276326D01*
X154791885Y-82444533D01*
X154714467Y-82631435D01*
X154675000Y-82829849D01*
X151999566Y-82829849D01*
X152042240Y-82726825D01*
X152099000Y-82441472D01*
X152099000Y-82150528D01*
X152042240Y-81865175D01*
X151930901Y-81596378D01*
X151769261Y-81354467D01*
X151628525Y-81213731D01*
X151713103Y-81188075D01*
X151822028Y-81129853D01*
X151917501Y-81051501D01*
X151995853Y-80956028D01*
X152054075Y-80847103D01*
X152089927Y-80728913D01*
X152102033Y-80606000D01*
X152102033Y-79019849D01*
X154675000Y-79019849D01*
X154675000Y-79222151D01*
X154714467Y-79420565D01*
X154791885Y-79607467D01*
X154904277Y-79775674D01*
X155047326Y-79918723D01*
X155215533Y-80031115D01*
X155402435Y-80108533D01*
X155600849Y-80148000D01*
X155803151Y-80148000D01*
X156001565Y-80108533D01*
X156188467Y-80031115D01*
X156356674Y-79918723D01*
X156499723Y-79775674D01*
X156612115Y-79607467D01*
X156689533Y-79420565D01*
X156729000Y-79222151D01*
X156729000Y-79019849D01*
X156689533Y-78821435D01*
X156612115Y-78634533D01*
X156499723Y-78466326D01*
X156356674Y-78323277D01*
X156188467Y-78210885D01*
X156001565Y-78133467D01*
X155803151Y-78094000D01*
X155600849Y-78094000D01*
X155402435Y-78133467D01*
X155215533Y-78210885D01*
X155047326Y-78323277D01*
X154904277Y-78466326D01*
X154791885Y-78634533D01*
X154714467Y-78821435D01*
X154675000Y-79019849D01*
X152102033Y-79019849D01*
X152102033Y-78906000D01*
X152089927Y-78783087D01*
X152054075Y-78664897D01*
X151995853Y-78555972D01*
X151917501Y-78460499D01*
X151822028Y-78382147D01*
X151713103Y-78323925D01*
X151594913Y-78288073D01*
X151472000Y-78275967D01*
X149772000Y-78275967D01*
X149649087Y-78288073D01*
X149530897Y-78323925D01*
X149421972Y-78382147D01*
X149326499Y-78460499D01*
X149248147Y-78555972D01*
X149189925Y-78664897D01*
X149154073Y-78783087D01*
X149141967Y-78906000D01*
X104546000Y-78906000D01*
X104546000Y-75898261D01*
X168133369Y-75898261D01*
X168133369Y-76189205D01*
X168190129Y-76474558D01*
X168301468Y-76743355D01*
X168463108Y-76985266D01*
X168668836Y-77190994D01*
X168910747Y-77352634D01*
X169179544Y-77463973D01*
X169464897Y-77520733D01*
X169755841Y-77520733D01*
X169972521Y-77477633D01*
X169929421Y-77694313D01*
X169929421Y-77985257D01*
X169986181Y-78270610D01*
X170097520Y-78539407D01*
X170259160Y-78781318D01*
X170464888Y-78987046D01*
X170706799Y-79148686D01*
X170975596Y-79260025D01*
X171260949Y-79316785D01*
X171551893Y-79316785D01*
X171768572Y-79273685D01*
X171725472Y-79490364D01*
X171725472Y-79781308D01*
X171782232Y-80066661D01*
X171893571Y-80335458D01*
X172055211Y-80577369D01*
X172260939Y-80783097D01*
X172502850Y-80944737D01*
X172771647Y-81056076D01*
X173057000Y-81112836D01*
X173256030Y-81112836D01*
X173214366Y-81190784D01*
X173178514Y-81308974D01*
X173166408Y-81431887D01*
X173178514Y-81554800D01*
X173214366Y-81672990D01*
X173272588Y-81781915D01*
X173350940Y-81877388D01*
X174553022Y-83079470D01*
X174648495Y-83157822D01*
X174757420Y-83216044D01*
X174875610Y-83251896D01*
X174998523Y-83264002D01*
X175121436Y-83251896D01*
X175239626Y-83216044D01*
X175348551Y-83157822D01*
X175444024Y-83079470D01*
X176646106Y-81877388D01*
X176724458Y-81781915D01*
X176782680Y-81672990D01*
X176797586Y-81623849D01*
X202173000Y-81623849D01*
X202173000Y-81826151D01*
X202212467Y-82024565D01*
X202289885Y-82211467D01*
X202402277Y-82379674D01*
X202545326Y-82522723D01*
X202713533Y-82635115D01*
X202900435Y-82712533D01*
X203098849Y-82752000D01*
X203301151Y-82752000D01*
X203499565Y-82712533D01*
X203686467Y-82635115D01*
X203854674Y-82522723D01*
X203997723Y-82379674D01*
X204110115Y-82211467D01*
X204187533Y-82024565D01*
X204227000Y-81826151D01*
X204227000Y-81623849D01*
X204187533Y-81425435D01*
X204110115Y-81238533D01*
X203997723Y-81070326D01*
X203854674Y-80927277D01*
X203686467Y-80814885D01*
X203499565Y-80737467D01*
X203301151Y-80698000D01*
X203098849Y-80698000D01*
X202900435Y-80737467D01*
X202713533Y-80814885D01*
X202545326Y-80927277D01*
X202402277Y-81070326D01*
X202289885Y-81238533D01*
X202212467Y-81425435D01*
X202173000Y-81623849D01*
X176797586Y-81623849D01*
X176818532Y-81554800D01*
X176830638Y-81431887D01*
X176818532Y-81308974D01*
X176782680Y-81190784D01*
X176724458Y-81081859D01*
X176646106Y-80986386D01*
X175444024Y-79784304D01*
X175348551Y-79705952D01*
X175239626Y-79647730D01*
X175121436Y-79611878D01*
X174998523Y-79599772D01*
X174875610Y-79611878D01*
X174757420Y-79647730D01*
X174679472Y-79689394D01*
X174679472Y-79490364D01*
X174622712Y-79205011D01*
X174511373Y-78936214D01*
X174349733Y-78694303D01*
X174304129Y-78648699D01*
X203784000Y-78648699D01*
X203784000Y-78831301D01*
X203819624Y-79010396D01*
X203889504Y-79179099D01*
X203990952Y-79330928D01*
X204120072Y-79460048D01*
X204271901Y-79561496D01*
X204440604Y-79631376D01*
X204619699Y-79667000D01*
X204802301Y-79667000D01*
X204981396Y-79631376D01*
X205150099Y-79561496D01*
X205301928Y-79460048D01*
X205351277Y-79410699D01*
X206845000Y-79410699D01*
X206845000Y-79593301D01*
X206880624Y-79772396D01*
X206926438Y-79883000D01*
X206880624Y-79993604D01*
X206845000Y-80172699D01*
X206845000Y-80355301D01*
X206880624Y-80534396D01*
X206926438Y-80645000D01*
X206880624Y-80755604D01*
X206845000Y-80934699D01*
X206845000Y-81117301D01*
X206880624Y-81296396D01*
X206950504Y-81465099D01*
X207051952Y-81616928D01*
X207181072Y-81746048D01*
X207332901Y-81847496D01*
X207501604Y-81917376D01*
X207619227Y-81940773D01*
X207642624Y-82058396D01*
X207688438Y-82169000D01*
X207642624Y-82279604D01*
X207607000Y-82458699D01*
X207607000Y-82641301D01*
X207642624Y-82820396D01*
X207688438Y-82931000D01*
X207642624Y-83041604D01*
X207619227Y-83159227D01*
X207501604Y-83182624D01*
X207332901Y-83252504D01*
X207181072Y-83353952D01*
X207051952Y-83483072D01*
X206950504Y-83634901D01*
X206880624Y-83803604D01*
X206845000Y-83982699D01*
X206845000Y-84165301D01*
X206880624Y-84344396D01*
X206926438Y-84455000D01*
X206880624Y-84565604D01*
X206845000Y-84744699D01*
X206845000Y-84927301D01*
X206880624Y-85106396D01*
X206950504Y-85275099D01*
X207051952Y-85426928D01*
X207181072Y-85556048D01*
X207332901Y-85657496D01*
X207501604Y-85727376D01*
X207680699Y-85763000D01*
X207863301Y-85763000D01*
X208042396Y-85727376D01*
X208153000Y-85681562D01*
X208263604Y-85727376D01*
X208442699Y-85763000D01*
X208625301Y-85763000D01*
X208804396Y-85727376D01*
X208915000Y-85681562D01*
X209025604Y-85727376D01*
X209204699Y-85763000D01*
X209387301Y-85763000D01*
X209566396Y-85727376D01*
X209677000Y-85681562D01*
X209787604Y-85727376D01*
X209966699Y-85763000D01*
X210149301Y-85763000D01*
X210328396Y-85727376D01*
X210497099Y-85657496D01*
X210648928Y-85556048D01*
X210778048Y-85426928D01*
X210843323Y-85329236D01*
X210972849Y-85355000D01*
X211175151Y-85355000D01*
X211373565Y-85315533D01*
X211560467Y-85238115D01*
X211728674Y-85125723D01*
X211871723Y-84982674D01*
X211984115Y-84814467D01*
X212061533Y-84627565D01*
X212101000Y-84429151D01*
X212101000Y-84226849D01*
X212061533Y-84028435D01*
X212049358Y-83999041D01*
X212081725Y-83966674D01*
X212194117Y-83798467D01*
X212271535Y-83611565D01*
X212311002Y-83413151D01*
X212311002Y-83210849D01*
X212271535Y-83012435D01*
X212194117Y-82825533D01*
X212081725Y-82657326D01*
X211938676Y-82514277D01*
X211770469Y-82401885D01*
X211583567Y-82324467D01*
X211385153Y-82285000D01*
X211182851Y-82285000D01*
X210984437Y-82324467D01*
X210797535Y-82401885D01*
X210629328Y-82514277D01*
X210486279Y-82657326D01*
X210373887Y-82825533D01*
X210296469Y-83012435D01*
X210257002Y-83210849D01*
X210257002Y-83413151D01*
X210296469Y-83611565D01*
X210308644Y-83640959D01*
X210276277Y-83673326D01*
X210187801Y-83805740D01*
X210187376Y-83803604D01*
X210141562Y-83693000D01*
X210187376Y-83582396D01*
X210223000Y-83403301D01*
X210223000Y-83220699D01*
X210187376Y-83041604D01*
X210141562Y-82931000D01*
X210187376Y-82820396D01*
X210223000Y-82641301D01*
X210223000Y-82458699D01*
X210187376Y-82279604D01*
X210141562Y-82169000D01*
X210187376Y-82058396D01*
X210210773Y-81940773D01*
X210328396Y-81917376D01*
X210497099Y-81847496D01*
X210648928Y-81746048D01*
X210778048Y-81616928D01*
X210879496Y-81465099D01*
X210949376Y-81296396D01*
X210985000Y-81117301D01*
X210985000Y-81022170D01*
X210999267Y-81022170D01*
X210999267Y-81224472D01*
X211038734Y-81422886D01*
X211116152Y-81609788D01*
X211228544Y-81777995D01*
X211371593Y-81921044D01*
X211539800Y-82033436D01*
X211726702Y-82110854D01*
X211925116Y-82150321D01*
X212127418Y-82150321D01*
X212325832Y-82110854D01*
X212512734Y-82033436D01*
X212680941Y-81921044D01*
X212823990Y-81777995D01*
X212936382Y-81609788D01*
X213013800Y-81422886D01*
X213053267Y-81224472D01*
X213053267Y-81022170D01*
X213013800Y-80823756D01*
X212936382Y-80636854D01*
X212823990Y-80468647D01*
X212680941Y-80325598D01*
X212512734Y-80213206D01*
X212325832Y-80135788D01*
X212127418Y-80096321D01*
X211925116Y-80096321D01*
X211726702Y-80135788D01*
X211539800Y-80213206D01*
X211371593Y-80325598D01*
X211228544Y-80468647D01*
X211116152Y-80636854D01*
X211038734Y-80823756D01*
X210999267Y-81022170D01*
X210985000Y-81022170D01*
X210985000Y-80934699D01*
X210949376Y-80755604D01*
X210903562Y-80645000D01*
X210949376Y-80534396D01*
X210985000Y-80355301D01*
X210985000Y-80172699D01*
X210949376Y-79993604D01*
X210903562Y-79883000D01*
X210949376Y-79772396D01*
X210985000Y-79593301D01*
X210985000Y-79410699D01*
X210949376Y-79231604D01*
X210879496Y-79062901D01*
X210778048Y-78911072D01*
X210648928Y-78781952D01*
X210497099Y-78680504D01*
X210328396Y-78610624D01*
X210149301Y-78575000D01*
X209966699Y-78575000D01*
X209787604Y-78610624D01*
X209677000Y-78656438D01*
X209566396Y-78610624D01*
X209387301Y-78575000D01*
X209204699Y-78575000D01*
X209025604Y-78610624D01*
X208915000Y-78656438D01*
X208804396Y-78610624D01*
X208625301Y-78575000D01*
X208442699Y-78575000D01*
X208263604Y-78610624D01*
X208153000Y-78656438D01*
X208042396Y-78610624D01*
X207863301Y-78575000D01*
X207680699Y-78575000D01*
X207501604Y-78610624D01*
X207332901Y-78680504D01*
X207181072Y-78781952D01*
X207051952Y-78911072D01*
X206950504Y-79062901D01*
X206880624Y-79231604D01*
X206845000Y-79410699D01*
X205351277Y-79410699D01*
X205431048Y-79330928D01*
X205532496Y-79179099D01*
X205602376Y-79010396D01*
X205638000Y-78831301D01*
X205638000Y-78648699D01*
X205602376Y-78469604D01*
X205532496Y-78300901D01*
X205431048Y-78149072D01*
X205301928Y-78019952D01*
X205150099Y-77918504D01*
X204981396Y-77848624D01*
X204802301Y-77813000D01*
X204619699Y-77813000D01*
X204440604Y-77848624D01*
X204271901Y-77918504D01*
X204120072Y-78019952D01*
X203990952Y-78149072D01*
X203889504Y-78300901D01*
X203819624Y-78469604D01*
X203784000Y-78648699D01*
X174304129Y-78648699D01*
X174144005Y-78488575D01*
X173902094Y-78326935D01*
X173633297Y-78215596D01*
X173347944Y-78158836D01*
X173057000Y-78158836D01*
X172840321Y-78201936D01*
X172883421Y-77985257D01*
X172883421Y-77694313D01*
X172826661Y-77408960D01*
X172715322Y-77140163D01*
X172553682Y-76898252D01*
X172516279Y-76860849D01*
X219699000Y-76860849D01*
X219699000Y-77063151D01*
X219738467Y-77261565D01*
X219815885Y-77448467D01*
X219928277Y-77616674D01*
X220071326Y-77759723D01*
X220239533Y-77872115D01*
X220426435Y-77949533D01*
X220624849Y-77989000D01*
X220827151Y-77989000D01*
X221025565Y-77949533D01*
X221212467Y-77872115D01*
X221380674Y-77759723D01*
X221523723Y-77616674D01*
X221636115Y-77448467D01*
X221713533Y-77261565D01*
X221753000Y-77063151D01*
X221753000Y-76860849D01*
X221713533Y-76662435D01*
X221636115Y-76475533D01*
X221523723Y-76307326D01*
X221380674Y-76164277D01*
X221212467Y-76051885D01*
X221025565Y-75974467D01*
X220827151Y-75935000D01*
X220624849Y-75935000D01*
X220426435Y-75974467D01*
X220239533Y-76051885D01*
X220071326Y-76164277D01*
X219928277Y-76307326D01*
X219815885Y-76475533D01*
X219738467Y-76662435D01*
X219699000Y-76860849D01*
X172516279Y-76860849D01*
X172347954Y-76692524D01*
X172106043Y-76530884D01*
X171837246Y-76419545D01*
X171551893Y-76362785D01*
X171260949Y-76362785D01*
X171044269Y-76405885D01*
X171087369Y-76189205D01*
X171087369Y-75898261D01*
X171030609Y-75612908D01*
X170919270Y-75344111D01*
X170757630Y-75102200D01*
X170551902Y-74896472D01*
X170309991Y-74734832D01*
X170041194Y-74623493D01*
X169755841Y-74566733D01*
X169464897Y-74566733D01*
X169179544Y-74623493D01*
X168910747Y-74734832D01*
X168668836Y-74896472D01*
X168463108Y-75102200D01*
X168301468Y-75344111D01*
X168190129Y-75612908D01*
X168133369Y-75898261D01*
X104546000Y-75898261D01*
X104546000Y-74422232D01*
X164555383Y-74422232D01*
X164555383Y-74624534D01*
X164594850Y-74822948D01*
X164672268Y-75009850D01*
X164784660Y-75178057D01*
X164927709Y-75321106D01*
X165095916Y-75433498D01*
X165282818Y-75510916D01*
X165481232Y-75550383D01*
X165683534Y-75550383D01*
X165881948Y-75510916D01*
X166068850Y-75433498D01*
X166237057Y-75321106D01*
X166380106Y-75178057D01*
X166492498Y-75009850D01*
X166569916Y-74822948D01*
X166609383Y-74624534D01*
X166609383Y-74422232D01*
X166589217Y-74320849D01*
X201157000Y-74320849D01*
X201157000Y-74523151D01*
X201196467Y-74721565D01*
X201273885Y-74908467D01*
X201386277Y-75076674D01*
X201529326Y-75219723D01*
X201697533Y-75332115D01*
X201884435Y-75409533D01*
X202082849Y-75449000D01*
X202285151Y-75449000D01*
X202483565Y-75409533D01*
X202670467Y-75332115D01*
X202838674Y-75219723D01*
X202981723Y-75076674D01*
X203094115Y-74908467D01*
X203171533Y-74721565D01*
X203211000Y-74523151D01*
X203211000Y-74320849D01*
X219445000Y-74320849D01*
X219445000Y-74523151D01*
X219484467Y-74721565D01*
X219561885Y-74908467D01*
X219674277Y-75076674D01*
X219817326Y-75219723D01*
X219985533Y-75332115D01*
X220172435Y-75409533D01*
X220370849Y-75449000D01*
X220573151Y-75449000D01*
X220771565Y-75409533D01*
X220958467Y-75332115D01*
X221126674Y-75219723D01*
X221269723Y-75076674D01*
X221382115Y-74908467D01*
X221459533Y-74721565D01*
X221499000Y-74523151D01*
X221499000Y-74320849D01*
X221459533Y-74122435D01*
X221382115Y-73935533D01*
X221269723Y-73767326D01*
X221126674Y-73624277D01*
X220958467Y-73511885D01*
X220771565Y-73434467D01*
X220573151Y-73395000D01*
X220370849Y-73395000D01*
X220172435Y-73434467D01*
X219985533Y-73511885D01*
X219817326Y-73624277D01*
X219674277Y-73767326D01*
X219561885Y-73935533D01*
X219484467Y-74122435D01*
X219445000Y-74320849D01*
X203211000Y-74320849D01*
X203171533Y-74122435D01*
X203094115Y-73935533D01*
X202981723Y-73767326D01*
X202838674Y-73624277D01*
X202670467Y-73511885D01*
X202483565Y-73434467D01*
X202285151Y-73395000D01*
X202082849Y-73395000D01*
X201884435Y-73434467D01*
X201697533Y-73511885D01*
X201529326Y-73624277D01*
X201386277Y-73767326D01*
X201273885Y-73935533D01*
X201196467Y-74122435D01*
X201157000Y-74320849D01*
X166589217Y-74320849D01*
X166569916Y-74223818D01*
X166492498Y-74036916D01*
X166380106Y-73868709D01*
X166237057Y-73725660D01*
X166068850Y-73613268D01*
X165881948Y-73535850D01*
X165683534Y-73496383D01*
X165481232Y-73496383D01*
X165282818Y-73535850D01*
X165095916Y-73613268D01*
X164927709Y-73725660D01*
X164784660Y-73868709D01*
X164672268Y-74036916D01*
X164594850Y-74223818D01*
X164555383Y-74422232D01*
X104546000Y-74422232D01*
X104546000Y-72542849D01*
X207507000Y-72542849D01*
X207507000Y-72745151D01*
X207546467Y-72943565D01*
X207623885Y-73130467D01*
X207736277Y-73298674D01*
X207879326Y-73441723D01*
X208047533Y-73554115D01*
X208234435Y-73631533D01*
X208432849Y-73671000D01*
X208635151Y-73671000D01*
X208833565Y-73631533D01*
X209020467Y-73554115D01*
X209188674Y-73441723D01*
X209259548Y-73370849D01*
X221461000Y-73370849D01*
X221461000Y-73573151D01*
X221500467Y-73771565D01*
X221577885Y-73958467D01*
X221690277Y-74126674D01*
X221833326Y-74269723D01*
X222001533Y-74382115D01*
X222188435Y-74459533D01*
X222386849Y-74499000D01*
X222589151Y-74499000D01*
X222787565Y-74459533D01*
X222974467Y-74382115D01*
X223142674Y-74269723D01*
X223285723Y-74126674D01*
X223398115Y-73958467D01*
X223475533Y-73771565D01*
X223515000Y-73573151D01*
X223515000Y-73370849D01*
X223475533Y-73172435D01*
X223398115Y-72985533D01*
X223285723Y-72817326D01*
X223142674Y-72674277D01*
X222974467Y-72561885D01*
X222787565Y-72484467D01*
X222589151Y-72445000D01*
X222386849Y-72445000D01*
X222188435Y-72484467D01*
X222001533Y-72561885D01*
X221833326Y-72674277D01*
X221690277Y-72817326D01*
X221577885Y-72985533D01*
X221500467Y-73172435D01*
X221461000Y-73370849D01*
X209259548Y-73370849D01*
X209331723Y-73298674D01*
X209444115Y-73130467D01*
X209521533Y-72943565D01*
X209561000Y-72745151D01*
X209561000Y-72542849D01*
X209521533Y-72344435D01*
X209444115Y-72157533D01*
X209331723Y-71989326D01*
X209188674Y-71846277D01*
X209090754Y-71780849D01*
X219699000Y-71780849D01*
X219699000Y-71983151D01*
X219738467Y-72181565D01*
X219815885Y-72368467D01*
X219928277Y-72536674D01*
X220071326Y-72679723D01*
X220239533Y-72792115D01*
X220426435Y-72869533D01*
X220624849Y-72909000D01*
X220827151Y-72909000D01*
X221025565Y-72869533D01*
X221212467Y-72792115D01*
X221380674Y-72679723D01*
X221523723Y-72536674D01*
X221636115Y-72368467D01*
X221713533Y-72181565D01*
X221753000Y-71983151D01*
X221753000Y-71780849D01*
X221713533Y-71582435D01*
X221636115Y-71395533D01*
X221523723Y-71227326D01*
X221380674Y-71084277D01*
X221212467Y-70971885D01*
X221025565Y-70894467D01*
X220827151Y-70855000D01*
X220624849Y-70855000D01*
X220426435Y-70894467D01*
X220239533Y-70971885D01*
X220071326Y-71084277D01*
X219928277Y-71227326D01*
X219815885Y-71395533D01*
X219738467Y-71582435D01*
X219699000Y-71780849D01*
X209090754Y-71780849D01*
X209020467Y-71733885D01*
X208833565Y-71656467D01*
X208635151Y-71617000D01*
X208432849Y-71617000D01*
X208234435Y-71656467D01*
X208047533Y-71733885D01*
X207879326Y-71846277D01*
X207736277Y-71989326D01*
X207623885Y-72157533D01*
X207546467Y-72344435D01*
X207507000Y-72542849D01*
X104546000Y-72542849D01*
X104546000Y-67458980D01*
X115564351Y-67458980D01*
X115564351Y-67661282D01*
X115603818Y-67859696D01*
X115681236Y-68046598D01*
X115793628Y-68214805D01*
X115936677Y-68357854D01*
X116104884Y-68470246D01*
X116291786Y-68547664D01*
X116490200Y-68587131D01*
X116692502Y-68587131D01*
X116890916Y-68547664D01*
X117077818Y-68470246D01*
X117246025Y-68357854D01*
X117389074Y-68214805D01*
X117501466Y-68046598D01*
X117578884Y-67859696D01*
X117618351Y-67661282D01*
X117618351Y-67458980D01*
X117578884Y-67260566D01*
X117501466Y-67073664D01*
X117389074Y-66905457D01*
X117246025Y-66762408D01*
X117077818Y-66650016D01*
X116890916Y-66572598D01*
X116692502Y-66533131D01*
X116490200Y-66533131D01*
X116291786Y-66572598D01*
X116104884Y-66650016D01*
X115936677Y-66762408D01*
X115793628Y-66905457D01*
X115681236Y-67073664D01*
X115603818Y-67260566D01*
X115564351Y-67458980D01*
X104546000Y-67458980D01*
X104546000Y-63779849D01*
X122163000Y-63779849D01*
X122163000Y-63982151D01*
X122202467Y-64180565D01*
X122262502Y-64325500D01*
X122202467Y-64470435D01*
X122163000Y-64668849D01*
X122163000Y-64871151D01*
X122202467Y-65069565D01*
X122262502Y-65214500D01*
X122202467Y-65359435D01*
X122163000Y-65557849D01*
X122163000Y-65760151D01*
X122202467Y-65958565D01*
X122262502Y-66103500D01*
X122202467Y-66248435D01*
X122163000Y-66446849D01*
X122163000Y-66649151D01*
X122202467Y-66847565D01*
X122262502Y-66992500D01*
X122202467Y-67137435D01*
X122163000Y-67335849D01*
X122163000Y-67538151D01*
X122202467Y-67736565D01*
X122262502Y-67881500D01*
X122202467Y-68026435D01*
X122163000Y-68224849D01*
X122163000Y-68427151D01*
X122202467Y-68625565D01*
X122279885Y-68812467D01*
X122392277Y-68980674D01*
X122535326Y-69123723D01*
X122703533Y-69236115D01*
X122890435Y-69313533D01*
X123088849Y-69353000D01*
X123291151Y-69353000D01*
X123489565Y-69313533D01*
X123676467Y-69236115D01*
X123844674Y-69123723D01*
X123956305Y-69012092D01*
X123980467Y-69133565D01*
X124057885Y-69320467D01*
X124170277Y-69488674D01*
X124313326Y-69631723D01*
X124481533Y-69744115D01*
X124668435Y-69821533D01*
X124866849Y-69861000D01*
X125069151Y-69861000D01*
X125267565Y-69821533D01*
X125454467Y-69744115D01*
X125476000Y-69729727D01*
X125497533Y-69744115D01*
X125684435Y-69821533D01*
X125882849Y-69861000D01*
X125973000Y-69861000D01*
X125973000Y-69951151D01*
X126012467Y-70149565D01*
X126089885Y-70336467D01*
X126104273Y-70358000D01*
X126089885Y-70379533D01*
X126012467Y-70566435D01*
X125973000Y-70764849D01*
X125973000Y-70967151D01*
X126012467Y-71165565D01*
X126089885Y-71352467D01*
X126202277Y-71520674D01*
X126345326Y-71663723D01*
X126513533Y-71776115D01*
X126700435Y-71853533D01*
X126898849Y-71893000D01*
X127101151Y-71893000D01*
X127299565Y-71853533D01*
X127486467Y-71776115D01*
X127508000Y-71761727D01*
X127529533Y-71776115D01*
X127716435Y-71853533D01*
X127914849Y-71893000D01*
X128117151Y-71893000D01*
X128315565Y-71853533D01*
X128502467Y-71776115D01*
X128524000Y-71761727D01*
X128545533Y-71776115D01*
X128732435Y-71853533D01*
X128930849Y-71893000D01*
X129133151Y-71893000D01*
X129331565Y-71853533D01*
X129518467Y-71776115D01*
X129540000Y-71761727D01*
X129561533Y-71776115D01*
X129748435Y-71853533D01*
X129946849Y-71893000D01*
X130149151Y-71893000D01*
X130347565Y-71853533D01*
X130534467Y-71776115D01*
X130556000Y-71761727D01*
X130577533Y-71776115D01*
X130764435Y-71853533D01*
X130962849Y-71893000D01*
X131165151Y-71893000D01*
X131363565Y-71853533D01*
X131550467Y-71776115D01*
X131718674Y-71663723D01*
X131861723Y-71520674D01*
X131974115Y-71352467D01*
X132051533Y-71165565D01*
X132091000Y-70967151D01*
X132091000Y-70764849D01*
X132051533Y-70566435D01*
X131974115Y-70379533D01*
X131959727Y-70358000D01*
X131974115Y-70336467D01*
X132051533Y-70149565D01*
X132091000Y-69951151D01*
X132091000Y-69748849D01*
X132065739Y-69621849D01*
X164073000Y-69621849D01*
X164073000Y-69824151D01*
X164112467Y-70022565D01*
X164189885Y-70209467D01*
X164302277Y-70377674D01*
X164445326Y-70520723D01*
X164613533Y-70633115D01*
X164800435Y-70710533D01*
X164998849Y-70750000D01*
X165201151Y-70750000D01*
X165399565Y-70710533D01*
X165586467Y-70633115D01*
X165754674Y-70520723D01*
X165897723Y-70377674D01*
X166010115Y-70209467D01*
X166087533Y-70022565D01*
X166127000Y-69824151D01*
X166127000Y-69621849D01*
X166087533Y-69423435D01*
X166010115Y-69236533D01*
X165897723Y-69068326D01*
X165754674Y-68925277D01*
X165586467Y-68812885D01*
X165399565Y-68735467D01*
X165201151Y-68696000D01*
X164998849Y-68696000D01*
X164800435Y-68735467D01*
X164613533Y-68812885D01*
X164445326Y-68925277D01*
X164302277Y-69068326D01*
X164189885Y-69236533D01*
X164112467Y-69423435D01*
X164073000Y-69621849D01*
X132065739Y-69621849D01*
X132051533Y-69550435D01*
X131974115Y-69363533D01*
X131959727Y-69342000D01*
X131974115Y-69320467D01*
X132051533Y-69133565D01*
X132091000Y-68935151D01*
X132091000Y-68732849D01*
X132051533Y-68534435D01*
X131974115Y-68347533D01*
X131959727Y-68326000D01*
X131974115Y-68304467D01*
X132051533Y-68117565D01*
X132091000Y-67919151D01*
X132091000Y-67825631D01*
X173739146Y-67825631D01*
X173739146Y-68027933D01*
X173778613Y-68226347D01*
X173856031Y-68413249D01*
X173968423Y-68581456D01*
X174111472Y-68724505D01*
X174279679Y-68836897D01*
X174466581Y-68914315D01*
X174664995Y-68953782D01*
X174867297Y-68953782D01*
X175065711Y-68914315D01*
X175252613Y-68836897D01*
X175420820Y-68724505D01*
X175563869Y-68581456D01*
X175676261Y-68413249D01*
X175753679Y-68226347D01*
X175793146Y-68027933D01*
X175793146Y-67825631D01*
X175753679Y-67627217D01*
X175676261Y-67440315D01*
X175563869Y-67272108D01*
X175420820Y-67129059D01*
X175252613Y-67016667D01*
X175065711Y-66939249D01*
X174867297Y-66899782D01*
X174664995Y-66899782D01*
X174466581Y-66939249D01*
X174279679Y-67016667D01*
X174111472Y-67129059D01*
X173968423Y-67272108D01*
X173856031Y-67440315D01*
X173778613Y-67627217D01*
X173739146Y-67825631D01*
X132091000Y-67825631D01*
X132091000Y-67716849D01*
X132051533Y-67518435D01*
X131974115Y-67331533D01*
X131959727Y-67310000D01*
X131974115Y-67288467D01*
X132051533Y-67101565D01*
X132091000Y-66903151D01*
X132091000Y-66700849D01*
X132051533Y-66502435D01*
X131974115Y-66315533D01*
X131861723Y-66147326D01*
X131718674Y-66004277D01*
X131550467Y-65891885D01*
X131363565Y-65814467D01*
X131220452Y-65786000D01*
X131363565Y-65757533D01*
X131550467Y-65680115D01*
X131718674Y-65567723D01*
X131861723Y-65424674D01*
X131974115Y-65256467D01*
X132051533Y-65069565D01*
X132062990Y-65011965D01*
X166523883Y-65011965D01*
X166523883Y-65214267D01*
X166563350Y-65412681D01*
X166640768Y-65599583D01*
X166753160Y-65767790D01*
X166896209Y-65910839D01*
X167064416Y-66023231D01*
X167251318Y-66100649D01*
X167449732Y-66140116D01*
X167652034Y-66140116D01*
X167850448Y-66100649D01*
X168037350Y-66023231D01*
X168205557Y-65910839D01*
X168348606Y-65767790D01*
X168460998Y-65599583D01*
X168538416Y-65412681D01*
X168577883Y-65214267D01*
X168577883Y-65011965D01*
X168538416Y-64813551D01*
X168460998Y-64626649D01*
X168348606Y-64458442D01*
X168205557Y-64315393D01*
X168198033Y-64310365D01*
X169661000Y-64310365D01*
X169661000Y-64512667D01*
X169700467Y-64711081D01*
X169777885Y-64897983D01*
X169890277Y-65066190D01*
X170033326Y-65209239D01*
X170201533Y-65321631D01*
X170388435Y-65399049D01*
X170586849Y-65438516D01*
X170789151Y-65438516D01*
X170987565Y-65399049D01*
X171174467Y-65321631D01*
X171188002Y-65312588D01*
X171201536Y-65321631D01*
X171388438Y-65399049D01*
X171586852Y-65438516D01*
X171789154Y-65438516D01*
X171987568Y-65399049D01*
X172174470Y-65321631D01*
X172342677Y-65209239D01*
X172485726Y-65066190D01*
X172598118Y-64897983D01*
X172630198Y-64820535D01*
X172746907Y-64820535D01*
X172945321Y-64781068D01*
X173132223Y-64703650D01*
X173300430Y-64591258D01*
X173443479Y-64448209D01*
X173482568Y-64389709D01*
X173526087Y-64494773D01*
X173638479Y-64662980D01*
X173781528Y-64806029D01*
X173949735Y-64918421D01*
X174136637Y-64995839D01*
X174335051Y-65035306D01*
X174537353Y-65035306D01*
X174735767Y-64995839D01*
X174922669Y-64918421D01*
X175090876Y-64806029D01*
X175233925Y-64662980D01*
X175346317Y-64494773D01*
X175423735Y-64307871D01*
X175463202Y-64109457D01*
X175463202Y-63907155D01*
X175423735Y-63708741D01*
X175346317Y-63521839D01*
X175233925Y-63353632D01*
X175090876Y-63210583D01*
X174922669Y-63098191D01*
X174735767Y-63020773D01*
X174537353Y-62981306D01*
X174374356Y-62981306D01*
X174374356Y-62869226D01*
X174334889Y-62670812D01*
X174257471Y-62483910D01*
X174145079Y-62315703D01*
X174002030Y-62172654D01*
X173833823Y-62060262D01*
X173646921Y-61982844D01*
X173448507Y-61943377D01*
X173246205Y-61943377D01*
X173047791Y-61982844D01*
X172860889Y-62060262D01*
X172692682Y-62172654D01*
X172549633Y-62315703D01*
X172437241Y-62483910D01*
X172359823Y-62670812D01*
X172331741Y-62811987D01*
X172159289Y-62883420D01*
X171991082Y-62995812D01*
X171848033Y-63138861D01*
X171735641Y-63307068D01*
X171703561Y-63384516D01*
X171586852Y-63384516D01*
X171388438Y-63423983D01*
X171201536Y-63501401D01*
X171188002Y-63510444D01*
X171174467Y-63501401D01*
X170987565Y-63423983D01*
X170789151Y-63384516D01*
X170586849Y-63384516D01*
X170388435Y-63423983D01*
X170201533Y-63501401D01*
X170033326Y-63613793D01*
X169890277Y-63756842D01*
X169777885Y-63925049D01*
X169700467Y-64111951D01*
X169661000Y-64310365D01*
X168198033Y-64310365D01*
X168037350Y-64203001D01*
X167850448Y-64125583D01*
X167652034Y-64086116D01*
X167449732Y-64086116D01*
X167251318Y-64125583D01*
X167064416Y-64203001D01*
X166896209Y-64315393D01*
X166753160Y-64458442D01*
X166640768Y-64626649D01*
X166563350Y-64813551D01*
X166523883Y-65011965D01*
X132062990Y-65011965D01*
X132091000Y-64871151D01*
X132091000Y-64668849D01*
X132051533Y-64470435D01*
X131974115Y-64283533D01*
X131959727Y-64262000D01*
X131974115Y-64240467D01*
X132051533Y-64053565D01*
X132091000Y-63855151D01*
X132091000Y-63652849D01*
X132051533Y-63454435D01*
X131974115Y-63267533D01*
X131959727Y-63246000D01*
X131974115Y-63224467D01*
X132051533Y-63037565D01*
X132091000Y-62839151D01*
X132091000Y-62636849D01*
X132051533Y-62438435D01*
X131974115Y-62251533D01*
X131861723Y-62083326D01*
X131718674Y-61940277D01*
X131550467Y-61827885D01*
X131363565Y-61750467D01*
X131165151Y-61711000D01*
X130962849Y-61711000D01*
X130764435Y-61750467D01*
X130577533Y-61827885D01*
X130556000Y-61842273D01*
X130534467Y-61827885D01*
X130347565Y-61750467D01*
X130149151Y-61711000D01*
X129946849Y-61711000D01*
X129748435Y-61750467D01*
X129561533Y-61827885D01*
X129540000Y-61842273D01*
X129518467Y-61827885D01*
X129331565Y-61750467D01*
X129133151Y-61711000D01*
X128930849Y-61711000D01*
X128732435Y-61750467D01*
X128545533Y-61827885D01*
X128524000Y-61842273D01*
X128502467Y-61827885D01*
X128315565Y-61750467D01*
X128117151Y-61711000D01*
X127914849Y-61711000D01*
X127716435Y-61750467D01*
X127529533Y-61827885D01*
X127508000Y-61842273D01*
X127486467Y-61827885D01*
X127299565Y-61750467D01*
X127101151Y-61711000D01*
X126898849Y-61711000D01*
X126700435Y-61750467D01*
X126513533Y-61827885D01*
X126492000Y-61842273D01*
X126470467Y-61827885D01*
X126283565Y-61750467D01*
X126085151Y-61711000D01*
X125882849Y-61711000D01*
X125684435Y-61750467D01*
X125497533Y-61827885D01*
X125476000Y-61842273D01*
X125454467Y-61827885D01*
X125267565Y-61750467D01*
X125069151Y-61711000D01*
X124866849Y-61711000D01*
X124668435Y-61750467D01*
X124481533Y-61827885D01*
X124313326Y-61940277D01*
X124170277Y-62083326D01*
X124057885Y-62251533D01*
X123980467Y-62438435D01*
X123941000Y-62636849D01*
X123941000Y-62839151D01*
X123980467Y-63037565D01*
X124057885Y-63224467D01*
X124072273Y-63246000D01*
X124057885Y-63267533D01*
X124041572Y-63306916D01*
X123987723Y-63226326D01*
X123844674Y-63083277D01*
X123676467Y-62970885D01*
X123489565Y-62893467D01*
X123291151Y-62854000D01*
X123088849Y-62854000D01*
X122890435Y-62893467D01*
X122703533Y-62970885D01*
X122535326Y-63083277D01*
X122392277Y-63226326D01*
X122279885Y-63394533D01*
X122202467Y-63581435D01*
X122163000Y-63779849D01*
X104546000Y-63779849D01*
X104546000Y-54506772D01*
X106990000Y-54506772D01*
X106990000Y-55221228D01*
X107129383Y-55921957D01*
X107402794Y-56582029D01*
X107799725Y-57176078D01*
X108304922Y-57681275D01*
X108898971Y-58078206D01*
X109559043Y-58351617D01*
X110259772Y-58491000D01*
X110974228Y-58491000D01*
X111674957Y-58351617D01*
X112335029Y-58078206D01*
X112929078Y-57681275D01*
X113434275Y-57176078D01*
X113831206Y-56582029D01*
X114104617Y-55921957D01*
X114244000Y-55221228D01*
X114244000Y-54506772D01*
X223830000Y-54506772D01*
X223830000Y-55221228D01*
X223969383Y-55921957D01*
X224242794Y-56582029D01*
X224639725Y-57176078D01*
X225144922Y-57681275D01*
X225738971Y-58078206D01*
X226399043Y-58351617D01*
X227099772Y-58491000D01*
X227814228Y-58491000D01*
X228514957Y-58351617D01*
X229175029Y-58078206D01*
X229769078Y-57681275D01*
X230274275Y-57176078D01*
X230671206Y-56582029D01*
X230944617Y-55921957D01*
X231084000Y-55221228D01*
X231084000Y-54506772D01*
X230944617Y-53806043D01*
X230671206Y-53145971D01*
X230274275Y-52551922D01*
X229769078Y-52046725D01*
X229175029Y-51649794D01*
X228514957Y-51376383D01*
X227814228Y-51237000D01*
X227099772Y-51237000D01*
X226399043Y-51376383D01*
X225738971Y-51649794D01*
X225144922Y-52046725D01*
X224639725Y-52551922D01*
X224242794Y-53145971D01*
X223969383Y-53806043D01*
X223830000Y-54506772D01*
X114244000Y-54506772D01*
X114104617Y-53806043D01*
X113831206Y-53145971D01*
X113434275Y-52551922D01*
X112929078Y-52046725D01*
X112335029Y-51649794D01*
X111674957Y-51376383D01*
X110974228Y-51237000D01*
X110259772Y-51237000D01*
X109559043Y-51376383D01*
X108898971Y-51649794D01*
X108304922Y-52046725D01*
X107799725Y-52551922D01*
X107402794Y-53145971D01*
X107129383Y-53806043D01*
X106990000Y-54506772D01*
X104546000Y-54506772D01*
X104546000Y-53606420D01*
X104622969Y-52744012D01*
X104848147Y-51920894D01*
X105215533Y-51150656D01*
X105713505Y-50457653D01*
X106326332Y-49863783D01*
X107034637Y-49387822D01*
X107816033Y-49044813D01*
X108647960Y-48845086D01*
X109357234Y-48793000D01*
X228714580Y-48793000D01*
X229576988Y-48869969D01*
G37*
%TD.AperFunction*%
%TD*%
M02*
