%TF.GenerationSoftware,KiCad,Pcbnew,(5.1.9-0-10_14)*%
%TF.CreationDate,2021-06-28T10:44:47+08:00*%
%TF.ProjectId,pdm,70646d2e-6b69-4636-9164-5f7063625858,rev?*%
%TF.SameCoordinates,Original*%
%TF.FileFunction,Soldermask,Bot*%
%TF.FilePolarity,Negative*%
%FSLAX46Y46*%
G04 Gerber Fmt 4.6, Leading zero omitted, Abs format (unit mm)*
G04 Created by KiCad (PCBNEW (5.1.9-0-10_14)) date 2021-06-28 10:44:47*
%MOMM*%
%LPD*%
G01*
G04 APERTURE LIST*
%ADD10O,2.000000X2.000000*%
%ADD11R,2.000000X2.000000*%
%ADD12O,1.700000X1.700000*%
%ADD13R,1.700000X1.700000*%
%ADD14C,0.100000*%
%ADD15R,2.715000X2.715000*%
%ADD16C,2.715000*%
%ADD17C,2.990000*%
%ADD18C,6.000000*%
%ADD19C,0.800000*%
%ADD20C,2.640000*%
%ADD21R,2.640000X2.640000*%
G04 APERTURE END LIST*
D10*
%TO.C,D6*%
X216662000Y-94742000D03*
D11*
X221742000Y-94742000D03*
%TD*%
D12*
%TO.C,J3*%
X150622000Y-82296000D03*
D13*
X150622000Y-79756000D03*
%TD*%
%TO.C,J2*%
G36*
G01*
X170211410Y-75442692D02*
X170211410Y-75442692D01*
G75*
G02*
X170211410Y-76644774I-601041J-601041D01*
G01*
X170211410Y-76644774D01*
G75*
G02*
X169009328Y-76644774I-601041J601041D01*
G01*
X169009328Y-76644774D01*
G75*
G02*
X169009328Y-75442692I601041J601041D01*
G01*
X169009328Y-75442692D01*
G75*
G02*
X170211410Y-75442692I601041J-601041D01*
G01*
G37*
G36*
G01*
X172007462Y-77238744D02*
X172007462Y-77238744D01*
G75*
G02*
X172007462Y-78440826I-601041J-601041D01*
G01*
X172007462Y-78440826D01*
G75*
G02*
X170805380Y-78440826I-601041J601041D01*
G01*
X170805380Y-78440826D01*
G75*
G02*
X170805380Y-77238744I601041J601041D01*
G01*
X170805380Y-77238744D01*
G75*
G02*
X172007462Y-77238744I601041J-601041D01*
G01*
G37*
G36*
G01*
X173803513Y-79034795D02*
X173803513Y-79034795D01*
G75*
G02*
X173803513Y-80236877I-601041J-601041D01*
G01*
X173803513Y-80236877D01*
G75*
G02*
X172601431Y-80236877I-601041J601041D01*
G01*
X172601431Y-80236877D01*
G75*
G02*
X172601431Y-79034795I601041J601041D01*
G01*
X172601431Y-79034795D01*
G75*
G02*
X173803513Y-79034795I601041J-601041D01*
G01*
G37*
D14*
G36*
X174998523Y-80229805D02*
G01*
X176200605Y-81431887D01*
X174998523Y-82633969D01*
X173796441Y-81431887D01*
X174998523Y-80229805D01*
G37*
%TD*%
D15*
%TO.C,J4*%
X176972000Y-122174000D03*
D16*
X181417000Y-122174000D03*
X185862000Y-122174000D03*
X190312000Y-122174000D03*
X194757000Y-122174000D03*
X199202000Y-122174000D03*
X199202000Y-128524000D03*
X194757000Y-128524000D03*
D17*
X170547000Y-123184000D03*
X205627000Y-123184000D03*
X188087000Y-134624000D03*
D16*
X190312000Y-128524000D03*
X185862000Y-128524000D03*
X181417000Y-128524000D03*
X176972000Y-128524000D03*
%TD*%
D18*
%TO.C,H4*%
X227457000Y-133604000D03*
D19*
X229707000Y-133604000D03*
X229047990Y-135194990D03*
X227457000Y-135854000D03*
X225866010Y-135194990D03*
X225207000Y-133604000D03*
X225866010Y-132013010D03*
X227457000Y-131354000D03*
X229047990Y-132013010D03*
%TD*%
D18*
%TO.C,H3*%
X227457000Y-54864000D03*
D19*
X229707000Y-54864000D03*
X229047990Y-56454990D03*
X227457000Y-57114000D03*
X225866010Y-56454990D03*
X225207000Y-54864000D03*
X225866010Y-53273010D03*
X227457000Y-52614000D03*
X229047990Y-53273010D03*
%TD*%
D18*
%TO.C,H2*%
X110617000Y-133604000D03*
D19*
X112867000Y-133604000D03*
X112207990Y-135194990D03*
X110617000Y-135854000D03*
X109026010Y-135194990D03*
X108367000Y-133604000D03*
X109026010Y-132013010D03*
X110617000Y-131354000D03*
X112207990Y-132013010D03*
%TD*%
D18*
%TO.C,H1*%
X110617000Y-54864000D03*
D19*
X112867000Y-54864000D03*
X112207990Y-56454990D03*
X110617000Y-57114000D03*
X109026010Y-56454990D03*
X108367000Y-54864000D03*
X109026010Y-53273010D03*
X110617000Y-52614000D03*
X112207990Y-53273010D03*
%TD*%
D17*
%TO.C,J1*%
X136967000Y-134324000D03*
X128317000Y-122894000D03*
X145617000Y-122894000D03*
D20*
X134742000Y-128224000D03*
X139192000Y-128224000D03*
D21*
X134742000Y-121874000D03*
D20*
X139192000Y-121874000D03*
%TD*%
M02*
