%TF.GenerationSoftware,KiCad,Pcbnew,(5.1.9-0-10_14)*%
%TF.CreationDate,2021-06-28T10:44:47+08:00*%
%TF.ProjectId,pdm,70646d2e-6b69-4636-9164-5f7063625858,rev?*%
%TF.SameCoordinates,Original*%
%TF.FileFunction,Legend,Top*%
%TF.FilePolarity,Positive*%
%FSLAX46Y46*%
G04 Gerber Fmt 4.6, Leading zero omitted, Abs format (unit mm)*
G04 Created by KiCad (PCBNEW (5.1.9-0-10_14)) date 2021-06-28 10:44:47*
%MOMM*%
%LPD*%
G01*
G04 APERTURE LIST*
%ADD10C,0.120000*%
%ADD11C,0.127000*%
%ADD12C,0.500000*%
%ADD13C,0.152400*%
%ADD14C,0.101600*%
%ADD15C,0.150000*%
G04 APERTURE END LIST*
D10*
%TO.C,CANH_TP1*%
X156402000Y-79121000D02*
G75*
G03*
X156402000Y-79121000I-700000J0D01*
G01*
%TO.C,U3*%
X170261876Y-72189222D02*
X169926000Y-72525097D01*
X169926000Y-72525097D02*
X169590124Y-72189222D01*
X169590124Y-65478778D02*
X169926000Y-65142903D01*
X169926000Y-65142903D02*
X170261876Y-65478778D01*
X166570778Y-68498124D02*
X166234903Y-68834000D01*
X166234903Y-68834000D02*
X166570778Y-69169876D01*
X173281222Y-69169876D02*
X173617097Y-68834000D01*
%TO.C,C8*%
X173435334Y-62161150D02*
X173634145Y-61962339D01*
X174156583Y-62882399D02*
X174355394Y-62683588D01*
%TO.C,C7*%
X174524180Y-63262440D02*
X174722991Y-63063629D01*
X175245429Y-63983689D02*
X175444240Y-63784878D01*
%TO.C,C5*%
X175575373Y-68014760D02*
X175774184Y-68213571D01*
X174854124Y-68736009D02*
X175052935Y-68934820D01*
%TO.C,C4*%
X164276627Y-69653240D02*
X164077816Y-69454429D01*
X164997876Y-68931991D02*
X164799065Y-68733180D01*
%TO.C,L1*%
X232772000Y-99500000D02*
X232772000Y-123000000D01*
X232772000Y-123000000D02*
X210772000Y-123000000D01*
X210772000Y-123000000D02*
X210772000Y-99500000D01*
X210772000Y-99500000D02*
X232772000Y-99500000D01*
%TO.C,C23*%
X206021000Y-117167252D02*
X206021000Y-116644748D01*
X207491000Y-117167252D02*
X207491000Y-116644748D01*
%TO.C,C18*%
X211138748Y-88065000D02*
X211661252Y-88065000D01*
X211138748Y-89535000D02*
X211661252Y-89535000D01*
%TO.C,C16*%
X211138748Y-85965000D02*
X211661252Y-85965000D01*
X211138748Y-87435000D02*
X211661252Y-87435000D01*
%TO.C,C12*%
X211138748Y-90065000D02*
X211661252Y-90065000D01*
X211138748Y-91535000D02*
X211661252Y-91535000D01*
%TO.C,Q15*%
X220316000Y-91724000D02*
X213971000Y-91724000D01*
X219861000Y-86584000D02*
X213971000Y-86584000D01*
%TO.C,D6*%
X224322000Y-98012000D02*
X214082000Y-98012000D01*
X224322000Y-93371000D02*
X214082000Y-93371000D01*
X224322000Y-98012000D02*
X224322000Y-93371000D01*
X214082000Y-98012000D02*
X214082000Y-93371000D01*
X224322000Y-96502000D02*
X214082000Y-96502000D01*
X221052000Y-98012000D02*
X221052000Y-96502000D01*
X217351000Y-98012000D02*
X217351000Y-96502000D01*
%TO.C,D2*%
X153442000Y-125932000D02*
X153442000Y-119432000D01*
X153442000Y-125932000D02*
X161842000Y-125932000D01*
X153442000Y-119432000D02*
X161842000Y-119432000D01*
%TO.C,J3*%
X149292000Y-83626000D02*
X151952000Y-83626000D01*
X149292000Y-81026000D02*
X149292000Y-83626000D01*
X151952000Y-81026000D02*
X151952000Y-83626000D01*
X149292000Y-81026000D02*
X151952000Y-81026000D01*
X149292000Y-79756000D02*
X149292000Y-78426000D01*
X149292000Y-78426000D02*
X150622000Y-78426000D01*
%TO.C,U7*%
X212704000Y-73106000D02*
X212704000Y-74606000D01*
X212704000Y-74606000D02*
X213174000Y-74606000D01*
X213174000Y-74606000D02*
X213174000Y-77436000D01*
X219604000Y-73106000D02*
X219604000Y-74606000D01*
X219604000Y-74606000D02*
X219134000Y-74606000D01*
X219134000Y-74606000D02*
X219134000Y-75706000D01*
%TO.C,R31*%
X221725258Y-77484500D02*
X221250742Y-77484500D01*
X221725258Y-76439500D02*
X221250742Y-76439500D01*
%TO.C,R30*%
X221250742Y-71359500D02*
X221725258Y-71359500D01*
X221250742Y-72404500D02*
X221725258Y-72404500D01*
%TO.C,R9*%
X211057258Y-77484500D02*
X210582742Y-77484500D01*
X211057258Y-76439500D02*
X210582742Y-76439500D01*
%TO.C,R8*%
X211057258Y-72404499D02*
X210582742Y-72404499D01*
X211057258Y-71359499D02*
X210582742Y-71359499D01*
%TO.C,Q11*%
X211580000Y-76002000D02*
X211580000Y-75072000D01*
X211580000Y-72842000D02*
X211580000Y-73772000D01*
X211580000Y-72842000D02*
X209420000Y-72842000D01*
X211580000Y-76002000D02*
X210120000Y-76002000D01*
%TO.C,Q10*%
X220728000Y-72842000D02*
X220728000Y-73772000D01*
X220728000Y-76002000D02*
X220728000Y-75072000D01*
X220728000Y-76002000D02*
X222888000Y-76002000D01*
X220728000Y-72842000D02*
X222188000Y-72842000D01*
%TO.C,C17*%
X210960580Y-78996001D02*
X210679420Y-78996001D01*
X210960580Y-77976001D02*
X210679420Y-77976001D01*
%TO.C,U8*%
X209984000Y-84212000D02*
X207984000Y-84212000D01*
X207484000Y-80972000D02*
X209984000Y-80972000D01*
%TO.C,R37*%
X203722500Y-82312742D02*
X203722500Y-82787258D01*
X202677500Y-82312742D02*
X202677500Y-82787258D01*
%TO.C,R36*%
X206770500Y-83836742D02*
X206770500Y-84311258D01*
X205725500Y-83836742D02*
X205725500Y-84311258D01*
%TO.C,R35*%
X204201500Y-84311258D02*
X204201500Y-83836742D01*
X205246500Y-84311258D02*
X205246500Y-83836742D01*
%TO.C,R33*%
X205723258Y-80786500D02*
X205248742Y-80786500D01*
X205723258Y-79741500D02*
X205248742Y-79741500D01*
%TO.C,R32*%
X205248742Y-81265500D02*
X205723258Y-81265500D01*
X205248742Y-82310500D02*
X205723258Y-82310500D01*
%TO.C,F4*%
X215244000Y-81120064D02*
X215244000Y-79915936D01*
X217064000Y-81120064D02*
X217064000Y-79915936D01*
%TO.C,C19*%
X211259420Y-92190000D02*
X211540580Y-92190000D01*
X211259420Y-93210000D02*
X211540580Y-93210000D01*
%TO.C,C14*%
X212711420Y-81785999D02*
X212992580Y-81785999D01*
X212711420Y-82805999D02*
X212992580Y-82805999D01*
%TO.C,TP2*%
X126176000Y-70358000D02*
G75*
G03*
X126176000Y-70358000I-700000J0D01*
G01*
%TO.C,U2*%
X126580000Y-63148000D02*
X126580000Y-64248000D01*
X128390000Y-63148000D02*
X126580000Y-63148000D01*
X128390000Y-61648000D02*
X128390000Y-63148000D01*
X119800000Y-63148000D02*
X119800000Y-68273000D01*
X117990000Y-63148000D02*
X119800000Y-63148000D01*
X117990000Y-61648000D02*
X117990000Y-63148000D01*
%TO.C,U10*%
X188303000Y-96738000D02*
X188303000Y-98238000D01*
X188303000Y-98238000D02*
X188773000Y-98238000D01*
X188773000Y-98238000D02*
X188773000Y-101068000D01*
X195203000Y-96738000D02*
X195203000Y-98238000D01*
X195203000Y-98238000D02*
X194733000Y-98238000D01*
X194733000Y-98238000D02*
X194733000Y-99338000D01*
%TO.C,U5*%
X135060000Y-96782000D02*
X135060000Y-98282000D01*
X135060000Y-98282000D02*
X135530000Y-98282000D01*
X135530000Y-98282000D02*
X135530000Y-101112000D01*
X141960000Y-96782000D02*
X141960000Y-98282000D01*
X141960000Y-98282000D02*
X141490000Y-98282000D01*
X141490000Y-98282000D02*
X141490000Y-99382000D01*
%TO.C,U4*%
X170538280Y-96729159D02*
X170538280Y-98229159D01*
X170538280Y-98229159D02*
X171008280Y-98229159D01*
X171008280Y-98229159D02*
X171008280Y-101059159D01*
X177438280Y-96729159D02*
X177438280Y-98229159D01*
X177438280Y-98229159D02*
X176968280Y-98229159D01*
X176968280Y-98229159D02*
X176968280Y-99329159D01*
%TO.C,R46*%
X199135742Y-101595500D02*
X199610258Y-101595500D01*
X199135742Y-102640500D02*
X199610258Y-102640500D01*
%TO.C,R45*%
X196564500Y-105149258D02*
X196564500Y-104674742D01*
X197609500Y-105149258D02*
X197609500Y-104674742D01*
%TO.C,R42*%
X202943500Y-98578742D02*
X202943500Y-99053258D01*
X201898500Y-98578742D02*
X201898500Y-99053258D01*
%TO.C,R41*%
X194563742Y-105151500D02*
X195038258Y-105151500D01*
X194563742Y-106196500D02*
X195038258Y-106196500D01*
%TO.C,R40*%
X196056500Y-100069258D02*
X196056500Y-99594742D01*
X197101500Y-100069258D02*
X197101500Y-99594742D01*
%TO.C,R39*%
X197101500Y-93244742D02*
X197101500Y-93719258D01*
X196056500Y-93244742D02*
X196056500Y-93719258D01*
%TO.C,R38*%
X199389742Y-95753500D02*
X199864258Y-95753500D01*
X199389742Y-96798500D02*
X199864258Y-96798500D01*
%TO.C,R20*%
X145892742Y-101639500D02*
X146367258Y-101639500D01*
X145892742Y-102684500D02*
X146367258Y-102684500D01*
%TO.C,R19*%
X143321500Y-105193258D02*
X143321500Y-104718742D01*
X144366500Y-105193258D02*
X144366500Y-104718742D01*
%TO.C,R16*%
X149700500Y-98622742D02*
X149700500Y-99097258D01*
X148655500Y-98622742D02*
X148655500Y-99097258D01*
%TO.C,R15*%
X141320742Y-105195500D02*
X141795258Y-105195500D01*
X141320742Y-106240500D02*
X141795258Y-106240500D01*
%TO.C,R14*%
X142813500Y-100113258D02*
X142813500Y-99638742D01*
X143858500Y-100113258D02*
X143858500Y-99638742D01*
%TO.C,R13*%
X143858500Y-93288742D02*
X143858500Y-93763258D01*
X142813500Y-93288742D02*
X142813500Y-93763258D01*
%TO.C,R12*%
X146146742Y-95797500D02*
X146621258Y-95797500D01*
X146146742Y-96842500D02*
X146621258Y-96842500D01*
%TO.C,R11*%
X181371022Y-101586659D02*
X181845538Y-101586659D01*
X181371022Y-102631659D02*
X181845538Y-102631659D01*
%TO.C,R10*%
X178799780Y-105140417D02*
X178799780Y-104665901D01*
X179844780Y-105140417D02*
X179844780Y-104665901D01*
%TO.C,R7*%
X185178780Y-98569901D02*
X185178780Y-99044417D01*
X184133780Y-98569901D02*
X184133780Y-99044417D01*
%TO.C,R6*%
X176799022Y-105142659D02*
X177273538Y-105142659D01*
X176799022Y-106187659D02*
X177273538Y-106187659D01*
%TO.C,R5*%
X178291780Y-100060417D02*
X178291780Y-99585901D01*
X179336780Y-100060417D02*
X179336780Y-99585901D01*
%TO.C,R4*%
X179336780Y-93235901D02*
X179336780Y-93710417D01*
X178291780Y-93235901D02*
X178291780Y-93710417D01*
%TO.C,R3*%
X181625022Y-95744659D02*
X182099538Y-95744659D01*
X181625022Y-96789659D02*
X182099538Y-96789659D01*
%TO.C,Q14*%
X201207000Y-103898000D02*
X200277000Y-103898000D01*
X198047000Y-103898000D02*
X198977000Y-103898000D01*
X198047000Y-103898000D02*
X198047000Y-106058000D01*
X201207000Y-103898000D02*
X201207000Y-105358000D01*
%TO.C,Q13*%
X198301000Y-99576000D02*
X199231000Y-99576000D01*
X201461000Y-99576000D02*
X200531000Y-99576000D01*
X201461000Y-99576000D02*
X201461000Y-97416000D01*
X198301000Y-99576000D02*
X198301000Y-98116000D01*
%TO.C,Q12*%
X201461000Y-92976000D02*
X200531000Y-92976000D01*
X198301000Y-92976000D02*
X199231000Y-92976000D01*
X198301000Y-92976000D02*
X198301000Y-95136000D01*
X201461000Y-92976000D02*
X201461000Y-94436000D01*
%TO.C,Q6*%
X147964000Y-103942000D02*
X147034000Y-103942000D01*
X144804000Y-103942000D02*
X145734000Y-103942000D01*
X144804000Y-103942000D02*
X144804000Y-106102000D01*
X147964000Y-103942000D02*
X147964000Y-105402000D01*
%TO.C,Q5*%
X145058000Y-99620000D02*
X145988000Y-99620000D01*
X148218000Y-99620000D02*
X147288000Y-99620000D01*
X148218000Y-99620000D02*
X148218000Y-97460000D01*
X145058000Y-99620000D02*
X145058000Y-98160000D01*
%TO.C,Q4*%
X148218000Y-93020000D02*
X147288000Y-93020000D01*
X145058000Y-93020000D02*
X145988000Y-93020000D01*
X145058000Y-93020000D02*
X145058000Y-95180000D01*
X148218000Y-93020000D02*
X148218000Y-94480000D01*
%TO.C,Q3*%
X183442280Y-103889159D02*
X182512280Y-103889159D01*
X180282280Y-103889159D02*
X181212280Y-103889159D01*
X180282280Y-103889159D02*
X180282280Y-106049159D01*
X183442280Y-103889159D02*
X183442280Y-105349159D01*
%TO.C,Q2*%
X180536280Y-99567159D02*
X181466280Y-99567159D01*
X183696280Y-99567159D02*
X182766280Y-99567159D01*
X183696280Y-99567159D02*
X183696280Y-97407159D01*
X180536280Y-99567159D02*
X180536280Y-98107159D01*
%TO.C,Q1*%
X183696280Y-92967159D02*
X182766280Y-92967159D01*
X180536280Y-92967159D02*
X181466280Y-92967159D01*
X180536280Y-92967159D02*
X180536280Y-95127159D01*
X183696280Y-92967159D02*
X183696280Y-94427159D01*
%TO.C,F5*%
X190843000Y-104752064D02*
X190843000Y-103547936D01*
X192663000Y-104752064D02*
X192663000Y-103547936D01*
%TO.C,F2*%
X137600000Y-104796064D02*
X137600000Y-103591936D01*
X139420000Y-104796064D02*
X139420000Y-103591936D01*
%TO.C,F1*%
X173078280Y-104743223D02*
X173078280Y-103539095D01*
X174898280Y-104743223D02*
X174898280Y-103539095D01*
%TO.C,D7*%
X194001000Y-104885000D02*
X196286000Y-104885000D01*
X196286000Y-104885000D02*
X196286000Y-103415000D01*
X196286000Y-103415000D02*
X194001000Y-103415000D01*
%TO.C,D4*%
X140758000Y-104929000D02*
X143043000Y-104929000D01*
X143043000Y-104929000D02*
X143043000Y-103459000D01*
X143043000Y-103459000D02*
X140758000Y-103459000D01*
%TO.C,D3*%
X176236280Y-104876159D02*
X178521280Y-104876159D01*
X178521280Y-104876159D02*
X178521280Y-103406159D01*
X178521280Y-103406159D02*
X176236280Y-103406159D01*
%TO.C,C24*%
X196069000Y-96797580D02*
X196069000Y-96516420D01*
X197089000Y-96797580D02*
X197089000Y-96516420D01*
%TO.C,C13*%
X142826000Y-96841580D02*
X142826000Y-96560420D01*
X143846000Y-96841580D02*
X143846000Y-96560420D01*
%TO.C,C11*%
X178304280Y-96788739D02*
X178304280Y-96507579D01*
X179324280Y-96788739D02*
X179324280Y-96507579D01*
%TO.C,D5*%
X160743000Y-103405000D02*
X158458000Y-103405000D01*
X160743000Y-104875000D02*
X160743000Y-103405000D01*
X158458000Y-104875000D02*
X160743000Y-104875000D01*
%TO.C,R24*%
X159020742Y-106186500D02*
X159495258Y-106186500D01*
X159020742Y-105141500D02*
X159495258Y-105141500D01*
%TO.C,R22*%
X160513500Y-93234742D02*
X160513500Y-93709258D01*
X161558500Y-93234742D02*
X161558500Y-93709258D01*
%TO.C,R25*%
X166355500Y-98568742D02*
X166355500Y-99043258D01*
X167400500Y-98568742D02*
X167400500Y-99043258D01*
%TO.C,R21*%
X163846742Y-95743500D02*
X164321258Y-95743500D01*
X163846742Y-96788500D02*
X164321258Y-96788500D01*
%TO.C,Q7*%
X165918000Y-92966000D02*
X164988000Y-92966000D01*
X162758000Y-92966000D02*
X163688000Y-92966000D01*
X162758000Y-92966000D02*
X162758000Y-95126000D01*
X165918000Y-92966000D02*
X165918000Y-94426000D01*
%TO.C,Q8*%
X162758000Y-99566000D02*
X163688000Y-99566000D01*
X165918000Y-99566000D02*
X164988000Y-99566000D01*
X165918000Y-99566000D02*
X165918000Y-97406000D01*
X162758000Y-99566000D02*
X162758000Y-98106000D01*
%TO.C,Q9*%
X165664000Y-103888000D02*
X164734000Y-103888000D01*
X162504000Y-103888000D02*
X163434000Y-103888000D01*
X162504000Y-103888000D02*
X162504000Y-106048000D01*
X165664000Y-103888000D02*
X165664000Y-105348000D01*
%TO.C,D1*%
X129059000Y-55665000D02*
X129059000Y-57950000D01*
X130529000Y-55665000D02*
X129059000Y-55665000D01*
X130529000Y-57950000D02*
X130529000Y-55665000D01*
%TO.C,R23*%
X161558500Y-100059258D02*
X161558500Y-99584742D01*
X160513500Y-100059258D02*
X160513500Y-99584742D01*
%TO.C,R2*%
X129271500Y-59960742D02*
X129271500Y-60435258D01*
X130316500Y-59960742D02*
X130316500Y-60435258D01*
%TO.C,R1*%
X153938500Y-81263258D02*
X153938500Y-80788742D01*
X152893500Y-81263258D02*
X152893500Y-80788742D01*
%TO.C,Y1*%
X170973000Y-55953500D02*
X183573000Y-55953500D01*
X170973000Y-50853500D02*
X170973000Y-55953500D01*
X183573000Y-50853500D02*
X170973000Y-50853500D01*
%TO.C,U6*%
X159190000Y-98228000D02*
X159190000Y-99328000D01*
X159660000Y-98228000D02*
X159190000Y-98228000D01*
X159660000Y-96728000D02*
X159660000Y-98228000D01*
X153230000Y-98228000D02*
X153230000Y-101058000D01*
X152760000Y-98228000D02*
X153230000Y-98228000D01*
X152760000Y-96728000D02*
X152760000Y-98228000D01*
%TO.C,U1*%
X165195693Y-79851693D02*
X167635212Y-77412175D01*
X165195693Y-79851693D02*
X163816835Y-81230552D01*
X161575307Y-76231307D02*
X162954165Y-74852448D01*
X161575307Y-76231307D02*
X160196448Y-77610165D01*
%TO.C,TP1*%
X121350000Y-70358000D02*
G75*
G03*
X121350000Y-70358000I-700000J0D01*
G01*
%TO.C,R28*%
X162066500Y-105139258D02*
X162066500Y-104664742D01*
X161021500Y-105139258D02*
X161021500Y-104664742D01*
%TO.C,J2*%
X176879427Y-81431887D02*
X175938975Y-82372339D01*
X175938975Y-80491435D02*
X176879427Y-81431887D01*
X175040949Y-79593409D02*
X173160045Y-81474313D01*
X173160045Y-81474313D02*
X167729465Y-76043733D01*
X175040949Y-79593409D02*
X169610369Y-74162829D01*
X169610369Y-74162829D02*
X167729465Y-76043733D01*
%TO.C,F3*%
X157120000Y-104742064D02*
X157120000Y-103537936D01*
X155300000Y-104742064D02*
X155300000Y-103537936D01*
%TO.C,CANL_Test1*%
X156402000Y-82931000D02*
G75*
G03*
X156402000Y-82931000I-700000J0D01*
G01*
%TO.C,C15*%
X161546000Y-96787580D02*
X161546000Y-96506420D01*
X160526000Y-96787580D02*
X160526000Y-96506420D01*
%TO.C,C10*%
X168354030Y-79748781D02*
X168155219Y-79549970D01*
X167632781Y-80470030D02*
X167433970Y-80271219D01*
%TO.C,C9*%
X129284000Y-66661420D02*
X129284000Y-66942580D01*
X130304000Y-66661420D02*
X130304000Y-66942580D01*
%TO.C,C6*%
X116076000Y-66661420D02*
X116076000Y-66942580D01*
X117096000Y-66661420D02*
X117096000Y-66942580D01*
%TO.C,C3*%
X178179000Y-57834920D02*
X178179000Y-58116080D01*
X179199000Y-57834920D02*
X179199000Y-58116080D01*
%TO.C,C2*%
X176655000Y-57834920D02*
X176655000Y-58116080D01*
X177675000Y-57834920D02*
X177675000Y-58116080D01*
%TO.C,C1*%
X166140580Y-82490000D02*
X165859420Y-82490000D01*
X166140580Y-83510000D02*
X165859420Y-83510000D01*
%TO.C,R29*%
X163592742Y-102630500D02*
X164067258Y-102630500D01*
X163592742Y-101585500D02*
X164067258Y-101585500D01*
D11*
%TO.C,J4*%
X166482000Y-119124000D02*
X209692000Y-119124000D01*
D12*
X176987000Y-118274000D02*
G75*
G03*
X176987000Y-118274000I-250000J0D01*
G01*
D11*
X208367000Y-158624000D02*
X208367000Y-144014000D01*
X167807000Y-158624000D02*
X208367000Y-158624000D01*
X167807000Y-144014000D02*
X167807000Y-158624000D01*
X166482000Y-129524000D02*
X166482000Y-119124000D01*
X158482000Y-129524000D02*
X166482000Y-129524000D01*
X158482000Y-144014000D02*
X158482000Y-129524000D01*
X167807000Y-144014000D02*
X158482000Y-144014000D01*
X208367000Y-144014000D02*
X167807000Y-144014000D01*
X217692000Y-144014000D02*
X208367000Y-144014000D01*
X217692000Y-129524000D02*
X217692000Y-144014000D01*
X209692000Y-129524000D02*
X217692000Y-129524000D01*
X209692000Y-119124000D02*
X209692000Y-129524000D01*
D13*
%TO.C,J1*%
X124252000Y-129024000D02*
X124252000Y-118834000D01*
X124252000Y-118834000D02*
X149682000Y-118834000D01*
X149682000Y-118834000D02*
X149682000Y-129024000D01*
X124252000Y-129024000D02*
X119327000Y-129024000D01*
X119327000Y-129024000D02*
X119327000Y-143724000D01*
X119327000Y-143724000D02*
X157677000Y-143724000D01*
X157677000Y-143724000D02*
X157677000Y-129024000D01*
X157677000Y-129024000D02*
X149682000Y-129024000D01*
D12*
X134677000Y-118064000D02*
G75*
G03*
X134677000Y-118064000I-250000J0D01*
G01*
%TO.C,CANH_TP1*%
D14*
X154521504Y-77633285D02*
X154502152Y-77671990D01*
X154444095Y-77710695D01*
X154405390Y-77710695D01*
X154347333Y-77671990D01*
X154308628Y-77594580D01*
X154289276Y-77517171D01*
X154269923Y-77362352D01*
X154269923Y-77246238D01*
X154289276Y-77091419D01*
X154308628Y-77014009D01*
X154347333Y-76936600D01*
X154405390Y-76897895D01*
X154444095Y-76897895D01*
X154502152Y-76936600D01*
X154521504Y-76975304D01*
X154676323Y-77478466D02*
X154869847Y-77478466D01*
X154637619Y-77710695D02*
X154773085Y-76897895D01*
X154908552Y-77710695D01*
X155044019Y-77710695D02*
X155044019Y-76897895D01*
X155276247Y-77710695D01*
X155276247Y-76897895D01*
X155469771Y-77710695D02*
X155469771Y-76897895D01*
X155469771Y-77284942D02*
X155702000Y-77284942D01*
X155702000Y-77710695D02*
X155702000Y-76897895D01*
X155798761Y-77788104D02*
X156108400Y-77788104D01*
X156147104Y-76897895D02*
X156379333Y-76897895D01*
X156263219Y-77710695D02*
X156263219Y-76897895D01*
X156514800Y-77710695D02*
X156514800Y-76897895D01*
X156669619Y-76897895D01*
X156708323Y-76936600D01*
X156727676Y-76975304D01*
X156747028Y-77052714D01*
X156747028Y-77168828D01*
X156727676Y-77246238D01*
X156708323Y-77284942D01*
X156669619Y-77323647D01*
X156514800Y-77323647D01*
X157134076Y-77710695D02*
X156901847Y-77710695D01*
X157017961Y-77710695D02*
X157017961Y-76897895D01*
X156979257Y-77014009D01*
X156940552Y-77091419D01*
X156901847Y-77130123D01*
D13*
%TO.C,U3*%
D15*
X171701174Y-71686670D02*
X172273594Y-72259090D01*
X172374609Y-72292762D01*
X172441953Y-72292762D01*
X172542968Y-72259090D01*
X172677655Y-72124403D01*
X172711327Y-72023388D01*
X172711327Y-71956044D01*
X172677655Y-71855029D01*
X172105235Y-71282609D01*
X172374609Y-71013235D02*
X172812342Y-70575503D01*
X172846014Y-71080579D01*
X172947029Y-70979564D01*
X173048044Y-70945892D01*
X173115388Y-70945892D01*
X173216403Y-70979564D01*
X173384762Y-71147922D01*
X173418434Y-71248938D01*
X173418434Y-71316281D01*
X173384762Y-71417296D01*
X173182731Y-71619327D01*
X173081716Y-71652999D01*
X173014373Y-71652999D01*
%TO.C,C8*%
X173018888Y-61781595D02*
X173018888Y-61848938D01*
X172951544Y-61983625D01*
X172884201Y-62050969D01*
X172749513Y-62118312D01*
X172614826Y-62118312D01*
X172513811Y-62084641D01*
X172345452Y-61983625D01*
X172244437Y-61882610D01*
X172143422Y-61714251D01*
X172109750Y-61613236D01*
X172109750Y-61478549D01*
X172177094Y-61343862D01*
X172244437Y-61276518D01*
X172379124Y-61209175D01*
X172446468Y-61209175D01*
X173086231Y-61040816D02*
X172985216Y-61074488D01*
X172917872Y-61074488D01*
X172816857Y-61040816D01*
X172783185Y-61007144D01*
X172749513Y-60906129D01*
X172749513Y-60838786D01*
X172783185Y-60737770D01*
X172917872Y-60603083D01*
X173018888Y-60569412D01*
X173086231Y-60569412D01*
X173187246Y-60603083D01*
X173220918Y-60636755D01*
X173254590Y-60737770D01*
X173254590Y-60805114D01*
X173220918Y-60906129D01*
X173086231Y-61040816D01*
X173052559Y-61141831D01*
X173052559Y-61209175D01*
X173086231Y-61310190D01*
X173220918Y-61444877D01*
X173321933Y-61478549D01*
X173389277Y-61478549D01*
X173490292Y-61444877D01*
X173624979Y-61310190D01*
X173658651Y-61209175D01*
X173658651Y-61141831D01*
X173624979Y-61040816D01*
X173490292Y-60906129D01*
X173389277Y-60872457D01*
X173321933Y-60872457D01*
X173220918Y-60906129D01*
%TO.C,C7*%
X174107734Y-62882885D02*
X174107734Y-62950228D01*
X174040390Y-63084915D01*
X173973047Y-63152259D01*
X173838359Y-63219602D01*
X173703672Y-63219602D01*
X173602657Y-63185931D01*
X173434298Y-63084915D01*
X173333283Y-62983900D01*
X173232268Y-62815541D01*
X173198596Y-62714526D01*
X173198596Y-62579839D01*
X173265940Y-62445152D01*
X173333283Y-62377808D01*
X173467970Y-62310465D01*
X173535314Y-62310465D01*
X173703672Y-62007419D02*
X174175077Y-61536015D01*
X174579138Y-62546167D01*
%TO.C,C5*%
X175954927Y-67598314D02*
X175887584Y-67598314D01*
X175752897Y-67530970D01*
X175685553Y-67463627D01*
X175618210Y-67328939D01*
X175618210Y-67194252D01*
X175651881Y-67093237D01*
X175752897Y-66924878D01*
X175853912Y-66823863D01*
X176022271Y-66722848D01*
X176123286Y-66689176D01*
X176257973Y-66689176D01*
X176392660Y-66756520D01*
X176460004Y-66823863D01*
X176527347Y-66958550D01*
X176527347Y-67025894D01*
X177234454Y-67598314D02*
X176897736Y-67261596D01*
X176527347Y-67564642D01*
X176594691Y-67564642D01*
X176695706Y-67598314D01*
X176864065Y-67766672D01*
X176897736Y-67867688D01*
X176897736Y-67935031D01*
X176864065Y-68036046D01*
X176695706Y-68204405D01*
X176594691Y-68238077D01*
X176527347Y-68238077D01*
X176426332Y-68204405D01*
X176257973Y-68036046D01*
X176224301Y-67935031D01*
X176224301Y-67867688D01*
%TO.C,C4*%
X163156293Y-70339060D02*
X163088950Y-70339060D01*
X162954263Y-70271716D01*
X162886919Y-70204373D01*
X162819576Y-70069685D01*
X162819576Y-69934998D01*
X162853247Y-69833983D01*
X162954263Y-69665624D01*
X163055278Y-69564609D01*
X163223637Y-69463594D01*
X163324652Y-69429922D01*
X163459339Y-69429922D01*
X163594026Y-69497266D01*
X163661370Y-69564609D01*
X163728713Y-69699296D01*
X163728713Y-69766640D01*
X164166446Y-70541090D02*
X163695041Y-71012495D01*
X164267461Y-70103357D02*
X163594026Y-70440075D01*
X164031759Y-70877808D01*
%TO.C,L1*%
X221724380Y-111416666D02*
X221724380Y-111892857D01*
X220724380Y-111892857D01*
X221724380Y-110559523D02*
X221724380Y-111130952D01*
X221724380Y-110845238D02*
X220724380Y-110845238D01*
X220867238Y-110940476D01*
X220962476Y-111035714D01*
X221010095Y-111130952D01*
%TO.C,C23*%
X205433142Y-117548857D02*
X205480761Y-117596476D01*
X205528380Y-117739333D01*
X205528380Y-117834571D01*
X205480761Y-117977428D01*
X205385523Y-118072666D01*
X205290285Y-118120285D01*
X205099809Y-118167904D01*
X204956952Y-118167904D01*
X204766476Y-118120285D01*
X204671238Y-118072666D01*
X204576000Y-117977428D01*
X204528380Y-117834571D01*
X204528380Y-117739333D01*
X204576000Y-117596476D01*
X204623619Y-117548857D01*
X204623619Y-117167904D02*
X204576000Y-117120285D01*
X204528380Y-117025047D01*
X204528380Y-116786952D01*
X204576000Y-116691714D01*
X204623619Y-116644095D01*
X204718857Y-116596476D01*
X204814095Y-116596476D01*
X204956952Y-116644095D01*
X205528380Y-117215523D01*
X205528380Y-116596476D01*
X204528380Y-116263142D02*
X204528380Y-115644095D01*
X204909333Y-115977428D01*
X204909333Y-115834571D01*
X204956952Y-115739333D01*
X205004571Y-115691714D01*
X205099809Y-115644095D01*
X205337904Y-115644095D01*
X205433142Y-115691714D01*
X205480761Y-115739333D01*
X205528380Y-115834571D01*
X205528380Y-116120285D01*
X205480761Y-116215523D01*
X205433142Y-116263142D01*
%TO.C,C18*%
X210757142Y-87477142D02*
X210709523Y-87524761D01*
X210566666Y-87572380D01*
X210471428Y-87572380D01*
X210328571Y-87524761D01*
X210233333Y-87429523D01*
X210185714Y-87334285D01*
X210138095Y-87143809D01*
X210138095Y-87000952D01*
X210185714Y-86810476D01*
X210233333Y-86715238D01*
X210328571Y-86620000D01*
X210471428Y-86572380D01*
X210566666Y-86572380D01*
X210709523Y-86620000D01*
X210757142Y-86667619D01*
X211709523Y-87572380D02*
X211138095Y-87572380D01*
X211423809Y-87572380D02*
X211423809Y-86572380D01*
X211328571Y-86715238D01*
X211233333Y-86810476D01*
X211138095Y-86858095D01*
X212280952Y-87000952D02*
X212185714Y-86953333D01*
X212138095Y-86905714D01*
X212090476Y-86810476D01*
X212090476Y-86762857D01*
X212138095Y-86667619D01*
X212185714Y-86620000D01*
X212280952Y-86572380D01*
X212471428Y-86572380D01*
X212566666Y-86620000D01*
X212614285Y-86667619D01*
X212661904Y-86762857D01*
X212661904Y-86810476D01*
X212614285Y-86905714D01*
X212566666Y-86953333D01*
X212471428Y-87000952D01*
X212280952Y-87000952D01*
X212185714Y-87048571D01*
X212138095Y-87096190D01*
X212090476Y-87191428D01*
X212090476Y-87381904D01*
X212138095Y-87477142D01*
X212185714Y-87524761D01*
X212280952Y-87572380D01*
X212471428Y-87572380D01*
X212566666Y-87524761D01*
X212614285Y-87477142D01*
X212661904Y-87381904D01*
X212661904Y-87191428D01*
X212614285Y-87096190D01*
X212566666Y-87048571D01*
X212471428Y-87000952D01*
%TO.C,C16*%
X210757142Y-85377142D02*
X210709523Y-85424761D01*
X210566666Y-85472380D01*
X210471428Y-85472380D01*
X210328571Y-85424761D01*
X210233333Y-85329523D01*
X210185714Y-85234285D01*
X210138095Y-85043809D01*
X210138095Y-84900952D01*
X210185714Y-84710476D01*
X210233333Y-84615238D01*
X210328571Y-84520000D01*
X210471428Y-84472380D01*
X210566666Y-84472380D01*
X210709523Y-84520000D01*
X210757142Y-84567619D01*
X211709523Y-85472380D02*
X211138095Y-85472380D01*
X211423809Y-85472380D02*
X211423809Y-84472380D01*
X211328571Y-84615238D01*
X211233333Y-84710476D01*
X211138095Y-84758095D01*
X212566666Y-84472380D02*
X212376190Y-84472380D01*
X212280952Y-84520000D01*
X212233333Y-84567619D01*
X212138095Y-84710476D01*
X212090476Y-84900952D01*
X212090476Y-85281904D01*
X212138095Y-85377142D01*
X212185714Y-85424761D01*
X212280952Y-85472380D01*
X212471428Y-85472380D01*
X212566666Y-85424761D01*
X212614285Y-85377142D01*
X212661904Y-85281904D01*
X212661904Y-85043809D01*
X212614285Y-84948571D01*
X212566666Y-84900952D01*
X212471428Y-84853333D01*
X212280952Y-84853333D01*
X212185714Y-84900952D01*
X212138095Y-84948571D01*
X212090476Y-85043809D01*
%TO.C,C12*%
X210757142Y-89477142D02*
X210709523Y-89524761D01*
X210566666Y-89572380D01*
X210471428Y-89572380D01*
X210328571Y-89524761D01*
X210233333Y-89429523D01*
X210185714Y-89334285D01*
X210138095Y-89143809D01*
X210138095Y-89000952D01*
X210185714Y-88810476D01*
X210233333Y-88715238D01*
X210328571Y-88620000D01*
X210471428Y-88572380D01*
X210566666Y-88572380D01*
X210709523Y-88620000D01*
X210757142Y-88667619D01*
X211709523Y-89572380D02*
X211138095Y-89572380D01*
X211423809Y-89572380D02*
X211423809Y-88572380D01*
X211328571Y-88715238D01*
X211233333Y-88810476D01*
X211138095Y-88858095D01*
X212090476Y-88667619D02*
X212138095Y-88620000D01*
X212233333Y-88572380D01*
X212471428Y-88572380D01*
X212566666Y-88620000D01*
X212614285Y-88667619D01*
X212661904Y-88762857D01*
X212661904Y-88858095D01*
X212614285Y-89000952D01*
X212042857Y-89572380D01*
X212661904Y-89572380D01*
%TO.C,Q15*%
X216344571Y-93201619D02*
X216249333Y-93154000D01*
X216154095Y-93058761D01*
X216011238Y-92915904D01*
X215916000Y-92868285D01*
X215820761Y-92868285D01*
X215868380Y-93106380D02*
X215773142Y-93058761D01*
X215677904Y-92963523D01*
X215630285Y-92773047D01*
X215630285Y-92439714D01*
X215677904Y-92249238D01*
X215773142Y-92154000D01*
X215868380Y-92106380D01*
X216058857Y-92106380D01*
X216154095Y-92154000D01*
X216249333Y-92249238D01*
X216296952Y-92439714D01*
X216296952Y-92773047D01*
X216249333Y-92963523D01*
X216154095Y-93058761D01*
X216058857Y-93106380D01*
X215868380Y-93106380D01*
X217249333Y-93106380D02*
X216677904Y-93106380D01*
X216963619Y-93106380D02*
X216963619Y-92106380D01*
X216868380Y-92249238D01*
X216773142Y-92344476D01*
X216677904Y-92392095D01*
X218154095Y-92106380D02*
X217677904Y-92106380D01*
X217630285Y-92582571D01*
X217677904Y-92534952D01*
X217773142Y-92487333D01*
X218011238Y-92487333D01*
X218106476Y-92534952D01*
X218154095Y-92582571D01*
X218201714Y-92677809D01*
X218201714Y-92915904D01*
X218154095Y-93011142D01*
X218106476Y-93058761D01*
X218011238Y-93106380D01*
X217773142Y-93106380D01*
X217677904Y-93058761D01*
X217630285Y-93011142D01*
%TO.C,D6*%
X218463904Y-99464380D02*
X218463904Y-98464380D01*
X218702000Y-98464380D01*
X218844857Y-98512000D01*
X218940095Y-98607238D01*
X218987714Y-98702476D01*
X219035333Y-98892952D01*
X219035333Y-99035809D01*
X218987714Y-99226285D01*
X218940095Y-99321523D01*
X218844857Y-99416761D01*
X218702000Y-99464380D01*
X218463904Y-99464380D01*
X219892476Y-98464380D02*
X219702000Y-98464380D01*
X219606761Y-98512000D01*
X219559142Y-98559619D01*
X219463904Y-98702476D01*
X219416285Y-98892952D01*
X219416285Y-99273904D01*
X219463904Y-99369142D01*
X219511523Y-99416761D01*
X219606761Y-99464380D01*
X219797238Y-99464380D01*
X219892476Y-99416761D01*
X219940095Y-99369142D01*
X219987714Y-99273904D01*
X219987714Y-99035809D01*
X219940095Y-98940571D01*
X219892476Y-98892952D01*
X219797238Y-98845333D01*
X219606761Y-98845333D01*
X219511523Y-98892952D01*
X219463904Y-98940571D01*
X219416285Y-99035809D01*
%TO.C,D2*%
X157503904Y-119034380D02*
X157503904Y-118034380D01*
X157742000Y-118034380D01*
X157884857Y-118082000D01*
X157980095Y-118177238D01*
X158027714Y-118272476D01*
X158075333Y-118462952D01*
X158075333Y-118605809D01*
X158027714Y-118796285D01*
X157980095Y-118891523D01*
X157884857Y-118986761D01*
X157742000Y-119034380D01*
X157503904Y-119034380D01*
X158456285Y-118129619D02*
X158503904Y-118082000D01*
X158599142Y-118034380D01*
X158837238Y-118034380D01*
X158932476Y-118082000D01*
X158980095Y-118129619D01*
X159027714Y-118224857D01*
X159027714Y-118320095D01*
X158980095Y-118462952D01*
X158408666Y-119034380D01*
X159027714Y-119034380D01*
%TO.C,J3*%
D14*
X150486533Y-76980895D02*
X150486533Y-77561466D01*
X150467180Y-77677580D01*
X150428476Y-77754990D01*
X150370419Y-77793695D01*
X150331714Y-77793695D01*
X150641352Y-76980895D02*
X150892933Y-76980895D01*
X150757466Y-77290533D01*
X150815523Y-77290533D01*
X150854228Y-77329238D01*
X150873580Y-77367942D01*
X150892933Y-77445352D01*
X150892933Y-77638876D01*
X150873580Y-77716285D01*
X150854228Y-77754990D01*
X150815523Y-77793695D01*
X150699409Y-77793695D01*
X150660704Y-77754990D01*
X150641352Y-77716285D01*
D13*
%TO.C,U7*%
D14*
X215844361Y-65594895D02*
X215844361Y-66252876D01*
X215863714Y-66330285D01*
X215883066Y-66368990D01*
X215921771Y-66407695D01*
X215999180Y-66407695D01*
X216037885Y-66368990D01*
X216057238Y-66330285D01*
X216076590Y-66252876D01*
X216076590Y-65594895D01*
X216231409Y-65594895D02*
X216502342Y-65594895D01*
X216328171Y-66407695D01*
D13*
%TO.C,R31*%
D14*
X223887695Y-77223257D02*
X223500647Y-77358723D01*
X223887695Y-77455485D02*
X223074895Y-77455485D01*
X223074895Y-77300666D01*
X223113600Y-77261961D01*
X223152304Y-77242609D01*
X223229714Y-77223257D01*
X223345828Y-77223257D01*
X223423238Y-77242609D01*
X223461942Y-77261961D01*
X223500647Y-77300666D01*
X223500647Y-77455485D01*
X223074895Y-77087790D02*
X223074895Y-76836209D01*
X223384533Y-76971676D01*
X223384533Y-76913619D01*
X223423238Y-76874914D01*
X223461942Y-76855561D01*
X223539352Y-76836209D01*
X223732876Y-76836209D01*
X223810285Y-76855561D01*
X223848990Y-76874914D01*
X223887695Y-76913619D01*
X223887695Y-77029733D01*
X223848990Y-77068438D01*
X223810285Y-77087790D01*
X223887695Y-76449161D02*
X223887695Y-76681390D01*
X223887695Y-76565276D02*
X223074895Y-76565276D01*
X223191009Y-76603980D01*
X223268419Y-76642685D01*
X223307123Y-76681390D01*
D13*
%TO.C,R30*%
D14*
X223887695Y-72143257D02*
X223500647Y-72278723D01*
X223887695Y-72375485D02*
X223074895Y-72375485D01*
X223074895Y-72220666D01*
X223113600Y-72181961D01*
X223152304Y-72162609D01*
X223229714Y-72143257D01*
X223345828Y-72143257D01*
X223423238Y-72162609D01*
X223461942Y-72181961D01*
X223500647Y-72220666D01*
X223500647Y-72375485D01*
X223074895Y-72007790D02*
X223074895Y-71756209D01*
X223384533Y-71891676D01*
X223384533Y-71833619D01*
X223423238Y-71794914D01*
X223461942Y-71775561D01*
X223539352Y-71756209D01*
X223732876Y-71756209D01*
X223810285Y-71775561D01*
X223848990Y-71794914D01*
X223887695Y-71833619D01*
X223887695Y-71949733D01*
X223848990Y-71988438D01*
X223810285Y-72007790D01*
X223074895Y-71504628D02*
X223074895Y-71465923D01*
X223113600Y-71427219D01*
X223152304Y-71407866D01*
X223229714Y-71388514D01*
X223384533Y-71369161D01*
X223578057Y-71369161D01*
X223732876Y-71388514D01*
X223810285Y-71407866D01*
X223848990Y-71427219D01*
X223887695Y-71465923D01*
X223887695Y-71504628D01*
X223848990Y-71543333D01*
X223810285Y-71562685D01*
X223732876Y-71582038D01*
X223578057Y-71601390D01*
X223384533Y-71601390D01*
X223229714Y-71582038D01*
X223152304Y-71562685D01*
X223113600Y-71543333D01*
X223074895Y-71504628D01*
D13*
%TO.C,R9*%
D14*
X208974266Y-77329695D02*
X208838800Y-76942647D01*
X208742038Y-77329695D02*
X208742038Y-76516895D01*
X208896857Y-76516895D01*
X208935561Y-76555600D01*
X208954914Y-76594304D01*
X208974266Y-76671714D01*
X208974266Y-76787828D01*
X208954914Y-76865238D01*
X208935561Y-76903942D01*
X208896857Y-76942647D01*
X208742038Y-76942647D01*
X209167790Y-77329695D02*
X209245200Y-77329695D01*
X209283904Y-77290990D01*
X209303257Y-77252285D01*
X209341961Y-77136171D01*
X209361314Y-76981352D01*
X209361314Y-76671714D01*
X209341961Y-76594304D01*
X209322609Y-76555600D01*
X209283904Y-76516895D01*
X209206495Y-76516895D01*
X209167790Y-76555600D01*
X209148438Y-76594304D01*
X209129085Y-76671714D01*
X209129085Y-76865238D01*
X209148438Y-76942647D01*
X209167790Y-76981352D01*
X209206495Y-77020057D01*
X209283904Y-77020057D01*
X209322609Y-76981352D01*
X209341961Y-76942647D01*
X209361314Y-76865238D01*
D13*
%TO.C,R8*%
D14*
X208974266Y-72249695D02*
X208838800Y-71862647D01*
X208742038Y-72249695D02*
X208742038Y-71436895D01*
X208896857Y-71436895D01*
X208935561Y-71475600D01*
X208954914Y-71514304D01*
X208974266Y-71591714D01*
X208974266Y-71707828D01*
X208954914Y-71785238D01*
X208935561Y-71823942D01*
X208896857Y-71862647D01*
X208742038Y-71862647D01*
X209206495Y-71785238D02*
X209167790Y-71746533D01*
X209148438Y-71707828D01*
X209129085Y-71630419D01*
X209129085Y-71591714D01*
X209148438Y-71514304D01*
X209167790Y-71475600D01*
X209206495Y-71436895D01*
X209283904Y-71436895D01*
X209322609Y-71475600D01*
X209341961Y-71514304D01*
X209361314Y-71591714D01*
X209361314Y-71630419D01*
X209341961Y-71707828D01*
X209322609Y-71746533D01*
X209283904Y-71785238D01*
X209206495Y-71785238D01*
X209167790Y-71823942D01*
X209148438Y-71862647D01*
X209129085Y-71940057D01*
X209129085Y-72094876D01*
X209148438Y-72172285D01*
X209167790Y-72210990D01*
X209206495Y-72249695D01*
X209283904Y-72249695D01*
X209322609Y-72210990D01*
X209341961Y-72172285D01*
X209361314Y-72094876D01*
X209361314Y-71940057D01*
X209341961Y-71862647D01*
X209322609Y-71823942D01*
X209283904Y-71785238D01*
D13*
%TO.C,Q11*%
D14*
X209233104Y-74654228D02*
X209194400Y-74692933D01*
X209116990Y-74731638D01*
X209000876Y-74789695D01*
X208962171Y-74828400D01*
X208962171Y-74867104D01*
X209155695Y-74847752D02*
X209116990Y-74886457D01*
X209039580Y-74925161D01*
X208884761Y-74944514D01*
X208613828Y-74944514D01*
X208459009Y-74925161D01*
X208381600Y-74886457D01*
X208342895Y-74847752D01*
X208342895Y-74770342D01*
X208381600Y-74731638D01*
X208459009Y-74692933D01*
X208613828Y-74673580D01*
X208884761Y-74673580D01*
X209039580Y-74692933D01*
X209116990Y-74731638D01*
X209155695Y-74770342D01*
X209155695Y-74847752D01*
X209155695Y-74286533D02*
X209155695Y-74518761D01*
X209155695Y-74402647D02*
X208342895Y-74402647D01*
X208459009Y-74441352D01*
X208536419Y-74480057D01*
X208575123Y-74518761D01*
X209155695Y-73899485D02*
X209155695Y-74131714D01*
X209155695Y-74015600D02*
X208342895Y-74015600D01*
X208459009Y-74054304D01*
X208536419Y-74093009D01*
X208575123Y-74131714D01*
D13*
%TO.C,Q10*%
D14*
X223965104Y-74654228D02*
X223926400Y-74692933D01*
X223848990Y-74731638D01*
X223732876Y-74789695D01*
X223694171Y-74828400D01*
X223694171Y-74867104D01*
X223887695Y-74847752D02*
X223848990Y-74886457D01*
X223771580Y-74925161D01*
X223616761Y-74944514D01*
X223345828Y-74944514D01*
X223191009Y-74925161D01*
X223113600Y-74886457D01*
X223074895Y-74847752D01*
X223074895Y-74770342D01*
X223113600Y-74731638D01*
X223191009Y-74692933D01*
X223345828Y-74673580D01*
X223616761Y-74673580D01*
X223771580Y-74692933D01*
X223848990Y-74731638D01*
X223887695Y-74770342D01*
X223887695Y-74847752D01*
X223887695Y-74286533D02*
X223887695Y-74518761D01*
X223887695Y-74402647D02*
X223074895Y-74402647D01*
X223191009Y-74441352D01*
X223268419Y-74480057D01*
X223307123Y-74518761D01*
X223074895Y-74034952D02*
X223074895Y-73996247D01*
X223113600Y-73957542D01*
X223152304Y-73938190D01*
X223229714Y-73918838D01*
X223384533Y-73899485D01*
X223578057Y-73899485D01*
X223732876Y-73918838D01*
X223810285Y-73938190D01*
X223848990Y-73957542D01*
X223887695Y-73996247D01*
X223887695Y-74034952D01*
X223848990Y-74073657D01*
X223810285Y-74093009D01*
X223732876Y-74112361D01*
X223578057Y-74131714D01*
X223384533Y-74131714D01*
X223229714Y-74112361D01*
X223152304Y-74093009D01*
X223113600Y-74073657D01*
X223074895Y-74034952D01*
D13*
%TO.C,C17*%
D14*
X212590742Y-78776285D02*
X212571390Y-78814990D01*
X212513333Y-78853695D01*
X212474628Y-78853695D01*
X212416571Y-78814990D01*
X212377866Y-78737580D01*
X212358514Y-78660171D01*
X212339161Y-78505352D01*
X212339161Y-78389238D01*
X212358514Y-78234419D01*
X212377866Y-78157009D01*
X212416571Y-78079600D01*
X212474628Y-78040895D01*
X212513333Y-78040895D01*
X212571390Y-78079600D01*
X212590742Y-78118304D01*
X212977790Y-78853695D02*
X212745561Y-78853695D01*
X212861676Y-78853695D02*
X212861676Y-78040895D01*
X212822971Y-78157009D01*
X212784266Y-78234419D01*
X212745561Y-78273123D01*
X213113257Y-78040895D02*
X213384190Y-78040895D01*
X213210019Y-78853695D01*
D13*
%TO.C,U8*%
D14*
X208732361Y-79696895D02*
X208732361Y-80354876D01*
X208751714Y-80432285D01*
X208771066Y-80470990D01*
X208809771Y-80509695D01*
X208887180Y-80509695D01*
X208925885Y-80470990D01*
X208945238Y-80432285D01*
X208964590Y-80354876D01*
X208964590Y-79696895D01*
X209216171Y-80045238D02*
X209177466Y-80006533D01*
X209158114Y-79967828D01*
X209138761Y-79890419D01*
X209138761Y-79851714D01*
X209158114Y-79774304D01*
X209177466Y-79735600D01*
X209216171Y-79696895D01*
X209293580Y-79696895D01*
X209332285Y-79735600D01*
X209351638Y-79774304D01*
X209370990Y-79851714D01*
X209370990Y-79890419D01*
X209351638Y-79967828D01*
X209332285Y-80006533D01*
X209293580Y-80045238D01*
X209216171Y-80045238D01*
X209177466Y-80083942D01*
X209158114Y-80122647D01*
X209138761Y-80200057D01*
X209138761Y-80354876D01*
X209158114Y-80432285D01*
X209177466Y-80470990D01*
X209216171Y-80509695D01*
X209293580Y-80509695D01*
X209332285Y-80470990D01*
X209351638Y-80432285D01*
X209370990Y-80354876D01*
X209370990Y-80200057D01*
X209351638Y-80122647D01*
X209332285Y-80083942D01*
X209293580Y-80045238D01*
D13*
%TO.C,R37*%
D14*
X203567695Y-84843257D02*
X203180647Y-84978723D01*
X203567695Y-85075485D02*
X202754895Y-85075485D01*
X202754895Y-84920666D01*
X202793600Y-84881961D01*
X202832304Y-84862609D01*
X202909714Y-84843257D01*
X203025828Y-84843257D01*
X203103238Y-84862609D01*
X203141942Y-84881961D01*
X203180647Y-84920666D01*
X203180647Y-85075485D01*
X202754895Y-84707790D02*
X202754895Y-84456209D01*
X203064533Y-84591676D01*
X203064533Y-84533619D01*
X203103238Y-84494914D01*
X203141942Y-84475561D01*
X203219352Y-84456209D01*
X203412876Y-84456209D01*
X203490285Y-84475561D01*
X203528990Y-84494914D01*
X203567695Y-84533619D01*
X203567695Y-84649733D01*
X203528990Y-84688438D01*
X203490285Y-84707790D01*
X202754895Y-84320742D02*
X202754895Y-84049809D01*
X203567695Y-84223980D01*
D13*
%TO.C,R36*%
D14*
X206615695Y-86367257D02*
X206228647Y-86502723D01*
X206615695Y-86599485D02*
X205802895Y-86599485D01*
X205802895Y-86444666D01*
X205841600Y-86405961D01*
X205880304Y-86386609D01*
X205957714Y-86367257D01*
X206073828Y-86367257D01*
X206151238Y-86386609D01*
X206189942Y-86405961D01*
X206228647Y-86444666D01*
X206228647Y-86599485D01*
X205802895Y-86231790D02*
X205802895Y-85980209D01*
X206112533Y-86115676D01*
X206112533Y-86057619D01*
X206151238Y-86018914D01*
X206189942Y-85999561D01*
X206267352Y-85980209D01*
X206460876Y-85980209D01*
X206538285Y-85999561D01*
X206576990Y-86018914D01*
X206615695Y-86057619D01*
X206615695Y-86173733D01*
X206576990Y-86212438D01*
X206538285Y-86231790D01*
X205802895Y-85631866D02*
X205802895Y-85709276D01*
X205841600Y-85747980D01*
X205880304Y-85767333D01*
X205996419Y-85806038D01*
X206151238Y-85825390D01*
X206460876Y-85825390D01*
X206538285Y-85806038D01*
X206576990Y-85786685D01*
X206615695Y-85747980D01*
X206615695Y-85670571D01*
X206576990Y-85631866D01*
X206538285Y-85612514D01*
X206460876Y-85593161D01*
X206267352Y-85593161D01*
X206189942Y-85612514D01*
X206151238Y-85631866D01*
X206112533Y-85670571D01*
X206112533Y-85747980D01*
X206151238Y-85786685D01*
X206189942Y-85806038D01*
X206267352Y-85825390D01*
D13*
%TO.C,R35*%
D14*
X205091695Y-86367257D02*
X204704647Y-86502723D01*
X205091695Y-86599485D02*
X204278895Y-86599485D01*
X204278895Y-86444666D01*
X204317600Y-86405961D01*
X204356304Y-86386609D01*
X204433714Y-86367257D01*
X204549828Y-86367257D01*
X204627238Y-86386609D01*
X204665942Y-86405961D01*
X204704647Y-86444666D01*
X204704647Y-86599485D01*
X204278895Y-86231790D02*
X204278895Y-85980209D01*
X204588533Y-86115676D01*
X204588533Y-86057619D01*
X204627238Y-86018914D01*
X204665942Y-85999561D01*
X204743352Y-85980209D01*
X204936876Y-85980209D01*
X205014285Y-85999561D01*
X205052990Y-86018914D01*
X205091695Y-86057619D01*
X205091695Y-86173733D01*
X205052990Y-86212438D01*
X205014285Y-86231790D01*
X204278895Y-85612514D02*
X204278895Y-85806038D01*
X204665942Y-85825390D01*
X204627238Y-85806038D01*
X204588533Y-85767333D01*
X204588533Y-85670571D01*
X204627238Y-85631866D01*
X204665942Y-85612514D01*
X204743352Y-85593161D01*
X204936876Y-85593161D01*
X205014285Y-85612514D01*
X205052990Y-85631866D01*
X205091695Y-85670571D01*
X205091695Y-85767333D01*
X205052990Y-85806038D01*
X205014285Y-85825390D01*
D13*
%TO.C,R33*%
D14*
X203821695Y-80525257D02*
X203434647Y-80660723D01*
X203821695Y-80757485D02*
X203008895Y-80757485D01*
X203008895Y-80602666D01*
X203047600Y-80563961D01*
X203086304Y-80544609D01*
X203163714Y-80525257D01*
X203279828Y-80525257D01*
X203357238Y-80544609D01*
X203395942Y-80563961D01*
X203434647Y-80602666D01*
X203434647Y-80757485D01*
X203008895Y-80389790D02*
X203008895Y-80138209D01*
X203318533Y-80273676D01*
X203318533Y-80215619D01*
X203357238Y-80176914D01*
X203395942Y-80157561D01*
X203473352Y-80138209D01*
X203666876Y-80138209D01*
X203744285Y-80157561D01*
X203782990Y-80176914D01*
X203821695Y-80215619D01*
X203821695Y-80331733D01*
X203782990Y-80370438D01*
X203744285Y-80389790D01*
X203008895Y-80002742D02*
X203008895Y-79751161D01*
X203318533Y-79886628D01*
X203318533Y-79828571D01*
X203357238Y-79789866D01*
X203395942Y-79770514D01*
X203473352Y-79751161D01*
X203666876Y-79751161D01*
X203744285Y-79770514D01*
X203782990Y-79789866D01*
X203821695Y-79828571D01*
X203821695Y-79944685D01*
X203782990Y-79983390D01*
X203744285Y-80002742D01*
D13*
%TO.C,R32*%
D14*
X207510742Y-80631695D02*
X207375276Y-80244647D01*
X207278514Y-80631695D02*
X207278514Y-79818895D01*
X207433333Y-79818895D01*
X207472038Y-79857600D01*
X207491390Y-79896304D01*
X207510742Y-79973714D01*
X207510742Y-80089828D01*
X207491390Y-80167238D01*
X207472038Y-80205942D01*
X207433333Y-80244647D01*
X207278514Y-80244647D01*
X207646209Y-79818895D02*
X207897790Y-79818895D01*
X207762323Y-80128533D01*
X207820380Y-80128533D01*
X207859085Y-80167238D01*
X207878438Y-80205942D01*
X207897790Y-80283352D01*
X207897790Y-80476876D01*
X207878438Y-80554285D01*
X207859085Y-80592990D01*
X207820380Y-80631695D01*
X207704266Y-80631695D01*
X207665561Y-80592990D01*
X207646209Y-80554285D01*
X208052609Y-79896304D02*
X208071961Y-79857600D01*
X208110666Y-79818895D01*
X208207428Y-79818895D01*
X208246133Y-79857600D01*
X208265485Y-79896304D01*
X208284838Y-79973714D01*
X208284838Y-80051123D01*
X208265485Y-80167238D01*
X208033257Y-80631695D01*
X208284838Y-80631695D01*
D13*
%TO.C,F4*%
D14*
X217873942Y-80653466D02*
X217873942Y-80788933D01*
X218299695Y-80788933D02*
X217486895Y-80788933D01*
X217486895Y-80595409D01*
X217757828Y-80266419D02*
X218299695Y-80266419D01*
X217448190Y-80363180D02*
X218028761Y-80459942D01*
X218028761Y-80208361D01*
D13*
%TO.C,C19*%
D14*
X209658285Y-92961257D02*
X209696990Y-92980609D01*
X209735695Y-93038666D01*
X209735695Y-93077371D01*
X209696990Y-93135428D01*
X209619580Y-93174133D01*
X209542171Y-93193485D01*
X209387352Y-93212838D01*
X209271238Y-93212838D01*
X209116419Y-93193485D01*
X209039009Y-93174133D01*
X208961600Y-93135428D01*
X208922895Y-93077371D01*
X208922895Y-93038666D01*
X208961600Y-92980609D01*
X209000304Y-92961257D01*
X209735695Y-92574209D02*
X209735695Y-92806438D01*
X209735695Y-92690323D02*
X208922895Y-92690323D01*
X209039009Y-92729028D01*
X209116419Y-92767733D01*
X209155123Y-92806438D01*
X209735695Y-92380685D02*
X209735695Y-92303276D01*
X209696990Y-92264571D01*
X209658285Y-92245219D01*
X209542171Y-92206514D01*
X209387352Y-92187161D01*
X209077714Y-92187161D01*
X209000304Y-92206514D01*
X208961600Y-92225866D01*
X208922895Y-92264571D01*
X208922895Y-92341980D01*
X208961600Y-92380685D01*
X209000304Y-92400038D01*
X209077714Y-92419390D01*
X209271238Y-92419390D01*
X209348647Y-92400038D01*
X209387352Y-92380685D01*
X209426057Y-92341980D01*
X209426057Y-92264571D01*
X209387352Y-92225866D01*
X209348647Y-92206514D01*
X209271238Y-92187161D01*
D13*
%TO.C,C14*%
D14*
X212590742Y-81316285D02*
X212571390Y-81354990D01*
X212513333Y-81393695D01*
X212474628Y-81393695D01*
X212416571Y-81354990D01*
X212377866Y-81277580D01*
X212358514Y-81200171D01*
X212339161Y-81045352D01*
X212339161Y-80929238D01*
X212358514Y-80774419D01*
X212377866Y-80697009D01*
X212416571Y-80619600D01*
X212474628Y-80580895D01*
X212513333Y-80580895D01*
X212571390Y-80619600D01*
X212590742Y-80658304D01*
X212977790Y-81393695D02*
X212745561Y-81393695D01*
X212861676Y-81393695D02*
X212861676Y-80580895D01*
X212822971Y-80697009D01*
X212784266Y-80774419D01*
X212745561Y-80813123D01*
X213326133Y-80851828D02*
X213326133Y-81393695D01*
X213229371Y-80542190D02*
X213132609Y-81122761D01*
X213384190Y-81122761D01*
D13*
%TO.C,TP2*%
D14*
X124963161Y-71436895D02*
X125195390Y-71436895D01*
X125079276Y-72249695D02*
X125079276Y-71436895D01*
X125330857Y-72249695D02*
X125330857Y-71436895D01*
X125485676Y-71436895D01*
X125524380Y-71475600D01*
X125543733Y-71514304D01*
X125563085Y-71591714D01*
X125563085Y-71707828D01*
X125543733Y-71785238D01*
X125524380Y-71823942D01*
X125485676Y-71862647D01*
X125330857Y-71862647D01*
X125717904Y-71514304D02*
X125737257Y-71475600D01*
X125775961Y-71436895D01*
X125872723Y-71436895D01*
X125911428Y-71475600D01*
X125930780Y-71514304D01*
X125950133Y-71591714D01*
X125950133Y-71669123D01*
X125930780Y-71785238D01*
X125698552Y-72249695D01*
X125950133Y-72249695D01*
D13*
%TO.C,U2*%
D14*
X116648895Y-60507638D02*
X117306876Y-60507638D01*
X117384285Y-60488285D01*
X117422990Y-60468933D01*
X117461695Y-60430228D01*
X117461695Y-60352819D01*
X117422990Y-60314114D01*
X117384285Y-60294761D01*
X117306876Y-60275409D01*
X116648895Y-60275409D01*
X116726304Y-60101238D02*
X116687600Y-60081885D01*
X116648895Y-60043180D01*
X116648895Y-59946419D01*
X116687600Y-59907714D01*
X116726304Y-59888361D01*
X116803714Y-59869009D01*
X116881123Y-59869009D01*
X116997238Y-59888361D01*
X117461695Y-60120590D01*
X117461695Y-59869009D01*
D13*
%TO.C,U10*%
D14*
X191423838Y-89172895D02*
X191423838Y-89830876D01*
X191443190Y-89908285D01*
X191462542Y-89946990D01*
X191501247Y-89985695D01*
X191578657Y-89985695D01*
X191617361Y-89946990D01*
X191636714Y-89908285D01*
X191656066Y-89830876D01*
X191656066Y-89172895D01*
X192062466Y-89985695D02*
X191830238Y-89985695D01*
X191946352Y-89985695D02*
X191946352Y-89172895D01*
X191907647Y-89289009D01*
X191868942Y-89366419D01*
X191830238Y-89405123D01*
X192314047Y-89172895D02*
X192352752Y-89172895D01*
X192391457Y-89211600D01*
X192410809Y-89250304D01*
X192430161Y-89327714D01*
X192449514Y-89482533D01*
X192449514Y-89676057D01*
X192430161Y-89830876D01*
X192410809Y-89908285D01*
X192391457Y-89946990D01*
X192352752Y-89985695D01*
X192314047Y-89985695D01*
X192275342Y-89946990D01*
X192255990Y-89908285D01*
X192236638Y-89830876D01*
X192217285Y-89676057D01*
X192217285Y-89482533D01*
X192236638Y-89327714D01*
X192255990Y-89250304D01*
X192275342Y-89211600D01*
X192314047Y-89172895D01*
D13*
%TO.C,U5*%
D14*
X138374361Y-89216895D02*
X138374361Y-89874876D01*
X138393714Y-89952285D01*
X138413066Y-89990990D01*
X138451771Y-90029695D01*
X138529180Y-90029695D01*
X138567885Y-89990990D01*
X138587238Y-89952285D01*
X138606590Y-89874876D01*
X138606590Y-89216895D01*
X138993638Y-89216895D02*
X138800114Y-89216895D01*
X138780761Y-89603942D01*
X138800114Y-89565238D01*
X138838819Y-89526533D01*
X138935580Y-89526533D01*
X138974285Y-89565238D01*
X138993638Y-89603942D01*
X139012990Y-89681352D01*
X139012990Y-89874876D01*
X138993638Y-89952285D01*
X138974285Y-89990990D01*
X138935580Y-90029695D01*
X138838819Y-90029695D01*
X138800114Y-89990990D01*
X138780761Y-89952285D01*
D13*
%TO.C,U4*%
D14*
X173852641Y-89164054D02*
X173852641Y-89822035D01*
X173871994Y-89899444D01*
X173891346Y-89938149D01*
X173930051Y-89976854D01*
X174007460Y-89976854D01*
X174046165Y-89938149D01*
X174065518Y-89899444D01*
X174084870Y-89822035D01*
X174084870Y-89164054D01*
X174452565Y-89434987D02*
X174452565Y-89976854D01*
X174355803Y-89125349D02*
X174259041Y-89705920D01*
X174510622Y-89705920D01*
D13*
%TO.C,R46*%
D14*
X201317742Y-102431695D02*
X201182276Y-102044647D01*
X201085514Y-102431695D02*
X201085514Y-101618895D01*
X201240333Y-101618895D01*
X201279038Y-101657600D01*
X201298390Y-101696304D01*
X201317742Y-101773714D01*
X201317742Y-101889828D01*
X201298390Y-101967238D01*
X201279038Y-102005942D01*
X201240333Y-102044647D01*
X201085514Y-102044647D01*
X201666085Y-101889828D02*
X201666085Y-102431695D01*
X201569323Y-101580190D02*
X201472561Y-102160761D01*
X201724142Y-102160761D01*
X202053133Y-101618895D02*
X201975723Y-101618895D01*
X201937019Y-101657600D01*
X201917666Y-101696304D01*
X201878961Y-101812419D01*
X201859609Y-101967238D01*
X201859609Y-102276876D01*
X201878961Y-102354285D01*
X201898314Y-102392990D01*
X201937019Y-102431695D01*
X202014428Y-102431695D01*
X202053133Y-102392990D01*
X202072485Y-102354285D01*
X202091838Y-102276876D01*
X202091838Y-102083352D01*
X202072485Y-102005942D01*
X202053133Y-101967238D01*
X202014428Y-101928533D01*
X201937019Y-101928533D01*
X201898314Y-101967238D01*
X201878961Y-102005942D01*
X201859609Y-102083352D01*
D13*
%TO.C,R45*%
D14*
X197628695Y-107405257D02*
X197241647Y-107540723D01*
X197628695Y-107637485D02*
X196815895Y-107637485D01*
X196815895Y-107482666D01*
X196854600Y-107443961D01*
X196893304Y-107424609D01*
X196970714Y-107405257D01*
X197086828Y-107405257D01*
X197164238Y-107424609D01*
X197202942Y-107443961D01*
X197241647Y-107482666D01*
X197241647Y-107637485D01*
X197086828Y-107056914D02*
X197628695Y-107056914D01*
X196777190Y-107153676D02*
X197357761Y-107250438D01*
X197357761Y-106998857D01*
X196815895Y-106650514D02*
X196815895Y-106844038D01*
X197202942Y-106863390D01*
X197164238Y-106844038D01*
X197125533Y-106805333D01*
X197125533Y-106708571D01*
X197164238Y-106669866D01*
X197202942Y-106650514D01*
X197280352Y-106631161D01*
X197473876Y-106631161D01*
X197551285Y-106650514D01*
X197589990Y-106669866D01*
X197628695Y-106708571D01*
X197628695Y-106805333D01*
X197589990Y-106844038D01*
X197551285Y-106863390D01*
D13*
%TO.C,R42*%
D14*
X204232695Y-99023257D02*
X203845647Y-99158723D01*
X204232695Y-99255485D02*
X203419895Y-99255485D01*
X203419895Y-99100666D01*
X203458600Y-99061961D01*
X203497304Y-99042609D01*
X203574714Y-99023257D01*
X203690828Y-99023257D01*
X203768238Y-99042609D01*
X203806942Y-99061961D01*
X203845647Y-99100666D01*
X203845647Y-99255485D01*
X203690828Y-98674914D02*
X204232695Y-98674914D01*
X203381190Y-98771676D02*
X203961761Y-98868438D01*
X203961761Y-98616857D01*
X203497304Y-98481390D02*
X203458600Y-98462038D01*
X203419895Y-98423333D01*
X203419895Y-98326571D01*
X203458600Y-98287866D01*
X203497304Y-98268514D01*
X203574714Y-98249161D01*
X203652123Y-98249161D01*
X203768238Y-98268514D01*
X204232695Y-98500742D01*
X204232695Y-98249161D01*
D13*
%TO.C,R41*%
D14*
X194539742Y-107511695D02*
X194404276Y-107124647D01*
X194307514Y-107511695D02*
X194307514Y-106698895D01*
X194462333Y-106698895D01*
X194501038Y-106737600D01*
X194520390Y-106776304D01*
X194539742Y-106853714D01*
X194539742Y-106969828D01*
X194520390Y-107047238D01*
X194501038Y-107085942D01*
X194462333Y-107124647D01*
X194307514Y-107124647D01*
X194888085Y-106969828D02*
X194888085Y-107511695D01*
X194791323Y-106660190D02*
X194694561Y-107240761D01*
X194946142Y-107240761D01*
X195313838Y-107511695D02*
X195081609Y-107511695D01*
X195197723Y-107511695D02*
X195197723Y-106698895D01*
X195159019Y-106815009D01*
X195120314Y-106892419D01*
X195081609Y-106931123D01*
D13*
%TO.C,R40*%
D14*
X196237742Y-102431695D02*
X196102276Y-102044647D01*
X196005514Y-102431695D02*
X196005514Y-101618895D01*
X196160333Y-101618895D01*
X196199038Y-101657600D01*
X196218390Y-101696304D01*
X196237742Y-101773714D01*
X196237742Y-101889828D01*
X196218390Y-101967238D01*
X196199038Y-102005942D01*
X196160333Y-102044647D01*
X196005514Y-102044647D01*
X196586085Y-101889828D02*
X196586085Y-102431695D01*
X196489323Y-101580190D02*
X196392561Y-102160761D01*
X196644142Y-102160761D01*
X196876371Y-101618895D02*
X196915076Y-101618895D01*
X196953780Y-101657600D01*
X196973133Y-101696304D01*
X196992485Y-101773714D01*
X197011838Y-101928533D01*
X197011838Y-102122057D01*
X196992485Y-102276876D01*
X196973133Y-102354285D01*
X196953780Y-102392990D01*
X196915076Y-102431695D01*
X196876371Y-102431695D01*
X196837666Y-102392990D01*
X196818314Y-102354285D01*
X196798961Y-102276876D01*
X196779609Y-102122057D01*
X196779609Y-101928533D01*
X196798961Y-101773714D01*
X196818314Y-101696304D01*
X196837666Y-101657600D01*
X196876371Y-101618895D01*
D13*
%TO.C,R39*%
D14*
X198376695Y-93743257D02*
X197989647Y-93878723D01*
X198376695Y-93975485D02*
X197563895Y-93975485D01*
X197563895Y-93820666D01*
X197602600Y-93781961D01*
X197641304Y-93762609D01*
X197718714Y-93743257D01*
X197834828Y-93743257D01*
X197912238Y-93762609D01*
X197950942Y-93781961D01*
X197989647Y-93820666D01*
X197989647Y-93975485D01*
X197563895Y-93607790D02*
X197563895Y-93356209D01*
X197873533Y-93491676D01*
X197873533Y-93433619D01*
X197912238Y-93394914D01*
X197950942Y-93375561D01*
X198028352Y-93356209D01*
X198221876Y-93356209D01*
X198299285Y-93375561D01*
X198337990Y-93394914D01*
X198376695Y-93433619D01*
X198376695Y-93549733D01*
X198337990Y-93588438D01*
X198299285Y-93607790D01*
X198376695Y-93162685D02*
X198376695Y-93085276D01*
X198337990Y-93046571D01*
X198299285Y-93027219D01*
X198183171Y-92988514D01*
X198028352Y-92969161D01*
X197718714Y-92969161D01*
X197641304Y-92988514D01*
X197602600Y-93007866D01*
X197563895Y-93046571D01*
X197563895Y-93123980D01*
X197602600Y-93162685D01*
X197641304Y-93182038D01*
X197718714Y-93201390D01*
X197912238Y-93201390D01*
X197989647Y-93182038D01*
X198028352Y-93162685D01*
X198067057Y-93123980D01*
X198067057Y-93046571D01*
X198028352Y-93007866D01*
X197989647Y-92988514D01*
X197912238Y-92969161D01*
D13*
%TO.C,R38*%
D14*
X201571742Y-96589695D02*
X201436276Y-96202647D01*
X201339514Y-96589695D02*
X201339514Y-95776895D01*
X201494333Y-95776895D01*
X201533038Y-95815600D01*
X201552390Y-95854304D01*
X201571742Y-95931714D01*
X201571742Y-96047828D01*
X201552390Y-96125238D01*
X201533038Y-96163942D01*
X201494333Y-96202647D01*
X201339514Y-96202647D01*
X201707209Y-95776895D02*
X201958790Y-95776895D01*
X201823323Y-96086533D01*
X201881380Y-96086533D01*
X201920085Y-96125238D01*
X201939438Y-96163942D01*
X201958790Y-96241352D01*
X201958790Y-96434876D01*
X201939438Y-96512285D01*
X201920085Y-96550990D01*
X201881380Y-96589695D01*
X201765266Y-96589695D01*
X201726561Y-96550990D01*
X201707209Y-96512285D01*
X202191019Y-96125238D02*
X202152314Y-96086533D01*
X202132961Y-96047828D01*
X202113609Y-95970419D01*
X202113609Y-95931714D01*
X202132961Y-95854304D01*
X202152314Y-95815600D01*
X202191019Y-95776895D01*
X202268428Y-95776895D01*
X202307133Y-95815600D01*
X202326485Y-95854304D01*
X202345838Y-95931714D01*
X202345838Y-95970419D01*
X202326485Y-96047828D01*
X202307133Y-96086533D01*
X202268428Y-96125238D01*
X202191019Y-96125238D01*
X202152314Y-96163942D01*
X202132961Y-96202647D01*
X202113609Y-96280057D01*
X202113609Y-96434876D01*
X202132961Y-96512285D01*
X202152314Y-96550990D01*
X202191019Y-96589695D01*
X202268428Y-96589695D01*
X202307133Y-96550990D01*
X202326485Y-96512285D01*
X202345838Y-96434876D01*
X202345838Y-96280057D01*
X202326485Y-96202647D01*
X202307133Y-96163942D01*
X202268428Y-96125238D01*
D13*
%TO.C,R20*%
D14*
X148074742Y-102475695D02*
X147939276Y-102088647D01*
X147842514Y-102475695D02*
X147842514Y-101662895D01*
X147997333Y-101662895D01*
X148036038Y-101701600D01*
X148055390Y-101740304D01*
X148074742Y-101817714D01*
X148074742Y-101933828D01*
X148055390Y-102011238D01*
X148036038Y-102049942D01*
X147997333Y-102088647D01*
X147842514Y-102088647D01*
X148229561Y-101740304D02*
X148248914Y-101701600D01*
X148287619Y-101662895D01*
X148384380Y-101662895D01*
X148423085Y-101701600D01*
X148442438Y-101740304D01*
X148461790Y-101817714D01*
X148461790Y-101895123D01*
X148442438Y-102011238D01*
X148210209Y-102475695D01*
X148461790Y-102475695D01*
X148713371Y-101662895D02*
X148752076Y-101662895D01*
X148790780Y-101701600D01*
X148810133Y-101740304D01*
X148829485Y-101817714D01*
X148848838Y-101972533D01*
X148848838Y-102166057D01*
X148829485Y-102320876D01*
X148810133Y-102398285D01*
X148790780Y-102436990D01*
X148752076Y-102475695D01*
X148713371Y-102475695D01*
X148674666Y-102436990D01*
X148655314Y-102398285D01*
X148635961Y-102320876D01*
X148616609Y-102166057D01*
X148616609Y-101972533D01*
X148635961Y-101817714D01*
X148655314Y-101740304D01*
X148674666Y-101701600D01*
X148713371Y-101662895D01*
D13*
%TO.C,R19*%
D14*
X144385695Y-107449257D02*
X143998647Y-107584723D01*
X144385695Y-107681485D02*
X143572895Y-107681485D01*
X143572895Y-107526666D01*
X143611600Y-107487961D01*
X143650304Y-107468609D01*
X143727714Y-107449257D01*
X143843828Y-107449257D01*
X143921238Y-107468609D01*
X143959942Y-107487961D01*
X143998647Y-107526666D01*
X143998647Y-107681485D01*
X144385695Y-107062209D02*
X144385695Y-107294438D01*
X144385695Y-107178323D02*
X143572895Y-107178323D01*
X143689009Y-107217028D01*
X143766419Y-107255733D01*
X143805123Y-107294438D01*
X144385695Y-106868685D02*
X144385695Y-106791276D01*
X144346990Y-106752571D01*
X144308285Y-106733219D01*
X144192171Y-106694514D01*
X144037352Y-106675161D01*
X143727714Y-106675161D01*
X143650304Y-106694514D01*
X143611600Y-106713866D01*
X143572895Y-106752571D01*
X143572895Y-106829980D01*
X143611600Y-106868685D01*
X143650304Y-106888038D01*
X143727714Y-106907390D01*
X143921238Y-106907390D01*
X143998647Y-106888038D01*
X144037352Y-106868685D01*
X144076057Y-106829980D01*
X144076057Y-106752571D01*
X144037352Y-106713866D01*
X143998647Y-106694514D01*
X143921238Y-106675161D01*
D13*
%TO.C,R16*%
D14*
X150989695Y-99067257D02*
X150602647Y-99202723D01*
X150989695Y-99299485D02*
X150176895Y-99299485D01*
X150176895Y-99144666D01*
X150215600Y-99105961D01*
X150254304Y-99086609D01*
X150331714Y-99067257D01*
X150447828Y-99067257D01*
X150525238Y-99086609D01*
X150563942Y-99105961D01*
X150602647Y-99144666D01*
X150602647Y-99299485D01*
X150989695Y-98680209D02*
X150989695Y-98912438D01*
X150989695Y-98796323D02*
X150176895Y-98796323D01*
X150293009Y-98835028D01*
X150370419Y-98873733D01*
X150409123Y-98912438D01*
X150176895Y-98331866D02*
X150176895Y-98409276D01*
X150215600Y-98447980D01*
X150254304Y-98467333D01*
X150370419Y-98506038D01*
X150525238Y-98525390D01*
X150834876Y-98525390D01*
X150912285Y-98506038D01*
X150950990Y-98486685D01*
X150989695Y-98447980D01*
X150989695Y-98370571D01*
X150950990Y-98331866D01*
X150912285Y-98312514D01*
X150834876Y-98293161D01*
X150641352Y-98293161D01*
X150563942Y-98312514D01*
X150525238Y-98331866D01*
X150486533Y-98370571D01*
X150486533Y-98447980D01*
X150525238Y-98486685D01*
X150563942Y-98506038D01*
X150641352Y-98525390D01*
D13*
%TO.C,R15*%
D14*
X141296742Y-107555695D02*
X141161276Y-107168647D01*
X141064514Y-107555695D02*
X141064514Y-106742895D01*
X141219333Y-106742895D01*
X141258038Y-106781600D01*
X141277390Y-106820304D01*
X141296742Y-106897714D01*
X141296742Y-107013828D01*
X141277390Y-107091238D01*
X141258038Y-107129942D01*
X141219333Y-107168647D01*
X141064514Y-107168647D01*
X141683790Y-107555695D02*
X141451561Y-107555695D01*
X141567676Y-107555695D02*
X141567676Y-106742895D01*
X141528971Y-106859009D01*
X141490266Y-106936419D01*
X141451561Y-106975123D01*
X142051485Y-106742895D02*
X141857961Y-106742895D01*
X141838609Y-107129942D01*
X141857961Y-107091238D01*
X141896666Y-107052533D01*
X141993428Y-107052533D01*
X142032133Y-107091238D01*
X142051485Y-107129942D01*
X142070838Y-107207352D01*
X142070838Y-107400876D01*
X142051485Y-107478285D01*
X142032133Y-107516990D01*
X141993428Y-107555695D01*
X141896666Y-107555695D01*
X141857961Y-107516990D01*
X141838609Y-107478285D01*
D13*
%TO.C,R14*%
D14*
X142994742Y-102475695D02*
X142859276Y-102088647D01*
X142762514Y-102475695D02*
X142762514Y-101662895D01*
X142917333Y-101662895D01*
X142956038Y-101701600D01*
X142975390Y-101740304D01*
X142994742Y-101817714D01*
X142994742Y-101933828D01*
X142975390Y-102011238D01*
X142956038Y-102049942D01*
X142917333Y-102088647D01*
X142762514Y-102088647D01*
X143381790Y-102475695D02*
X143149561Y-102475695D01*
X143265676Y-102475695D02*
X143265676Y-101662895D01*
X143226971Y-101779009D01*
X143188266Y-101856419D01*
X143149561Y-101895123D01*
X143730133Y-101933828D02*
X143730133Y-102475695D01*
X143633371Y-101624190D02*
X143536609Y-102204761D01*
X143788190Y-102204761D01*
D13*
%TO.C,R13*%
D14*
X145133695Y-93787257D02*
X144746647Y-93922723D01*
X145133695Y-94019485D02*
X144320895Y-94019485D01*
X144320895Y-93864666D01*
X144359600Y-93825961D01*
X144398304Y-93806609D01*
X144475714Y-93787257D01*
X144591828Y-93787257D01*
X144669238Y-93806609D01*
X144707942Y-93825961D01*
X144746647Y-93864666D01*
X144746647Y-94019485D01*
X145133695Y-93400209D02*
X145133695Y-93632438D01*
X145133695Y-93516323D02*
X144320895Y-93516323D01*
X144437009Y-93555028D01*
X144514419Y-93593733D01*
X144553123Y-93632438D01*
X144320895Y-93264742D02*
X144320895Y-93013161D01*
X144630533Y-93148628D01*
X144630533Y-93090571D01*
X144669238Y-93051866D01*
X144707942Y-93032514D01*
X144785352Y-93013161D01*
X144978876Y-93013161D01*
X145056285Y-93032514D01*
X145094990Y-93051866D01*
X145133695Y-93090571D01*
X145133695Y-93206685D01*
X145094990Y-93245390D01*
X145056285Y-93264742D01*
D13*
%TO.C,R12*%
D14*
X148328742Y-96633695D02*
X148193276Y-96246647D01*
X148096514Y-96633695D02*
X148096514Y-95820895D01*
X148251333Y-95820895D01*
X148290038Y-95859600D01*
X148309390Y-95898304D01*
X148328742Y-95975714D01*
X148328742Y-96091828D01*
X148309390Y-96169238D01*
X148290038Y-96207942D01*
X148251333Y-96246647D01*
X148096514Y-96246647D01*
X148715790Y-96633695D02*
X148483561Y-96633695D01*
X148599676Y-96633695D02*
X148599676Y-95820895D01*
X148560971Y-95937009D01*
X148522266Y-96014419D01*
X148483561Y-96053123D01*
X148870609Y-95898304D02*
X148889961Y-95859600D01*
X148928666Y-95820895D01*
X149025428Y-95820895D01*
X149064133Y-95859600D01*
X149083485Y-95898304D01*
X149102838Y-95975714D01*
X149102838Y-96053123D01*
X149083485Y-96169238D01*
X148851257Y-96633695D01*
X149102838Y-96633695D01*
D13*
%TO.C,R11*%
D14*
X183553022Y-102422854D02*
X183417556Y-102035806D01*
X183320794Y-102422854D02*
X183320794Y-101610054D01*
X183475613Y-101610054D01*
X183514318Y-101648759D01*
X183533670Y-101687463D01*
X183553022Y-101764873D01*
X183553022Y-101880987D01*
X183533670Y-101958397D01*
X183514318Y-101997101D01*
X183475613Y-102035806D01*
X183320794Y-102035806D01*
X183940070Y-102422854D02*
X183707841Y-102422854D01*
X183823956Y-102422854D02*
X183823956Y-101610054D01*
X183785251Y-101726168D01*
X183746546Y-101803578D01*
X183707841Y-101842282D01*
X184327118Y-102422854D02*
X184094889Y-102422854D01*
X184211003Y-102422854D02*
X184211003Y-101610054D01*
X184172299Y-101726168D01*
X184133594Y-101803578D01*
X184094889Y-101842282D01*
D13*
%TO.C,R10*%
D14*
X179863975Y-107396416D02*
X179476927Y-107531882D01*
X179863975Y-107628644D02*
X179051175Y-107628644D01*
X179051175Y-107473825D01*
X179089880Y-107435120D01*
X179128584Y-107415768D01*
X179205994Y-107396416D01*
X179322108Y-107396416D01*
X179399518Y-107415768D01*
X179438222Y-107435120D01*
X179476927Y-107473825D01*
X179476927Y-107628644D01*
X179863975Y-107009368D02*
X179863975Y-107241597D01*
X179863975Y-107125482D02*
X179051175Y-107125482D01*
X179167289Y-107164187D01*
X179244699Y-107202892D01*
X179283403Y-107241597D01*
X179051175Y-106757787D02*
X179051175Y-106719082D01*
X179089880Y-106680378D01*
X179128584Y-106661025D01*
X179205994Y-106641673D01*
X179360813Y-106622320D01*
X179554337Y-106622320D01*
X179709156Y-106641673D01*
X179786565Y-106661025D01*
X179825270Y-106680378D01*
X179863975Y-106719082D01*
X179863975Y-106757787D01*
X179825270Y-106796492D01*
X179786565Y-106815844D01*
X179709156Y-106835197D01*
X179554337Y-106854549D01*
X179360813Y-106854549D01*
X179205994Y-106835197D01*
X179128584Y-106815844D01*
X179089880Y-106796492D01*
X179051175Y-106757787D01*
D13*
%TO.C,R7*%
D14*
X186467975Y-98820892D02*
X186080927Y-98956359D01*
X186467975Y-99053120D02*
X185655175Y-99053120D01*
X185655175Y-98898301D01*
X185693880Y-98859597D01*
X185732584Y-98840244D01*
X185809994Y-98820892D01*
X185926108Y-98820892D01*
X186003518Y-98840244D01*
X186042222Y-98859597D01*
X186080927Y-98898301D01*
X186080927Y-99053120D01*
X185655175Y-98685425D02*
X185655175Y-98414492D01*
X186467975Y-98588663D01*
D13*
%TO.C,R6*%
D14*
X176968546Y-107502854D02*
X176833080Y-107115806D01*
X176736318Y-107502854D02*
X176736318Y-106690054D01*
X176891137Y-106690054D01*
X176929841Y-106728759D01*
X176949194Y-106767463D01*
X176968546Y-106844873D01*
X176968546Y-106960987D01*
X176949194Y-107038397D01*
X176929841Y-107077101D01*
X176891137Y-107115806D01*
X176736318Y-107115806D01*
X177316889Y-106690054D02*
X177239480Y-106690054D01*
X177200775Y-106728759D01*
X177181422Y-106767463D01*
X177142718Y-106883578D01*
X177123365Y-107038397D01*
X177123365Y-107348035D01*
X177142718Y-107425444D01*
X177162070Y-107464149D01*
X177200775Y-107502854D01*
X177278184Y-107502854D01*
X177316889Y-107464149D01*
X177336241Y-107425444D01*
X177355594Y-107348035D01*
X177355594Y-107154511D01*
X177336241Y-107077101D01*
X177316889Y-107038397D01*
X177278184Y-106999692D01*
X177200775Y-106999692D01*
X177162070Y-107038397D01*
X177142718Y-107077101D01*
X177123365Y-107154511D01*
D13*
%TO.C,R5*%
D14*
X178666546Y-102422854D02*
X178531080Y-102035806D01*
X178434318Y-102422854D02*
X178434318Y-101610054D01*
X178589137Y-101610054D01*
X178627841Y-101648759D01*
X178647194Y-101687463D01*
X178666546Y-101764873D01*
X178666546Y-101880987D01*
X178647194Y-101958397D01*
X178627841Y-101997101D01*
X178589137Y-102035806D01*
X178434318Y-102035806D01*
X179034241Y-101610054D02*
X178840718Y-101610054D01*
X178821365Y-101997101D01*
X178840718Y-101958397D01*
X178879422Y-101919692D01*
X178976184Y-101919692D01*
X179014889Y-101958397D01*
X179034241Y-101997101D01*
X179053594Y-102074511D01*
X179053594Y-102268035D01*
X179034241Y-102345444D01*
X179014889Y-102384149D01*
X178976184Y-102422854D01*
X178879422Y-102422854D01*
X178840718Y-102384149D01*
X178821365Y-102345444D01*
D13*
%TO.C,R4*%
D14*
X180611975Y-93540892D02*
X180224927Y-93676359D01*
X180611975Y-93773120D02*
X179799175Y-93773120D01*
X179799175Y-93618301D01*
X179837880Y-93579597D01*
X179876584Y-93560244D01*
X179953994Y-93540892D01*
X180070108Y-93540892D01*
X180147518Y-93560244D01*
X180186222Y-93579597D01*
X180224927Y-93618301D01*
X180224927Y-93773120D01*
X180070108Y-93192549D02*
X180611975Y-93192549D01*
X179760470Y-93289311D02*
X180341041Y-93386073D01*
X180341041Y-93134492D01*
D13*
%TO.C,R3*%
D14*
X184000546Y-96580854D02*
X183865080Y-96193806D01*
X183768318Y-96580854D02*
X183768318Y-95768054D01*
X183923137Y-95768054D01*
X183961841Y-95806759D01*
X183981194Y-95845463D01*
X184000546Y-95922873D01*
X184000546Y-96038987D01*
X183981194Y-96116397D01*
X183961841Y-96155101D01*
X183923137Y-96193806D01*
X183768318Y-96193806D01*
X184136013Y-95768054D02*
X184387594Y-95768054D01*
X184252127Y-96077692D01*
X184310184Y-96077692D01*
X184348889Y-96116397D01*
X184368241Y-96155101D01*
X184387594Y-96232511D01*
X184387594Y-96426035D01*
X184368241Y-96503444D01*
X184348889Y-96542149D01*
X184310184Y-96580854D01*
X184194070Y-96580854D01*
X184155365Y-96542149D01*
X184136013Y-96503444D01*
D13*
%TO.C,Q14*%
D14*
X201854771Y-104287104D02*
X201816066Y-104248400D01*
X201777361Y-104170990D01*
X201719304Y-104054876D01*
X201680600Y-104016171D01*
X201641895Y-104016171D01*
X201661247Y-104209695D02*
X201622542Y-104170990D01*
X201583838Y-104093580D01*
X201564485Y-103938761D01*
X201564485Y-103667828D01*
X201583838Y-103513009D01*
X201622542Y-103435600D01*
X201661247Y-103396895D01*
X201738657Y-103396895D01*
X201777361Y-103435600D01*
X201816066Y-103513009D01*
X201835419Y-103667828D01*
X201835419Y-103938761D01*
X201816066Y-104093580D01*
X201777361Y-104170990D01*
X201738657Y-104209695D01*
X201661247Y-104209695D01*
X202222466Y-104209695D02*
X201990238Y-104209695D01*
X202106352Y-104209695D02*
X202106352Y-103396895D01*
X202067647Y-103513009D01*
X202028942Y-103590419D01*
X201990238Y-103629123D01*
X202570809Y-103667828D02*
X202570809Y-104209695D01*
X202474047Y-103358190D02*
X202377285Y-103938761D01*
X202628866Y-103938761D01*
D13*
%TO.C,Q13*%
D14*
X200838771Y-100731104D02*
X200800066Y-100692400D01*
X200761361Y-100614990D01*
X200703304Y-100498876D01*
X200664600Y-100460171D01*
X200625895Y-100460171D01*
X200645247Y-100653695D02*
X200606542Y-100614990D01*
X200567838Y-100537580D01*
X200548485Y-100382761D01*
X200548485Y-100111828D01*
X200567838Y-99957009D01*
X200606542Y-99879600D01*
X200645247Y-99840895D01*
X200722657Y-99840895D01*
X200761361Y-99879600D01*
X200800066Y-99957009D01*
X200819419Y-100111828D01*
X200819419Y-100382761D01*
X200800066Y-100537580D01*
X200761361Y-100614990D01*
X200722657Y-100653695D01*
X200645247Y-100653695D01*
X201206466Y-100653695D02*
X200974238Y-100653695D01*
X201090352Y-100653695D02*
X201090352Y-99840895D01*
X201051647Y-99957009D01*
X201012942Y-100034419D01*
X200974238Y-100073123D01*
X201341933Y-99840895D02*
X201593514Y-99840895D01*
X201458047Y-100150533D01*
X201516104Y-100150533D01*
X201554809Y-100189238D01*
X201574161Y-100227942D01*
X201593514Y-100305352D01*
X201593514Y-100498876D01*
X201574161Y-100576285D01*
X201554809Y-100614990D01*
X201516104Y-100653695D01*
X201399990Y-100653695D01*
X201361285Y-100614990D01*
X201341933Y-100576285D01*
D13*
%TO.C,Q12*%
D14*
X201854771Y-94181104D02*
X201816066Y-94142400D01*
X201777361Y-94064990D01*
X201719304Y-93948876D01*
X201680600Y-93910171D01*
X201641895Y-93910171D01*
X201661247Y-94103695D02*
X201622542Y-94064990D01*
X201583838Y-93987580D01*
X201564485Y-93832761D01*
X201564485Y-93561828D01*
X201583838Y-93407009D01*
X201622542Y-93329600D01*
X201661247Y-93290895D01*
X201738657Y-93290895D01*
X201777361Y-93329600D01*
X201816066Y-93407009D01*
X201835419Y-93561828D01*
X201835419Y-93832761D01*
X201816066Y-93987580D01*
X201777361Y-94064990D01*
X201738657Y-94103695D01*
X201661247Y-94103695D01*
X202222466Y-94103695D02*
X201990238Y-94103695D01*
X202106352Y-94103695D02*
X202106352Y-93290895D01*
X202067647Y-93407009D01*
X202028942Y-93484419D01*
X201990238Y-93523123D01*
X202377285Y-93368304D02*
X202396638Y-93329600D01*
X202435342Y-93290895D01*
X202532104Y-93290895D01*
X202570809Y-93329600D01*
X202590161Y-93368304D01*
X202609514Y-93445714D01*
X202609514Y-93523123D01*
X202590161Y-93639238D01*
X202357933Y-94103695D01*
X202609514Y-94103695D01*
D13*
%TO.C,Q6*%
D14*
X148805295Y-104331104D02*
X148766590Y-104292400D01*
X148727885Y-104214990D01*
X148669828Y-104098876D01*
X148631123Y-104060171D01*
X148592419Y-104060171D01*
X148611771Y-104253695D02*
X148573066Y-104214990D01*
X148534361Y-104137580D01*
X148515009Y-103982761D01*
X148515009Y-103711828D01*
X148534361Y-103557009D01*
X148573066Y-103479600D01*
X148611771Y-103440895D01*
X148689180Y-103440895D01*
X148727885Y-103479600D01*
X148766590Y-103557009D01*
X148785942Y-103711828D01*
X148785942Y-103982761D01*
X148766590Y-104137580D01*
X148727885Y-104214990D01*
X148689180Y-104253695D01*
X148611771Y-104253695D01*
X149134285Y-103440895D02*
X149056876Y-103440895D01*
X149018171Y-103479600D01*
X148998819Y-103518304D01*
X148960114Y-103634419D01*
X148940761Y-103789238D01*
X148940761Y-104098876D01*
X148960114Y-104176285D01*
X148979466Y-104214990D01*
X149018171Y-104253695D01*
X149095580Y-104253695D01*
X149134285Y-104214990D01*
X149153638Y-104176285D01*
X149172990Y-104098876D01*
X149172990Y-103905352D01*
X149153638Y-103827942D01*
X149134285Y-103789238D01*
X149095580Y-103750533D01*
X149018171Y-103750533D01*
X148979466Y-103789238D01*
X148960114Y-103827942D01*
X148940761Y-103905352D01*
D13*
%TO.C,Q5*%
D14*
X147789295Y-100775104D02*
X147750590Y-100736400D01*
X147711885Y-100658990D01*
X147653828Y-100542876D01*
X147615123Y-100504171D01*
X147576419Y-100504171D01*
X147595771Y-100697695D02*
X147557066Y-100658990D01*
X147518361Y-100581580D01*
X147499009Y-100426761D01*
X147499009Y-100155828D01*
X147518361Y-100001009D01*
X147557066Y-99923600D01*
X147595771Y-99884895D01*
X147673180Y-99884895D01*
X147711885Y-99923600D01*
X147750590Y-100001009D01*
X147769942Y-100155828D01*
X147769942Y-100426761D01*
X147750590Y-100581580D01*
X147711885Y-100658990D01*
X147673180Y-100697695D01*
X147595771Y-100697695D01*
X148137638Y-99884895D02*
X147944114Y-99884895D01*
X147924761Y-100271942D01*
X147944114Y-100233238D01*
X147982819Y-100194533D01*
X148079580Y-100194533D01*
X148118285Y-100233238D01*
X148137638Y-100271942D01*
X148156990Y-100349352D01*
X148156990Y-100542876D01*
X148137638Y-100620285D01*
X148118285Y-100658990D01*
X148079580Y-100697695D01*
X147982819Y-100697695D01*
X147944114Y-100658990D01*
X147924761Y-100620285D01*
D13*
%TO.C,Q4*%
D14*
X148805295Y-94225104D02*
X148766590Y-94186400D01*
X148727885Y-94108990D01*
X148669828Y-93992876D01*
X148631123Y-93954171D01*
X148592419Y-93954171D01*
X148611771Y-94147695D02*
X148573066Y-94108990D01*
X148534361Y-94031580D01*
X148515009Y-93876761D01*
X148515009Y-93605828D01*
X148534361Y-93451009D01*
X148573066Y-93373600D01*
X148611771Y-93334895D01*
X148689180Y-93334895D01*
X148727885Y-93373600D01*
X148766590Y-93451009D01*
X148785942Y-93605828D01*
X148785942Y-93876761D01*
X148766590Y-94031580D01*
X148727885Y-94108990D01*
X148689180Y-94147695D01*
X148611771Y-94147695D01*
X149134285Y-93605828D02*
X149134285Y-94147695D01*
X149037523Y-93296190D02*
X148940761Y-93876761D01*
X149192342Y-93876761D01*
D13*
%TO.C,Q3*%
D14*
X184283575Y-104278263D02*
X184244870Y-104239559D01*
X184206165Y-104162149D01*
X184148108Y-104046035D01*
X184109403Y-104007330D01*
X184070699Y-104007330D01*
X184090051Y-104200854D02*
X184051346Y-104162149D01*
X184012641Y-104084739D01*
X183993289Y-103929920D01*
X183993289Y-103658987D01*
X184012641Y-103504168D01*
X184051346Y-103426759D01*
X184090051Y-103388054D01*
X184167460Y-103388054D01*
X184206165Y-103426759D01*
X184244870Y-103504168D01*
X184264222Y-103658987D01*
X184264222Y-103929920D01*
X184244870Y-104084739D01*
X184206165Y-104162149D01*
X184167460Y-104200854D01*
X184090051Y-104200854D01*
X184399689Y-103388054D02*
X184651270Y-103388054D01*
X184515803Y-103697692D01*
X184573860Y-103697692D01*
X184612565Y-103736397D01*
X184631918Y-103775101D01*
X184651270Y-103852511D01*
X184651270Y-104046035D01*
X184631918Y-104123444D01*
X184612565Y-104162149D01*
X184573860Y-104200854D01*
X184457746Y-104200854D01*
X184419041Y-104162149D01*
X184399689Y-104123444D01*
D13*
%TO.C,Q2*%
D14*
X183267575Y-100722263D02*
X183228870Y-100683559D01*
X183190165Y-100606149D01*
X183132108Y-100490035D01*
X183093403Y-100451330D01*
X183054699Y-100451330D01*
X183074051Y-100644854D02*
X183035346Y-100606149D01*
X182996641Y-100528739D01*
X182977289Y-100373920D01*
X182977289Y-100102987D01*
X182996641Y-99948168D01*
X183035346Y-99870759D01*
X183074051Y-99832054D01*
X183151460Y-99832054D01*
X183190165Y-99870759D01*
X183228870Y-99948168D01*
X183248222Y-100102987D01*
X183248222Y-100373920D01*
X183228870Y-100528739D01*
X183190165Y-100606149D01*
X183151460Y-100644854D01*
X183074051Y-100644854D01*
X183403041Y-99909463D02*
X183422394Y-99870759D01*
X183461099Y-99832054D01*
X183557860Y-99832054D01*
X183596565Y-99870759D01*
X183615918Y-99909463D01*
X183635270Y-99986873D01*
X183635270Y-100064282D01*
X183615918Y-100180397D01*
X183383689Y-100644854D01*
X183635270Y-100644854D01*
D13*
%TO.C,Q1*%
D14*
X184283575Y-94172263D02*
X184244870Y-94133559D01*
X184206165Y-94056149D01*
X184148108Y-93940035D01*
X184109403Y-93901330D01*
X184070699Y-93901330D01*
X184090051Y-94094854D02*
X184051346Y-94056149D01*
X184012641Y-93978739D01*
X183993289Y-93823920D01*
X183993289Y-93552987D01*
X184012641Y-93398168D01*
X184051346Y-93320759D01*
X184090051Y-93282054D01*
X184167460Y-93282054D01*
X184206165Y-93320759D01*
X184244870Y-93398168D01*
X184264222Y-93552987D01*
X184264222Y-93823920D01*
X184244870Y-93978739D01*
X184206165Y-94056149D01*
X184167460Y-94094854D01*
X184090051Y-94094854D01*
X184651270Y-94094854D02*
X184419041Y-94094854D01*
X184535156Y-94094854D02*
X184535156Y-93282054D01*
X184496451Y-93398168D01*
X184457746Y-93475578D01*
X184419041Y-93514282D01*
D13*
%TO.C,F5*%
D14*
X189874942Y-104285466D02*
X189874942Y-104420933D01*
X190300695Y-104420933D02*
X189487895Y-104420933D01*
X189487895Y-104227409D01*
X189487895Y-103879066D02*
X189487895Y-104072590D01*
X189874942Y-104091942D01*
X189836238Y-104072590D01*
X189797533Y-104033885D01*
X189797533Y-103937123D01*
X189836238Y-103898419D01*
X189874942Y-103879066D01*
X189952352Y-103859714D01*
X190145876Y-103859714D01*
X190223285Y-103879066D01*
X190261990Y-103898419D01*
X190300695Y-103937123D01*
X190300695Y-104033885D01*
X190261990Y-104072590D01*
X190223285Y-104091942D01*
D13*
%TO.C,F2*%
D14*
X136631942Y-104329466D02*
X136631942Y-104464933D01*
X137057695Y-104464933D02*
X136244895Y-104464933D01*
X136244895Y-104271409D01*
X136322304Y-104135942D02*
X136283600Y-104116590D01*
X136244895Y-104077885D01*
X136244895Y-103981123D01*
X136283600Y-103942419D01*
X136322304Y-103923066D01*
X136399714Y-103903714D01*
X136477123Y-103903714D01*
X136593238Y-103923066D01*
X137057695Y-104155295D01*
X137057695Y-103903714D01*
D13*
%TO.C,F1*%
D14*
X172110222Y-104276625D02*
X172110222Y-104412092D01*
X172535975Y-104412092D02*
X171723175Y-104412092D01*
X171723175Y-104218568D01*
X172535975Y-103850873D02*
X172535975Y-104083101D01*
X172535975Y-103966987D02*
X171723175Y-103966987D01*
X171839289Y-104005692D01*
X171916699Y-104044397D01*
X171955403Y-104083101D01*
D13*
%TO.C,D7*%
D14*
X194501038Y-103193695D02*
X194501038Y-102380895D01*
X194597800Y-102380895D01*
X194655857Y-102419600D01*
X194694561Y-102497009D01*
X194713914Y-102574419D01*
X194733266Y-102729238D01*
X194733266Y-102845352D01*
X194713914Y-103000171D01*
X194694561Y-103077580D01*
X194655857Y-103154990D01*
X194597800Y-103193695D01*
X194501038Y-103193695D01*
X194868733Y-102380895D02*
X195139666Y-102380895D01*
X194965495Y-103193695D01*
D13*
%TO.C,D4*%
D14*
X141258038Y-103237695D02*
X141258038Y-102424895D01*
X141354800Y-102424895D01*
X141412857Y-102463600D01*
X141451561Y-102541009D01*
X141470914Y-102618419D01*
X141490266Y-102773238D01*
X141490266Y-102889352D01*
X141470914Y-103044171D01*
X141451561Y-103121580D01*
X141412857Y-103198990D01*
X141354800Y-103237695D01*
X141258038Y-103237695D01*
X141838609Y-102695828D02*
X141838609Y-103237695D01*
X141741847Y-102386190D02*
X141645085Y-102966761D01*
X141896666Y-102966761D01*
D13*
%TO.C,D3*%
D14*
X176736318Y-103184854D02*
X176736318Y-102372054D01*
X176833080Y-102372054D01*
X176891137Y-102410759D01*
X176929841Y-102488168D01*
X176949194Y-102565578D01*
X176968546Y-102720397D01*
X176968546Y-102836511D01*
X176949194Y-102991330D01*
X176929841Y-103068739D01*
X176891137Y-103146149D01*
X176833080Y-103184854D01*
X176736318Y-103184854D01*
X177104013Y-102372054D02*
X177355594Y-102372054D01*
X177220127Y-102681692D01*
X177278184Y-102681692D01*
X177316889Y-102720397D01*
X177336241Y-102759101D01*
X177355594Y-102836511D01*
X177355594Y-103030035D01*
X177336241Y-103107444D01*
X177316889Y-103146149D01*
X177278184Y-103184854D01*
X177162070Y-103184854D01*
X177123365Y-103146149D01*
X177104013Y-103107444D01*
D13*
%TO.C,C24*%
D14*
X198059285Y-96991257D02*
X198097990Y-97010609D01*
X198136695Y-97068666D01*
X198136695Y-97107371D01*
X198097990Y-97165428D01*
X198020580Y-97204133D01*
X197943171Y-97223485D01*
X197788352Y-97242838D01*
X197672238Y-97242838D01*
X197517419Y-97223485D01*
X197440009Y-97204133D01*
X197362600Y-97165428D01*
X197323895Y-97107371D01*
X197323895Y-97068666D01*
X197362600Y-97010609D01*
X197401304Y-96991257D01*
X197401304Y-96836438D02*
X197362600Y-96817085D01*
X197323895Y-96778380D01*
X197323895Y-96681619D01*
X197362600Y-96642914D01*
X197401304Y-96623561D01*
X197478714Y-96604209D01*
X197556123Y-96604209D01*
X197672238Y-96623561D01*
X198136695Y-96855790D01*
X198136695Y-96604209D01*
X197594828Y-96255866D02*
X198136695Y-96255866D01*
X197285190Y-96352628D02*
X197865761Y-96449390D01*
X197865761Y-96197809D01*
D13*
%TO.C,C13*%
D14*
X144816285Y-97035257D02*
X144854990Y-97054609D01*
X144893695Y-97112666D01*
X144893695Y-97151371D01*
X144854990Y-97209428D01*
X144777580Y-97248133D01*
X144700171Y-97267485D01*
X144545352Y-97286838D01*
X144429238Y-97286838D01*
X144274419Y-97267485D01*
X144197009Y-97248133D01*
X144119600Y-97209428D01*
X144080895Y-97151371D01*
X144080895Y-97112666D01*
X144119600Y-97054609D01*
X144158304Y-97035257D01*
X144893695Y-96648209D02*
X144893695Y-96880438D01*
X144893695Y-96764323D02*
X144080895Y-96764323D01*
X144197009Y-96803028D01*
X144274419Y-96841733D01*
X144313123Y-96880438D01*
X144080895Y-96512742D02*
X144080895Y-96261161D01*
X144390533Y-96396628D01*
X144390533Y-96338571D01*
X144429238Y-96299866D01*
X144467942Y-96280514D01*
X144545352Y-96261161D01*
X144738876Y-96261161D01*
X144816285Y-96280514D01*
X144854990Y-96299866D01*
X144893695Y-96338571D01*
X144893695Y-96454685D01*
X144854990Y-96493390D01*
X144816285Y-96512742D01*
D13*
%TO.C,C11*%
D14*
X180294565Y-96982416D02*
X180333270Y-97001768D01*
X180371975Y-97059825D01*
X180371975Y-97098530D01*
X180333270Y-97156587D01*
X180255860Y-97195292D01*
X180178451Y-97214644D01*
X180023632Y-97233997D01*
X179907518Y-97233997D01*
X179752699Y-97214644D01*
X179675289Y-97195292D01*
X179597880Y-97156587D01*
X179559175Y-97098530D01*
X179559175Y-97059825D01*
X179597880Y-97001768D01*
X179636584Y-96982416D01*
X180371975Y-96595368D02*
X180371975Y-96827597D01*
X180371975Y-96711482D02*
X179559175Y-96711482D01*
X179675289Y-96750187D01*
X179752699Y-96788892D01*
X179791403Y-96827597D01*
X180371975Y-96208320D02*
X180371975Y-96440549D01*
X180371975Y-96324435D02*
X179559175Y-96324435D01*
X179675289Y-96363139D01*
X179752699Y-96401844D01*
X179791403Y-96440549D01*
D13*
%TO.C,D5*%
D14*
X158958038Y-103183695D02*
X158958038Y-102370895D01*
X159054800Y-102370895D01*
X159112857Y-102409600D01*
X159151561Y-102487009D01*
X159170914Y-102564419D01*
X159190266Y-102719238D01*
X159190266Y-102835352D01*
X159170914Y-102990171D01*
X159151561Y-103067580D01*
X159112857Y-103144990D01*
X159054800Y-103183695D01*
X158958038Y-103183695D01*
X159557961Y-102370895D02*
X159364438Y-102370895D01*
X159345085Y-102757942D01*
X159364438Y-102719238D01*
X159403142Y-102680533D01*
X159499904Y-102680533D01*
X159538609Y-102719238D01*
X159557961Y-102757942D01*
X159577314Y-102835352D01*
X159577314Y-103028876D01*
X159557961Y-103106285D01*
X159538609Y-103144990D01*
X159499904Y-103183695D01*
X159403142Y-103183695D01*
X159364438Y-103144990D01*
X159345085Y-103106285D01*
D13*
%TO.C,R24*%
D14*
X158996742Y-107501695D02*
X158861276Y-107114647D01*
X158764514Y-107501695D02*
X158764514Y-106688895D01*
X158919333Y-106688895D01*
X158958038Y-106727600D01*
X158977390Y-106766304D01*
X158996742Y-106843714D01*
X158996742Y-106959828D01*
X158977390Y-107037238D01*
X158958038Y-107075942D01*
X158919333Y-107114647D01*
X158764514Y-107114647D01*
X159151561Y-106766304D02*
X159170914Y-106727600D01*
X159209619Y-106688895D01*
X159306380Y-106688895D01*
X159345085Y-106727600D01*
X159364438Y-106766304D01*
X159383790Y-106843714D01*
X159383790Y-106921123D01*
X159364438Y-107037238D01*
X159132209Y-107501695D01*
X159383790Y-107501695D01*
X159732133Y-106959828D02*
X159732133Y-107501695D01*
X159635371Y-106650190D02*
X159538609Y-107230761D01*
X159790190Y-107230761D01*
D13*
%TO.C,R22*%
D14*
X162833695Y-93733257D02*
X162446647Y-93868723D01*
X162833695Y-93965485D02*
X162020895Y-93965485D01*
X162020895Y-93810666D01*
X162059600Y-93771961D01*
X162098304Y-93752609D01*
X162175714Y-93733257D01*
X162291828Y-93733257D01*
X162369238Y-93752609D01*
X162407942Y-93771961D01*
X162446647Y-93810666D01*
X162446647Y-93965485D01*
X162098304Y-93578438D02*
X162059600Y-93559085D01*
X162020895Y-93520380D01*
X162020895Y-93423619D01*
X162059600Y-93384914D01*
X162098304Y-93365561D01*
X162175714Y-93346209D01*
X162253123Y-93346209D01*
X162369238Y-93365561D01*
X162833695Y-93597790D01*
X162833695Y-93346209D01*
X162098304Y-93191390D02*
X162059600Y-93172038D01*
X162020895Y-93133333D01*
X162020895Y-93036571D01*
X162059600Y-92997866D01*
X162098304Y-92978514D01*
X162175714Y-92959161D01*
X162253123Y-92959161D01*
X162369238Y-92978514D01*
X162833695Y-93210742D01*
X162833695Y-92959161D01*
D13*
%TO.C,R25*%
D14*
X168689695Y-99013257D02*
X168302647Y-99148723D01*
X168689695Y-99245485D02*
X167876895Y-99245485D01*
X167876895Y-99090666D01*
X167915600Y-99051961D01*
X167954304Y-99032609D01*
X168031714Y-99013257D01*
X168147828Y-99013257D01*
X168225238Y-99032609D01*
X168263942Y-99051961D01*
X168302647Y-99090666D01*
X168302647Y-99245485D01*
X167954304Y-98858438D02*
X167915600Y-98839085D01*
X167876895Y-98800380D01*
X167876895Y-98703619D01*
X167915600Y-98664914D01*
X167954304Y-98645561D01*
X168031714Y-98626209D01*
X168109123Y-98626209D01*
X168225238Y-98645561D01*
X168689695Y-98877790D01*
X168689695Y-98626209D01*
X167876895Y-98258514D02*
X167876895Y-98452038D01*
X168263942Y-98471390D01*
X168225238Y-98452038D01*
X168186533Y-98413333D01*
X168186533Y-98316571D01*
X168225238Y-98277866D01*
X168263942Y-98258514D01*
X168341352Y-98239161D01*
X168534876Y-98239161D01*
X168612285Y-98258514D01*
X168650990Y-98277866D01*
X168689695Y-98316571D01*
X168689695Y-98413333D01*
X168650990Y-98452038D01*
X168612285Y-98471390D01*
D13*
%TO.C,R21*%
D14*
X166028742Y-96579695D02*
X165893276Y-96192647D01*
X165796514Y-96579695D02*
X165796514Y-95766895D01*
X165951333Y-95766895D01*
X165990038Y-95805600D01*
X166009390Y-95844304D01*
X166028742Y-95921714D01*
X166028742Y-96037828D01*
X166009390Y-96115238D01*
X165990038Y-96153942D01*
X165951333Y-96192647D01*
X165796514Y-96192647D01*
X166183561Y-95844304D02*
X166202914Y-95805600D01*
X166241619Y-95766895D01*
X166338380Y-95766895D01*
X166377085Y-95805600D01*
X166396438Y-95844304D01*
X166415790Y-95921714D01*
X166415790Y-95999123D01*
X166396438Y-96115238D01*
X166164209Y-96579695D01*
X166415790Y-96579695D01*
X166802838Y-96579695D02*
X166570609Y-96579695D01*
X166686723Y-96579695D02*
X166686723Y-95766895D01*
X166648019Y-95883009D01*
X166609314Y-95960419D01*
X166570609Y-95999123D01*
D13*
%TO.C,Q7*%
D14*
X166505295Y-94171104D02*
X166466590Y-94132400D01*
X166427885Y-94054990D01*
X166369828Y-93938876D01*
X166331123Y-93900171D01*
X166292419Y-93900171D01*
X166311771Y-94093695D02*
X166273066Y-94054990D01*
X166234361Y-93977580D01*
X166215009Y-93822761D01*
X166215009Y-93551828D01*
X166234361Y-93397009D01*
X166273066Y-93319600D01*
X166311771Y-93280895D01*
X166389180Y-93280895D01*
X166427885Y-93319600D01*
X166466590Y-93397009D01*
X166485942Y-93551828D01*
X166485942Y-93822761D01*
X166466590Y-93977580D01*
X166427885Y-94054990D01*
X166389180Y-94093695D01*
X166311771Y-94093695D01*
X166621409Y-93280895D02*
X166892342Y-93280895D01*
X166718171Y-94093695D01*
D13*
%TO.C,Q8*%
D14*
X165489295Y-100721104D02*
X165450590Y-100682400D01*
X165411885Y-100604990D01*
X165353828Y-100488876D01*
X165315123Y-100450171D01*
X165276419Y-100450171D01*
X165295771Y-100643695D02*
X165257066Y-100604990D01*
X165218361Y-100527580D01*
X165199009Y-100372761D01*
X165199009Y-100101828D01*
X165218361Y-99947009D01*
X165257066Y-99869600D01*
X165295771Y-99830895D01*
X165373180Y-99830895D01*
X165411885Y-99869600D01*
X165450590Y-99947009D01*
X165469942Y-100101828D01*
X165469942Y-100372761D01*
X165450590Y-100527580D01*
X165411885Y-100604990D01*
X165373180Y-100643695D01*
X165295771Y-100643695D01*
X165702171Y-100179238D02*
X165663466Y-100140533D01*
X165644114Y-100101828D01*
X165624761Y-100024419D01*
X165624761Y-99985714D01*
X165644114Y-99908304D01*
X165663466Y-99869600D01*
X165702171Y-99830895D01*
X165779580Y-99830895D01*
X165818285Y-99869600D01*
X165837638Y-99908304D01*
X165856990Y-99985714D01*
X165856990Y-100024419D01*
X165837638Y-100101828D01*
X165818285Y-100140533D01*
X165779580Y-100179238D01*
X165702171Y-100179238D01*
X165663466Y-100217942D01*
X165644114Y-100256647D01*
X165624761Y-100334057D01*
X165624761Y-100488876D01*
X165644114Y-100566285D01*
X165663466Y-100604990D01*
X165702171Y-100643695D01*
X165779580Y-100643695D01*
X165818285Y-100604990D01*
X165837638Y-100566285D01*
X165856990Y-100488876D01*
X165856990Y-100334057D01*
X165837638Y-100256647D01*
X165818285Y-100217942D01*
X165779580Y-100179238D01*
D13*
%TO.C,Q9*%
D14*
X166505295Y-104277104D02*
X166466590Y-104238400D01*
X166427885Y-104160990D01*
X166369828Y-104044876D01*
X166331123Y-104006171D01*
X166292419Y-104006171D01*
X166311771Y-104199695D02*
X166273066Y-104160990D01*
X166234361Y-104083580D01*
X166215009Y-103928761D01*
X166215009Y-103657828D01*
X166234361Y-103503009D01*
X166273066Y-103425600D01*
X166311771Y-103386895D01*
X166389180Y-103386895D01*
X166427885Y-103425600D01*
X166466590Y-103503009D01*
X166485942Y-103657828D01*
X166485942Y-103928761D01*
X166466590Y-104083580D01*
X166427885Y-104160990D01*
X166389180Y-104199695D01*
X166311771Y-104199695D01*
X166679466Y-104199695D02*
X166756876Y-104199695D01*
X166795580Y-104160990D01*
X166814933Y-104122285D01*
X166853638Y-104006171D01*
X166872990Y-103851352D01*
X166872990Y-103541714D01*
X166853638Y-103464304D01*
X166834285Y-103425600D01*
X166795580Y-103386895D01*
X166718171Y-103386895D01*
X166679466Y-103425600D01*
X166660114Y-103464304D01*
X166640761Y-103541714D01*
X166640761Y-103735238D01*
X166660114Y-103812647D01*
X166679466Y-103851352D01*
X166718171Y-103890057D01*
X166795580Y-103890057D01*
X166834285Y-103851352D01*
X166853638Y-103812647D01*
X166872990Y-103735238D01*
D13*
%TO.C,D1*%
D14*
X131591695Y-57449961D02*
X130778895Y-57449961D01*
X130778895Y-57353200D01*
X130817600Y-57295142D01*
X130895009Y-57256438D01*
X130972419Y-57237085D01*
X131127238Y-57217733D01*
X131243352Y-57217733D01*
X131398171Y-57237085D01*
X131475580Y-57256438D01*
X131552990Y-57295142D01*
X131591695Y-57353200D01*
X131591695Y-57449961D01*
X131591695Y-56830685D02*
X131591695Y-57062914D01*
X131591695Y-56946800D02*
X130778895Y-56946800D01*
X130895009Y-56985504D01*
X130972419Y-57024209D01*
X131011123Y-57062914D01*
D13*
%TO.C,R23*%
D14*
X160694742Y-102421695D02*
X160559276Y-102034647D01*
X160462514Y-102421695D02*
X160462514Y-101608895D01*
X160617333Y-101608895D01*
X160656038Y-101647600D01*
X160675390Y-101686304D01*
X160694742Y-101763714D01*
X160694742Y-101879828D01*
X160675390Y-101957238D01*
X160656038Y-101995942D01*
X160617333Y-102034647D01*
X160462514Y-102034647D01*
X160849561Y-101686304D02*
X160868914Y-101647600D01*
X160907619Y-101608895D01*
X161004380Y-101608895D01*
X161043085Y-101647600D01*
X161062438Y-101686304D01*
X161081790Y-101763714D01*
X161081790Y-101841123D01*
X161062438Y-101957238D01*
X160830209Y-102421695D01*
X161081790Y-102421695D01*
X161217257Y-101608895D02*
X161468838Y-101608895D01*
X161333371Y-101918533D01*
X161391428Y-101918533D01*
X161430133Y-101957238D01*
X161449485Y-101995942D01*
X161468838Y-102073352D01*
X161468838Y-102266876D01*
X161449485Y-102344285D01*
X161430133Y-102382990D01*
X161391428Y-102421695D01*
X161275314Y-102421695D01*
X161236609Y-102382990D01*
X161217257Y-102344285D01*
D13*
%TO.C,R2*%
D14*
X131591695Y-60265733D02*
X131204647Y-60401200D01*
X131591695Y-60497961D02*
X130778895Y-60497961D01*
X130778895Y-60343142D01*
X130817600Y-60304438D01*
X130856304Y-60285085D01*
X130933714Y-60265733D01*
X131049828Y-60265733D01*
X131127238Y-60285085D01*
X131165942Y-60304438D01*
X131204647Y-60343142D01*
X131204647Y-60497961D01*
X130856304Y-60110914D02*
X130817600Y-60091561D01*
X130778895Y-60052857D01*
X130778895Y-59956095D01*
X130817600Y-59917390D01*
X130856304Y-59898038D01*
X130933714Y-59878685D01*
X131011123Y-59878685D01*
X131127238Y-59898038D01*
X131591695Y-60130266D01*
X131591695Y-59878685D01*
D13*
%TO.C,R1*%
D14*
X152353695Y-81093733D02*
X151966647Y-81229200D01*
X152353695Y-81325961D02*
X151540895Y-81325961D01*
X151540895Y-81171142D01*
X151579600Y-81132438D01*
X151618304Y-81113085D01*
X151695714Y-81093733D01*
X151811828Y-81093733D01*
X151889238Y-81113085D01*
X151927942Y-81132438D01*
X151966647Y-81171142D01*
X151966647Y-81325961D01*
X152353695Y-80706685D02*
X152353695Y-80938914D01*
X152353695Y-80822800D02*
X151540895Y-80822800D01*
X151657009Y-80861504D01*
X151734419Y-80900209D01*
X151773123Y-80938914D01*
D13*
%TO.C,Y1*%
D14*
X177479476Y-53384147D02*
X177479476Y-53771195D01*
X177344009Y-52958395D02*
X177479476Y-53384147D01*
X177614942Y-52958395D01*
X177963285Y-53771195D02*
X177731057Y-53771195D01*
X177847171Y-53771195D02*
X177847171Y-52958395D01*
X177808466Y-53074509D01*
X177769761Y-53151919D01*
X177731057Y-53190623D01*
D13*
%TO.C,U6*%
D14*
X156074361Y-89162895D02*
X156074361Y-89820876D01*
X156093714Y-89898285D01*
X156113066Y-89936990D01*
X156151771Y-89975695D01*
X156229180Y-89975695D01*
X156267885Y-89936990D01*
X156287238Y-89898285D01*
X156306590Y-89820876D01*
X156306590Y-89162895D01*
X156674285Y-89162895D02*
X156596876Y-89162895D01*
X156558171Y-89201600D01*
X156538819Y-89240304D01*
X156500114Y-89356419D01*
X156480761Y-89511238D01*
X156480761Y-89820876D01*
X156500114Y-89898285D01*
X156519466Y-89936990D01*
X156558171Y-89975695D01*
X156635580Y-89975695D01*
X156674285Y-89936990D01*
X156693638Y-89898285D01*
X156712990Y-89820876D01*
X156712990Y-89627352D01*
X156693638Y-89549942D01*
X156674285Y-89511238D01*
X156635580Y-89472533D01*
X156558171Y-89472533D01*
X156519466Y-89511238D01*
X156500114Y-89549942D01*
X156480761Y-89627352D01*
D13*
%TO.C,U1*%
D14*
X162851816Y-77945710D02*
X163317079Y-78410973D01*
X163385500Y-78452025D01*
X163426552Y-78465710D01*
X163481289Y-78465710D01*
X163536026Y-78410973D01*
X163536026Y-78356236D01*
X163522341Y-78315183D01*
X163481289Y-78246762D01*
X163016026Y-77781500D01*
X163878131Y-78068868D02*
X163713920Y-78233078D01*
X163796025Y-78150973D02*
X163221289Y-77576237D01*
X163276026Y-77685710D01*
X163303394Y-77767816D01*
X163303394Y-77822552D01*
D13*
%TO.C,TP1*%
D14*
X120137161Y-71436895D02*
X120369390Y-71436895D01*
X120253276Y-72249695D02*
X120253276Y-71436895D01*
X120504857Y-72249695D02*
X120504857Y-71436895D01*
X120659676Y-71436895D01*
X120698380Y-71475600D01*
X120717733Y-71514304D01*
X120737085Y-71591714D01*
X120737085Y-71707828D01*
X120717733Y-71785238D01*
X120698380Y-71823942D01*
X120659676Y-71862647D01*
X120504857Y-71862647D01*
X121124133Y-72249695D02*
X120891904Y-72249695D01*
X121008019Y-72249695D02*
X121008019Y-71436895D01*
X120969314Y-71553009D01*
X120930609Y-71630419D01*
X120891904Y-71669123D01*
D13*
%TO.C,R28*%
D14*
X162085695Y-107395257D02*
X161698647Y-107530723D01*
X162085695Y-107627485D02*
X161272895Y-107627485D01*
X161272895Y-107472666D01*
X161311600Y-107433961D01*
X161350304Y-107414609D01*
X161427714Y-107395257D01*
X161543828Y-107395257D01*
X161621238Y-107414609D01*
X161659942Y-107433961D01*
X161698647Y-107472666D01*
X161698647Y-107627485D01*
X161350304Y-107240438D02*
X161311600Y-107221085D01*
X161272895Y-107182380D01*
X161272895Y-107085619D01*
X161311600Y-107046914D01*
X161350304Y-107027561D01*
X161427714Y-107008209D01*
X161505123Y-107008209D01*
X161621238Y-107027561D01*
X162085695Y-107259790D01*
X162085695Y-107008209D01*
X161621238Y-106775980D02*
X161582533Y-106814685D01*
X161543828Y-106834038D01*
X161466419Y-106853390D01*
X161427714Y-106853390D01*
X161350304Y-106834038D01*
X161311600Y-106814685D01*
X161272895Y-106775980D01*
X161272895Y-106698571D01*
X161311600Y-106659866D01*
X161350304Y-106640514D01*
X161427714Y-106621161D01*
X161466419Y-106621161D01*
X161543828Y-106640514D01*
X161582533Y-106659866D01*
X161621238Y-106698571D01*
X161621238Y-106775980D01*
X161659942Y-106814685D01*
X161698647Y-106834038D01*
X161776057Y-106853390D01*
X161930876Y-106853390D01*
X162008285Y-106834038D01*
X162046990Y-106814685D01*
X162085695Y-106775980D01*
X162085695Y-106698571D01*
X162046990Y-106659866D01*
X162008285Y-106640514D01*
X161930876Y-106621161D01*
X161776057Y-106621161D01*
X161698647Y-106640514D01*
X161659942Y-106659866D01*
X161621238Y-106698571D01*
D13*
%TO.C,J2*%
D14*
X176654311Y-82458202D02*
X176243785Y-82868727D01*
X176147995Y-82937148D01*
X176065890Y-82964517D01*
X175997469Y-82950833D01*
X175970101Y-82923464D01*
X176722732Y-82636096D02*
X176763784Y-82622412D01*
X176818521Y-82622412D01*
X176886942Y-82690833D01*
X176886942Y-82745570D01*
X176873258Y-82786622D01*
X176832205Y-82855043D01*
X176777468Y-82909780D01*
X176681679Y-82978201D01*
X176189048Y-83142411D01*
X176366943Y-83320306D01*
D13*
%TO.C,F3*%
D14*
X154331942Y-104275466D02*
X154331942Y-104410933D01*
X154757695Y-104410933D02*
X153944895Y-104410933D01*
X153944895Y-104217409D01*
X153944895Y-104101295D02*
X153944895Y-103849714D01*
X154254533Y-103985180D01*
X154254533Y-103927123D01*
X154293238Y-103888419D01*
X154331942Y-103869066D01*
X154409352Y-103849714D01*
X154602876Y-103849714D01*
X154680285Y-103869066D01*
X154718990Y-103888419D01*
X154757695Y-103927123D01*
X154757695Y-104043238D01*
X154718990Y-104081942D01*
X154680285Y-104101295D01*
D13*
%TO.C,CANL_Test1*%
D14*
X154318304Y-85126285D02*
X154298952Y-85164990D01*
X154240895Y-85203695D01*
X154202190Y-85203695D01*
X154144133Y-85164990D01*
X154105428Y-85087580D01*
X154086076Y-85010171D01*
X154066723Y-84855352D01*
X154066723Y-84739238D01*
X154086076Y-84584419D01*
X154105428Y-84507009D01*
X154144133Y-84429600D01*
X154202190Y-84390895D01*
X154240895Y-84390895D01*
X154298952Y-84429600D01*
X154318304Y-84468304D01*
X154473123Y-84971466D02*
X154666647Y-84971466D01*
X154434419Y-85203695D02*
X154569885Y-84390895D01*
X154705352Y-85203695D01*
X154840819Y-85203695D02*
X154840819Y-84390895D01*
X155073047Y-85203695D01*
X155073047Y-84390895D01*
X155460095Y-85203695D02*
X155266571Y-85203695D01*
X155266571Y-84390895D01*
X155498800Y-85281104D02*
X155808438Y-85281104D01*
X155847142Y-84390895D02*
X156079371Y-84390895D01*
X155963257Y-85203695D02*
X155963257Y-84390895D01*
X156369657Y-85164990D02*
X156330952Y-85203695D01*
X156253542Y-85203695D01*
X156214838Y-85164990D01*
X156195485Y-85087580D01*
X156195485Y-84777942D01*
X156214838Y-84700533D01*
X156253542Y-84661828D01*
X156330952Y-84661828D01*
X156369657Y-84700533D01*
X156389009Y-84777942D01*
X156389009Y-84855352D01*
X156195485Y-84932761D01*
X156543828Y-85164990D02*
X156582533Y-85203695D01*
X156659942Y-85203695D01*
X156698647Y-85164990D01*
X156718000Y-85087580D01*
X156718000Y-85048876D01*
X156698647Y-84971466D01*
X156659942Y-84932761D01*
X156601885Y-84932761D01*
X156563180Y-84894057D01*
X156543828Y-84816647D01*
X156543828Y-84777942D01*
X156563180Y-84700533D01*
X156601885Y-84661828D01*
X156659942Y-84661828D01*
X156698647Y-84700533D01*
X156834114Y-84661828D02*
X156988933Y-84661828D01*
X156892171Y-84390895D02*
X156892171Y-85087580D01*
X156911523Y-85164990D01*
X156950228Y-85203695D01*
X156988933Y-85203695D01*
X157337276Y-85203695D02*
X157105047Y-85203695D01*
X157221161Y-85203695D02*
X157221161Y-84390895D01*
X157182457Y-84507009D01*
X157143752Y-84584419D01*
X157105047Y-84623123D01*
D13*
%TO.C,C15*%
D14*
X162516285Y-96981257D02*
X162554990Y-97000609D01*
X162593695Y-97058666D01*
X162593695Y-97097371D01*
X162554990Y-97155428D01*
X162477580Y-97194133D01*
X162400171Y-97213485D01*
X162245352Y-97232838D01*
X162129238Y-97232838D01*
X161974419Y-97213485D01*
X161897009Y-97194133D01*
X161819600Y-97155428D01*
X161780895Y-97097371D01*
X161780895Y-97058666D01*
X161819600Y-97000609D01*
X161858304Y-96981257D01*
X162593695Y-96594209D02*
X162593695Y-96826438D01*
X162593695Y-96710323D02*
X161780895Y-96710323D01*
X161897009Y-96749028D01*
X161974419Y-96787733D01*
X162013123Y-96826438D01*
X161780895Y-96226514D02*
X161780895Y-96420038D01*
X162167942Y-96439390D01*
X162129238Y-96420038D01*
X162090533Y-96381333D01*
X162090533Y-96284571D01*
X162129238Y-96245866D01*
X162167942Y-96226514D01*
X162245352Y-96207161D01*
X162438876Y-96207161D01*
X162516285Y-96226514D01*
X162554990Y-96245866D01*
X162593695Y-96284571D01*
X162593695Y-96381333D01*
X162554990Y-96420038D01*
X162516285Y-96439390D01*
D13*
%TO.C,C10*%
D14*
X166477685Y-78963158D02*
X166491369Y-79004211D01*
X166477685Y-79072632D01*
X166450316Y-79100000D01*
X166381895Y-79113684D01*
X166299790Y-79086316D01*
X166231369Y-79045263D01*
X166108211Y-78949474D01*
X166026106Y-78867369D01*
X165930317Y-78744211D01*
X165889264Y-78675790D01*
X165861896Y-78593685D01*
X165875580Y-78525264D01*
X165902948Y-78497895D01*
X165971369Y-78484211D01*
X166012422Y-78497895D01*
X166806106Y-78744211D02*
X166641895Y-78908421D01*
X166724000Y-78826316D02*
X166149264Y-78251580D01*
X166204001Y-78361053D01*
X166231369Y-78443159D01*
X166231369Y-78497895D01*
X166409264Y-77991580D02*
X166436632Y-77964212D01*
X166491369Y-77964212D01*
X166532422Y-77977896D01*
X166600843Y-78018948D01*
X166724000Y-78114738D01*
X166860842Y-78251580D01*
X166956632Y-78374738D01*
X166997684Y-78443159D01*
X167011369Y-78484211D01*
X167011369Y-78538948D01*
X166984000Y-78566316D01*
X166929263Y-78566316D01*
X166888211Y-78552632D01*
X166819790Y-78511580D01*
X166696632Y-78415790D01*
X166559790Y-78278948D01*
X166464001Y-78155790D01*
X166422948Y-78087369D01*
X166409264Y-78046317D01*
X166409264Y-77991580D01*
D13*
%TO.C,C9*%
D14*
X131514285Y-66869733D02*
X131552990Y-66889085D01*
X131591695Y-66947142D01*
X131591695Y-66985847D01*
X131552990Y-67043904D01*
X131475580Y-67082609D01*
X131398171Y-67101961D01*
X131243352Y-67121314D01*
X131127238Y-67121314D01*
X130972419Y-67101961D01*
X130895009Y-67082609D01*
X130817600Y-67043904D01*
X130778895Y-66985847D01*
X130778895Y-66947142D01*
X130817600Y-66889085D01*
X130856304Y-66869733D01*
X131591695Y-66676209D02*
X131591695Y-66598800D01*
X131552990Y-66560095D01*
X131514285Y-66540742D01*
X131398171Y-66502038D01*
X131243352Y-66482685D01*
X130933714Y-66482685D01*
X130856304Y-66502038D01*
X130817600Y-66521390D01*
X130778895Y-66560095D01*
X130778895Y-66637504D01*
X130817600Y-66676209D01*
X130856304Y-66695561D01*
X130933714Y-66714914D01*
X131127238Y-66714914D01*
X131204647Y-66695561D01*
X131243352Y-66676209D01*
X131282057Y-66637504D01*
X131282057Y-66560095D01*
X131243352Y-66521390D01*
X131204647Y-66502038D01*
X131127238Y-66482685D01*
D13*
%TO.C,C6*%
D14*
X118306285Y-66869733D02*
X118344990Y-66889085D01*
X118383695Y-66947142D01*
X118383695Y-66985847D01*
X118344990Y-67043904D01*
X118267580Y-67082609D01*
X118190171Y-67101961D01*
X118035352Y-67121314D01*
X117919238Y-67121314D01*
X117764419Y-67101961D01*
X117687009Y-67082609D01*
X117609600Y-67043904D01*
X117570895Y-66985847D01*
X117570895Y-66947142D01*
X117609600Y-66889085D01*
X117648304Y-66869733D01*
X117570895Y-66521390D02*
X117570895Y-66598800D01*
X117609600Y-66637504D01*
X117648304Y-66656857D01*
X117764419Y-66695561D01*
X117919238Y-66714914D01*
X118228876Y-66714914D01*
X118306285Y-66695561D01*
X118344990Y-66676209D01*
X118383695Y-66637504D01*
X118383695Y-66560095D01*
X118344990Y-66521390D01*
X118306285Y-66502038D01*
X118228876Y-66482685D01*
X118035352Y-66482685D01*
X117957942Y-66502038D01*
X117919238Y-66521390D01*
X117880533Y-66560095D01*
X117880533Y-66637504D01*
X117919238Y-66676209D01*
X117957942Y-66695561D01*
X118035352Y-66714914D01*
D13*
%TO.C,C3*%
D14*
X180249285Y-58043233D02*
X180287990Y-58062585D01*
X180326695Y-58120642D01*
X180326695Y-58159347D01*
X180287990Y-58217404D01*
X180210580Y-58256109D01*
X180133171Y-58275461D01*
X179978352Y-58294814D01*
X179862238Y-58294814D01*
X179707419Y-58275461D01*
X179630009Y-58256109D01*
X179552600Y-58217404D01*
X179513895Y-58159347D01*
X179513895Y-58120642D01*
X179552600Y-58062585D01*
X179591304Y-58043233D01*
X179513895Y-57907766D02*
X179513895Y-57656185D01*
X179823533Y-57791652D01*
X179823533Y-57733595D01*
X179862238Y-57694890D01*
X179900942Y-57675538D01*
X179978352Y-57656185D01*
X180171876Y-57656185D01*
X180249285Y-57675538D01*
X180287990Y-57694890D01*
X180326695Y-57733595D01*
X180326695Y-57849709D01*
X180287990Y-57888414D01*
X180249285Y-57907766D01*
D13*
%TO.C,C2*%
D14*
X176185285Y-58043233D02*
X176223990Y-58062585D01*
X176262695Y-58120642D01*
X176262695Y-58159347D01*
X176223990Y-58217404D01*
X176146580Y-58256109D01*
X176069171Y-58275461D01*
X175914352Y-58294814D01*
X175798238Y-58294814D01*
X175643419Y-58275461D01*
X175566009Y-58256109D01*
X175488600Y-58217404D01*
X175449895Y-58159347D01*
X175449895Y-58120642D01*
X175488600Y-58062585D01*
X175527304Y-58043233D01*
X175527304Y-57888414D02*
X175488600Y-57869061D01*
X175449895Y-57830357D01*
X175449895Y-57733595D01*
X175488600Y-57694890D01*
X175527304Y-57675538D01*
X175604714Y-57656185D01*
X175682123Y-57656185D01*
X175798238Y-57675538D01*
X176262695Y-57907766D01*
X176262695Y-57656185D01*
D13*
%TO.C,C1*%
D14*
X168091266Y-83290285D02*
X168071914Y-83328990D01*
X168013857Y-83367695D01*
X167975152Y-83367695D01*
X167917095Y-83328990D01*
X167878390Y-83251580D01*
X167859038Y-83174171D01*
X167839685Y-83019352D01*
X167839685Y-82903238D01*
X167859038Y-82748419D01*
X167878390Y-82671009D01*
X167917095Y-82593600D01*
X167975152Y-82554895D01*
X168013857Y-82554895D01*
X168071914Y-82593600D01*
X168091266Y-82632304D01*
X168478314Y-83367695D02*
X168246085Y-83367695D01*
X168362200Y-83367695D02*
X168362200Y-82554895D01*
X168323495Y-82671009D01*
X168284790Y-82748419D01*
X168246085Y-82787123D01*
D13*
%TO.C,R29*%
D14*
X165774742Y-102421695D02*
X165639276Y-102034647D01*
X165542514Y-102421695D02*
X165542514Y-101608895D01*
X165697333Y-101608895D01*
X165736038Y-101647600D01*
X165755390Y-101686304D01*
X165774742Y-101763714D01*
X165774742Y-101879828D01*
X165755390Y-101957238D01*
X165736038Y-101995942D01*
X165697333Y-102034647D01*
X165542514Y-102034647D01*
X165929561Y-101686304D02*
X165948914Y-101647600D01*
X165987619Y-101608895D01*
X166084380Y-101608895D01*
X166123085Y-101647600D01*
X166142438Y-101686304D01*
X166161790Y-101763714D01*
X166161790Y-101841123D01*
X166142438Y-101957238D01*
X165910209Y-102421695D01*
X166161790Y-102421695D01*
X166355314Y-102421695D02*
X166432723Y-102421695D01*
X166471428Y-102382990D01*
X166490780Y-102344285D01*
X166529485Y-102228171D01*
X166548838Y-102073352D01*
X166548838Y-101763714D01*
X166529485Y-101686304D01*
X166510133Y-101647600D01*
X166471428Y-101608895D01*
X166394019Y-101608895D01*
X166355314Y-101647600D01*
X166335961Y-101686304D01*
X166316609Y-101763714D01*
X166316609Y-101957238D01*
X166335961Y-102034647D01*
X166355314Y-102073352D01*
X166394019Y-102112057D01*
X166471428Y-102112057D01*
X166510133Y-102073352D01*
X166529485Y-102034647D01*
X166548838Y-101957238D01*
D13*
%TO.C,J4*%
D14*
X174438208Y-116374180D02*
X174438208Y-116954751D01*
X174418855Y-117070865D01*
X174380151Y-117148275D01*
X174322094Y-117186980D01*
X174283389Y-117186980D01*
X174805903Y-116645113D02*
X174805903Y-117186980D01*
X174709141Y-116335475D02*
X174612379Y-116916046D01*
X174863960Y-116916046D01*
D13*
%TO.C,H4*%
D14*
X227147361Y-129971695D02*
X227147361Y-129158895D01*
X227147361Y-129545942D02*
X227379590Y-129545942D01*
X227379590Y-129971695D02*
X227379590Y-129158895D01*
X227747285Y-129429828D02*
X227747285Y-129971695D01*
X227650523Y-129120190D02*
X227553761Y-129700761D01*
X227805342Y-129700761D01*
D13*
%TO.C,H3*%
D14*
X227147361Y-51231695D02*
X227147361Y-50418895D01*
X227147361Y-50805942D02*
X227379590Y-50805942D01*
X227379590Y-51231695D02*
X227379590Y-50418895D01*
X227534409Y-50418895D02*
X227785990Y-50418895D01*
X227650523Y-50728533D01*
X227708580Y-50728533D01*
X227747285Y-50767238D01*
X227766638Y-50805942D01*
X227785990Y-50883352D01*
X227785990Y-51076876D01*
X227766638Y-51154285D01*
X227747285Y-51192990D01*
X227708580Y-51231695D01*
X227592466Y-51231695D01*
X227553761Y-51192990D01*
X227534409Y-51154285D01*
D13*
%TO.C,H2*%
D14*
X110307361Y-129971695D02*
X110307361Y-129158895D01*
X110307361Y-129545942D02*
X110539590Y-129545942D01*
X110539590Y-129971695D02*
X110539590Y-129158895D01*
X110713761Y-129236304D02*
X110733114Y-129197600D01*
X110771819Y-129158895D01*
X110868580Y-129158895D01*
X110907285Y-129197600D01*
X110926638Y-129236304D01*
X110945990Y-129313714D01*
X110945990Y-129391123D01*
X110926638Y-129507238D01*
X110694409Y-129971695D01*
X110945990Y-129971695D01*
D13*
%TO.C,H1*%
D14*
X110307361Y-51231695D02*
X110307361Y-50418895D01*
X110307361Y-50805942D02*
X110539590Y-50805942D01*
X110539590Y-51231695D02*
X110539590Y-50418895D01*
X110945990Y-51231695D02*
X110713761Y-51231695D01*
X110829876Y-51231695D02*
X110829876Y-50418895D01*
X110791171Y-50535009D01*
X110752466Y-50612419D01*
X110713761Y-50651123D01*
D13*
%TO.C,J1*%
D14*
X115771475Y-139666166D02*
X116352046Y-139666166D01*
X116468160Y-139685519D01*
X116545570Y-139724223D01*
X116584275Y-139782280D01*
X116584275Y-139820985D01*
X116584275Y-139259766D02*
X116584275Y-139491995D01*
X116584275Y-139375880D02*
X115771475Y-139375880D01*
X115887589Y-139414585D01*
X115964999Y-139453290D01*
X116003703Y-139491995D01*
D13*
%TD*%
M02*
