M48
; DRILL file {KiCad (5.1.9-0-10_14)} date Tuesday, August 31, 2021 at 12:07:13 PM
; FORMAT={-:-/ absolute / inch / decimal}
; #@! TF.CreationDate,2021-08-31T12:07:13+08:00
; #@! TF.GenerationSoftware,Kicad,Pcbnew,(5.1.9-0-10_14)
FMAT,2
INCH
T1C0.0118
T2C0.0157
T3C0.0197
T4C0.0394
T5C0.0433
T6C0.0693
T7C0.0713
T8C0.1181
T9C0.1177
T10C0.1378
%
G90
G05
T1
X8.0595Y-3.1
X8.18Y-3.13
X8.18Y-3.16
X8.18Y-3.19
X8.18Y-3.31
X8.18Y-3.34
X8.21Y-3.13
X8.21Y-3.16
X8.21Y-3.19
X8.21Y-3.22
X8.21Y-3.25
X8.21Y-3.28
X8.21Y-3.31
X8.21Y-3.34
X8.24Y-3.13
X8.24Y-3.16
X8.24Y-3.19
X8.24Y-3.22
X8.24Y-3.25
X8.24Y-3.28
X8.24Y-3.31
X8.24Y-3.34
X8.27Y-3.13
X8.27Y-3.16
X8.27Y-3.19
X8.27Y-3.34
T2
X4.54Y-2.47
X4.54Y-2.51
X4.54Y-2.55
X4.54Y-2.59
X4.54Y-2.75
X4.54Y-2.79
X4.58Y-2.47
X4.58Y-2.51
X4.58Y-2.55
X4.58Y-2.59
X4.58Y-2.75
X4.58Y-2.79
X4.62Y-2.47
X4.62Y-2.51
X4.62Y-2.55
X4.62Y-2.59
X4.62Y-2.75
X4.62Y-2.79
X4.66Y-2.47
X4.66Y-2.51
X4.66Y-2.55
X4.66Y-2.59
X4.66Y-2.75
X4.66Y-2.79
X4.7Y-2.47
X4.7Y-2.51
X4.7Y-2.55
X4.7Y-2.59
X4.7Y-2.63
X4.7Y-2.67
X4.7Y-2.71
X4.7Y-2.75
X4.7Y-2.79
X4.74Y-2.47
X4.74Y-2.51
X4.74Y-2.55
X4.74Y-2.59
X4.74Y-2.63
X4.74Y-2.67
X4.74Y-2.71
X4.78Y-2.47
X4.78Y-2.51
X4.78Y-2.55
X4.78Y-2.59
X4.78Y-2.63
X4.78Y-2.67
X4.78Y-2.71
X4.85Y-2.515
X4.85Y-2.55
X4.85Y-2.585
X4.85Y-2.62
X4.85Y-2.655
X4.85Y-2.69
X4.92Y-2.47
X4.92Y-2.51
X4.92Y-2.55
X4.92Y-2.59
X4.92Y-2.63
X4.92Y-2.67
X4.92Y-2.71
X4.96Y-2.47
X4.96Y-2.51
X4.96Y-2.55
X4.96Y-2.59
X4.96Y-2.63
X4.96Y-2.67
X4.96Y-2.71
X5.0Y-2.47
X5.0Y-2.51
X5.0Y-2.55
X5.0Y-2.59
X5.0Y-2.63
X5.0Y-2.67
X5.0Y-2.71
X5.0Y-2.75
X5.0Y-2.79
X5.04Y-2.47
X5.04Y-2.51
X5.04Y-2.55
X5.04Y-2.59
X5.04Y-2.63
X5.04Y-2.67
X5.04Y-2.71
X5.04Y-2.75
X5.04Y-2.79
X5.08Y-2.47
X5.08Y-2.51
X5.08Y-2.55
X5.08Y-2.59
X5.08Y-2.71
X5.08Y-2.75
X5.08Y-2.79
X5.12Y-2.47
X5.12Y-2.51
X5.12Y-2.71
X5.12Y-2.75
X5.12Y-2.79
X5.16Y-2.47
X5.16Y-2.51
X5.16Y-2.55
X5.16Y-2.63
X5.16Y-2.67
X5.16Y-2.71
X5.16Y-2.75
X5.16Y-2.79
X5.35Y-3.59
X5.35Y-3.63
X5.35Y-3.67
X5.35Y-3.71
X5.35Y-3.75
X5.35Y-3.79
X5.39Y-3.59
X5.39Y-3.63
X5.39Y-3.67
X5.39Y-3.71
X5.39Y-3.75
X5.39Y-3.79
X5.43Y-3.59
X5.43Y-3.63
X5.43Y-3.67
X5.43Y-3.71
X5.43Y-3.75
X5.43Y-3.79
X5.47Y-3.59
X5.47Y-3.63
X5.47Y-3.67
X5.47Y-3.71
X5.47Y-3.75
X5.47Y-3.79
X5.5Y-3.935
X5.51Y-3.59
X5.51Y-3.63
X5.51Y-3.67
X5.51Y-3.71
X5.51Y-3.75
X5.51Y-3.79
X5.55Y-3.59
X5.55Y-3.63
X5.55Y-3.67
X5.55Y-3.71
X5.55Y-3.75
X5.55Y-3.79
X5.64Y-3.35
X5.6431Y-3.6471
X5.6431Y-3.7746
X5.6431Y-3.9621
X5.72Y-4.02
X5.7257Y-4.1615
X5.7357Y-3.7315
X5.7357Y-3.8528
X5.7394Y-3.3885
X5.7731Y-3.6528
X6.0469Y-3.5879
X6.0469Y-3.6279
X6.0469Y-3.6679
X6.0469Y-3.7079
X6.0469Y-3.7479
X6.0469Y-3.7879
X6.0869Y-3.5879
X6.0869Y-3.6279
X6.0869Y-3.6679
X6.0869Y-3.7079
X6.0869Y-3.7479
X6.0869Y-3.7879
X6.1269Y-3.5879
X6.1269Y-3.6279
X6.1269Y-3.6679
X6.1269Y-3.7079
X6.1269Y-3.7479
X6.1269Y-3.7879
X6.13Y-3.115
X6.13Y-3.265
X6.1669Y-3.5879
X6.1669Y-3.6279
X6.1669Y-3.6679
X6.1669Y-3.7079
X6.1669Y-3.7479
X6.1669Y-3.7879
X6.1969Y-3.9329
X6.2069Y-3.5879
X6.2069Y-3.6279
X6.2069Y-3.6679
X6.2069Y-3.7079
X6.2069Y-3.7479
X6.2069Y-3.7879
X6.2469Y-3.5879
X6.2469Y-3.6279
X6.2469Y-3.6679
X6.2469Y-3.7079
X6.2469Y-3.7479
X6.2469Y-3.7879
X6.34Y-3.645
X6.34Y-3.7725
X6.34Y-3.96
X6.4169Y-4.0179
X6.4226Y-4.1594
X6.4326Y-3.7294
X6.4326Y-3.8506
X6.47Y-3.6506
X6.5Y-2.745
X6.5115Y-3.2053
X6.519Y-2.934
X6.5671Y-3.1496
X6.5965Y-2.5635
X6.63Y-2.71
X6.6324Y-2.4972
X6.66Y-2.68
X6.66Y-2.74
X6.69Y-2.65
X6.69Y-2.71
X6.69Y-2.77
X6.72Y-2.5359
X6.72Y-2.68
X6.72Y-2.74
X6.7468Y-3.5879
X6.7468Y-3.6279
X6.7468Y-3.6679
X6.7468Y-3.7079
X6.7468Y-3.7479
X6.7468Y-3.7879
X6.75Y-2.71
X6.7752Y-2.535
X6.7825Y-3.2775
X6.7868Y-3.5879
X6.7868Y-3.6279
X6.7868Y-3.6679
X6.7868Y-3.7079
X6.7868Y-3.7479
X6.7868Y-3.7879
X6.8216Y-2.4791
X6.8268Y-3.5879
X6.8268Y-3.6279
X6.8268Y-3.6679
X6.8268Y-3.7079
X6.8268Y-3.7479
X6.8268Y-3.7879
X6.8668Y-3.5879
X6.8668Y-3.6279
X6.8668Y-3.6679
X6.8668Y-3.7079
X6.8668Y-3.7479
X6.8668Y-3.7879
X6.87Y-2.43
X6.8788Y-2.52
X6.8806Y-2.6743
X6.8968Y-3.9329
X6.9068Y-3.5879
X6.9068Y-3.6279
X6.9068Y-3.6679
X6.9068Y-3.7079
X6.9068Y-3.7479
X6.9068Y-3.7879
X6.915Y-3.09
X6.915Y-3.14
X6.93Y-3.3859
X6.9468Y-3.5879
X6.9468Y-3.6279
X6.9468Y-3.6679
X6.9468Y-3.7079
X6.9468Y-3.7479
X6.9468Y-3.7879
X6.965Y-3.09
X6.965Y-3.14
X6.995Y-2.52
X7.015Y-3.09
X7.015Y-3.14
X7.0399Y-3.645
X7.0399Y-3.7726
X7.0399Y-3.96
X7.04Y-5.0131
X7.065Y-3.09
X7.065Y-3.14
X7.115Y-3.09
X7.115Y-3.14
X7.1168Y-4.0179
X7.1225Y-4.1594
X7.1325Y-3.7294
X7.1325Y-3.8507
X7.145Y-2.8491
X7.165Y-3.09
X7.165Y-3.14
X7.1699Y-3.6507
X7.215Y-3.09
X7.215Y-3.14
X7.4462Y-3.5883
X7.4462Y-3.6283
X7.4462Y-3.6683
X7.4462Y-3.7083
X7.4462Y-3.7483
X7.4462Y-3.7883
X7.4862Y-3.5883
X7.4862Y-3.6283
X7.4862Y-3.6683
X7.4862Y-3.7083
X7.4862Y-3.7483
X7.4862Y-3.7883
X7.5262Y-3.5883
X7.5262Y-3.6283
X7.5262Y-3.6683
X7.5262Y-3.7083
X7.5262Y-3.7483
X7.5262Y-3.7883
X7.5662Y-3.5883
X7.5662Y-3.6283
X7.5662Y-3.6683
X7.5662Y-3.7083
X7.5662Y-3.7483
X7.5662Y-3.7883
X7.5962Y-3.9333
X7.6062Y-3.5883
X7.6062Y-3.6283
X7.6062Y-3.6683
X7.6062Y-3.7083
X7.6062Y-3.7483
X7.6062Y-3.7883
X7.6462Y-3.5883
X7.6462Y-3.6283
X7.6462Y-3.6683
X7.6462Y-3.7083
X7.6462Y-3.7483
X7.6462Y-3.7883
X7.7393Y-3.6454
X7.7393Y-3.7729
X7.7393Y-3.9604
X7.8162Y-4.0183
X7.8219Y-4.1598
X7.8319Y-3.7298
X7.8319Y-3.851
X7.8693Y-3.651
X7.96Y-2.93
X8.0Y-3.1575
X8.06Y-3.3425
X8.21Y-2.86
X8.3043Y-3.3096
X8.335Y-3.285
X8.3475Y-3.1938
X8.38Y-3.38
X8.4061Y-2.6641
X8.4061Y-2.7041
X8.4061Y-2.7441
X8.4061Y-2.7841
X8.4061Y-2.8241
X8.4061Y-2.8641
X8.4461Y-2.6641
X8.4461Y-2.7041
X8.4461Y-2.7441
X8.4461Y-2.7841
X8.4461Y-2.8241
X8.4461Y-2.8641
X8.465Y-3.565
X8.4861Y-2.6641
X8.4861Y-2.7041
X8.4861Y-2.7441
X8.4861Y-2.7841
X8.4861Y-2.8241
X8.4861Y-2.8641
X8.5261Y-2.6641
X8.5261Y-2.7041
X8.5261Y-2.7441
X8.5261Y-2.7841
X8.5261Y-2.8241
X8.5261Y-2.8641
X8.5549Y-3.0054
X8.5661Y-2.6641
X8.5661Y-2.7041
X8.5661Y-2.7441
X8.5661Y-2.7841
X8.5661Y-2.8241
X8.5661Y-2.8641
X8.6Y-4.7
X8.6061Y-2.6641
X8.6061Y-2.7041
X8.6061Y-2.7441
X8.6061Y-2.7841
X8.6061Y-2.8241
X8.6061Y-2.8641
X8.68Y-2.93
X8.69Y-2.83
X8.69Y-3.03
X8.7594Y-2.8926
X8.7594Y-2.9674
T3
X4.2664Y-2.16
X4.2664Y-5.26
X4.2924Y-2.0974
X4.2924Y-2.2226
X4.2924Y-5.1974
X4.2924Y-5.3226
X4.355Y-2.0714
X4.355Y-2.2486
X4.355Y-5.1714
X4.355Y-5.3486
X4.4176Y-2.0974
X4.4176Y-2.2226
X4.4176Y-5.1974
X4.4176Y-5.3226
X4.4436Y-2.16
X4.4436Y-5.26
X4.76Y-2.775
X4.85Y-1.995
X4.94Y-2.77
X5.755Y-3.575
X5.8375Y-3.575
X5.92Y-3.575
X6.4519Y-3.5729
X6.5344Y-3.5729
X6.6169Y-3.5729
X7.1518Y-3.5729
X7.2343Y-3.5729
X7.3168Y-3.5729
X7.8512Y-3.5733
X7.9337Y-3.5733
X8.0162Y-3.5733
X8.065Y-2.9675
X8.2025Y-3.4125
X8.3225Y-2.66
X8.7025Y-3.11
X8.8664Y-2.16
X8.8664Y-5.26
X8.875Y-2.9325
X8.8924Y-2.0974
X8.8924Y-2.2226
X8.8924Y-5.1974
X8.8924Y-5.3226
X8.955Y-2.0714
X8.955Y-2.2486
X8.955Y-5.1714
X8.955Y-5.3486
X9.0176Y-2.0974
X9.0176Y-2.2226
X9.0176Y-5.1974
X9.0176Y-5.3226
X9.0436Y-2.16
X9.0436Y-5.26
T4
X5.93Y-3.14
X5.93Y-3.24
T5
X8.2Y-3.86
X8.2Y-4.06
T6
X5.3048Y-4.7982
X5.3048Y-5.0482
X5.48Y-4.7982
X5.48Y-5.0482
T7
X6.9674Y-4.81
X6.9674Y-5.06
X7.1424Y-4.81
X7.1424Y-5.06
X7.3174Y-4.81
X7.3174Y-5.06
X7.4926Y-4.81
X7.4926Y-5.06
X7.6676Y-4.81
X7.6676Y-5.06
X7.8426Y-4.81
X7.8426Y-5.06
T8
X4.355Y-2.16
X4.355Y-5.26
X8.955Y-2.16
X8.955Y-5.26
T9
X5.0519Y-4.8383
X5.3924Y-5.2883
X5.733Y-4.8383
X6.7144Y-4.8498
X7.405Y-5.3002
X8.0956Y-4.8498
T10
X8.8559Y-3.96
T0
M30
