%TF.GenerationSoftware,KiCad,Pcbnew,(5.1.9-0-10_14)*%
%TF.CreationDate,2021-02-15T20:52:16+08:00*%
%TF.ProjectId,pdm,70646d2e-6b69-4636-9164-5f7063625858,rev?*%
%TF.SameCoordinates,Original*%
%TF.FileFunction,Soldermask,Top*%
%TF.FilePolarity,Negative*%
%FSLAX46Y46*%
G04 Gerber Fmt 4.6, Leading zero omitted, Abs format (unit mm)*
G04 Created by KiCad (PCBNEW (5.1.9-0-10_14)) date 2021-02-15 20:52:16*
%MOMM*%
%LPD*%
G01*
G04 APERTURE LIST*
%ADD10R,1.800000X2.100000*%
%ADD11R,2.500000X3.300000*%
%ADD12R,2.715000X2.715000*%
%ADD13C,2.715000*%
%ADD14C,2.990000*%
%ADD15R,0.800000X0.900000*%
%ADD16R,0.900000X0.800000*%
%ADD17R,1.900000X1.000000*%
%ADD18O,2.000000X1.700000*%
%ADD19C,6.000000*%
%ADD20C,0.800000*%
%ADD21C,1.000000*%
%ADD22R,1.100000X4.600000*%
%ADD23R,10.800000X9.400000*%
%ADD24C,4.262000*%
%ADD25C,2.640000*%
%ADD26R,2.640000X2.640000*%
%ADD27R,0.800000X2.200000*%
%ADD28R,5.800000X6.400000*%
%ADD29C,0.100000*%
%ADD30C,2.000000*%
G04 APERTURE END LIST*
D10*
%TO.C,Y1*%
X169432000Y-54504000D03*
X169432000Y-57404000D03*
X167132000Y-57404000D03*
X167132000Y-54504000D03*
%TD*%
D11*
%TO.C,D1*%
X155299999Y-124206000D03*
X162199999Y-124216000D03*
%TD*%
D12*
%TO.C,J4*%
X176972000Y-122174000D03*
D13*
X181417000Y-122174000D03*
X185862000Y-122174000D03*
X190312000Y-122174000D03*
X194757000Y-122174000D03*
X199202000Y-122174000D03*
X199202000Y-128524000D03*
X194757000Y-128524000D03*
D14*
X170547000Y-123184000D03*
X205627000Y-123184000D03*
X188087000Y-134624000D03*
D13*
X190312000Y-128524000D03*
X185862000Y-128524000D03*
X181417000Y-128524000D03*
X176972000Y-128524000D03*
%TD*%
%TO.C,R43*%
G36*
G01*
X132470000Y-102972001D02*
X132470000Y-102071999D01*
G75*
G02*
X132719999Y-101822000I249999J0D01*
G01*
X133420001Y-101822000D01*
G75*
G02*
X133670000Y-102071999I0J-249999D01*
G01*
X133670000Y-102972001D01*
G75*
G02*
X133420001Y-103222000I-249999J0D01*
G01*
X132719999Y-103222000D01*
G75*
G02*
X132470000Y-102972001I0J249999D01*
G01*
G37*
G36*
G01*
X130470000Y-102972001D02*
X130470000Y-102071999D01*
G75*
G02*
X130719999Y-101822000I249999J0D01*
G01*
X131420001Y-101822000D01*
G75*
G02*
X131670000Y-102071999I0J-249999D01*
G01*
X131670000Y-102972001D01*
G75*
G02*
X131420001Y-103222000I-249999J0D01*
G01*
X130719999Y-103222000D01*
G75*
G02*
X130470000Y-102972001I0J249999D01*
G01*
G37*
%TD*%
%TO.C,R35*%
G36*
G01*
X107842000Y-102955001D02*
X107842000Y-102054999D01*
G75*
G02*
X108091999Y-101805000I249999J0D01*
G01*
X108792001Y-101805000D01*
G75*
G02*
X109042000Y-102054999I0J-249999D01*
G01*
X109042000Y-102955001D01*
G75*
G02*
X108792001Y-103205000I-249999J0D01*
G01*
X108091999Y-103205000D01*
G75*
G02*
X107842000Y-102955001I0J249999D01*
G01*
G37*
G36*
G01*
X105842000Y-102955001D02*
X105842000Y-102054999D01*
G75*
G02*
X106091999Y-101805000I249999J0D01*
G01*
X106792001Y-101805000D01*
G75*
G02*
X107042000Y-102054999I0J-249999D01*
G01*
X107042000Y-102955001D01*
G75*
G02*
X106792001Y-103205000I-249999J0D01*
G01*
X106091999Y-103205000D01*
G75*
G02*
X105842000Y-102955001I0J249999D01*
G01*
G37*
%TD*%
%TO.C,R27*%
G36*
G01*
X206130000Y-103527001D02*
X206130000Y-102626999D01*
G75*
G02*
X206379999Y-102377000I249999J0D01*
G01*
X207080001Y-102377000D01*
G75*
G02*
X207330000Y-102626999I0J-249999D01*
G01*
X207330000Y-103527001D01*
G75*
G02*
X207080001Y-103777000I-249999J0D01*
G01*
X206379999Y-103777000D01*
G75*
G02*
X206130000Y-103527001I0J249999D01*
G01*
G37*
G36*
G01*
X204130000Y-103527001D02*
X204130000Y-102626999D01*
G75*
G02*
X204379999Y-102377000I249999J0D01*
G01*
X205080001Y-102377000D01*
G75*
G02*
X205330000Y-102626999I0J-249999D01*
G01*
X205330000Y-103527001D01*
G75*
G02*
X205080001Y-103777000I-249999J0D01*
G01*
X204379999Y-103777000D01*
G75*
G02*
X204130000Y-103527001I0J249999D01*
G01*
G37*
%TD*%
%TO.C,R19*%
G36*
G01*
X181854000Y-103273001D02*
X181854000Y-102372999D01*
G75*
G02*
X182103999Y-102123000I249999J0D01*
G01*
X182804001Y-102123000D01*
G75*
G02*
X183054000Y-102372999I0J-249999D01*
G01*
X183054000Y-103273001D01*
G75*
G02*
X182804001Y-103523000I-249999J0D01*
G01*
X182103999Y-103523000D01*
G75*
G02*
X181854000Y-103273001I0J249999D01*
G01*
G37*
G36*
G01*
X179854000Y-103273001D02*
X179854000Y-102372999D01*
G75*
G02*
X180103999Y-102123000I249999J0D01*
G01*
X180804001Y-102123000D01*
G75*
G02*
X181054000Y-102372999I0J-249999D01*
G01*
X181054000Y-103273001D01*
G75*
G02*
X180804001Y-103523000I-249999J0D01*
G01*
X180103999Y-103523000D01*
G75*
G02*
X179854000Y-103273001I0J249999D01*
G01*
G37*
%TD*%
%TO.C,R11*%
G36*
G01*
X157278000Y-103113001D02*
X157278000Y-102212999D01*
G75*
G02*
X157527999Y-101963000I249999J0D01*
G01*
X158228001Y-101963000D01*
G75*
G02*
X158478000Y-102212999I0J-249999D01*
G01*
X158478000Y-103113001D01*
G75*
G02*
X158228001Y-103363000I-249999J0D01*
G01*
X157527999Y-103363000D01*
G75*
G02*
X157278000Y-103113001I0J249999D01*
G01*
G37*
G36*
G01*
X155278000Y-103113001D02*
X155278000Y-102212999D01*
G75*
G02*
X155527999Y-101963000I249999J0D01*
G01*
X156228001Y-101963000D01*
G75*
G02*
X156478000Y-102212999I0J-249999D01*
G01*
X156478000Y-103113001D01*
G75*
G02*
X156228001Y-103363000I-249999J0D01*
G01*
X155527999Y-103363000D01*
G75*
G02*
X155278000Y-103113001I0J249999D01*
G01*
G37*
%TD*%
D15*
%TO.C,Q14*%
X132197000Y-106427000D03*
X131247000Y-104427000D03*
X133147000Y-104427000D03*
%TD*%
%TO.C,Q11*%
X107569000Y-106410000D03*
X106619000Y-104410000D03*
X108519000Y-104410000D03*
%TD*%
%TO.C,Q8*%
X205857000Y-106982000D03*
X204907000Y-104982000D03*
X206807000Y-104982000D03*
%TD*%
%TO.C,Q5*%
X181581000Y-106728000D03*
X180631000Y-104728000D03*
X182531000Y-104728000D03*
%TD*%
%TO.C,Q2*%
X157005000Y-106568000D03*
X156055000Y-104568000D03*
X157955000Y-104568000D03*
%TD*%
D16*
%TO.C,Q9*%
X226719000Y-84715001D03*
X224719000Y-85665001D03*
X224719000Y-83765001D03*
%TD*%
%TO.C,Q6*%
X202443000Y-84461001D03*
X200443000Y-85411001D03*
X200443000Y-83511001D03*
%TD*%
%TO.C,Q3*%
X177867000Y-84301001D03*
X175867000Y-85251001D03*
X175867000Y-83351001D03*
%TD*%
%TO.C,Q12*%
X128431000Y-84143001D03*
X126431000Y-85093001D03*
X126431000Y-83193001D03*
%TD*%
%TO.C,Q15*%
X153059000Y-84160001D03*
X151059000Y-85110001D03*
X151059000Y-83210001D03*
%TD*%
D17*
%TO.C,J2*%
X174753000Y-53340000D03*
X174753000Y-58420000D03*
X174753000Y-63500000D03*
X178053000Y-55880000D03*
X178053000Y-60960000D03*
X178053000Y-66040000D03*
%TD*%
%TO.C,J3*%
X218693000Y-68326000D03*
X218693000Y-63246000D03*
X215393000Y-65786000D03*
X215393000Y-60706000D03*
%TD*%
%TO.C,M2*%
G36*
G01*
X111010000Y-119419000D02*
X112510000Y-119419000D01*
G75*
G02*
X112760000Y-119669000I0J-250000D01*
G01*
X112760000Y-120869000D01*
G75*
G02*
X112510000Y-121119000I-250000J0D01*
G01*
X111010000Y-121119000D01*
G75*
G02*
X110760000Y-120869000I0J250000D01*
G01*
X110760000Y-119669000D01*
G75*
G02*
X111010000Y-119419000I250000J0D01*
G01*
G37*
D18*
X111760000Y-122769000D03*
%TD*%
%TO.C,M1*%
G36*
G01*
X118376000Y-119429233D02*
X119876000Y-119429233D01*
G75*
G02*
X120126000Y-119679233I0J-250000D01*
G01*
X120126000Y-120879233D01*
G75*
G02*
X119876000Y-121129233I-250000J0D01*
G01*
X118376000Y-121129233D01*
G75*
G02*
X118126000Y-120879233I0J250000D01*
G01*
X118126000Y-119679233D01*
G75*
G02*
X118376000Y-119429233I250000J0D01*
G01*
G37*
X119126000Y-122779233D03*
%TD*%
D19*
%TO.C,H4*%
X227457000Y-133604000D03*
D20*
X229707000Y-133604000D03*
X229047990Y-135194990D03*
X227457000Y-135854000D03*
X225866010Y-135194990D03*
X225207000Y-133604000D03*
X225866010Y-132013010D03*
X227457000Y-131354000D03*
X229047990Y-132013010D03*
%TD*%
D19*
%TO.C,H3*%
X227457000Y-54864000D03*
D20*
X229707000Y-54864000D03*
X229047990Y-56454990D03*
X227457000Y-57114000D03*
X225866010Y-56454990D03*
X225207000Y-54864000D03*
X225866010Y-53273010D03*
X227457000Y-52614000D03*
X229047990Y-53273010D03*
%TD*%
D19*
%TO.C,H2*%
X110617000Y-133604000D03*
D20*
X112867000Y-133604000D03*
X112207990Y-135194990D03*
X110617000Y-135854000D03*
X109026010Y-135194990D03*
X108367000Y-133604000D03*
X109026010Y-132013010D03*
X110617000Y-131354000D03*
X112207990Y-132013010D03*
%TD*%
D19*
%TO.C,H1*%
X110617000Y-54864000D03*
D20*
X112867000Y-54864000D03*
X112207990Y-56454990D03*
X110617000Y-57114000D03*
X109026010Y-56454990D03*
X108367000Y-54864000D03*
X109026010Y-53273010D03*
X110617000Y-52614000D03*
X112207990Y-53273010D03*
%TD*%
D21*
%TO.C,CANL_Test1*%
X207645000Y-65532000D03*
%TD*%
D22*
%TO.C,U8*%
X123971000Y-65931000D03*
X126511000Y-65931000D03*
X129051000Y-65931000D03*
D23*
X126511000Y-56781000D03*
%TD*%
D21*
%TO.C,TP6*%
X118745000Y-66040000D03*
%TD*%
%TO.C,R46*%
G36*
G01*
X133534999Y-59884000D02*
X134435001Y-59884000D01*
G75*
G02*
X134685000Y-60133999I0J-249999D01*
G01*
X134685000Y-60834001D01*
G75*
G02*
X134435001Y-61084000I-249999J0D01*
G01*
X133534999Y-61084000D01*
G75*
G02*
X133285000Y-60834001I0J249999D01*
G01*
X133285000Y-60133999D01*
G75*
G02*
X133534999Y-59884000I249999J0D01*
G01*
G37*
G36*
G01*
X133534999Y-61884000D02*
X134435001Y-61884000D01*
G75*
G02*
X134685000Y-62133999I0J-249999D01*
G01*
X134685000Y-62834001D01*
G75*
G02*
X134435001Y-63084000I-249999J0D01*
G01*
X133534999Y-63084000D01*
G75*
G02*
X133285000Y-62834001I0J249999D01*
G01*
X133285000Y-62133999D01*
G75*
G02*
X133534999Y-61884000I249999J0D01*
G01*
G37*
%TD*%
%TO.C,R45*%
G36*
G01*
X118294999Y-59852000D02*
X119195001Y-59852000D01*
G75*
G02*
X119445000Y-60101999I0J-249999D01*
G01*
X119445000Y-60802001D01*
G75*
G02*
X119195001Y-61052000I-249999J0D01*
G01*
X118294999Y-61052000D01*
G75*
G02*
X118045000Y-60802001I0J249999D01*
G01*
X118045000Y-60101999D01*
G75*
G02*
X118294999Y-59852000I249999J0D01*
G01*
G37*
G36*
G01*
X118294999Y-61852000D02*
X119195001Y-61852000D01*
G75*
G02*
X119445000Y-62101999I0J-249999D01*
G01*
X119445000Y-62802001D01*
G75*
G02*
X119195001Y-63052000I-249999J0D01*
G01*
X118294999Y-63052000D01*
G75*
G02*
X118045000Y-62802001I0J249999D01*
G01*
X118045000Y-62101999D01*
G75*
G02*
X118294999Y-61852000I249999J0D01*
G01*
G37*
%TD*%
%TO.C,R38*%
G36*
G01*
X133016999Y-79205000D02*
X133917001Y-79205000D01*
G75*
G02*
X134167000Y-79454999I0J-249999D01*
G01*
X134167000Y-80155001D01*
G75*
G02*
X133917001Y-80405000I-249999J0D01*
G01*
X133016999Y-80405000D01*
G75*
G02*
X132767000Y-80155001I0J249999D01*
G01*
X132767000Y-79454999D01*
G75*
G02*
X133016999Y-79205000I249999J0D01*
G01*
G37*
G36*
G01*
X133016999Y-81205000D02*
X133917001Y-81205000D01*
G75*
G02*
X134167000Y-81454999I0J-249999D01*
G01*
X134167000Y-82155001D01*
G75*
G02*
X133917001Y-82405000I-249999J0D01*
G01*
X133016999Y-82405000D01*
G75*
G02*
X132767000Y-82155001I0J249999D01*
G01*
X132767000Y-81454999D01*
G75*
G02*
X133016999Y-81205000I249999J0D01*
G01*
G37*
%TD*%
%TO.C,R37*%
G36*
G01*
X140466108Y-80157893D02*
X139566106Y-80157893D01*
G75*
G02*
X139316107Y-79907894I0J249999D01*
G01*
X139316107Y-79207892D01*
G75*
G02*
X139566106Y-78957893I249999J0D01*
G01*
X140466108Y-78957893D01*
G75*
G02*
X140716107Y-79207892I0J-249999D01*
G01*
X140716107Y-79907894D01*
G75*
G02*
X140466108Y-80157893I-249999J0D01*
G01*
G37*
G36*
G01*
X140466108Y-78157893D02*
X139566106Y-78157893D01*
G75*
G02*
X139316107Y-77907894I0J249999D01*
G01*
X139316107Y-77207892D01*
G75*
G02*
X139566106Y-76957893I249999J0D01*
G01*
X140466108Y-76957893D01*
G75*
G02*
X140716107Y-77207892I0J-249999D01*
G01*
X140716107Y-77907894D01*
G75*
G02*
X140466108Y-78157893I-249999J0D01*
G01*
G37*
%TD*%
%TO.C,R30*%
G36*
G01*
X108388999Y-79188000D02*
X109289001Y-79188000D01*
G75*
G02*
X109539000Y-79437999I0J-249999D01*
G01*
X109539000Y-80138001D01*
G75*
G02*
X109289001Y-80388000I-249999J0D01*
G01*
X108388999Y-80388000D01*
G75*
G02*
X108139000Y-80138001I0J249999D01*
G01*
X108139000Y-79437999D01*
G75*
G02*
X108388999Y-79188000I249999J0D01*
G01*
G37*
G36*
G01*
X108388999Y-81188000D02*
X109289001Y-81188000D01*
G75*
G02*
X109539000Y-81437999I0J-249999D01*
G01*
X109539000Y-82138001D01*
G75*
G02*
X109289001Y-82388000I-249999J0D01*
G01*
X108388999Y-82388000D01*
G75*
G02*
X108139000Y-82138001I0J249999D01*
G01*
X108139000Y-81437999D01*
G75*
G02*
X108388999Y-81188000I249999J0D01*
G01*
G37*
%TD*%
%TO.C,R29*%
G36*
G01*
X115838108Y-80140893D02*
X114938106Y-80140893D01*
G75*
G02*
X114688107Y-79890894I0J249999D01*
G01*
X114688107Y-79190892D01*
G75*
G02*
X114938106Y-78940893I249999J0D01*
G01*
X115838108Y-78940893D01*
G75*
G02*
X116088107Y-79190892I0J-249999D01*
G01*
X116088107Y-79890894D01*
G75*
G02*
X115838108Y-80140893I-249999J0D01*
G01*
G37*
G36*
G01*
X115838108Y-78140893D02*
X114938106Y-78140893D01*
G75*
G02*
X114688107Y-77890894I0J249999D01*
G01*
X114688107Y-77190892D01*
G75*
G02*
X114938106Y-76940893I249999J0D01*
G01*
X115838108Y-76940893D01*
G75*
G02*
X116088107Y-77190892I0J-249999D01*
G01*
X116088107Y-77890894D01*
G75*
G02*
X115838108Y-78140893I-249999J0D01*
G01*
G37*
%TD*%
%TO.C,R22*%
G36*
G01*
X206676999Y-79760000D02*
X207577001Y-79760000D01*
G75*
G02*
X207827000Y-80009999I0J-249999D01*
G01*
X207827000Y-80710001D01*
G75*
G02*
X207577001Y-80960000I-249999J0D01*
G01*
X206676999Y-80960000D01*
G75*
G02*
X206427000Y-80710001I0J249999D01*
G01*
X206427000Y-80009999D01*
G75*
G02*
X206676999Y-79760000I249999J0D01*
G01*
G37*
G36*
G01*
X206676999Y-81760000D02*
X207577001Y-81760000D01*
G75*
G02*
X207827000Y-82009999I0J-249999D01*
G01*
X207827000Y-82710001D01*
G75*
G02*
X207577001Y-82960000I-249999J0D01*
G01*
X206676999Y-82960000D01*
G75*
G02*
X206427000Y-82710001I0J249999D01*
G01*
X206427000Y-82009999D01*
G75*
G02*
X206676999Y-81760000I249999J0D01*
G01*
G37*
%TD*%
%TO.C,R21*%
G36*
G01*
X214126108Y-80712893D02*
X213226106Y-80712893D01*
G75*
G02*
X212976107Y-80462894I0J249999D01*
G01*
X212976107Y-79762892D01*
G75*
G02*
X213226106Y-79512893I249999J0D01*
G01*
X214126108Y-79512893D01*
G75*
G02*
X214376107Y-79762892I0J-249999D01*
G01*
X214376107Y-80462894D01*
G75*
G02*
X214126108Y-80712893I-249999J0D01*
G01*
G37*
G36*
G01*
X214126108Y-78712893D02*
X213226106Y-78712893D01*
G75*
G02*
X212976107Y-78462894I0J249999D01*
G01*
X212976107Y-77762892D01*
G75*
G02*
X213226106Y-77512893I249999J0D01*
G01*
X214126108Y-77512893D01*
G75*
G02*
X214376107Y-77762892I0J-249999D01*
G01*
X214376107Y-78462894D01*
G75*
G02*
X214126108Y-78712893I-249999J0D01*
G01*
G37*
%TD*%
%TO.C,R14*%
G36*
G01*
X182400999Y-79506000D02*
X183301001Y-79506000D01*
G75*
G02*
X183551000Y-79755999I0J-249999D01*
G01*
X183551000Y-80456001D01*
G75*
G02*
X183301001Y-80706000I-249999J0D01*
G01*
X182400999Y-80706000D01*
G75*
G02*
X182151000Y-80456001I0J249999D01*
G01*
X182151000Y-79755999D01*
G75*
G02*
X182400999Y-79506000I249999J0D01*
G01*
G37*
G36*
G01*
X182400999Y-81506000D02*
X183301001Y-81506000D01*
G75*
G02*
X183551000Y-81755999I0J-249999D01*
G01*
X183551000Y-82456001D01*
G75*
G02*
X183301001Y-82706000I-249999J0D01*
G01*
X182400999Y-82706000D01*
G75*
G02*
X182151000Y-82456001I0J249999D01*
G01*
X182151000Y-81755999D01*
G75*
G02*
X182400999Y-81506000I249999J0D01*
G01*
G37*
%TD*%
%TO.C,R13*%
G36*
G01*
X189850108Y-80458893D02*
X188950106Y-80458893D01*
G75*
G02*
X188700107Y-80208894I0J249999D01*
G01*
X188700107Y-79508892D01*
G75*
G02*
X188950106Y-79258893I249999J0D01*
G01*
X189850108Y-79258893D01*
G75*
G02*
X190100107Y-79508892I0J-249999D01*
G01*
X190100107Y-80208894D01*
G75*
G02*
X189850108Y-80458893I-249999J0D01*
G01*
G37*
G36*
G01*
X189850108Y-78458893D02*
X188950106Y-78458893D01*
G75*
G02*
X188700107Y-78208894I0J249999D01*
G01*
X188700107Y-77508892D01*
G75*
G02*
X188950106Y-77258893I249999J0D01*
G01*
X189850108Y-77258893D01*
G75*
G02*
X190100107Y-77508892I0J-249999D01*
G01*
X190100107Y-78208894D01*
G75*
G02*
X189850108Y-78458893I-249999J0D01*
G01*
G37*
%TD*%
%TO.C,R6*%
G36*
G01*
X157824999Y-79346000D02*
X158725001Y-79346000D01*
G75*
G02*
X158975000Y-79595999I0J-249999D01*
G01*
X158975000Y-80296001D01*
G75*
G02*
X158725001Y-80546000I-249999J0D01*
G01*
X157824999Y-80546000D01*
G75*
G02*
X157575000Y-80296001I0J249999D01*
G01*
X157575000Y-79595999D01*
G75*
G02*
X157824999Y-79346000I249999J0D01*
G01*
G37*
G36*
G01*
X157824999Y-81346000D02*
X158725001Y-81346000D01*
G75*
G02*
X158975000Y-81595999I0J-249999D01*
G01*
X158975000Y-82296001D01*
G75*
G02*
X158725001Y-82546000I-249999J0D01*
G01*
X157824999Y-82546000D01*
G75*
G02*
X157575000Y-82296001I0J249999D01*
G01*
X157575000Y-81595999D01*
G75*
G02*
X157824999Y-81346000I249999J0D01*
G01*
G37*
%TD*%
%TO.C,R5*%
G36*
G01*
X165274108Y-80298893D02*
X164374106Y-80298893D01*
G75*
G02*
X164124107Y-80048894I0J249999D01*
G01*
X164124107Y-79348892D01*
G75*
G02*
X164374106Y-79098893I249999J0D01*
G01*
X165274108Y-79098893D01*
G75*
G02*
X165524107Y-79348892I0J-249999D01*
G01*
X165524107Y-80048894D01*
G75*
G02*
X165274108Y-80298893I-249999J0D01*
G01*
G37*
G36*
G01*
X165274108Y-78298893D02*
X164374106Y-78298893D01*
G75*
G02*
X164124107Y-78048894I0J249999D01*
G01*
X164124107Y-77348892D01*
G75*
G02*
X164374106Y-77098893I249999J0D01*
G01*
X165274108Y-77098893D01*
G75*
G02*
X165524107Y-77348892I0J-249999D01*
G01*
X165524107Y-78048894D01*
G75*
G02*
X165274108Y-78298893I-249999J0D01*
G01*
G37*
%TD*%
D15*
%TO.C,Q13*%
X137973000Y-77503000D03*
X136073000Y-77503000D03*
X137023000Y-79503000D03*
%TD*%
%TO.C,Q10*%
X113345000Y-77486000D03*
X111445000Y-77486000D03*
X112395000Y-79486000D03*
%TD*%
%TO.C,Q7*%
X211633000Y-78058000D03*
X209733000Y-78058000D03*
X210683000Y-80058000D03*
%TD*%
%TO.C,Q4*%
X187357000Y-77804000D03*
X185457000Y-77804000D03*
X186407000Y-79804000D03*
%TD*%
%TO.C,Q1*%
X162781000Y-77644000D03*
X160881000Y-77644000D03*
X161831000Y-79644000D03*
%TD*%
%TO.C,D9*%
G36*
G01*
X133534999Y-55795001D02*
X134435001Y-55795001D01*
G75*
G02*
X134685000Y-56045000I0J-249999D01*
G01*
X134685000Y-56695002D01*
G75*
G02*
X134435001Y-56945001I-249999J0D01*
G01*
X133534999Y-56945001D01*
G75*
G02*
X133285000Y-56695002I0J249999D01*
G01*
X133285000Y-56045000D01*
G75*
G02*
X133534999Y-55795001I249999J0D01*
G01*
G37*
G36*
G01*
X133534999Y-57845001D02*
X134435001Y-57845001D01*
G75*
G02*
X134685000Y-58095000I0J-249999D01*
G01*
X134685000Y-58745002D01*
G75*
G02*
X134435001Y-58995001I-249999J0D01*
G01*
X133534999Y-58995001D01*
G75*
G02*
X133285000Y-58745002I0J249999D01*
G01*
X133285000Y-58095000D01*
G75*
G02*
X133534999Y-57845001I249999J0D01*
G01*
G37*
%TD*%
%TO.C,D8*%
G36*
G01*
X118294999Y-55804000D02*
X119195001Y-55804000D01*
G75*
G02*
X119445000Y-56053999I0J-249999D01*
G01*
X119445000Y-56704001D01*
G75*
G02*
X119195001Y-56954000I-249999J0D01*
G01*
X118294999Y-56954000D01*
G75*
G02*
X118045000Y-56704001I0J249999D01*
G01*
X118045000Y-56053999D01*
G75*
G02*
X118294999Y-55804000I249999J0D01*
G01*
G37*
G36*
G01*
X118294999Y-57854000D02*
X119195001Y-57854000D01*
G75*
G02*
X119445000Y-58103999I0J-249999D01*
G01*
X119445000Y-58754001D01*
G75*
G02*
X119195001Y-59004000I-249999J0D01*
G01*
X118294999Y-59004000D01*
G75*
G02*
X118045000Y-58754001I0J249999D01*
G01*
X118045000Y-58103999D01*
G75*
G02*
X118294999Y-57854000I249999J0D01*
G01*
G37*
%TD*%
%TO.C,C15*%
G36*
G01*
X133051999Y-64409500D02*
X133902001Y-64409500D01*
G75*
G02*
X134152000Y-64659499I0J-249999D01*
G01*
X134152000Y-65734501D01*
G75*
G02*
X133902001Y-65984500I-249999J0D01*
G01*
X133051999Y-65984500D01*
G75*
G02*
X132802000Y-65734501I0J249999D01*
G01*
X132802000Y-64659499D01*
G75*
G02*
X133051999Y-64409500I249999J0D01*
G01*
G37*
G36*
G01*
X133051999Y-67284500D02*
X133902001Y-67284500D01*
G75*
G02*
X134152000Y-67534499I0J-249999D01*
G01*
X134152000Y-68609501D01*
G75*
G02*
X133902001Y-68859500I-249999J0D01*
G01*
X133051999Y-68859500D01*
G75*
G02*
X132802000Y-68609501I0J249999D01*
G01*
X132802000Y-67534499D01*
G75*
G02*
X133051999Y-67284500I249999J0D01*
G01*
G37*
%TD*%
%TO.C,C14*%
G36*
G01*
X115984000Y-65431000D02*
X116934000Y-65431000D01*
G75*
G02*
X117184000Y-65681000I0J-250000D01*
G01*
X117184000Y-66356000D01*
G75*
G02*
X116934000Y-66606000I-250000J0D01*
G01*
X115984000Y-66606000D01*
G75*
G02*
X115734000Y-66356000I0J250000D01*
G01*
X115734000Y-65681000D01*
G75*
G02*
X115984000Y-65431000I250000J0D01*
G01*
G37*
G36*
G01*
X115984000Y-67506000D02*
X116934000Y-67506000D01*
G75*
G02*
X117184000Y-67756000I0J-250000D01*
G01*
X117184000Y-68431000D01*
G75*
G02*
X116934000Y-68681000I-250000J0D01*
G01*
X115984000Y-68681000D01*
G75*
G02*
X115734000Y-68431000I0J250000D01*
G01*
X115734000Y-67756000D01*
G75*
G02*
X115984000Y-67506000I250000J0D01*
G01*
G37*
%TD*%
%TO.C,R1*%
G36*
G01*
X207678000Y-67568500D02*
X208628000Y-67568500D01*
G75*
G02*
X208878000Y-67818500I0J-250000D01*
G01*
X208878000Y-68493500D01*
G75*
G02*
X208628000Y-68743500I-250000J0D01*
G01*
X207678000Y-68743500D01*
G75*
G02*
X207428000Y-68493500I0J250000D01*
G01*
X207428000Y-67818500D01*
G75*
G02*
X207678000Y-67568500I250000J0D01*
G01*
G37*
G36*
G01*
X207678000Y-69643500D02*
X208628000Y-69643500D01*
G75*
G02*
X208878000Y-69893500I0J-250000D01*
G01*
X208878000Y-70568500D01*
G75*
G02*
X208628000Y-70818500I-250000J0D01*
G01*
X207678000Y-70818500D01*
G75*
G02*
X207428000Y-70568500I0J250000D01*
G01*
X207428000Y-69893500D01*
G75*
G02*
X207678000Y-69643500I250000J0D01*
G01*
G37*
%TD*%
%TO.C,C8*%
G36*
G01*
X147494500Y-64737000D02*
X147494500Y-63787000D01*
G75*
G02*
X147744500Y-63537000I250000J0D01*
G01*
X148419500Y-63537000D01*
G75*
G02*
X148669500Y-63787000I0J-250000D01*
G01*
X148669500Y-64737000D01*
G75*
G02*
X148419500Y-64987000I-250000J0D01*
G01*
X147744500Y-64987000D01*
G75*
G02*
X147494500Y-64737000I0J250000D01*
G01*
G37*
G36*
G01*
X149569500Y-64737000D02*
X149569500Y-63787000D01*
G75*
G02*
X149819500Y-63537000I250000J0D01*
G01*
X150494500Y-63537000D01*
G75*
G02*
X150744500Y-63787000I0J-250000D01*
G01*
X150744500Y-64737000D01*
G75*
G02*
X150494500Y-64987000I-250000J0D01*
G01*
X149819500Y-64987000D01*
G75*
G02*
X149569500Y-64737000I0J250000D01*
G01*
G37*
%TD*%
%TO.C,C13*%
G36*
G01*
X133002000Y-83164000D02*
X133952000Y-83164000D01*
G75*
G02*
X134202000Y-83414000I0J-250000D01*
G01*
X134202000Y-84089000D01*
G75*
G02*
X133952000Y-84339000I-250000J0D01*
G01*
X133002000Y-84339000D01*
G75*
G02*
X132752000Y-84089000I0J250000D01*
G01*
X132752000Y-83414000D01*
G75*
G02*
X133002000Y-83164000I250000J0D01*
G01*
G37*
G36*
G01*
X133002000Y-85239000D02*
X133952000Y-85239000D01*
G75*
G02*
X134202000Y-85489000I0J-250000D01*
G01*
X134202000Y-86164000D01*
G75*
G02*
X133952000Y-86414000I-250000J0D01*
G01*
X133002000Y-86414000D01*
G75*
G02*
X132752000Y-86164000I0J250000D01*
G01*
X132752000Y-85489000D01*
G75*
G02*
X133002000Y-85239000I250000J0D01*
G01*
G37*
%TD*%
%TO.C,C12*%
G36*
G01*
X108374000Y-83147000D02*
X109324000Y-83147000D01*
G75*
G02*
X109574000Y-83397000I0J-250000D01*
G01*
X109574000Y-84072000D01*
G75*
G02*
X109324000Y-84322000I-250000J0D01*
G01*
X108374000Y-84322000D01*
G75*
G02*
X108124000Y-84072000I0J250000D01*
G01*
X108124000Y-83397000D01*
G75*
G02*
X108374000Y-83147000I250000J0D01*
G01*
G37*
G36*
G01*
X108374000Y-85222000D02*
X109324000Y-85222000D01*
G75*
G02*
X109574000Y-85472000I0J-250000D01*
G01*
X109574000Y-86147000D01*
G75*
G02*
X109324000Y-86397000I-250000J0D01*
G01*
X108374000Y-86397000D01*
G75*
G02*
X108124000Y-86147000I0J250000D01*
G01*
X108124000Y-85472000D01*
G75*
G02*
X108374000Y-85222000I250000J0D01*
G01*
G37*
%TD*%
%TO.C,C11*%
G36*
G01*
X206662000Y-83719000D02*
X207612000Y-83719000D01*
G75*
G02*
X207862000Y-83969000I0J-250000D01*
G01*
X207862000Y-84644000D01*
G75*
G02*
X207612000Y-84894000I-250000J0D01*
G01*
X206662000Y-84894000D01*
G75*
G02*
X206412000Y-84644000I0J250000D01*
G01*
X206412000Y-83969000D01*
G75*
G02*
X206662000Y-83719000I250000J0D01*
G01*
G37*
G36*
G01*
X206662000Y-85794000D02*
X207612000Y-85794000D01*
G75*
G02*
X207862000Y-86044000I0J-250000D01*
G01*
X207862000Y-86719000D01*
G75*
G02*
X207612000Y-86969000I-250000J0D01*
G01*
X206662000Y-86969000D01*
G75*
G02*
X206412000Y-86719000I0J250000D01*
G01*
X206412000Y-86044000D01*
G75*
G02*
X206662000Y-85794000I250000J0D01*
G01*
G37*
%TD*%
%TO.C,C10*%
G36*
G01*
X182386000Y-83465000D02*
X183336000Y-83465000D01*
G75*
G02*
X183586000Y-83715000I0J-250000D01*
G01*
X183586000Y-84390000D01*
G75*
G02*
X183336000Y-84640000I-250000J0D01*
G01*
X182386000Y-84640000D01*
G75*
G02*
X182136000Y-84390000I0J250000D01*
G01*
X182136000Y-83715000D01*
G75*
G02*
X182386000Y-83465000I250000J0D01*
G01*
G37*
G36*
G01*
X182386000Y-85540000D02*
X183336000Y-85540000D01*
G75*
G02*
X183586000Y-85790000I0J-250000D01*
G01*
X183586000Y-86465000D01*
G75*
G02*
X183336000Y-86715000I-250000J0D01*
G01*
X182386000Y-86715000D01*
G75*
G02*
X182136000Y-86465000I0J250000D01*
G01*
X182136000Y-85790000D01*
G75*
G02*
X182386000Y-85540000I250000J0D01*
G01*
G37*
%TD*%
%TO.C,C9*%
G36*
G01*
X157810000Y-83305000D02*
X158760000Y-83305000D01*
G75*
G02*
X159010000Y-83555000I0J-250000D01*
G01*
X159010000Y-84230000D01*
G75*
G02*
X158760000Y-84480000I-250000J0D01*
G01*
X157810000Y-84480000D01*
G75*
G02*
X157560000Y-84230000I0J250000D01*
G01*
X157560000Y-83555000D01*
G75*
G02*
X157810000Y-83305000I250000J0D01*
G01*
G37*
G36*
G01*
X157810000Y-85380000D02*
X158760000Y-85380000D01*
G75*
G02*
X159010000Y-85630000I0J-250000D01*
G01*
X159010000Y-86305000D01*
G75*
G02*
X158760000Y-86555000I-250000J0D01*
G01*
X157810000Y-86555000D01*
G75*
G02*
X157560000Y-86305000I0J250000D01*
G01*
X157560000Y-85630000D01*
G75*
G02*
X157810000Y-85380000I250000J0D01*
G01*
G37*
%TD*%
%TO.C,F2*%
G36*
G01*
X194703000Y-97566001D02*
X194703000Y-97566001D01*
G75*
G02*
X193922000Y-96785001I0J781000D01*
G01*
X193922000Y-92785001D01*
G75*
G02*
X194703000Y-92004001I781000J0D01*
G01*
X194703000Y-92004001D01*
G75*
G02*
X195484000Y-92785001I0J-781000D01*
G01*
X195484000Y-96785001D01*
G75*
G02*
X194703000Y-97566001I-781000J0D01*
G01*
G37*
G36*
G01*
X194703000Y-88066001D02*
X194703000Y-88066001D01*
G75*
G02*
X193922000Y-87285001I0J781000D01*
G01*
X193922000Y-83285001D01*
G75*
G02*
X194703000Y-82504001I781000J0D01*
G01*
X194703000Y-82504001D01*
G75*
G02*
X195484000Y-83285001I0J-781000D01*
G01*
X195484000Y-87285001D01*
G75*
G02*
X194703000Y-88066001I-781000J0D01*
G01*
G37*
D24*
X194703000Y-103735001D03*
X194703000Y-76335001D03*
%TD*%
%TO.C,F5*%
G36*
G01*
X145319000Y-97265001D02*
X145319000Y-97265001D01*
G75*
G02*
X144538000Y-96484001I0J781000D01*
G01*
X144538000Y-92484001D01*
G75*
G02*
X145319000Y-91703001I781000J0D01*
G01*
X145319000Y-91703001D01*
G75*
G02*
X146100000Y-92484001I0J-781000D01*
G01*
X146100000Y-96484001D01*
G75*
G02*
X145319000Y-97265001I-781000J0D01*
G01*
G37*
G36*
G01*
X145319000Y-87765001D02*
X145319000Y-87765001D01*
G75*
G02*
X144538000Y-86984001I0J781000D01*
G01*
X144538000Y-82984001D01*
G75*
G02*
X145319000Y-82203001I781000J0D01*
G01*
X145319000Y-82203001D01*
G75*
G02*
X146100000Y-82984001I0J-781000D01*
G01*
X146100000Y-86984001D01*
G75*
G02*
X145319000Y-87765001I-781000J0D01*
G01*
G37*
X145319000Y-103434001D03*
X145319000Y-76034001D03*
%TD*%
%TO.C,F3*%
G36*
G01*
X218979000Y-97820001D02*
X218979000Y-97820001D01*
G75*
G02*
X218198000Y-97039001I0J781000D01*
G01*
X218198000Y-93039001D01*
G75*
G02*
X218979000Y-92258001I781000J0D01*
G01*
X218979000Y-92258001D01*
G75*
G02*
X219760000Y-93039001I0J-781000D01*
G01*
X219760000Y-97039001D01*
G75*
G02*
X218979000Y-97820001I-781000J0D01*
G01*
G37*
G36*
G01*
X218979000Y-88320001D02*
X218979000Y-88320001D01*
G75*
G02*
X218198000Y-87539001I0J781000D01*
G01*
X218198000Y-83539001D01*
G75*
G02*
X218979000Y-82758001I781000J0D01*
G01*
X218979000Y-82758001D01*
G75*
G02*
X219760000Y-83539001I0J-781000D01*
G01*
X219760000Y-87539001D01*
G75*
G02*
X218979000Y-88320001I-781000J0D01*
G01*
G37*
X218979000Y-103989001D03*
X218979000Y-76589001D03*
%TD*%
%TO.C,F4*%
G36*
G01*
X120691000Y-97248001D02*
X120691000Y-97248001D01*
G75*
G02*
X119910000Y-96467001I0J781000D01*
G01*
X119910000Y-92467001D01*
G75*
G02*
X120691000Y-91686001I781000J0D01*
G01*
X120691000Y-91686001D01*
G75*
G02*
X121472000Y-92467001I0J-781000D01*
G01*
X121472000Y-96467001D01*
G75*
G02*
X120691000Y-97248001I-781000J0D01*
G01*
G37*
G36*
G01*
X120691000Y-87748001D02*
X120691000Y-87748001D01*
G75*
G02*
X119910000Y-86967001I0J781000D01*
G01*
X119910000Y-82967001D01*
G75*
G02*
X120691000Y-82186001I781000J0D01*
G01*
X120691000Y-82186001D01*
G75*
G02*
X121472000Y-82967001I0J-781000D01*
G01*
X121472000Y-86967001D01*
G75*
G02*
X120691000Y-87748001I-781000J0D01*
G01*
G37*
X120691000Y-103417001D03*
X120691000Y-76017001D03*
%TD*%
%TO.C,F1*%
G36*
G01*
X170127000Y-97406001D02*
X170127000Y-97406001D01*
G75*
G02*
X169346000Y-96625001I0J781000D01*
G01*
X169346000Y-92625001D01*
G75*
G02*
X170127000Y-91844001I781000J0D01*
G01*
X170127000Y-91844001D01*
G75*
G02*
X170908000Y-92625001I0J-781000D01*
G01*
X170908000Y-96625001D01*
G75*
G02*
X170127000Y-97406001I-781000J0D01*
G01*
G37*
G36*
G01*
X170127000Y-87906001D02*
X170127000Y-87906001D01*
G75*
G02*
X169346000Y-87125001I0J781000D01*
G01*
X169346000Y-83125001D01*
G75*
G02*
X170127000Y-82344001I781000J0D01*
G01*
X170127000Y-82344001D01*
G75*
G02*
X170908000Y-83125001I0J-781000D01*
G01*
X170908000Y-87125001D01*
G75*
G02*
X170127000Y-87906001I-781000J0D01*
G01*
G37*
X170127000Y-103575001D03*
X170127000Y-76175001D03*
%TD*%
D14*
%TO.C,J1*%
X136967000Y-134324000D03*
X128317000Y-122894000D03*
X145617000Y-122894000D03*
D25*
X134742000Y-128224000D03*
X139192000Y-128224000D03*
D26*
X134742000Y-121874000D03*
D25*
X139192000Y-121874000D03*
%TD*%
%TO.C,C7*%
G36*
G01*
X163035000Y-57737500D02*
X162085000Y-57737500D01*
G75*
G02*
X161835000Y-57487500I0J250000D01*
G01*
X161835000Y-56812500D01*
G75*
G02*
X162085000Y-56562500I250000J0D01*
G01*
X163035000Y-56562500D01*
G75*
G02*
X163285000Y-56812500I0J-250000D01*
G01*
X163285000Y-57487500D01*
G75*
G02*
X163035000Y-57737500I-250000J0D01*
G01*
G37*
G36*
G01*
X163035000Y-55662500D02*
X162085000Y-55662500D01*
G75*
G02*
X161835000Y-55412500I0J250000D01*
G01*
X161835000Y-54737500D01*
G75*
G02*
X162085000Y-54487500I250000J0D01*
G01*
X163035000Y-54487500D01*
G75*
G02*
X163285000Y-54737500I0J-250000D01*
G01*
X163285000Y-55412500D01*
G75*
G02*
X163035000Y-55662500I-250000J0D01*
G01*
G37*
%TD*%
%TO.C,C5*%
G36*
G01*
X165067000Y-57737500D02*
X164117000Y-57737500D01*
G75*
G02*
X163867000Y-57487500I0J250000D01*
G01*
X163867000Y-56812500D01*
G75*
G02*
X164117000Y-56562500I250000J0D01*
G01*
X165067000Y-56562500D01*
G75*
G02*
X165317000Y-56812500I0J-250000D01*
G01*
X165317000Y-57487500D01*
G75*
G02*
X165067000Y-57737500I-250000J0D01*
G01*
G37*
G36*
G01*
X165067000Y-55662500D02*
X164117000Y-55662500D01*
G75*
G02*
X163867000Y-55412500I0J250000D01*
G01*
X163867000Y-54737500D01*
G75*
G02*
X164117000Y-54487500I250000J0D01*
G01*
X165067000Y-54487500D01*
G75*
G02*
X165317000Y-54737500I0J-250000D01*
G01*
X165317000Y-55412500D01*
G75*
G02*
X165067000Y-55662500I-250000J0D01*
G01*
G37*
%TD*%
%TO.C,C4*%
G36*
G01*
X157959268Y-65881178D02*
X158631019Y-65209427D01*
G75*
G02*
X158984573Y-65209427I176777J-176777D01*
G01*
X159461870Y-65686724D01*
G75*
G02*
X159461870Y-66040278I-176777J-176777D01*
G01*
X158790119Y-66712029D01*
G75*
G02*
X158436565Y-66712029I-176777J176777D01*
G01*
X157959268Y-66234732D01*
G75*
G02*
X157959268Y-65881178I176777J176777D01*
G01*
G37*
G36*
G01*
X159426514Y-67348424D02*
X160098265Y-66676673D01*
G75*
G02*
X160451819Y-66676673I176777J-176777D01*
G01*
X160929116Y-67153970D01*
G75*
G02*
X160929116Y-67507524I-176777J-176777D01*
G01*
X160257365Y-68179275D01*
G75*
G02*
X159903811Y-68179275I-176777J176777D01*
G01*
X159426514Y-67701978D01*
G75*
G02*
X159426514Y-67348424I176777J176777D01*
G01*
G37*
%TD*%
%TO.C,R2*%
G36*
G01*
X172154001Y-66100000D02*
X171253999Y-66100000D01*
G75*
G02*
X171004000Y-65850001I0J249999D01*
G01*
X171004000Y-65149999D01*
G75*
G02*
X171253999Y-64900000I249999J0D01*
G01*
X172154001Y-64900000D01*
G75*
G02*
X172404000Y-65149999I0J-249999D01*
G01*
X172404000Y-65850001D01*
G75*
G02*
X172154001Y-66100000I-249999J0D01*
G01*
G37*
G36*
G01*
X172154001Y-64100000D02*
X171253999Y-64100000D01*
G75*
G02*
X171004000Y-63850001I0J249999D01*
G01*
X171004000Y-63149999D01*
G75*
G02*
X171253999Y-62900000I249999J0D01*
G01*
X172154001Y-62900000D01*
G75*
G02*
X172404000Y-63149999I0J-249999D01*
G01*
X172404000Y-63850001D01*
G75*
G02*
X172154001Y-64100000I-249999J0D01*
G01*
G37*
%TD*%
D27*
%TO.C,U5*%
X213818000Y-90483000D03*
X212678000Y-90483000D03*
X210398000Y-90483000D03*
X209258000Y-90483000D03*
D28*
X211538000Y-96783000D03*
%TD*%
D27*
%TO.C,U4*%
X189542000Y-90229000D03*
X188402000Y-90229000D03*
X186122000Y-90229000D03*
X184982000Y-90229000D03*
D28*
X187262000Y-96529000D03*
%TD*%
D27*
%TO.C,U6*%
X115530000Y-89911000D03*
X114390000Y-89911000D03*
X112110000Y-89911000D03*
X110970000Y-89911000D03*
D28*
X113250000Y-96211000D03*
%TD*%
D27*
%TO.C,U7*%
X140158000Y-89928000D03*
X139018000Y-89928000D03*
X136738000Y-89928000D03*
X135598000Y-89928000D03*
D28*
X137878000Y-96228000D03*
%TD*%
D21*
%TO.C,Vout_TP3*%
X226144000Y-99220000D03*
%TD*%
%TO.C,TP3*%
X206873000Y-92870001D03*
%TD*%
%TO.C,Vout_TP2*%
X201868000Y-98966000D03*
%TD*%
%TO.C,TP2*%
X182597000Y-92616001D03*
%TD*%
%TO.C,TP1*%
X158021000Y-92456001D03*
%TD*%
%TO.C,Vout_TP4*%
X127856000Y-98648000D03*
%TD*%
%TO.C,TP4*%
X108585000Y-92298001D03*
%TD*%
%TO.C,Vout_TP5*%
X152484000Y-98665000D03*
%TD*%
%TO.C,TP5*%
X133213000Y-92315001D03*
%TD*%
%TO.C,R28*%
G36*
G01*
X223769000Y-86975000D02*
X224669002Y-86975000D01*
G75*
G02*
X224919001Y-87224999I0J-249999D01*
G01*
X224919001Y-87925001D01*
G75*
G02*
X224669002Y-88175000I-249999J0D01*
G01*
X223769000Y-88175000D01*
G75*
G02*
X223519001Y-87925001I0J249999D01*
G01*
X223519001Y-87224999D01*
G75*
G02*
X223769000Y-86975000I249999J0D01*
G01*
G37*
G36*
G01*
X223769000Y-88975000D02*
X224669002Y-88975000D01*
G75*
G02*
X224919001Y-89224999I0J-249999D01*
G01*
X224919001Y-89925001D01*
G75*
G02*
X224669002Y-90175000I-249999J0D01*
G01*
X223769000Y-90175000D01*
G75*
G02*
X223519001Y-89925001I0J249999D01*
G01*
X223519001Y-89224999D01*
G75*
G02*
X223769000Y-88975000I249999J0D01*
G01*
G37*
%TD*%
%TO.C,R26*%
G36*
G01*
X224669001Y-82460000D02*
X223768999Y-82460000D01*
G75*
G02*
X223519000Y-82210001I0J249999D01*
G01*
X223519000Y-81509999D01*
G75*
G02*
X223768999Y-81260000I249999J0D01*
G01*
X224669001Y-81260000D01*
G75*
G02*
X224919000Y-81509999I0J-249999D01*
G01*
X224919000Y-82210001D01*
G75*
G02*
X224669001Y-82460000I-249999J0D01*
G01*
G37*
G36*
G01*
X224669001Y-80460000D02*
X223768999Y-80460000D01*
G75*
G02*
X223519000Y-80210001I0J249999D01*
G01*
X223519000Y-79509999D01*
G75*
G02*
X223768999Y-79260000I249999J0D01*
G01*
X224669001Y-79260000D01*
G75*
G02*
X224919000Y-79509999I0J-249999D01*
G01*
X224919000Y-80210001D01*
G75*
G02*
X224669001Y-80460000I-249999J0D01*
G01*
G37*
%TD*%
%TO.C,R25*%
G36*
G01*
X223769000Y-90690000D02*
X224669002Y-90690000D01*
G75*
G02*
X224919001Y-90939999I0J-249999D01*
G01*
X224919001Y-91640001D01*
G75*
G02*
X224669002Y-91890000I-249999J0D01*
G01*
X223769000Y-91890000D01*
G75*
G02*
X223519001Y-91640001I0J249999D01*
G01*
X223519001Y-90939999D01*
G75*
G02*
X223769000Y-90690000I249999J0D01*
G01*
G37*
G36*
G01*
X223769000Y-92690000D02*
X224669002Y-92690000D01*
G75*
G02*
X224919001Y-92939999I0J-249999D01*
G01*
X224919001Y-93640001D01*
G75*
G02*
X224669002Y-93890000I-249999J0D01*
G01*
X223769000Y-93890000D01*
G75*
G02*
X223519001Y-93640001I0J249999D01*
G01*
X223519001Y-92939999D01*
G75*
G02*
X223769000Y-92690000I249999J0D01*
G01*
G37*
%TD*%
%TO.C,R24*%
G36*
G01*
X207079001Y-101660000D02*
X206178999Y-101660000D01*
G75*
G02*
X205929000Y-101410001I0J249999D01*
G01*
X205929000Y-100709999D01*
G75*
G02*
X206178999Y-100460000I249999J0D01*
G01*
X207079001Y-100460000D01*
G75*
G02*
X207329000Y-100709999I0J-249999D01*
G01*
X207329000Y-101410001D01*
G75*
G02*
X207079001Y-101660000I-249999J0D01*
G01*
G37*
G36*
G01*
X207079001Y-99660000D02*
X206178999Y-99660000D01*
G75*
G02*
X205929000Y-99410001I0J249999D01*
G01*
X205929000Y-98709999D01*
G75*
G02*
X206178999Y-98460000I249999J0D01*
G01*
X207079001Y-98460000D01*
G75*
G02*
X207329000Y-98709999I0J-249999D01*
G01*
X207329000Y-99410001D01*
G75*
G02*
X207079001Y-99660000I-249999J0D01*
G01*
G37*
%TD*%
%TO.C,R23*%
G36*
G01*
X206516999Y-88206000D02*
X207417001Y-88206000D01*
G75*
G02*
X207667000Y-88455999I0J-249999D01*
G01*
X207667000Y-89156001D01*
G75*
G02*
X207417001Y-89406000I-249999J0D01*
G01*
X206516999Y-89406000D01*
G75*
G02*
X206267000Y-89156001I0J249999D01*
G01*
X206267000Y-88455999D01*
G75*
G02*
X206516999Y-88206000I249999J0D01*
G01*
G37*
G36*
G01*
X206516999Y-90206000D02*
X207417001Y-90206000D01*
G75*
G02*
X207667000Y-90455999I0J-249999D01*
G01*
X207667000Y-91156001D01*
G75*
G02*
X207417001Y-91406000I-249999J0D01*
G01*
X206516999Y-91406000D01*
G75*
G02*
X206267000Y-91156001I0J249999D01*
G01*
X206267000Y-90455999D01*
G75*
G02*
X206516999Y-90206000I249999J0D01*
G01*
G37*
%TD*%
%TO.C,R20*%
G36*
G01*
X199493000Y-86721000D02*
X200393002Y-86721000D01*
G75*
G02*
X200643001Y-86970999I0J-249999D01*
G01*
X200643001Y-87671001D01*
G75*
G02*
X200393002Y-87921000I-249999J0D01*
G01*
X199493000Y-87921000D01*
G75*
G02*
X199243001Y-87671001I0J249999D01*
G01*
X199243001Y-86970999D01*
G75*
G02*
X199493000Y-86721000I249999J0D01*
G01*
G37*
G36*
G01*
X199493000Y-88721000D02*
X200393002Y-88721000D01*
G75*
G02*
X200643001Y-88970999I0J-249999D01*
G01*
X200643001Y-89671001D01*
G75*
G02*
X200393002Y-89921000I-249999J0D01*
G01*
X199493000Y-89921000D01*
G75*
G02*
X199243001Y-89671001I0J249999D01*
G01*
X199243001Y-88970999D01*
G75*
G02*
X199493000Y-88721000I249999J0D01*
G01*
G37*
%TD*%
%TO.C,R18*%
G36*
G01*
X200393001Y-82206000D02*
X199492999Y-82206000D01*
G75*
G02*
X199243000Y-81956001I0J249999D01*
G01*
X199243000Y-81255999D01*
G75*
G02*
X199492999Y-81006000I249999J0D01*
G01*
X200393001Y-81006000D01*
G75*
G02*
X200643000Y-81255999I0J-249999D01*
G01*
X200643000Y-81956001D01*
G75*
G02*
X200393001Y-82206000I-249999J0D01*
G01*
G37*
G36*
G01*
X200393001Y-80206000D02*
X199492999Y-80206000D01*
G75*
G02*
X199243000Y-79956001I0J249999D01*
G01*
X199243000Y-79255999D01*
G75*
G02*
X199492999Y-79006000I249999J0D01*
G01*
X200393001Y-79006000D01*
G75*
G02*
X200643000Y-79255999I0J-249999D01*
G01*
X200643000Y-79956001D01*
G75*
G02*
X200393001Y-80206000I-249999J0D01*
G01*
G37*
%TD*%
%TO.C,R17*%
G36*
G01*
X199493000Y-90436000D02*
X200393002Y-90436000D01*
G75*
G02*
X200643001Y-90685999I0J-249999D01*
G01*
X200643001Y-91386001D01*
G75*
G02*
X200393002Y-91636000I-249999J0D01*
G01*
X199493000Y-91636000D01*
G75*
G02*
X199243001Y-91386001I0J249999D01*
G01*
X199243001Y-90685999D01*
G75*
G02*
X199493000Y-90436000I249999J0D01*
G01*
G37*
G36*
G01*
X199493000Y-92436000D02*
X200393002Y-92436000D01*
G75*
G02*
X200643001Y-92685999I0J-249999D01*
G01*
X200643001Y-93386001D01*
G75*
G02*
X200393002Y-93636000I-249999J0D01*
G01*
X199493000Y-93636000D01*
G75*
G02*
X199243001Y-93386001I0J249999D01*
G01*
X199243001Y-92685999D01*
G75*
G02*
X199493000Y-92436000I249999J0D01*
G01*
G37*
%TD*%
%TO.C,R16*%
G36*
G01*
X182803001Y-101406000D02*
X181902999Y-101406000D01*
G75*
G02*
X181653000Y-101156001I0J249999D01*
G01*
X181653000Y-100455999D01*
G75*
G02*
X181902999Y-100206000I249999J0D01*
G01*
X182803001Y-100206000D01*
G75*
G02*
X183053000Y-100455999I0J-249999D01*
G01*
X183053000Y-101156001D01*
G75*
G02*
X182803001Y-101406000I-249999J0D01*
G01*
G37*
G36*
G01*
X182803001Y-99406000D02*
X181902999Y-99406000D01*
G75*
G02*
X181653000Y-99156001I0J249999D01*
G01*
X181653000Y-98455999D01*
G75*
G02*
X181902999Y-98206000I249999J0D01*
G01*
X182803001Y-98206000D01*
G75*
G02*
X183053000Y-98455999I0J-249999D01*
G01*
X183053000Y-99156001D01*
G75*
G02*
X182803001Y-99406000I-249999J0D01*
G01*
G37*
%TD*%
%TO.C,R15*%
G36*
G01*
X182240999Y-87952000D02*
X183141001Y-87952000D01*
G75*
G02*
X183391000Y-88201999I0J-249999D01*
G01*
X183391000Y-88902001D01*
G75*
G02*
X183141001Y-89152000I-249999J0D01*
G01*
X182240999Y-89152000D01*
G75*
G02*
X181991000Y-88902001I0J249999D01*
G01*
X181991000Y-88201999D01*
G75*
G02*
X182240999Y-87952000I249999J0D01*
G01*
G37*
G36*
G01*
X182240999Y-89952000D02*
X183141001Y-89952000D01*
G75*
G02*
X183391000Y-90201999I0J-249999D01*
G01*
X183391000Y-90902001D01*
G75*
G02*
X183141001Y-91152000I-249999J0D01*
G01*
X182240999Y-91152000D01*
G75*
G02*
X181991000Y-90902001I0J249999D01*
G01*
X181991000Y-90201999D01*
G75*
G02*
X182240999Y-89952000I249999J0D01*
G01*
G37*
%TD*%
%TO.C,R36*%
G36*
G01*
X125481000Y-86403000D02*
X126381002Y-86403000D01*
G75*
G02*
X126631001Y-86652999I0J-249999D01*
G01*
X126631001Y-87353001D01*
G75*
G02*
X126381002Y-87603000I-249999J0D01*
G01*
X125481000Y-87603000D01*
G75*
G02*
X125231001Y-87353001I0J249999D01*
G01*
X125231001Y-86652999D01*
G75*
G02*
X125481000Y-86403000I249999J0D01*
G01*
G37*
G36*
G01*
X125481000Y-88403000D02*
X126381002Y-88403000D01*
G75*
G02*
X126631001Y-88652999I0J-249999D01*
G01*
X126631001Y-89353001D01*
G75*
G02*
X126381002Y-89603000I-249999J0D01*
G01*
X125481000Y-89603000D01*
G75*
G02*
X125231001Y-89353001I0J249999D01*
G01*
X125231001Y-88652999D01*
G75*
G02*
X125481000Y-88403000I249999J0D01*
G01*
G37*
%TD*%
%TO.C,R34*%
G36*
G01*
X126381001Y-81888000D02*
X125480999Y-81888000D01*
G75*
G02*
X125231000Y-81638001I0J249999D01*
G01*
X125231000Y-80937999D01*
G75*
G02*
X125480999Y-80688000I249999J0D01*
G01*
X126381001Y-80688000D01*
G75*
G02*
X126631000Y-80937999I0J-249999D01*
G01*
X126631000Y-81638001D01*
G75*
G02*
X126381001Y-81888000I-249999J0D01*
G01*
G37*
G36*
G01*
X126381001Y-79888000D02*
X125480999Y-79888000D01*
G75*
G02*
X125231000Y-79638001I0J249999D01*
G01*
X125231000Y-78937999D01*
G75*
G02*
X125480999Y-78688000I249999J0D01*
G01*
X126381001Y-78688000D01*
G75*
G02*
X126631000Y-78937999I0J-249999D01*
G01*
X126631000Y-79638001D01*
G75*
G02*
X126381001Y-79888000I-249999J0D01*
G01*
G37*
%TD*%
%TO.C,R33*%
G36*
G01*
X125481000Y-90118000D02*
X126381002Y-90118000D01*
G75*
G02*
X126631001Y-90367999I0J-249999D01*
G01*
X126631001Y-91068001D01*
G75*
G02*
X126381002Y-91318000I-249999J0D01*
G01*
X125481000Y-91318000D01*
G75*
G02*
X125231001Y-91068001I0J249999D01*
G01*
X125231001Y-90367999D01*
G75*
G02*
X125481000Y-90118000I249999J0D01*
G01*
G37*
G36*
G01*
X125481000Y-92118000D02*
X126381002Y-92118000D01*
G75*
G02*
X126631001Y-92367999I0J-249999D01*
G01*
X126631001Y-93068001D01*
G75*
G02*
X126381002Y-93318000I-249999J0D01*
G01*
X125481000Y-93318000D01*
G75*
G02*
X125231001Y-93068001I0J249999D01*
G01*
X125231001Y-92367999D01*
G75*
G02*
X125481000Y-92118000I249999J0D01*
G01*
G37*
%TD*%
%TO.C,R32*%
G36*
G01*
X108791001Y-101088000D02*
X107890999Y-101088000D01*
G75*
G02*
X107641000Y-100838001I0J249999D01*
G01*
X107641000Y-100137999D01*
G75*
G02*
X107890999Y-99888000I249999J0D01*
G01*
X108791001Y-99888000D01*
G75*
G02*
X109041000Y-100137999I0J-249999D01*
G01*
X109041000Y-100838001D01*
G75*
G02*
X108791001Y-101088000I-249999J0D01*
G01*
G37*
G36*
G01*
X108791001Y-99088000D02*
X107890999Y-99088000D01*
G75*
G02*
X107641000Y-98838001I0J249999D01*
G01*
X107641000Y-98137999D01*
G75*
G02*
X107890999Y-97888000I249999J0D01*
G01*
X108791001Y-97888000D01*
G75*
G02*
X109041000Y-98137999I0J-249999D01*
G01*
X109041000Y-98838001D01*
G75*
G02*
X108791001Y-99088000I-249999J0D01*
G01*
G37*
%TD*%
%TO.C,R31*%
G36*
G01*
X108228999Y-87634000D02*
X109129001Y-87634000D01*
G75*
G02*
X109379000Y-87883999I0J-249999D01*
G01*
X109379000Y-88584001D01*
G75*
G02*
X109129001Y-88834000I-249999J0D01*
G01*
X108228999Y-88834000D01*
G75*
G02*
X107979000Y-88584001I0J249999D01*
G01*
X107979000Y-87883999D01*
G75*
G02*
X108228999Y-87634000I249999J0D01*
G01*
G37*
G36*
G01*
X108228999Y-89634000D02*
X109129001Y-89634000D01*
G75*
G02*
X109379000Y-89883999I0J-249999D01*
G01*
X109379000Y-90584001D01*
G75*
G02*
X109129001Y-90834000I-249999J0D01*
G01*
X108228999Y-90834000D01*
G75*
G02*
X107979000Y-90584001I0J249999D01*
G01*
X107979000Y-89883999D01*
G75*
G02*
X108228999Y-89634000I249999J0D01*
G01*
G37*
%TD*%
%TO.C,R44*%
G36*
G01*
X150109000Y-86420000D02*
X151009002Y-86420000D01*
G75*
G02*
X151259001Y-86669999I0J-249999D01*
G01*
X151259001Y-87370001D01*
G75*
G02*
X151009002Y-87620000I-249999J0D01*
G01*
X150109000Y-87620000D01*
G75*
G02*
X149859001Y-87370001I0J249999D01*
G01*
X149859001Y-86669999D01*
G75*
G02*
X150109000Y-86420000I249999J0D01*
G01*
G37*
G36*
G01*
X150109000Y-88420000D02*
X151009002Y-88420000D01*
G75*
G02*
X151259001Y-88669999I0J-249999D01*
G01*
X151259001Y-89370001D01*
G75*
G02*
X151009002Y-89620000I-249999J0D01*
G01*
X150109000Y-89620000D01*
G75*
G02*
X149859001Y-89370001I0J249999D01*
G01*
X149859001Y-88669999D01*
G75*
G02*
X150109000Y-88420000I249999J0D01*
G01*
G37*
%TD*%
%TO.C,R42*%
G36*
G01*
X151009001Y-81905000D02*
X150108999Y-81905000D01*
G75*
G02*
X149859000Y-81655001I0J249999D01*
G01*
X149859000Y-80954999D01*
G75*
G02*
X150108999Y-80705000I249999J0D01*
G01*
X151009001Y-80705000D01*
G75*
G02*
X151259000Y-80954999I0J-249999D01*
G01*
X151259000Y-81655001D01*
G75*
G02*
X151009001Y-81905000I-249999J0D01*
G01*
G37*
G36*
G01*
X151009001Y-79905000D02*
X150108999Y-79905000D01*
G75*
G02*
X149859000Y-79655001I0J249999D01*
G01*
X149859000Y-78954999D01*
G75*
G02*
X150108999Y-78705000I249999J0D01*
G01*
X151009001Y-78705000D01*
G75*
G02*
X151259000Y-78954999I0J-249999D01*
G01*
X151259000Y-79655001D01*
G75*
G02*
X151009001Y-79905000I-249999J0D01*
G01*
G37*
%TD*%
%TO.C,R41*%
G36*
G01*
X150109000Y-90135000D02*
X151009002Y-90135000D01*
G75*
G02*
X151259001Y-90384999I0J-249999D01*
G01*
X151259001Y-91085001D01*
G75*
G02*
X151009002Y-91335000I-249999J0D01*
G01*
X150109000Y-91335000D01*
G75*
G02*
X149859001Y-91085001I0J249999D01*
G01*
X149859001Y-90384999D01*
G75*
G02*
X150109000Y-90135000I249999J0D01*
G01*
G37*
G36*
G01*
X150109000Y-92135000D02*
X151009002Y-92135000D01*
G75*
G02*
X151259001Y-92384999I0J-249999D01*
G01*
X151259001Y-93085001D01*
G75*
G02*
X151009002Y-93335000I-249999J0D01*
G01*
X150109000Y-93335000D01*
G75*
G02*
X149859001Y-93085001I0J249999D01*
G01*
X149859001Y-92384999D01*
G75*
G02*
X150109000Y-92135000I249999J0D01*
G01*
G37*
%TD*%
%TO.C,R40*%
G36*
G01*
X133419001Y-101105000D02*
X132518999Y-101105000D01*
G75*
G02*
X132269000Y-100855001I0J249999D01*
G01*
X132269000Y-100154999D01*
G75*
G02*
X132518999Y-99905000I249999J0D01*
G01*
X133419001Y-99905000D01*
G75*
G02*
X133669000Y-100154999I0J-249999D01*
G01*
X133669000Y-100855001D01*
G75*
G02*
X133419001Y-101105000I-249999J0D01*
G01*
G37*
G36*
G01*
X133419001Y-99105000D02*
X132518999Y-99105000D01*
G75*
G02*
X132269000Y-98855001I0J249999D01*
G01*
X132269000Y-98154999D01*
G75*
G02*
X132518999Y-97905000I249999J0D01*
G01*
X133419001Y-97905000D01*
G75*
G02*
X133669000Y-98154999I0J-249999D01*
G01*
X133669000Y-98855001D01*
G75*
G02*
X133419001Y-99105000I-249999J0D01*
G01*
G37*
%TD*%
%TO.C,R39*%
G36*
G01*
X132856999Y-87651000D02*
X133757001Y-87651000D01*
G75*
G02*
X134007000Y-87900999I0J-249999D01*
G01*
X134007000Y-88601001D01*
G75*
G02*
X133757001Y-88851000I-249999J0D01*
G01*
X132856999Y-88851000D01*
G75*
G02*
X132607000Y-88601001I0J249999D01*
G01*
X132607000Y-87900999D01*
G75*
G02*
X132856999Y-87651000I249999J0D01*
G01*
G37*
G36*
G01*
X132856999Y-89651000D02*
X133757001Y-89651000D01*
G75*
G02*
X134007000Y-89900999I0J-249999D01*
G01*
X134007000Y-90601001D01*
G75*
G02*
X133757001Y-90851000I-249999J0D01*
G01*
X132856999Y-90851000D01*
G75*
G02*
X132607000Y-90601001I0J249999D01*
G01*
X132607000Y-89900999D01*
G75*
G02*
X132856999Y-89651000I249999J0D01*
G01*
G37*
%TD*%
%TO.C,D5*%
G36*
G01*
X206168999Y-94476000D02*
X207069001Y-94476000D01*
G75*
G02*
X207319000Y-94725999I0J-249999D01*
G01*
X207319000Y-95376001D01*
G75*
G02*
X207069001Y-95626000I-249999J0D01*
G01*
X206168999Y-95626000D01*
G75*
G02*
X205919000Y-95376001I0J249999D01*
G01*
X205919000Y-94725999D01*
G75*
G02*
X206168999Y-94476000I249999J0D01*
G01*
G37*
G36*
G01*
X206168999Y-96526000D02*
X207069001Y-96526000D01*
G75*
G02*
X207319000Y-96775999I0J-249999D01*
G01*
X207319000Y-97426001D01*
G75*
G02*
X207069001Y-97676000I-249999J0D01*
G01*
X206168999Y-97676000D01*
G75*
G02*
X205919000Y-97426001I0J249999D01*
G01*
X205919000Y-96775999D01*
G75*
G02*
X206168999Y-96526000I249999J0D01*
G01*
G37*
%TD*%
%TO.C,D4*%
G36*
G01*
X181892999Y-94222000D02*
X182793001Y-94222000D01*
G75*
G02*
X183043000Y-94471999I0J-249999D01*
G01*
X183043000Y-95122001D01*
G75*
G02*
X182793001Y-95372000I-249999J0D01*
G01*
X181892999Y-95372000D01*
G75*
G02*
X181643000Y-95122001I0J249999D01*
G01*
X181643000Y-94471999D01*
G75*
G02*
X181892999Y-94222000I249999J0D01*
G01*
G37*
G36*
G01*
X181892999Y-96272000D02*
X182793001Y-96272000D01*
G75*
G02*
X183043000Y-96521999I0J-249999D01*
G01*
X183043000Y-97172001D01*
G75*
G02*
X182793001Y-97422000I-249999J0D01*
G01*
X181892999Y-97422000D01*
G75*
G02*
X181643000Y-97172001I0J249999D01*
G01*
X181643000Y-96521999D01*
G75*
G02*
X181892999Y-96272000I249999J0D01*
G01*
G37*
%TD*%
%TO.C,D6*%
G36*
G01*
X107880999Y-93904000D02*
X108781001Y-93904000D01*
G75*
G02*
X109031000Y-94153999I0J-249999D01*
G01*
X109031000Y-94804001D01*
G75*
G02*
X108781001Y-95054000I-249999J0D01*
G01*
X107880999Y-95054000D01*
G75*
G02*
X107631000Y-94804001I0J249999D01*
G01*
X107631000Y-94153999D01*
G75*
G02*
X107880999Y-93904000I249999J0D01*
G01*
G37*
G36*
G01*
X107880999Y-95954000D02*
X108781001Y-95954000D01*
G75*
G02*
X109031000Y-96203999I0J-249999D01*
G01*
X109031000Y-96854001D01*
G75*
G02*
X108781001Y-97104000I-249999J0D01*
G01*
X107880999Y-97104000D01*
G75*
G02*
X107631000Y-96854001I0J249999D01*
G01*
X107631000Y-96203999D01*
G75*
G02*
X107880999Y-95954000I249999J0D01*
G01*
G37*
%TD*%
%TO.C,D7*%
G36*
G01*
X132508999Y-93921000D02*
X133409001Y-93921000D01*
G75*
G02*
X133659000Y-94170999I0J-249999D01*
G01*
X133659000Y-94821001D01*
G75*
G02*
X133409001Y-95071000I-249999J0D01*
G01*
X132508999Y-95071000D01*
G75*
G02*
X132259000Y-94821001I0J249999D01*
G01*
X132259000Y-94170999D01*
G75*
G02*
X132508999Y-93921000I249999J0D01*
G01*
G37*
G36*
G01*
X132508999Y-95971000D02*
X133409001Y-95971000D01*
G75*
G02*
X133659000Y-96220999I0J-249999D01*
G01*
X133659000Y-96871001D01*
G75*
G02*
X133409001Y-97121000I-249999J0D01*
G01*
X132508999Y-97121000D01*
G75*
G02*
X132259000Y-96871001I0J249999D01*
G01*
X132259000Y-96220999D01*
G75*
G02*
X132508999Y-95971000I249999J0D01*
G01*
G37*
%TD*%
D28*
%TO.C,U3*%
X162686000Y-96369000D03*
D27*
X160406000Y-90069000D03*
X161546000Y-90069000D03*
X163826000Y-90069000D03*
X164966000Y-90069000D03*
%TD*%
D29*
%TO.C,U2*%
G36*
X164974060Y-62620814D02*
G01*
X164966280Y-62624973D01*
X164957838Y-62627533D01*
X164949059Y-62628398D01*
X164760064Y-62628398D01*
X164751285Y-62627533D01*
X164742843Y-62624973D01*
X164735063Y-62620814D01*
X164728244Y-62615218D01*
X164709605Y-62596578D01*
X164704009Y-62589759D01*
X164699849Y-62581979D01*
X164697289Y-62573537D01*
X164696424Y-62564758D01*
X164697289Y-62555980D01*
X164699849Y-62547538D01*
X164704009Y-62539758D01*
X164709605Y-62532939D01*
X165179831Y-62062713D01*
X165186650Y-62057117D01*
X165194430Y-62052957D01*
X165202872Y-62050397D01*
X165211650Y-62049532D01*
X165220429Y-62050397D01*
X165228871Y-62052957D01*
X165236651Y-62057117D01*
X165243470Y-62062713D01*
X165356607Y-62175850D01*
X165362203Y-62182669D01*
X165366363Y-62190449D01*
X165368923Y-62198891D01*
X165369788Y-62207670D01*
X165368923Y-62216448D01*
X165366363Y-62224890D01*
X165362203Y-62232670D01*
X165356607Y-62239489D01*
X164980879Y-62615218D01*
X164974060Y-62620814D01*
G37*
G36*
G01*
X164902291Y-61721534D02*
X164990679Y-61809922D01*
G75*
G02*
X164990679Y-61898310I-44194J-44194D01*
G01*
X164460349Y-62428640D01*
G75*
G02*
X164371961Y-62428640I-44194J44194D01*
G01*
X164283573Y-62340252D01*
G75*
G02*
X164283573Y-62251864I44194J44194D01*
G01*
X164813903Y-61721534D01*
G75*
G02*
X164902291Y-61721534I44194J-44194D01*
G01*
G37*
G36*
G01*
X164548738Y-61367981D02*
X164637126Y-61456369D01*
G75*
G02*
X164637126Y-61544757I-44194J-44194D01*
G01*
X164106796Y-62075087D01*
G75*
G02*
X164018408Y-62075087I-44194J44194D01*
G01*
X163930020Y-61986699D01*
G75*
G02*
X163930020Y-61898311I44194J44194D01*
G01*
X164460350Y-61367981D01*
G75*
G02*
X164548738Y-61367981I44194J-44194D01*
G01*
G37*
G36*
G01*
X164195184Y-61014428D02*
X164283572Y-61102816D01*
G75*
G02*
X164283572Y-61191204I-44194J-44194D01*
G01*
X163753242Y-61721534D01*
G75*
G02*
X163664854Y-61721534I-44194J44194D01*
G01*
X163576466Y-61633146D01*
G75*
G02*
X163576466Y-61544758I44194J44194D01*
G01*
X164106796Y-61014428D01*
G75*
G02*
X164195184Y-61014428I44194J-44194D01*
G01*
G37*
G36*
G01*
X163841631Y-60660874D02*
X163930019Y-60749262D01*
G75*
G02*
X163930019Y-60837650I-44194J-44194D01*
G01*
X163399689Y-61367980D01*
G75*
G02*
X163311301Y-61367980I-44194J44194D01*
G01*
X163222913Y-61279592D01*
G75*
G02*
X163222913Y-61191204I44194J44194D01*
G01*
X163753243Y-60660874D01*
G75*
G02*
X163841631Y-60660874I44194J-44194D01*
G01*
G37*
G36*
G01*
X163488078Y-60307321D02*
X163576466Y-60395709D01*
G75*
G02*
X163576466Y-60484097I-44194J-44194D01*
G01*
X163046136Y-61014427D01*
G75*
G02*
X162957748Y-61014427I-44194J44194D01*
G01*
X162869360Y-60926039D01*
G75*
G02*
X162869360Y-60837651I44194J44194D01*
G01*
X163399690Y-60307321D01*
G75*
G02*
X163488078Y-60307321I44194J-44194D01*
G01*
G37*
G36*
X162758242Y-60593991D02*
G01*
X162750462Y-60598151D01*
X162742020Y-60600711D01*
X162733242Y-60601576D01*
X162724463Y-60600711D01*
X162716021Y-60598151D01*
X162708241Y-60593991D01*
X162701422Y-60588395D01*
X162682782Y-60569756D01*
X162677186Y-60562937D01*
X162673027Y-60555157D01*
X162670467Y-60546715D01*
X162669602Y-60537936D01*
X162669602Y-60348941D01*
X162670467Y-60340162D01*
X162673027Y-60331720D01*
X162677186Y-60323940D01*
X162682782Y-60317121D01*
X163058511Y-59941393D01*
X163065330Y-59935797D01*
X163073110Y-59931637D01*
X163081552Y-59929077D01*
X163090330Y-59928212D01*
X163099109Y-59929077D01*
X163107551Y-59931637D01*
X163115331Y-59935797D01*
X163122150Y-59941393D01*
X163235287Y-60054530D01*
X163240883Y-60061349D01*
X163245043Y-60069129D01*
X163247603Y-60077571D01*
X163248468Y-60086350D01*
X163247603Y-60095128D01*
X163245043Y-60103570D01*
X163240883Y-60111350D01*
X163235287Y-60118169D01*
X162765061Y-60588395D01*
X162758242Y-60593991D01*
G37*
G36*
X162411759Y-60593991D02*
G01*
X162403979Y-60598151D01*
X162395537Y-60600711D01*
X162386758Y-60601576D01*
X162377980Y-60600711D01*
X162369538Y-60598151D01*
X162361758Y-60593991D01*
X162354939Y-60588395D01*
X161884713Y-60118169D01*
X161879117Y-60111350D01*
X161874957Y-60103570D01*
X161872397Y-60095128D01*
X161871532Y-60086350D01*
X161872397Y-60077571D01*
X161874957Y-60069129D01*
X161879117Y-60061349D01*
X161884713Y-60054530D01*
X161997850Y-59941393D01*
X162004669Y-59935797D01*
X162012449Y-59931637D01*
X162020891Y-59929077D01*
X162029670Y-59928212D01*
X162038448Y-59929077D01*
X162046890Y-59931637D01*
X162054670Y-59935797D01*
X162061489Y-59941393D01*
X162437218Y-60317121D01*
X162442814Y-60323940D01*
X162446973Y-60331720D01*
X162449533Y-60340162D01*
X162450398Y-60348941D01*
X162450398Y-60537936D01*
X162449533Y-60546715D01*
X162446973Y-60555157D01*
X162442814Y-60562937D01*
X162437218Y-60569756D01*
X162418578Y-60588395D01*
X162411759Y-60593991D01*
G37*
G36*
G01*
X161720310Y-60307321D02*
X162250640Y-60837651D01*
G75*
G02*
X162250640Y-60926039I-44194J-44194D01*
G01*
X162162252Y-61014427D01*
G75*
G02*
X162073864Y-61014427I-44194J44194D01*
G01*
X161543534Y-60484097D01*
G75*
G02*
X161543534Y-60395709I44194J44194D01*
G01*
X161631922Y-60307321D01*
G75*
G02*
X161720310Y-60307321I44194J-44194D01*
G01*
G37*
G36*
G01*
X161366757Y-60660874D02*
X161897087Y-61191204D01*
G75*
G02*
X161897087Y-61279592I-44194J-44194D01*
G01*
X161808699Y-61367980D01*
G75*
G02*
X161720311Y-61367980I-44194J44194D01*
G01*
X161189981Y-60837650D01*
G75*
G02*
X161189981Y-60749262I44194J44194D01*
G01*
X161278369Y-60660874D01*
G75*
G02*
X161366757Y-60660874I44194J-44194D01*
G01*
G37*
G36*
G01*
X161013204Y-61014428D02*
X161543534Y-61544758D01*
G75*
G02*
X161543534Y-61633146I-44194J-44194D01*
G01*
X161455146Y-61721534D01*
G75*
G02*
X161366758Y-61721534I-44194J44194D01*
G01*
X160836428Y-61191204D01*
G75*
G02*
X160836428Y-61102816I44194J44194D01*
G01*
X160924816Y-61014428D01*
G75*
G02*
X161013204Y-61014428I44194J-44194D01*
G01*
G37*
G36*
G01*
X160659650Y-61367981D02*
X161189980Y-61898311D01*
G75*
G02*
X161189980Y-61986699I-44194J-44194D01*
G01*
X161101592Y-62075087D01*
G75*
G02*
X161013204Y-62075087I-44194J44194D01*
G01*
X160482874Y-61544757D01*
G75*
G02*
X160482874Y-61456369I44194J44194D01*
G01*
X160571262Y-61367981D01*
G75*
G02*
X160659650Y-61367981I44194J-44194D01*
G01*
G37*
G36*
G01*
X160306097Y-61721534D02*
X160836427Y-62251864D01*
G75*
G02*
X160836427Y-62340252I-44194J-44194D01*
G01*
X160748039Y-62428640D01*
G75*
G02*
X160659651Y-62428640I-44194J44194D01*
G01*
X160129321Y-61898310D01*
G75*
G02*
X160129321Y-61809922I44194J44194D01*
G01*
X160217709Y-61721534D01*
G75*
G02*
X160306097Y-61721534I44194J-44194D01*
G01*
G37*
G36*
X160384937Y-62620814D02*
G01*
X160377157Y-62624973D01*
X160368715Y-62627533D01*
X160359936Y-62628398D01*
X160170941Y-62628398D01*
X160162162Y-62627533D01*
X160153720Y-62624973D01*
X160145940Y-62620814D01*
X160139121Y-62615218D01*
X159763393Y-62239489D01*
X159757797Y-62232670D01*
X159753637Y-62224890D01*
X159751077Y-62216448D01*
X159750212Y-62207670D01*
X159751077Y-62198891D01*
X159753637Y-62190449D01*
X159757797Y-62182669D01*
X159763393Y-62175850D01*
X159876530Y-62062713D01*
X159883349Y-62057117D01*
X159891129Y-62052957D01*
X159899571Y-62050397D01*
X159908350Y-62049532D01*
X159917128Y-62050397D01*
X159925570Y-62052957D01*
X159933350Y-62057117D01*
X159940169Y-62062713D01*
X160410395Y-62532939D01*
X160415991Y-62539758D01*
X160420151Y-62547538D01*
X160422711Y-62555980D01*
X160423576Y-62564758D01*
X160422711Y-62573537D01*
X160420151Y-62581979D01*
X160415991Y-62589759D01*
X160410395Y-62596578D01*
X160391756Y-62615218D01*
X160384937Y-62620814D01*
G37*
G36*
X159933350Y-63418883D02*
G01*
X159925570Y-63423043D01*
X159917128Y-63425603D01*
X159908350Y-63426468D01*
X159899571Y-63425603D01*
X159891129Y-63423043D01*
X159883349Y-63418883D01*
X159876530Y-63413287D01*
X159763393Y-63300150D01*
X159757797Y-63293331D01*
X159753637Y-63285551D01*
X159751077Y-63277109D01*
X159750212Y-63268330D01*
X159751077Y-63259552D01*
X159753637Y-63251110D01*
X159757797Y-63243330D01*
X159763393Y-63236511D01*
X160139121Y-62860782D01*
X160145940Y-62855186D01*
X160153720Y-62851027D01*
X160162162Y-62848467D01*
X160170941Y-62847602D01*
X160359936Y-62847602D01*
X160368715Y-62848467D01*
X160377157Y-62851027D01*
X160384937Y-62855186D01*
X160391756Y-62860782D01*
X160410395Y-62879422D01*
X160415991Y-62886241D01*
X160420151Y-62894021D01*
X160422711Y-62902463D01*
X160423576Y-62911242D01*
X160422711Y-62920020D01*
X160420151Y-62928462D01*
X160415991Y-62936242D01*
X160410395Y-62943061D01*
X159940169Y-63413287D01*
X159933350Y-63418883D01*
G37*
G36*
G01*
X160748039Y-63047360D02*
X160836427Y-63135748D01*
G75*
G02*
X160836427Y-63224136I-44194J-44194D01*
G01*
X160306097Y-63754466D01*
G75*
G02*
X160217709Y-63754466I-44194J44194D01*
G01*
X160129321Y-63666078D01*
G75*
G02*
X160129321Y-63577690I44194J44194D01*
G01*
X160659651Y-63047360D01*
G75*
G02*
X160748039Y-63047360I44194J-44194D01*
G01*
G37*
G36*
G01*
X161101592Y-63400913D02*
X161189980Y-63489301D01*
G75*
G02*
X161189980Y-63577689I-44194J-44194D01*
G01*
X160659650Y-64108019D01*
G75*
G02*
X160571262Y-64108019I-44194J44194D01*
G01*
X160482874Y-64019631D01*
G75*
G02*
X160482874Y-63931243I44194J44194D01*
G01*
X161013204Y-63400913D01*
G75*
G02*
X161101592Y-63400913I44194J-44194D01*
G01*
G37*
G36*
G01*
X161455146Y-63754466D02*
X161543534Y-63842854D01*
G75*
G02*
X161543534Y-63931242I-44194J-44194D01*
G01*
X161013204Y-64461572D01*
G75*
G02*
X160924816Y-64461572I-44194J44194D01*
G01*
X160836428Y-64373184D01*
G75*
G02*
X160836428Y-64284796I44194J44194D01*
G01*
X161366758Y-63754466D01*
G75*
G02*
X161455146Y-63754466I44194J-44194D01*
G01*
G37*
G36*
G01*
X161808699Y-64108020D02*
X161897087Y-64196408D01*
G75*
G02*
X161897087Y-64284796I-44194J-44194D01*
G01*
X161366757Y-64815126D01*
G75*
G02*
X161278369Y-64815126I-44194J44194D01*
G01*
X161189981Y-64726738D01*
G75*
G02*
X161189981Y-64638350I44194J44194D01*
G01*
X161720311Y-64108020D01*
G75*
G02*
X161808699Y-64108020I44194J-44194D01*
G01*
G37*
G36*
G01*
X162162252Y-64461573D02*
X162250640Y-64549961D01*
G75*
G02*
X162250640Y-64638349I-44194J-44194D01*
G01*
X161720310Y-65168679D01*
G75*
G02*
X161631922Y-65168679I-44194J44194D01*
G01*
X161543534Y-65080291D01*
G75*
G02*
X161543534Y-64991903I44194J44194D01*
G01*
X162073864Y-64461573D01*
G75*
G02*
X162162252Y-64461573I44194J-44194D01*
G01*
G37*
G36*
X162054670Y-65540203D02*
G01*
X162046890Y-65544363D01*
X162038448Y-65546923D01*
X162029670Y-65547788D01*
X162020891Y-65546923D01*
X162012449Y-65544363D01*
X162004669Y-65540203D01*
X161997850Y-65534607D01*
X161884713Y-65421470D01*
X161879117Y-65414651D01*
X161874957Y-65406871D01*
X161872397Y-65398429D01*
X161871532Y-65389650D01*
X161872397Y-65380872D01*
X161874957Y-65372430D01*
X161879117Y-65364650D01*
X161884713Y-65357831D01*
X162354939Y-64887605D01*
X162361758Y-64882009D01*
X162369538Y-64877849D01*
X162377980Y-64875289D01*
X162386758Y-64874424D01*
X162395537Y-64875289D01*
X162403979Y-64877849D01*
X162411759Y-64882009D01*
X162418578Y-64887605D01*
X162437218Y-64906244D01*
X162442814Y-64913063D01*
X162446973Y-64920843D01*
X162449533Y-64929285D01*
X162450398Y-64938064D01*
X162450398Y-65127059D01*
X162449533Y-65135838D01*
X162446973Y-65144280D01*
X162442814Y-65152060D01*
X162437218Y-65158879D01*
X162061489Y-65534607D01*
X162054670Y-65540203D01*
G37*
G36*
X163115331Y-65540203D02*
G01*
X163107551Y-65544363D01*
X163099109Y-65546923D01*
X163090330Y-65547788D01*
X163081552Y-65546923D01*
X163073110Y-65544363D01*
X163065330Y-65540203D01*
X163058511Y-65534607D01*
X162682782Y-65158879D01*
X162677186Y-65152060D01*
X162673027Y-65144280D01*
X162670467Y-65135838D01*
X162669602Y-65127059D01*
X162669602Y-64938064D01*
X162670467Y-64929285D01*
X162673027Y-64920843D01*
X162677186Y-64913063D01*
X162682782Y-64906244D01*
X162701422Y-64887605D01*
X162708241Y-64882009D01*
X162716021Y-64877849D01*
X162724463Y-64875289D01*
X162733242Y-64874424D01*
X162742020Y-64875289D01*
X162750462Y-64877849D01*
X162758242Y-64882009D01*
X162765061Y-64887605D01*
X163235287Y-65357831D01*
X163240883Y-65364650D01*
X163245043Y-65372430D01*
X163247603Y-65380872D01*
X163248468Y-65389650D01*
X163247603Y-65398429D01*
X163245043Y-65406871D01*
X163240883Y-65414651D01*
X163235287Y-65421470D01*
X163122150Y-65534607D01*
X163115331Y-65540203D01*
G37*
G36*
G01*
X163046136Y-64461573D02*
X163576466Y-64991903D01*
G75*
G02*
X163576466Y-65080291I-44194J-44194D01*
G01*
X163488078Y-65168679D01*
G75*
G02*
X163399690Y-65168679I-44194J44194D01*
G01*
X162869360Y-64638349D01*
G75*
G02*
X162869360Y-64549961I44194J44194D01*
G01*
X162957748Y-64461573D01*
G75*
G02*
X163046136Y-64461573I44194J-44194D01*
G01*
G37*
G36*
G01*
X163399689Y-64108020D02*
X163930019Y-64638350D01*
G75*
G02*
X163930019Y-64726738I-44194J-44194D01*
G01*
X163841631Y-64815126D01*
G75*
G02*
X163753243Y-64815126I-44194J44194D01*
G01*
X163222913Y-64284796D01*
G75*
G02*
X163222913Y-64196408I44194J44194D01*
G01*
X163311301Y-64108020D01*
G75*
G02*
X163399689Y-64108020I44194J-44194D01*
G01*
G37*
G36*
G01*
X163753242Y-63754466D02*
X164283572Y-64284796D01*
G75*
G02*
X164283572Y-64373184I-44194J-44194D01*
G01*
X164195184Y-64461572D01*
G75*
G02*
X164106796Y-64461572I-44194J44194D01*
G01*
X163576466Y-63931242D01*
G75*
G02*
X163576466Y-63842854I44194J44194D01*
G01*
X163664854Y-63754466D01*
G75*
G02*
X163753242Y-63754466I44194J-44194D01*
G01*
G37*
G36*
G01*
X164106796Y-63400913D02*
X164637126Y-63931243D01*
G75*
G02*
X164637126Y-64019631I-44194J-44194D01*
G01*
X164548738Y-64108019D01*
G75*
G02*
X164460350Y-64108019I-44194J44194D01*
G01*
X163930020Y-63577689D01*
G75*
G02*
X163930020Y-63489301I44194J44194D01*
G01*
X164018408Y-63400913D01*
G75*
G02*
X164106796Y-63400913I44194J-44194D01*
G01*
G37*
G36*
G01*
X164460349Y-63047360D02*
X164990679Y-63577690D01*
G75*
G02*
X164990679Y-63666078I-44194J-44194D01*
G01*
X164902291Y-63754466D01*
G75*
G02*
X164813903Y-63754466I-44194J44194D01*
G01*
X164283573Y-63224136D01*
G75*
G02*
X164283573Y-63135748I44194J44194D01*
G01*
X164371961Y-63047360D01*
G75*
G02*
X164460349Y-63047360I44194J-44194D01*
G01*
G37*
G36*
X165236651Y-63418883D02*
G01*
X165228871Y-63423043D01*
X165220429Y-63425603D01*
X165211650Y-63426468D01*
X165202872Y-63425603D01*
X165194430Y-63423043D01*
X165186650Y-63418883D01*
X165179831Y-63413287D01*
X164709605Y-62943061D01*
X164704009Y-62936242D01*
X164699849Y-62928462D01*
X164697289Y-62920020D01*
X164696424Y-62911242D01*
X164697289Y-62902463D01*
X164699849Y-62894021D01*
X164704009Y-62886241D01*
X164709605Y-62879422D01*
X164728244Y-62860782D01*
X164735063Y-62855186D01*
X164742843Y-62851027D01*
X164751285Y-62848467D01*
X164760064Y-62847602D01*
X164949059Y-62847602D01*
X164957838Y-62848467D01*
X164966280Y-62851027D01*
X164974060Y-62855186D01*
X164980879Y-62860782D01*
X165356607Y-63236511D01*
X165362203Y-63243330D01*
X165366363Y-63251110D01*
X165368923Y-63259552D01*
X165369788Y-63268330D01*
X165368923Y-63277109D01*
X165366363Y-63285551D01*
X165362203Y-63293331D01*
X165356607Y-63300150D01*
X165243470Y-63413287D01*
X165236651Y-63418883D01*
G37*
%TD*%
%TO.C,U1*%
G36*
G01*
X199540000Y-67300001D02*
X199540000Y-67000001D01*
G75*
G02*
X199690000Y-66850001I150000J0D01*
G01*
X201340000Y-66850001D01*
G75*
G02*
X201490000Y-67000001I0J-150000D01*
G01*
X201490000Y-67300001D01*
G75*
G02*
X201340000Y-67450001I-150000J0D01*
G01*
X199690000Y-67450001D01*
G75*
G02*
X199540000Y-67300001I0J150000D01*
G01*
G37*
G36*
G01*
X199540000Y-68570001D02*
X199540000Y-68270001D01*
G75*
G02*
X199690000Y-68120001I150000J0D01*
G01*
X201340000Y-68120001D01*
G75*
G02*
X201490000Y-68270001I0J-150000D01*
G01*
X201490000Y-68570001D01*
G75*
G02*
X201340000Y-68720001I-150000J0D01*
G01*
X199690000Y-68720001D01*
G75*
G02*
X199540000Y-68570001I0J150000D01*
G01*
G37*
G36*
G01*
X199540000Y-69840001D02*
X199540000Y-69540001D01*
G75*
G02*
X199690000Y-69390001I150000J0D01*
G01*
X201340000Y-69390001D01*
G75*
G02*
X201490000Y-69540001I0J-150000D01*
G01*
X201490000Y-69840001D01*
G75*
G02*
X201340000Y-69990001I-150000J0D01*
G01*
X199690000Y-69990001D01*
G75*
G02*
X199540000Y-69840001I0J150000D01*
G01*
G37*
G36*
G01*
X199540000Y-71110001D02*
X199540000Y-70810001D01*
G75*
G02*
X199690000Y-70660001I150000J0D01*
G01*
X201340000Y-70660001D01*
G75*
G02*
X201490000Y-70810001I0J-150000D01*
G01*
X201490000Y-71110001D01*
G75*
G02*
X201340000Y-71260001I-150000J0D01*
G01*
X199690000Y-71260001D01*
G75*
G02*
X199540000Y-71110001I0J150000D01*
G01*
G37*
G36*
G01*
X204490000Y-71110001D02*
X204490000Y-70810001D01*
G75*
G02*
X204640000Y-70660001I150000J0D01*
G01*
X206290000Y-70660001D01*
G75*
G02*
X206440000Y-70810001I0J-150000D01*
G01*
X206440000Y-71110001D01*
G75*
G02*
X206290000Y-71260001I-150000J0D01*
G01*
X204640000Y-71260001D01*
G75*
G02*
X204490000Y-71110001I0J150000D01*
G01*
G37*
G36*
G01*
X204490000Y-69840001D02*
X204490000Y-69540001D01*
G75*
G02*
X204640000Y-69390001I150000J0D01*
G01*
X206290000Y-69390001D01*
G75*
G02*
X206440000Y-69540001I0J-150000D01*
G01*
X206440000Y-69840001D01*
G75*
G02*
X206290000Y-69990001I-150000J0D01*
G01*
X204640000Y-69990001D01*
G75*
G02*
X204490000Y-69840001I0J150000D01*
G01*
G37*
G36*
G01*
X204490000Y-68570001D02*
X204490000Y-68270001D01*
G75*
G02*
X204640000Y-68120001I150000J0D01*
G01*
X206290000Y-68120001D01*
G75*
G02*
X206440000Y-68270001I0J-150000D01*
G01*
X206440000Y-68570001D01*
G75*
G02*
X206290000Y-68720001I-150000J0D01*
G01*
X204640000Y-68720001D01*
G75*
G02*
X204490000Y-68570001I0J150000D01*
G01*
G37*
G36*
G01*
X204490000Y-67300001D02*
X204490000Y-67000001D01*
G75*
G02*
X204640000Y-66850001I150000J0D01*
G01*
X206290000Y-66850001D01*
G75*
G02*
X206440000Y-67000001I0J-150000D01*
G01*
X206440000Y-67300001D01*
G75*
G02*
X206290000Y-67450001I-150000J0D01*
G01*
X204640000Y-67450001D01*
G75*
G02*
X204490000Y-67300001I0J150000D01*
G01*
G37*
%TD*%
D21*
%TO.C,Vout_TP1*%
X177292000Y-98806000D03*
%TD*%
D30*
%TO.C,SW1*%
X149558501Y-57224000D03*
X149558501Y-61724000D03*
X143058501Y-57224000D03*
X143058501Y-61724000D03*
%TD*%
%TO.C,R12*%
G36*
G01*
X174917000Y-86561000D02*
X175817002Y-86561000D01*
G75*
G02*
X176067001Y-86810999I0J-249999D01*
G01*
X176067001Y-87511001D01*
G75*
G02*
X175817002Y-87761000I-249999J0D01*
G01*
X174917000Y-87761000D01*
G75*
G02*
X174667001Y-87511001I0J249999D01*
G01*
X174667001Y-86810999D01*
G75*
G02*
X174917000Y-86561000I249999J0D01*
G01*
G37*
G36*
G01*
X174917000Y-88561000D02*
X175817002Y-88561000D01*
G75*
G02*
X176067001Y-88810999I0J-249999D01*
G01*
X176067001Y-89511001D01*
G75*
G02*
X175817002Y-89761000I-249999J0D01*
G01*
X174917000Y-89761000D01*
G75*
G02*
X174667001Y-89511001I0J249999D01*
G01*
X174667001Y-88810999D01*
G75*
G02*
X174917000Y-88561000I249999J0D01*
G01*
G37*
%TD*%
%TO.C,R10*%
G36*
G01*
X175817001Y-82046000D02*
X174916999Y-82046000D01*
G75*
G02*
X174667000Y-81796001I0J249999D01*
G01*
X174667000Y-81095999D01*
G75*
G02*
X174916999Y-80846000I249999J0D01*
G01*
X175817001Y-80846000D01*
G75*
G02*
X176067000Y-81095999I0J-249999D01*
G01*
X176067000Y-81796001D01*
G75*
G02*
X175817001Y-82046000I-249999J0D01*
G01*
G37*
G36*
G01*
X175817001Y-80046000D02*
X174916999Y-80046000D01*
G75*
G02*
X174667000Y-79796001I0J249999D01*
G01*
X174667000Y-79095999D01*
G75*
G02*
X174916999Y-78846000I249999J0D01*
G01*
X175817001Y-78846000D01*
G75*
G02*
X176067000Y-79095999I0J-249999D01*
G01*
X176067000Y-79796001D01*
G75*
G02*
X175817001Y-80046000I-249999J0D01*
G01*
G37*
%TD*%
%TO.C,R9*%
G36*
G01*
X174917000Y-90276000D02*
X175817002Y-90276000D01*
G75*
G02*
X176067001Y-90525999I0J-249999D01*
G01*
X176067001Y-91226001D01*
G75*
G02*
X175817002Y-91476000I-249999J0D01*
G01*
X174917000Y-91476000D01*
G75*
G02*
X174667001Y-91226001I0J249999D01*
G01*
X174667001Y-90525999D01*
G75*
G02*
X174917000Y-90276000I249999J0D01*
G01*
G37*
G36*
G01*
X174917000Y-92276000D02*
X175817002Y-92276000D01*
G75*
G02*
X176067001Y-92525999I0J-249999D01*
G01*
X176067001Y-93226001D01*
G75*
G02*
X175817002Y-93476000I-249999J0D01*
G01*
X174917000Y-93476000D01*
G75*
G02*
X174667001Y-93226001I0J249999D01*
G01*
X174667001Y-92525999D01*
G75*
G02*
X174917000Y-92276000I249999J0D01*
G01*
G37*
%TD*%
%TO.C,R8*%
G36*
G01*
X158227001Y-99246000D02*
X157326999Y-99246000D01*
G75*
G02*
X157077000Y-98996001I0J249999D01*
G01*
X157077000Y-98295999D01*
G75*
G02*
X157326999Y-98046000I249999J0D01*
G01*
X158227001Y-98046000D01*
G75*
G02*
X158477000Y-98295999I0J-249999D01*
G01*
X158477000Y-98996001D01*
G75*
G02*
X158227001Y-99246000I-249999J0D01*
G01*
G37*
G36*
G01*
X158227001Y-101246000D02*
X157326999Y-101246000D01*
G75*
G02*
X157077000Y-100996001I0J249999D01*
G01*
X157077000Y-100295999D01*
G75*
G02*
X157326999Y-100046000I249999J0D01*
G01*
X158227001Y-100046000D01*
G75*
G02*
X158477000Y-100295999I0J-249999D01*
G01*
X158477000Y-100996001D01*
G75*
G02*
X158227001Y-101246000I-249999J0D01*
G01*
G37*
%TD*%
%TO.C,R7*%
G36*
G01*
X157664999Y-87792000D02*
X158565001Y-87792000D01*
G75*
G02*
X158815000Y-88041999I0J-249999D01*
G01*
X158815000Y-88742001D01*
G75*
G02*
X158565001Y-88992000I-249999J0D01*
G01*
X157664999Y-88992000D01*
G75*
G02*
X157415000Y-88742001I0J249999D01*
G01*
X157415000Y-88041999D01*
G75*
G02*
X157664999Y-87792000I249999J0D01*
G01*
G37*
G36*
G01*
X157664999Y-89792000D02*
X158565001Y-89792000D01*
G75*
G02*
X158815000Y-90041999I0J-249999D01*
G01*
X158815000Y-90742001D01*
G75*
G02*
X158565001Y-90992000I-249999J0D01*
G01*
X157664999Y-90992000D01*
G75*
G02*
X157415000Y-90742001I0J249999D01*
G01*
X157415000Y-90041999D01*
G75*
G02*
X157664999Y-89792000I249999J0D01*
G01*
G37*
%TD*%
%TO.C,R4*%
G36*
G01*
X140848501Y-57099001D02*
X139948499Y-57099001D01*
G75*
G02*
X139698500Y-56849002I0J249999D01*
G01*
X139698500Y-56149000D01*
G75*
G02*
X139948499Y-55899001I249999J0D01*
G01*
X140848501Y-55899001D01*
G75*
G02*
X141098500Y-56149000I0J-249999D01*
G01*
X141098500Y-56849002D01*
G75*
G02*
X140848501Y-57099001I-249999J0D01*
G01*
G37*
G36*
G01*
X140848501Y-55099001D02*
X139948499Y-55099001D01*
G75*
G02*
X139698500Y-54849002I0J249999D01*
G01*
X139698500Y-54149000D01*
G75*
G02*
X139948499Y-53899001I249999J0D01*
G01*
X140848501Y-53899001D01*
G75*
G02*
X141098500Y-54149000I0J-249999D01*
G01*
X141098500Y-54849002D01*
G75*
G02*
X140848501Y-55099001I-249999J0D01*
G01*
G37*
%TD*%
%TO.C,R3*%
G36*
G01*
X142402000Y-64712001D02*
X142402000Y-63811999D01*
G75*
G02*
X142651999Y-63562000I249999J0D01*
G01*
X143352001Y-63562000D01*
G75*
G02*
X143602000Y-63811999I0J-249999D01*
G01*
X143602000Y-64712001D01*
G75*
G02*
X143352001Y-64962000I-249999J0D01*
G01*
X142651999Y-64962000D01*
G75*
G02*
X142402000Y-64712001I0J249999D01*
G01*
G37*
G36*
G01*
X144402000Y-64712001D02*
X144402000Y-63811999D01*
G75*
G02*
X144651999Y-63562000I249999J0D01*
G01*
X145352001Y-63562000D01*
G75*
G02*
X145602000Y-63811999I0J-249999D01*
G01*
X145602000Y-64712001D01*
G75*
G02*
X145352001Y-64962000I-249999J0D01*
G01*
X144651999Y-64962000D01*
G75*
G02*
X144402000Y-64712001I0J249999D01*
G01*
G37*
%TD*%
%TO.C,D3*%
G36*
G01*
X157316999Y-96112000D02*
X158217001Y-96112000D01*
G75*
G02*
X158467000Y-96361999I0J-249999D01*
G01*
X158467000Y-97012001D01*
G75*
G02*
X158217001Y-97262000I-249999J0D01*
G01*
X157316999Y-97262000D01*
G75*
G02*
X157067000Y-97012001I0J249999D01*
G01*
X157067000Y-96361999D01*
G75*
G02*
X157316999Y-96112000I249999J0D01*
G01*
G37*
G36*
G01*
X157316999Y-94062000D02*
X158217001Y-94062000D01*
G75*
G02*
X158467000Y-94311999I0J-249999D01*
G01*
X158467000Y-94962001D01*
G75*
G02*
X158217001Y-95212000I-249999J0D01*
G01*
X157316999Y-95212000D01*
G75*
G02*
X157067000Y-94962001I0J249999D01*
G01*
X157067000Y-94311999D01*
G75*
G02*
X157316999Y-94062000I249999J0D01*
G01*
G37*
%TD*%
%TO.C,D2*%
G36*
G01*
X140848503Y-60909000D02*
X139948501Y-60909000D01*
G75*
G02*
X139698502Y-60659001I0J249999D01*
G01*
X139698502Y-60008999D01*
G75*
G02*
X139948501Y-59759000I249999J0D01*
G01*
X140848503Y-59759000D01*
G75*
G02*
X141098502Y-60008999I0J-249999D01*
G01*
X141098502Y-60659001D01*
G75*
G02*
X140848503Y-60909000I-249999J0D01*
G01*
G37*
G36*
G01*
X140848503Y-58859000D02*
X139948501Y-58859000D01*
G75*
G02*
X139698502Y-58609001I0J249999D01*
G01*
X139698502Y-57958999D01*
G75*
G02*
X139948501Y-57709000I249999J0D01*
G01*
X140848503Y-57709000D01*
G75*
G02*
X141098502Y-57958999I0J-249999D01*
G01*
X141098502Y-58609001D01*
G75*
G02*
X140848503Y-58859000I-249999J0D01*
G01*
G37*
%TD*%
D21*
%TO.C,CANH_TP1*%
X207645002Y-73025000D03*
%TD*%
%TO.C,C6*%
G36*
G01*
X145469500Y-53980999D02*
X145469500Y-54930999D01*
G75*
G02*
X145219500Y-55180999I-250000J0D01*
G01*
X144544500Y-55180999D01*
G75*
G02*
X144294500Y-54930999I0J250000D01*
G01*
X144294500Y-53980999D01*
G75*
G02*
X144544500Y-53730999I250000J0D01*
G01*
X145219500Y-53730999D01*
G75*
G02*
X145469500Y-53980999I0J-250000D01*
G01*
G37*
G36*
G01*
X143394500Y-53980999D02*
X143394500Y-54930999D01*
G75*
G02*
X143144500Y-55180999I-250000J0D01*
G01*
X142469500Y-55180999D01*
G75*
G02*
X142219500Y-54930999I0J250000D01*
G01*
X142219500Y-53980999D01*
G75*
G02*
X142469500Y-53730999I250000J0D01*
G01*
X143144500Y-53730999D01*
G75*
G02*
X143394500Y-53980999I0J-250000D01*
G01*
G37*
%TD*%
%TO.C,C3*%
G36*
G01*
X169773000Y-59723000D02*
X169773000Y-60673000D01*
G75*
G02*
X169523000Y-60923000I-250000J0D01*
G01*
X168848000Y-60923000D01*
G75*
G02*
X168598000Y-60673000I0J250000D01*
G01*
X168598000Y-59723000D01*
G75*
G02*
X168848000Y-59473000I250000J0D01*
G01*
X169523000Y-59473000D01*
G75*
G02*
X169773000Y-59723000I0J-250000D01*
G01*
G37*
G36*
G01*
X167698000Y-59723000D02*
X167698000Y-60673000D01*
G75*
G02*
X167448000Y-60923000I-250000J0D01*
G01*
X166773000Y-60923000D01*
G75*
G02*
X166523000Y-60673000I0J250000D01*
G01*
X166523000Y-59723000D01*
G75*
G02*
X166773000Y-59473000I250000J0D01*
G01*
X167448000Y-59473000D01*
G75*
G02*
X167698000Y-59723000I0J-250000D01*
G01*
G37*
%TD*%
%TO.C,C2*%
G36*
G01*
X169751500Y-51341000D02*
X169751500Y-52291000D01*
G75*
G02*
X169501500Y-52541000I-250000J0D01*
G01*
X168826500Y-52541000D01*
G75*
G02*
X168576500Y-52291000I0J250000D01*
G01*
X168576500Y-51341000D01*
G75*
G02*
X168826500Y-51091000I250000J0D01*
G01*
X169501500Y-51091000D01*
G75*
G02*
X169751500Y-51341000I0J-250000D01*
G01*
G37*
G36*
G01*
X167676500Y-51341000D02*
X167676500Y-52291000D01*
G75*
G02*
X167426500Y-52541000I-250000J0D01*
G01*
X166751500Y-52541000D01*
G75*
G02*
X166501500Y-52291000I0J250000D01*
G01*
X166501500Y-51341000D01*
G75*
G02*
X166751500Y-51091000I250000J0D01*
G01*
X167426500Y-51091000D01*
G75*
G02*
X167676500Y-51341000I0J-250000D01*
G01*
G37*
%TD*%
%TO.C,C1*%
G36*
G01*
X201365001Y-73499999D02*
X201365001Y-72549999D01*
G75*
G02*
X201615001Y-72299999I250000J0D01*
G01*
X202290001Y-72299999D01*
G75*
G02*
X202540001Y-72549999I0J-250000D01*
G01*
X202540001Y-73499999D01*
G75*
G02*
X202290001Y-73749999I-250000J0D01*
G01*
X201615001Y-73749999D01*
G75*
G02*
X201365001Y-73499999I0J250000D01*
G01*
G37*
G36*
G01*
X203440001Y-73499999D02*
X203440001Y-72549999D01*
G75*
G02*
X203690001Y-72299999I250000J0D01*
G01*
X204365001Y-72299999D01*
G75*
G02*
X204615001Y-72549999I0J-250000D01*
G01*
X204615001Y-73499999D01*
G75*
G02*
X204365001Y-73749999I-250000J0D01*
G01*
X203690001Y-73749999D01*
G75*
G02*
X203440001Y-73499999I0J250000D01*
G01*
G37*
%TD*%
M02*
