%TF.GenerationSoftware,KiCad,Pcbnew,(5.1.9-0-10_14)*%
%TF.CreationDate,2021-02-15T20:52:16+08:00*%
%TF.ProjectId,pdm,70646d2e-6b69-4636-9164-5f7063625858,rev?*%
%TF.SameCoordinates,Original*%
%TF.FileFunction,Copper,L3,Inr*%
%TF.FilePolarity,Positive*%
%FSLAX46Y46*%
G04 Gerber Fmt 4.6, Leading zero omitted, Abs format (unit mm)*
G04 Created by KiCad (PCBNEW (5.1.9-0-10_14)) date 2021-02-15 20:52:16*
%MOMM*%
%LPD*%
G01*
G04 APERTURE LIST*
%TA.AperFunction,ComponentPad*%
%ADD10R,2.715000X2.715000*%
%TD*%
%TA.AperFunction,ComponentPad*%
%ADD11C,2.715000*%
%TD*%
%TA.AperFunction,ComponentPad*%
%ADD12O,2.000000X1.700000*%
%TD*%
%TA.AperFunction,ComponentPad*%
%ADD13C,6.000000*%
%TD*%
%TA.AperFunction,ComponentPad*%
%ADD14C,0.800000*%
%TD*%
%TA.AperFunction,ComponentPad*%
%ADD15C,4.262000*%
%TD*%
%TA.AperFunction,ComponentPad*%
%ADD16C,2.640000*%
%TD*%
%TA.AperFunction,ComponentPad*%
%ADD17R,2.640000X2.640000*%
%TD*%
%TA.AperFunction,ComponentPad*%
%ADD18C,2.000000*%
%TD*%
%TA.AperFunction,ViaPad*%
%ADD19C,0.800000*%
%TD*%
%TA.AperFunction,Conductor*%
%ADD20C,0.254000*%
%TD*%
%TA.AperFunction,Conductor*%
%ADD21C,0.100000*%
%TD*%
G04 APERTURE END LIST*
D10*
%TO.N,GND*%
%TO.C,J4*%
X176972000Y-122174000D03*
D11*
X181417000Y-122174000D03*
%TO.N,/vout2*%
X185862000Y-122174000D03*
%TO.N,/vout3*%
X190312000Y-122174000D03*
%TO.N,/vout4*%
X194757000Y-122174000D03*
%TO.N,/vout5*%
X199202000Y-122174000D03*
X199202000Y-128524000D03*
%TO.N,/vout4*%
X194757000Y-128524000D03*
%TO.N,/vout3*%
X190312000Y-128524000D03*
%TO.N,/vout1*%
X185862000Y-128524000D03*
%TO.N,/_P*%
X181417000Y-128524000D03*
%TO.N,/_N*%
X176972000Y-128524000D03*
%TD*%
%TO.N,+12V*%
%TO.C,M2*%
%TA.AperFunction,ComponentPad*%
G36*
G01*
X111010000Y-119419000D02*
X112510000Y-119419000D01*
G75*
G02*
X112760000Y-119669000I0J-250000D01*
G01*
X112760000Y-120869000D01*
G75*
G02*
X112510000Y-121119000I-250000J0D01*
G01*
X111010000Y-121119000D01*
G75*
G02*
X110760000Y-120869000I0J250000D01*
G01*
X110760000Y-119669000D01*
G75*
G02*
X111010000Y-119419000I250000J0D01*
G01*
G37*
%TD.AperFunction*%
D12*
%TO.N,GND*%
X111760000Y-122769000D03*
%TD*%
%TO.N,+12V*%
%TO.C,M1*%
%TA.AperFunction,ComponentPad*%
G36*
G01*
X118376000Y-119429233D02*
X119876000Y-119429233D01*
G75*
G02*
X120126000Y-119679233I0J-250000D01*
G01*
X120126000Y-120879233D01*
G75*
G02*
X119876000Y-121129233I-250000J0D01*
G01*
X118376000Y-121129233D01*
G75*
G02*
X118126000Y-120879233I0J250000D01*
G01*
X118126000Y-119679233D01*
G75*
G02*
X118376000Y-119429233I250000J0D01*
G01*
G37*
%TD.AperFunction*%
%TO.N,GND*%
X119126000Y-122779233D03*
%TD*%
D13*
%TO.N,N/C*%
%TO.C,H4*%
X227457000Y-133604000D03*
D14*
X229707000Y-133604000D03*
X229047990Y-135194990D03*
X227457000Y-135854000D03*
X225866010Y-135194990D03*
X225207000Y-133604000D03*
X225866010Y-132013010D03*
X227457000Y-131354000D03*
X229047990Y-132013010D03*
%TD*%
D13*
%TO.N,N/C*%
%TO.C,H3*%
X227457000Y-54864000D03*
D14*
X229707000Y-54864000D03*
X229047990Y-56454990D03*
X227457000Y-57114000D03*
X225866010Y-56454990D03*
X225207000Y-54864000D03*
X225866010Y-53273010D03*
X227457000Y-52614000D03*
X229047990Y-53273010D03*
%TD*%
D13*
%TO.N,N/C*%
%TO.C,H2*%
X110617000Y-133604000D03*
D14*
X112867000Y-133604000D03*
X112207990Y-135194990D03*
X110617000Y-135854000D03*
X109026010Y-135194990D03*
X108367000Y-133604000D03*
X109026010Y-132013010D03*
X110617000Y-131354000D03*
X112207990Y-132013010D03*
%TD*%
D13*
%TO.N,N/C*%
%TO.C,H1*%
X110617000Y-54864000D03*
D14*
X112867000Y-54864000D03*
X112207990Y-56454990D03*
X110617000Y-57114000D03*
X109026010Y-56454990D03*
X108367000Y-54864000D03*
X109026010Y-53273010D03*
X110617000Y-52614000D03*
X112207990Y-53273010D03*
%TD*%
%TO.N,/vout4*%
%TO.C,F2*%
%TA.AperFunction,ComponentPad*%
G36*
G01*
X194703000Y-97566001D02*
X194703000Y-97566001D01*
G75*
G02*
X193922000Y-96785001I0J781000D01*
G01*
X193922000Y-92785001D01*
G75*
G02*
X194703000Y-92004001I781000J0D01*
G01*
X194703000Y-92004001D01*
G75*
G02*
X195484000Y-92785001I0J-781000D01*
G01*
X195484000Y-96785001D01*
G75*
G02*
X194703000Y-97566001I-781000J0D01*
G01*
G37*
%TD.AperFunction*%
%TO.N,/sheet5F95602F/out*%
%TA.AperFunction,ComponentPad*%
G36*
G01*
X194703000Y-88066001D02*
X194703000Y-88066001D01*
G75*
G02*
X193922000Y-87285001I0J781000D01*
G01*
X193922000Y-83285001D01*
G75*
G02*
X194703000Y-82504001I781000J0D01*
G01*
X194703000Y-82504001D01*
G75*
G02*
X195484000Y-83285001I0J-781000D01*
G01*
X195484000Y-87285001D01*
G75*
G02*
X194703000Y-88066001I-781000J0D01*
G01*
G37*
%TD.AperFunction*%
D15*
%TO.N,N/C*%
X194703000Y-103735001D03*
X194703000Y-76335001D03*
%TD*%
%TO.N,/vout2*%
%TO.C,F5*%
%TA.AperFunction,ComponentPad*%
G36*
G01*
X145319000Y-97265001D02*
X145319000Y-97265001D01*
G75*
G02*
X144538000Y-96484001I0J781000D01*
G01*
X144538000Y-92484001D01*
G75*
G02*
X145319000Y-91703001I781000J0D01*
G01*
X145319000Y-91703001D01*
G75*
G02*
X146100000Y-92484001I0J-781000D01*
G01*
X146100000Y-96484001D01*
G75*
G02*
X145319000Y-97265001I-781000J0D01*
G01*
G37*
%TD.AperFunction*%
%TO.N,/sheet5F955EDF/out*%
%TA.AperFunction,ComponentPad*%
G36*
G01*
X145319000Y-87765001D02*
X145319000Y-87765001D01*
G75*
G02*
X144538000Y-86984001I0J781000D01*
G01*
X144538000Y-82984001D01*
G75*
G02*
X145319000Y-82203001I781000J0D01*
G01*
X145319000Y-82203001D01*
G75*
G02*
X146100000Y-82984001I0J-781000D01*
G01*
X146100000Y-86984001D01*
G75*
G02*
X145319000Y-87765001I-781000J0D01*
G01*
G37*
%TD.AperFunction*%
%TO.N,N/C*%
X145319000Y-103434001D03*
X145319000Y-76034001D03*
%TD*%
%TO.N,/vout5*%
%TO.C,F3*%
%TA.AperFunction,ComponentPad*%
G36*
G01*
X218979000Y-97820001D02*
X218979000Y-97820001D01*
G75*
G02*
X218198000Y-97039001I0J781000D01*
G01*
X218198000Y-93039001D01*
G75*
G02*
X218979000Y-92258001I781000J0D01*
G01*
X218979000Y-92258001D01*
G75*
G02*
X219760000Y-93039001I0J-781000D01*
G01*
X219760000Y-97039001D01*
G75*
G02*
X218979000Y-97820001I-781000J0D01*
G01*
G37*
%TD.AperFunction*%
%TO.N,/sheet5F9560CD/out*%
%TA.AperFunction,ComponentPad*%
G36*
G01*
X218979000Y-88320001D02*
X218979000Y-88320001D01*
G75*
G02*
X218198000Y-87539001I0J781000D01*
G01*
X218198000Y-83539001D01*
G75*
G02*
X218979000Y-82758001I781000J0D01*
G01*
X218979000Y-82758001D01*
G75*
G02*
X219760000Y-83539001I0J-781000D01*
G01*
X219760000Y-87539001D01*
G75*
G02*
X218979000Y-88320001I-781000J0D01*
G01*
G37*
%TD.AperFunction*%
%TO.N,N/C*%
X218979000Y-103989001D03*
X218979000Y-76589001D03*
%TD*%
%TO.N,/vout1*%
%TO.C,F4*%
%TA.AperFunction,ComponentPad*%
G36*
G01*
X120691000Y-97248001D02*
X120691000Y-97248001D01*
G75*
G02*
X119910000Y-96467001I0J781000D01*
G01*
X119910000Y-92467001D01*
G75*
G02*
X120691000Y-91686001I781000J0D01*
G01*
X120691000Y-91686001D01*
G75*
G02*
X121472000Y-92467001I0J-781000D01*
G01*
X121472000Y-96467001D01*
G75*
G02*
X120691000Y-97248001I-781000J0D01*
G01*
G37*
%TD.AperFunction*%
%TO.N,/fuse_block/out*%
%TA.AperFunction,ComponentPad*%
G36*
G01*
X120691000Y-87748001D02*
X120691000Y-87748001D01*
G75*
G02*
X119910000Y-86967001I0J781000D01*
G01*
X119910000Y-82967001D01*
G75*
G02*
X120691000Y-82186001I781000J0D01*
G01*
X120691000Y-82186001D01*
G75*
G02*
X121472000Y-82967001I0J-781000D01*
G01*
X121472000Y-86967001D01*
G75*
G02*
X120691000Y-87748001I-781000J0D01*
G01*
G37*
%TD.AperFunction*%
%TO.N,N/C*%
X120691000Y-103417001D03*
X120691000Y-76017001D03*
%TD*%
%TO.N,/vout3*%
%TO.C,F1*%
%TA.AperFunction,ComponentPad*%
G36*
G01*
X170127000Y-97406001D02*
X170127000Y-97406001D01*
G75*
G02*
X169346000Y-96625001I0J781000D01*
G01*
X169346000Y-92625001D01*
G75*
G02*
X170127000Y-91844001I781000J0D01*
G01*
X170127000Y-91844001D01*
G75*
G02*
X170908000Y-92625001I0J-781000D01*
G01*
X170908000Y-96625001D01*
G75*
G02*
X170127000Y-97406001I-781000J0D01*
G01*
G37*
%TD.AperFunction*%
%TO.N,/sheet5F955F69/out*%
%TA.AperFunction,ComponentPad*%
G36*
G01*
X170127000Y-87906001D02*
X170127000Y-87906001D01*
G75*
G02*
X169346000Y-87125001I0J781000D01*
G01*
X169346000Y-83125001D01*
G75*
G02*
X170127000Y-82344001I781000J0D01*
G01*
X170127000Y-82344001D01*
G75*
G02*
X170908000Y-83125001I0J-781000D01*
G01*
X170908000Y-87125001D01*
G75*
G02*
X170127000Y-87906001I-781000J0D01*
G01*
G37*
%TD.AperFunction*%
%TO.N,N/C*%
X170127000Y-103575001D03*
X170127000Y-76175001D03*
%TD*%
D16*
%TO.N,+12V*%
%TO.C,J1*%
X134742000Y-128224000D03*
X139192000Y-128224000D03*
D17*
%TO.N,GND*%
X134742000Y-121874000D03*
D16*
%TO.N,+12V*%
X139192000Y-121874000D03*
%TD*%
D18*
%TO.N,+3V3*%
%TO.C,SW1*%
X149558501Y-57224000D03*
%TO.N,Net-(C8-Pad1)*%
X149558501Y-61724000D03*
%TO.N,+3V3*%
X143058501Y-57224000D03*
%TO.N,Net-(C8-Pad1)*%
X143058501Y-61724000D03*
%TD*%
D19*
%TO.N,GND*%
X129667000Y-54356000D03*
X128397000Y-54356000D03*
X128397000Y-53086000D03*
X129667000Y-53086000D03*
X130937000Y-53086000D03*
X130937000Y-54356000D03*
X130937000Y-55626000D03*
X129667000Y-55626000D03*
X128397000Y-55626000D03*
X124587000Y-55626000D03*
X124587000Y-54356000D03*
X124587000Y-53086000D03*
X123317000Y-53086001D03*
X123317000Y-54356000D03*
X123317000Y-55626000D03*
X122047000Y-55626000D03*
X122047000Y-54356000D03*
X122047000Y-53086000D03*
X124587000Y-59182000D03*
X123317001Y-59182000D03*
X122047000Y-59182000D03*
X122047000Y-57911999D03*
X123317000Y-57912000D03*
X124587000Y-57912000D03*
X130937000Y-57912000D03*
X129667000Y-57912000D03*
X128397001Y-57912000D03*
X128397000Y-59182000D03*
X129667000Y-59182000D03*
X130937000Y-59182000D03*
X128397000Y-60452000D03*
X129667000Y-60452000D03*
X130937000Y-60452000D03*
X124587000Y-60452000D03*
X123317000Y-60452000D03*
X122047000Y-60452000D03*
X204216001Y-73025001D03*
X142557500Y-54483000D03*
X140271500Y-60325000D03*
X108679000Y-86011500D03*
X108806000Y-88043500D03*
X125951000Y-79598000D03*
X149987000Y-64262000D03*
X126474000Y-65931000D03*
X118745000Y-56388000D03*
X133985000Y-56388000D03*
X126511000Y-56781000D03*
X111379000Y-77470000D03*
X133307000Y-86028500D03*
X133434000Y-88060500D03*
X150579000Y-79615000D03*
X136007000Y-77487000D03*
X158115000Y-86169500D03*
X158242000Y-88201500D03*
X175387000Y-79756000D03*
X160815000Y-77628000D03*
X182691000Y-86329500D03*
X182818000Y-88361500D03*
X199963000Y-79916000D03*
X185391000Y-77788000D03*
X206967000Y-86583500D03*
X207094000Y-88615500D03*
X224239000Y-80170000D03*
X209667000Y-78042000D03*
X218567000Y-68326000D03*
X205359000Y-67056000D03*
X205359000Y-70866000D03*
X174625000Y-58420000D03*
X160177815Y-67427974D03*
X200533000Y-68326000D03*
X159385000Y-64262000D03*
X126492000Y-51054000D03*
X125222000Y-51054000D03*
X123952000Y-51054000D03*
X122682000Y-51054000D03*
X121412000Y-51054000D03*
X120142000Y-51054000D03*
X127762000Y-51054000D03*
X129032000Y-51054000D03*
X130302000Y-51054000D03*
X131572000Y-51054000D03*
X132842000Y-51054000D03*
X132842000Y-52324000D03*
X132842000Y-53594000D03*
X132842000Y-54864000D03*
X120142000Y-54864000D03*
X120142000Y-53594000D03*
X120142000Y-52324000D03*
X118872000Y-54864000D03*
X118872000Y-53594000D03*
X118872000Y-52324000D03*
X118872000Y-51054000D03*
X118872000Y-49784000D03*
X120142000Y-49784000D03*
X121412000Y-49784000D03*
X122682000Y-49784000D03*
X123952000Y-49784000D03*
X125222000Y-49784000D03*
X126492000Y-49784000D03*
X127762000Y-49784000D03*
X129032000Y-49784000D03*
X130302000Y-49784000D03*
X131572000Y-49784000D03*
X132842000Y-49784000D03*
X134112000Y-49784000D03*
X134112000Y-51054000D03*
X134112000Y-52324000D03*
X134112000Y-53594000D03*
X134112000Y-54864000D03*
X116459000Y-68072000D03*
X133477000Y-68072000D03*
X156845000Y-106172000D03*
X107569000Y-106426000D03*
X202438000Y-84455000D03*
X177800000Y-84328000D03*
X153035000Y-84201000D03*
X128397000Y-84074000D03*
X132207000Y-106299000D03*
X181737000Y-106934000D03*
X205867000Y-106934000D03*
X226719000Y-84715001D03*
X162200000Y-124216000D03*
X167132000Y-57404000D03*
X169418000Y-54610000D03*
X164592000Y-55118000D03*
X162560000Y-55118000D03*
X171646573Y-65603746D03*
%TO.N,+12V*%
X110871000Y-94742000D03*
X112141000Y-94742000D03*
X112141000Y-99060000D03*
X110871000Y-99060000D03*
X110871000Y-97536000D03*
X112141000Y-97536000D03*
X115697000Y-97536000D03*
X114427000Y-97536000D03*
X114427000Y-99060000D03*
X115697000Y-99060000D03*
X115697000Y-94742000D03*
X114427000Y-94742000D03*
X114427000Y-93472000D03*
X112141000Y-93472000D03*
X110871000Y-93472000D03*
X115697000Y-93472000D03*
X110109000Y-102108000D03*
X111379000Y-102108000D03*
X112649000Y-102108000D03*
X113919000Y-102108000D03*
X115189000Y-102108000D03*
X116459000Y-102108000D03*
X115189000Y-100838000D03*
X113919000Y-100838000D03*
X112649000Y-100838000D03*
X111379000Y-100838000D03*
X110109000Y-100838000D03*
X112649000Y-103378000D03*
X110109000Y-103378000D03*
X111379000Y-103378000D03*
X113919000Y-103378000D03*
X115189000Y-103378000D03*
X116459000Y-103378000D03*
X115189000Y-104648000D03*
X113919000Y-104648000D03*
X112649000Y-104648000D03*
X111379000Y-104648000D03*
X110109000Y-104648000D03*
X135499000Y-94759000D03*
X136769000Y-94759000D03*
X136769000Y-99077000D03*
X135499000Y-99077000D03*
X135499000Y-97553000D03*
X136769000Y-97553000D03*
X140325000Y-97553000D03*
X139055000Y-97553000D03*
X139055000Y-99077000D03*
X140325000Y-99077000D03*
X140325000Y-94759000D03*
X139055000Y-94759000D03*
X139055000Y-93489000D03*
X136769000Y-93489000D03*
X135499000Y-93489000D03*
X140325000Y-93489000D03*
X134737000Y-102125000D03*
X136007000Y-102125000D03*
X137277000Y-102125000D03*
X138547000Y-102125000D03*
X139817000Y-102125000D03*
X141087000Y-102125000D03*
X141087000Y-100855000D03*
X139817000Y-100855000D03*
X138547000Y-100855000D03*
X137277000Y-100855000D03*
X136007000Y-100855000D03*
X134737000Y-100855000D03*
X137277000Y-103395000D03*
X134737000Y-103395000D03*
X136007000Y-103395000D03*
X138547000Y-103395000D03*
X139817000Y-103395000D03*
X141087000Y-103395000D03*
X141087000Y-104665000D03*
X139817000Y-104665000D03*
X138547000Y-104665000D03*
X137277000Y-104665000D03*
X136007000Y-104665000D03*
X134737000Y-104665000D03*
X160307000Y-94900000D03*
X161577000Y-94900000D03*
X161577000Y-99218000D03*
X160307000Y-99218000D03*
X160307000Y-97694000D03*
X161577000Y-97694000D03*
X165133000Y-97694000D03*
X163863000Y-97694000D03*
X163863000Y-99218000D03*
X165133000Y-99218000D03*
X165133000Y-94900000D03*
X163863000Y-94900000D03*
X163863000Y-93630000D03*
X161577000Y-93630000D03*
X160307000Y-93630000D03*
X165133000Y-93630000D03*
X159545000Y-102266000D03*
X160815000Y-102266000D03*
X162085000Y-102266000D03*
X163355000Y-102266000D03*
X164625000Y-102266000D03*
X165895000Y-102266000D03*
X165895000Y-100996000D03*
X164625000Y-100996000D03*
X163355000Y-100996000D03*
X162085000Y-100996000D03*
X160815000Y-100996000D03*
X159545000Y-100996000D03*
X162085000Y-103536000D03*
X159545000Y-103536000D03*
X160815000Y-103536000D03*
X163355000Y-103536000D03*
X164625000Y-103536000D03*
X165895000Y-103536000D03*
X165895000Y-104806000D03*
X164625000Y-104806000D03*
X163355000Y-104806000D03*
X162085000Y-104806000D03*
X160815000Y-104806000D03*
X159545000Y-104806000D03*
X184883000Y-95060000D03*
X186153000Y-95060000D03*
X186153000Y-99378000D03*
X184883000Y-99378000D03*
X184883000Y-97854000D03*
X186153000Y-97854000D03*
X189709000Y-97854000D03*
X188439000Y-97854000D03*
X188439000Y-99378000D03*
X189709000Y-99378000D03*
X189709000Y-95060000D03*
X188439000Y-95060000D03*
X188439000Y-93790000D03*
X186153000Y-93790000D03*
X184883000Y-93790000D03*
X189709000Y-93790000D03*
X184121000Y-102426000D03*
X185391000Y-102426000D03*
X186661000Y-102426000D03*
X187931000Y-102426000D03*
X189201000Y-102426000D03*
X190471000Y-102426000D03*
X190471000Y-101156000D03*
X189201000Y-101156000D03*
X187931000Y-101156000D03*
X186661000Y-101156000D03*
X185391000Y-101156000D03*
X184121000Y-101156000D03*
X186661000Y-103696000D03*
X184121000Y-103696000D03*
X185391000Y-103696000D03*
X187931000Y-103696000D03*
X189201000Y-103696000D03*
X190471000Y-103696000D03*
X190471000Y-104966000D03*
X189201000Y-104966000D03*
X187931000Y-104966000D03*
X186661000Y-104966000D03*
X185391000Y-104966000D03*
X184121000Y-104966000D03*
X209159000Y-95314000D03*
X210429000Y-95314000D03*
X210429000Y-99632000D03*
X209159000Y-99632000D03*
X209159000Y-98108000D03*
X210429000Y-98108000D03*
X213985000Y-98108000D03*
X212715000Y-98108000D03*
X212715000Y-99632000D03*
X213985000Y-99632000D03*
X213985000Y-95314000D03*
X212715000Y-95314000D03*
X212715000Y-94044000D03*
X210429000Y-94044000D03*
X209159000Y-94044000D03*
X213985000Y-94044000D03*
X208397000Y-102680000D03*
X209667000Y-102680000D03*
X210937000Y-102680000D03*
X212207000Y-102680000D03*
X213477000Y-102680000D03*
X214747000Y-102680000D03*
X214747000Y-101410000D03*
X213477000Y-101410000D03*
X212207000Y-101410000D03*
X210937000Y-101410000D03*
X209667000Y-101410000D03*
X208397000Y-101410000D03*
X210937000Y-103950000D03*
X208397000Y-103950000D03*
X209667000Y-103950000D03*
X212207000Y-103950000D03*
X213477000Y-103950000D03*
X214747000Y-103950000D03*
X214747000Y-105220000D03*
X213477000Y-105220000D03*
X212207000Y-105220000D03*
X210937000Y-105220000D03*
X209667000Y-105220000D03*
X208397000Y-105220000D03*
X116459000Y-104648000D03*
X116459000Y-100838000D03*
X118766501Y-66018499D03*
X117729000Y-73406000D03*
%TO.N,+3V3*%
X145097500Y-54483000D03*
X129051000Y-65931000D03*
X133985000Y-62484000D03*
X199009000Y-77196370D03*
X198247000Y-79405990D03*
X129667000Y-72031180D03*
X162433000Y-62738000D03*
X167005000Y-67906810D03*
X164973000Y-71821600D03*
X133304000Y-65197000D03*
X125857000Y-89154000D03*
X150749000Y-89154000D03*
X175133000Y-89154000D03*
X200025000Y-89154000D03*
X224409000Y-89662000D03*
X201952501Y-73024999D03*
X200533000Y-69850000D03*
X215265000Y-65786000D03*
%TO.N,/NRST*%
X163433003Y-62738000D03*
X165543005Y-64832581D03*
%TO.N,/SWCLK*%
X163718980Y-66802000D03*
X177927000Y-55880000D03*
%TO.N,/SWDIO*%
X162819130Y-66365797D03*
X178058000Y-60960000D03*
%TO.N,/canrx*%
X184044650Y-71120000D03*
X180625400Y-71120000D03*
X163183107Y-70600107D03*
X161239669Y-69418669D03*
%TO.N,/cantx*%
X162005549Y-68580000D03*
X163890215Y-69892999D03*
X180625400Y-70119997D03*
X184044650Y-70119997D03*
%TO.N,/sense5*%
X206966999Y-90838000D03*
X210429000Y-90488000D03*
X181956059Y-60994942D03*
X182835020Y-64516000D03*
%TO.N,/sense4*%
X182690999Y-90584000D03*
X186153000Y-90234000D03*
X181194059Y-60232941D03*
X181013698Y-63768912D03*
%TO.N,/sense3*%
X158114999Y-90424000D03*
X161577000Y-90074000D03*
X155067000Y-72898000D03*
X153365669Y-69418669D03*
%TO.N,/sense2*%
X133306999Y-90283000D03*
X136769000Y-89933000D03*
X132187780Y-72116781D03*
X134493000Y-70224770D03*
%TO.N,/sense1*%
X108678999Y-90266000D03*
X112141000Y-89916000D03*
%TO.N,/act2*%
X153360686Y-72411833D03*
X155067000Y-71897997D03*
%TO.N,/_P*%
X218698000Y-63246000D03*
%TO.N,/_N*%
X215388000Y-60706000D03*
%TO.N,/fuse5*%
X211953000Y-80328000D03*
X224719000Y-85665001D03*
%TO.N,/fuse4*%
X187677000Y-80074000D03*
X200406000Y-85344000D03*
%TO.N,/fuse3*%
X163101000Y-79914000D03*
X175895000Y-85217000D03*
%TO.N,/fuse1*%
X113665000Y-79756000D03*
X126481001Y-85090000D03*
%TO.N,/fuse2*%
X138293000Y-79773000D03*
X151059000Y-85110001D03*
%TO.N,/DEBUG_BUTTON*%
X154208522Y-60245738D03*
X156470392Y-62819419D03*
%TO.N,/vout2*%
X133096000Y-100584000D03*
%TO.N,/vout1*%
X108204000Y-100584000D03*
%TO.N,/vout3*%
X157734000Y-100584000D03*
%TO.N,/vout4*%
X182372000Y-100838000D03*
%TO.N,/vout5*%
X206502000Y-101092000D03*
%TO.N,/LED_DEBUG*%
X157244307Y-62060907D03*
X154915630Y-59538630D03*
%TO.N,Net-(R22-Pad2)*%
X207127000Y-82360000D03*
X212678000Y-90483000D03*
%TO.N,Net-(R6-Pad2)*%
X158275000Y-81946000D03*
X163826000Y-90069000D03*
%TO.N,Net-(R14-Pad2)*%
X182851000Y-82106000D03*
X188402000Y-90229000D03*
%TO.N,Net-(R30-Pad2)*%
X108839000Y-81788000D03*
X114390000Y-89911000D03*
%TO.N,Net-(R38-Pad2)*%
X133467000Y-81805000D03*
X139018000Y-89928000D03*
%TD*%
D20*
%TO.N,+12V*%
X129012326Y-72828903D02*
X129180533Y-72941295D01*
X129367435Y-73018713D01*
X129565849Y-73058180D01*
X129768151Y-73058180D01*
X129966565Y-73018713D01*
X130153467Y-72941295D01*
X130321674Y-72828903D01*
X130379577Y-72771000D01*
X131389753Y-72771000D01*
X131390057Y-72771455D01*
X131533106Y-72914504D01*
X131701313Y-73026896D01*
X131888215Y-73104314D01*
X132086629Y-73143781D01*
X132288931Y-73143781D01*
X132487345Y-73104314D01*
X132674247Y-73026896D01*
X132842454Y-72914504D01*
X132985503Y-72771455D01*
X132985807Y-72771000D01*
X152397841Y-72771000D01*
X152450571Y-72898300D01*
X152562963Y-73066507D01*
X152706012Y-73209556D01*
X152874219Y-73321948D01*
X153061121Y-73399366D01*
X153259535Y-73438833D01*
X153461837Y-73438833D01*
X153660251Y-73399366D01*
X153847153Y-73321948D01*
X154015360Y-73209556D01*
X154070820Y-73154096D01*
X154079467Y-73197565D01*
X154156885Y-73384467D01*
X154269277Y-73552674D01*
X154412326Y-73695723D01*
X154580533Y-73808115D01*
X154767435Y-73885533D01*
X154965849Y-73925000D01*
X155168151Y-73925000D01*
X155366565Y-73885533D01*
X155553467Y-73808115D01*
X155721674Y-73695723D01*
X155864723Y-73552674D01*
X155977115Y-73384467D01*
X156054533Y-73197565D01*
X156094000Y-72999151D01*
X156094000Y-72796849D01*
X156088858Y-72771000D01*
X164581375Y-72771000D01*
X164673435Y-72809133D01*
X164871849Y-72848600D01*
X165074151Y-72848600D01*
X165272565Y-72809133D01*
X165364625Y-72771000D01*
X200955904Y-72771000D01*
X200925501Y-72923848D01*
X200925501Y-73126150D01*
X200964968Y-73324564D01*
X201042386Y-73511466D01*
X201154778Y-73679673D01*
X201297827Y-73822722D01*
X201466034Y-73935114D01*
X201652936Y-74012532D01*
X201851350Y-74051999D01*
X202053652Y-74051999D01*
X202252066Y-74012532D01*
X202438968Y-73935114D01*
X202607175Y-73822722D01*
X202750224Y-73679673D01*
X202862616Y-73511466D01*
X202940034Y-73324564D01*
X202979501Y-73126150D01*
X202979501Y-72923848D01*
X202949098Y-72771000D01*
X203219405Y-72771000D01*
X203189001Y-72923850D01*
X203189001Y-73126152D01*
X203228468Y-73324566D01*
X203305886Y-73511468D01*
X203418278Y-73679675D01*
X203561327Y-73822724D01*
X203729534Y-73935116D01*
X203916436Y-74012534D01*
X204114850Y-74052001D01*
X204317152Y-74052001D01*
X204515566Y-74012534D01*
X204702468Y-73935116D01*
X204870675Y-73822724D01*
X205013724Y-73679675D01*
X205126116Y-73511468D01*
X205203534Y-73324566D01*
X205243001Y-73126152D01*
X205243001Y-72923850D01*
X205212597Y-72771000D01*
X226722470Y-72771000D01*
X226993504Y-72790385D01*
X227254593Y-72847181D01*
X227504940Y-72940556D01*
X227739445Y-73068605D01*
X227953338Y-73228724D01*
X228142276Y-73417662D01*
X228302395Y-73631555D01*
X228430444Y-73866060D01*
X228523819Y-74116407D01*
X228580615Y-74377496D01*
X228600000Y-74648530D01*
X228600000Y-110009470D01*
X228580615Y-110280504D01*
X228523819Y-110541593D01*
X228430444Y-110791940D01*
X228302395Y-111026445D01*
X228142276Y-111240338D01*
X227953338Y-111429276D01*
X227739445Y-111589395D01*
X227504940Y-111717444D01*
X227254593Y-111810819D01*
X226993504Y-111867615D01*
X226722470Y-111887000D01*
X108811530Y-111887000D01*
X108540496Y-111867615D01*
X108279407Y-111810819D01*
X108029060Y-111717444D01*
X107794555Y-111589395D01*
X107580662Y-111429276D01*
X107391724Y-111240338D01*
X107231605Y-111026445D01*
X107103556Y-110791940D01*
X107010181Y-110541593D01*
X106953385Y-110280504D01*
X106934000Y-110009470D01*
X106934000Y-107236869D01*
X107082533Y-107336115D01*
X107269435Y-107413533D01*
X107467849Y-107453000D01*
X107670151Y-107453000D01*
X107868565Y-107413533D01*
X108055467Y-107336115D01*
X108223674Y-107223723D01*
X108366723Y-107080674D01*
X108479115Y-106912467D01*
X108556533Y-106725565D01*
X108596000Y-106527151D01*
X108596000Y-106324849D01*
X108570739Y-106197849D01*
X131180000Y-106197849D01*
X131180000Y-106400151D01*
X131219467Y-106598565D01*
X131296885Y-106785467D01*
X131409277Y-106953674D01*
X131552326Y-107096723D01*
X131720533Y-107209115D01*
X131907435Y-107286533D01*
X132105849Y-107326000D01*
X132308151Y-107326000D01*
X132506565Y-107286533D01*
X132693467Y-107209115D01*
X132861674Y-107096723D01*
X133004723Y-106953674D01*
X133117115Y-106785467D01*
X133194533Y-106598565D01*
X133234000Y-106400151D01*
X133234000Y-106197849D01*
X133194533Y-105999435D01*
X133117115Y-105812533D01*
X133004723Y-105644326D01*
X132861674Y-105501277D01*
X132693467Y-105388885D01*
X132506565Y-105311467D01*
X132308151Y-105272000D01*
X132105849Y-105272000D01*
X131907435Y-105311467D01*
X131720533Y-105388885D01*
X131552326Y-105501277D01*
X131409277Y-105644326D01*
X131296885Y-105812533D01*
X131219467Y-105999435D01*
X131180000Y-106197849D01*
X108570739Y-106197849D01*
X108556533Y-106126435D01*
X108479115Y-105939533D01*
X108366723Y-105771326D01*
X108223674Y-105628277D01*
X108055467Y-105515885D01*
X107868565Y-105438467D01*
X107670151Y-105399000D01*
X107467849Y-105399000D01*
X107269435Y-105438467D01*
X107082533Y-105515885D01*
X106934000Y-105615131D01*
X106934000Y-103145362D01*
X117933000Y-103145362D01*
X117933000Y-103688640D01*
X118038988Y-104221480D01*
X118246892Y-104723404D01*
X118548721Y-105175124D01*
X118932877Y-105559280D01*
X119384597Y-105861109D01*
X119886521Y-106069013D01*
X120419361Y-106175001D01*
X120962639Y-106175001D01*
X121495479Y-106069013D01*
X121997403Y-105861109D01*
X122449123Y-105559280D01*
X122833279Y-105175124D01*
X123135108Y-104723404D01*
X123343012Y-104221480D01*
X123449000Y-103688640D01*
X123449000Y-103162362D01*
X142561000Y-103162362D01*
X142561000Y-103705640D01*
X142666988Y-104238480D01*
X142874892Y-104740404D01*
X143176721Y-105192124D01*
X143560877Y-105576280D01*
X144012597Y-105878109D01*
X144514521Y-106086013D01*
X145047361Y-106192001D01*
X145590639Y-106192001D01*
X146123479Y-106086013D01*
X146160088Y-106070849D01*
X155818000Y-106070849D01*
X155818000Y-106273151D01*
X155857467Y-106471565D01*
X155934885Y-106658467D01*
X156047277Y-106826674D01*
X156190326Y-106969723D01*
X156358533Y-107082115D01*
X156545435Y-107159533D01*
X156743849Y-107199000D01*
X156946151Y-107199000D01*
X157144565Y-107159533D01*
X157331467Y-107082115D01*
X157499674Y-106969723D01*
X157636548Y-106832849D01*
X180710000Y-106832849D01*
X180710000Y-107035151D01*
X180749467Y-107233565D01*
X180826885Y-107420467D01*
X180939277Y-107588674D01*
X181082326Y-107731723D01*
X181250533Y-107844115D01*
X181437435Y-107921533D01*
X181635849Y-107961000D01*
X181838151Y-107961000D01*
X182036565Y-107921533D01*
X182223467Y-107844115D01*
X182391674Y-107731723D01*
X182534723Y-107588674D01*
X182647115Y-107420467D01*
X182724533Y-107233565D01*
X182764000Y-107035151D01*
X182764000Y-106832849D01*
X204840000Y-106832849D01*
X204840000Y-107035151D01*
X204879467Y-107233565D01*
X204956885Y-107420467D01*
X205069277Y-107588674D01*
X205212326Y-107731723D01*
X205380533Y-107844115D01*
X205567435Y-107921533D01*
X205765849Y-107961000D01*
X205968151Y-107961000D01*
X206166565Y-107921533D01*
X206353467Y-107844115D01*
X206521674Y-107731723D01*
X206664723Y-107588674D01*
X206777115Y-107420467D01*
X206854533Y-107233565D01*
X206894000Y-107035151D01*
X206894000Y-106832849D01*
X206854533Y-106634435D01*
X206777115Y-106447533D01*
X206664723Y-106279326D01*
X206521674Y-106136277D01*
X206353467Y-106023885D01*
X206166565Y-105946467D01*
X205968151Y-105907000D01*
X205765849Y-105907000D01*
X205567435Y-105946467D01*
X205380533Y-106023885D01*
X205212326Y-106136277D01*
X205069277Y-106279326D01*
X204956885Y-106447533D01*
X204879467Y-106634435D01*
X204840000Y-106832849D01*
X182764000Y-106832849D01*
X182724533Y-106634435D01*
X182647115Y-106447533D01*
X182534723Y-106279326D01*
X182391674Y-106136277D01*
X182223467Y-106023885D01*
X182036565Y-105946467D01*
X181838151Y-105907000D01*
X181635849Y-105907000D01*
X181437435Y-105946467D01*
X181250533Y-106023885D01*
X181082326Y-106136277D01*
X180939277Y-106279326D01*
X180826885Y-106447533D01*
X180749467Y-106634435D01*
X180710000Y-106832849D01*
X157636548Y-106832849D01*
X157642723Y-106826674D01*
X157755115Y-106658467D01*
X157832533Y-106471565D01*
X157872000Y-106273151D01*
X157872000Y-106070849D01*
X157832533Y-105872435D01*
X157755115Y-105685533D01*
X157642723Y-105517326D01*
X157499674Y-105374277D01*
X157331467Y-105261885D01*
X157144565Y-105184467D01*
X156946151Y-105145000D01*
X156743849Y-105145000D01*
X156545435Y-105184467D01*
X156358533Y-105261885D01*
X156190326Y-105374277D01*
X156047277Y-105517326D01*
X155934885Y-105685533D01*
X155857467Y-105872435D01*
X155818000Y-106070849D01*
X146160088Y-106070849D01*
X146625403Y-105878109D01*
X147077123Y-105576280D01*
X147461279Y-105192124D01*
X147763108Y-104740404D01*
X147971012Y-104238480D01*
X148077000Y-103705640D01*
X148077000Y-103303362D01*
X167369000Y-103303362D01*
X167369000Y-103846640D01*
X167474988Y-104379480D01*
X167682892Y-104881404D01*
X167984721Y-105333124D01*
X168368877Y-105717280D01*
X168820597Y-106019109D01*
X169322521Y-106227013D01*
X169855361Y-106333001D01*
X170398639Y-106333001D01*
X170931479Y-106227013D01*
X171433403Y-106019109D01*
X171885123Y-105717280D01*
X172269279Y-105333124D01*
X172571108Y-104881404D01*
X172779012Y-104379480D01*
X172885000Y-103846640D01*
X172885000Y-103463362D01*
X191945000Y-103463362D01*
X191945000Y-104006640D01*
X192050988Y-104539480D01*
X192258892Y-105041404D01*
X192560721Y-105493124D01*
X192944877Y-105877280D01*
X193396597Y-106179109D01*
X193898521Y-106387013D01*
X194431361Y-106493001D01*
X194974639Y-106493001D01*
X195507479Y-106387013D01*
X196009403Y-106179109D01*
X196461123Y-105877280D01*
X196845279Y-105493124D01*
X197147108Y-105041404D01*
X197355012Y-104539480D01*
X197461000Y-104006640D01*
X197461000Y-103717362D01*
X216221000Y-103717362D01*
X216221000Y-104260640D01*
X216326988Y-104793480D01*
X216534892Y-105295404D01*
X216836721Y-105747124D01*
X217220877Y-106131280D01*
X217672597Y-106433109D01*
X218174521Y-106641013D01*
X218707361Y-106747001D01*
X219250639Y-106747001D01*
X219783479Y-106641013D01*
X220285403Y-106433109D01*
X220737123Y-106131280D01*
X221121279Y-105747124D01*
X221423108Y-105295404D01*
X221631012Y-104793480D01*
X221737000Y-104260640D01*
X221737000Y-103717362D01*
X221631012Y-103184522D01*
X221423108Y-102682598D01*
X221121279Y-102230878D01*
X220737123Y-101846722D01*
X220285403Y-101544893D01*
X219783479Y-101336989D01*
X219250639Y-101231001D01*
X218707361Y-101231001D01*
X218174521Y-101336989D01*
X217672597Y-101544893D01*
X217220877Y-101846722D01*
X216836721Y-102230878D01*
X216534892Y-102682598D01*
X216326988Y-103184522D01*
X216221000Y-103717362D01*
X197461000Y-103717362D01*
X197461000Y-103463362D01*
X197355012Y-102930522D01*
X197147108Y-102428598D01*
X196845279Y-101976878D01*
X196461123Y-101592722D01*
X196009403Y-101290893D01*
X195507479Y-101082989D01*
X195044258Y-100990849D01*
X205475000Y-100990849D01*
X205475000Y-101193151D01*
X205514467Y-101391565D01*
X205591885Y-101578467D01*
X205704277Y-101746674D01*
X205847326Y-101889723D01*
X206015533Y-102002115D01*
X206202435Y-102079533D01*
X206400849Y-102119000D01*
X206603151Y-102119000D01*
X206801565Y-102079533D01*
X206988467Y-102002115D01*
X207156674Y-101889723D01*
X207299723Y-101746674D01*
X207412115Y-101578467D01*
X207489533Y-101391565D01*
X207529000Y-101193151D01*
X207529000Y-100990849D01*
X207489533Y-100792435D01*
X207412115Y-100605533D01*
X207299723Y-100437326D01*
X207156674Y-100294277D01*
X206988467Y-100181885D01*
X206801565Y-100104467D01*
X206603151Y-100065000D01*
X206400849Y-100065000D01*
X206202435Y-100104467D01*
X206015533Y-100181885D01*
X205847326Y-100294277D01*
X205704277Y-100437326D01*
X205591885Y-100605533D01*
X205514467Y-100792435D01*
X205475000Y-100990849D01*
X195044258Y-100990849D01*
X194974639Y-100977001D01*
X194431361Y-100977001D01*
X193898521Y-101082989D01*
X193396597Y-101290893D01*
X192944877Y-101592722D01*
X192560721Y-101976878D01*
X192258892Y-102428598D01*
X192050988Y-102930522D01*
X191945000Y-103463362D01*
X172885000Y-103463362D01*
X172885000Y-103303362D01*
X172779012Y-102770522D01*
X172571108Y-102268598D01*
X172269279Y-101816878D01*
X171885123Y-101432722D01*
X171433403Y-101130893D01*
X170931479Y-100922989D01*
X170398639Y-100817001D01*
X169855361Y-100817001D01*
X169322521Y-100922989D01*
X168820597Y-101130893D01*
X168368877Y-101432722D01*
X167984721Y-101816878D01*
X167682892Y-102268598D01*
X167474988Y-102770522D01*
X167369000Y-103303362D01*
X148077000Y-103303362D01*
X148077000Y-103162362D01*
X147971012Y-102629522D01*
X147763108Y-102127598D01*
X147461279Y-101675878D01*
X147077123Y-101291722D01*
X146625403Y-100989893D01*
X146123479Y-100781989D01*
X145590639Y-100676001D01*
X145047361Y-100676001D01*
X144514521Y-100781989D01*
X144012597Y-100989893D01*
X143560877Y-101291722D01*
X143176721Y-101675878D01*
X142874892Y-102127598D01*
X142666988Y-102629522D01*
X142561000Y-103162362D01*
X123449000Y-103162362D01*
X123449000Y-103145362D01*
X123343012Y-102612522D01*
X123135108Y-102110598D01*
X122833279Y-101658878D01*
X122449123Y-101274722D01*
X121997403Y-100972893D01*
X121495479Y-100764989D01*
X120962639Y-100659001D01*
X120419361Y-100659001D01*
X119886521Y-100764989D01*
X119384597Y-100972893D01*
X118932877Y-101274722D01*
X118548721Y-101658878D01*
X118246892Y-102110598D01*
X118038988Y-102612522D01*
X117933000Y-103145362D01*
X106934000Y-103145362D01*
X106934000Y-100482849D01*
X107177000Y-100482849D01*
X107177000Y-100685151D01*
X107216467Y-100883565D01*
X107293885Y-101070467D01*
X107406277Y-101238674D01*
X107549326Y-101381723D01*
X107717533Y-101494115D01*
X107904435Y-101571533D01*
X108102849Y-101611000D01*
X108305151Y-101611000D01*
X108503565Y-101571533D01*
X108690467Y-101494115D01*
X108858674Y-101381723D01*
X109001723Y-101238674D01*
X109114115Y-101070467D01*
X109191533Y-100883565D01*
X109231000Y-100685151D01*
X109231000Y-100482849D01*
X132069000Y-100482849D01*
X132069000Y-100685151D01*
X132108467Y-100883565D01*
X132185885Y-101070467D01*
X132298277Y-101238674D01*
X132441326Y-101381723D01*
X132609533Y-101494115D01*
X132796435Y-101571533D01*
X132994849Y-101611000D01*
X133197151Y-101611000D01*
X133395565Y-101571533D01*
X133582467Y-101494115D01*
X133750674Y-101381723D01*
X133893723Y-101238674D01*
X134006115Y-101070467D01*
X134083533Y-100883565D01*
X134123000Y-100685151D01*
X134123000Y-100482849D01*
X156707000Y-100482849D01*
X156707000Y-100685151D01*
X156746467Y-100883565D01*
X156823885Y-101070467D01*
X156936277Y-101238674D01*
X157079326Y-101381723D01*
X157247533Y-101494115D01*
X157434435Y-101571533D01*
X157632849Y-101611000D01*
X157835151Y-101611000D01*
X158033565Y-101571533D01*
X158220467Y-101494115D01*
X158388674Y-101381723D01*
X158531723Y-101238674D01*
X158644115Y-101070467D01*
X158721533Y-100883565D01*
X158750716Y-100736849D01*
X181345000Y-100736849D01*
X181345000Y-100939151D01*
X181384467Y-101137565D01*
X181461885Y-101324467D01*
X181574277Y-101492674D01*
X181717326Y-101635723D01*
X181885533Y-101748115D01*
X182072435Y-101825533D01*
X182270849Y-101865000D01*
X182473151Y-101865000D01*
X182671565Y-101825533D01*
X182858467Y-101748115D01*
X183026674Y-101635723D01*
X183169723Y-101492674D01*
X183282115Y-101324467D01*
X183359533Y-101137565D01*
X183399000Y-100939151D01*
X183399000Y-100736849D01*
X183359533Y-100538435D01*
X183282115Y-100351533D01*
X183169723Y-100183326D01*
X183026674Y-100040277D01*
X182858467Y-99927885D01*
X182671565Y-99850467D01*
X182473151Y-99811000D01*
X182270849Y-99811000D01*
X182072435Y-99850467D01*
X181885533Y-99927885D01*
X181717326Y-100040277D01*
X181574277Y-100183326D01*
X181461885Y-100351533D01*
X181384467Y-100538435D01*
X181345000Y-100736849D01*
X158750716Y-100736849D01*
X158761000Y-100685151D01*
X158761000Y-100482849D01*
X158721533Y-100284435D01*
X158644115Y-100097533D01*
X158531723Y-99929326D01*
X158388674Y-99786277D01*
X158220467Y-99673885D01*
X158033565Y-99596467D01*
X157835151Y-99557000D01*
X157632849Y-99557000D01*
X157434435Y-99596467D01*
X157247533Y-99673885D01*
X157079326Y-99786277D01*
X156936277Y-99929326D01*
X156823885Y-100097533D01*
X156746467Y-100284435D01*
X156707000Y-100482849D01*
X134123000Y-100482849D01*
X134083533Y-100284435D01*
X134006115Y-100097533D01*
X133893723Y-99929326D01*
X133750674Y-99786277D01*
X133582467Y-99673885D01*
X133395565Y-99596467D01*
X133197151Y-99557000D01*
X132994849Y-99557000D01*
X132796435Y-99596467D01*
X132609533Y-99673885D01*
X132441326Y-99786277D01*
X132298277Y-99929326D01*
X132185885Y-100097533D01*
X132108467Y-100284435D01*
X132069000Y-100482849D01*
X109231000Y-100482849D01*
X109191533Y-100284435D01*
X109114115Y-100097533D01*
X109001723Y-99929326D01*
X108858674Y-99786277D01*
X108690467Y-99673885D01*
X108503565Y-99596467D01*
X108305151Y-99557000D01*
X108102849Y-99557000D01*
X107904435Y-99596467D01*
X107717533Y-99673885D01*
X107549326Y-99786277D01*
X107406277Y-99929326D01*
X107293885Y-100097533D01*
X107216467Y-100284435D01*
X107177000Y-100482849D01*
X106934000Y-100482849D01*
X106934000Y-92467001D01*
X119279966Y-92467001D01*
X119279966Y-96467001D01*
X119307079Y-96742280D01*
X119387374Y-97006980D01*
X119517768Y-97250929D01*
X119693248Y-97464752D01*
X119907071Y-97640232D01*
X120151020Y-97770626D01*
X120415720Y-97850921D01*
X120690999Y-97878034D01*
X120691001Y-97878034D01*
X120966280Y-97850921D01*
X121230980Y-97770626D01*
X121474929Y-97640232D01*
X121688752Y-97464752D01*
X121864232Y-97250929D01*
X121994626Y-97006980D01*
X122074921Y-96742280D01*
X122102034Y-96467001D01*
X122102034Y-92484001D01*
X143907966Y-92484001D01*
X143907966Y-96484001D01*
X143935079Y-96759280D01*
X144015374Y-97023980D01*
X144145768Y-97267929D01*
X144321248Y-97481752D01*
X144535071Y-97657232D01*
X144779020Y-97787626D01*
X145043720Y-97867921D01*
X145318999Y-97895034D01*
X145319001Y-97895034D01*
X145594280Y-97867921D01*
X145858980Y-97787626D01*
X146102929Y-97657232D01*
X146316752Y-97481752D01*
X146492232Y-97267929D01*
X146622626Y-97023980D01*
X146702921Y-96759280D01*
X146730034Y-96484001D01*
X146730034Y-92625001D01*
X168715966Y-92625001D01*
X168715966Y-96625001D01*
X168743079Y-96900280D01*
X168823374Y-97164980D01*
X168953768Y-97408929D01*
X169129248Y-97622752D01*
X169343071Y-97798232D01*
X169587020Y-97928626D01*
X169851720Y-98008921D01*
X170126999Y-98036034D01*
X170127001Y-98036034D01*
X170402280Y-98008921D01*
X170666980Y-97928626D01*
X170910929Y-97798232D01*
X171124752Y-97622752D01*
X171300232Y-97408929D01*
X171430626Y-97164980D01*
X171510921Y-96900280D01*
X171538034Y-96625001D01*
X171538034Y-92785001D01*
X193291966Y-92785001D01*
X193291966Y-96785001D01*
X193319079Y-97060280D01*
X193399374Y-97324980D01*
X193529768Y-97568929D01*
X193705248Y-97782752D01*
X193919071Y-97958232D01*
X194163020Y-98088626D01*
X194427720Y-98168921D01*
X194702999Y-98196034D01*
X194703001Y-98196034D01*
X194978280Y-98168921D01*
X195242980Y-98088626D01*
X195486929Y-97958232D01*
X195700752Y-97782752D01*
X195876232Y-97568929D01*
X196006626Y-97324980D01*
X196086921Y-97060280D01*
X196114034Y-96785001D01*
X196114034Y-93039001D01*
X217567966Y-93039001D01*
X217567966Y-97039001D01*
X217595079Y-97314280D01*
X217675374Y-97578980D01*
X217805768Y-97822929D01*
X217981248Y-98036752D01*
X218195071Y-98212232D01*
X218439020Y-98342626D01*
X218703720Y-98422921D01*
X218978999Y-98450034D01*
X218979001Y-98450034D01*
X219254280Y-98422921D01*
X219518980Y-98342626D01*
X219762929Y-98212232D01*
X219976752Y-98036752D01*
X220152232Y-97822929D01*
X220282626Y-97578980D01*
X220362921Y-97314280D01*
X220390034Y-97039001D01*
X220390034Y-93039001D01*
X220362921Y-92763722D01*
X220282626Y-92499022D01*
X220152232Y-92255073D01*
X219976752Y-92041250D01*
X219762929Y-91865770D01*
X219518980Y-91735376D01*
X219254280Y-91655081D01*
X218979001Y-91627968D01*
X218978999Y-91627968D01*
X218703720Y-91655081D01*
X218439020Y-91735376D01*
X218195071Y-91865770D01*
X217981248Y-92041250D01*
X217805768Y-92255073D01*
X217675374Y-92499022D01*
X217595079Y-92763722D01*
X217567966Y-93039001D01*
X196114034Y-93039001D01*
X196114034Y-92785001D01*
X196086921Y-92509722D01*
X196006626Y-92245022D01*
X195876232Y-92001073D01*
X195700752Y-91787250D01*
X195486929Y-91611770D01*
X195242980Y-91481376D01*
X194978280Y-91401081D01*
X194703001Y-91373968D01*
X194702999Y-91373968D01*
X194427720Y-91401081D01*
X194163020Y-91481376D01*
X193919071Y-91611770D01*
X193705248Y-91787250D01*
X193529768Y-92001073D01*
X193399374Y-92245022D01*
X193319079Y-92509722D01*
X193291966Y-92785001D01*
X171538034Y-92785001D01*
X171538034Y-92625001D01*
X171510921Y-92349722D01*
X171430626Y-92085022D01*
X171300232Y-91841073D01*
X171124752Y-91627250D01*
X170910929Y-91451770D01*
X170666980Y-91321376D01*
X170402280Y-91241081D01*
X170127001Y-91213968D01*
X170126999Y-91213968D01*
X169851720Y-91241081D01*
X169587020Y-91321376D01*
X169343071Y-91451770D01*
X169129248Y-91627250D01*
X168953768Y-91841073D01*
X168823374Y-92085022D01*
X168743079Y-92349722D01*
X168715966Y-92625001D01*
X146730034Y-92625001D01*
X146730034Y-92484001D01*
X146702921Y-92208722D01*
X146622626Y-91944022D01*
X146492232Y-91700073D01*
X146316752Y-91486250D01*
X146102929Y-91310770D01*
X145858980Y-91180376D01*
X145594280Y-91100081D01*
X145319001Y-91072968D01*
X145318999Y-91072968D01*
X145043720Y-91100081D01*
X144779020Y-91180376D01*
X144535071Y-91310770D01*
X144321248Y-91486250D01*
X144145768Y-91700073D01*
X144015374Y-91944022D01*
X143935079Y-92208722D01*
X143907966Y-92484001D01*
X122102034Y-92484001D01*
X122102034Y-92467001D01*
X122074921Y-92191722D01*
X121994626Y-91927022D01*
X121864232Y-91683073D01*
X121688752Y-91469250D01*
X121474929Y-91293770D01*
X121230980Y-91163376D01*
X120966280Y-91083081D01*
X120691001Y-91055968D01*
X120690999Y-91055968D01*
X120415720Y-91083081D01*
X120151020Y-91163376D01*
X119907071Y-91293770D01*
X119693248Y-91469250D01*
X119517768Y-91683073D01*
X119387374Y-91927022D01*
X119307079Y-92191722D01*
X119279966Y-92467001D01*
X106934000Y-92467001D01*
X106934000Y-90164849D01*
X107651999Y-90164849D01*
X107651999Y-90367151D01*
X107691466Y-90565565D01*
X107768884Y-90752467D01*
X107881276Y-90920674D01*
X108024325Y-91063723D01*
X108192532Y-91176115D01*
X108379434Y-91253533D01*
X108577848Y-91293000D01*
X108780150Y-91293000D01*
X108978564Y-91253533D01*
X109165466Y-91176115D01*
X109333673Y-91063723D01*
X109476722Y-90920674D01*
X109589114Y-90752467D01*
X109666532Y-90565565D01*
X109705999Y-90367151D01*
X109705999Y-90164849D01*
X109666532Y-89966435D01*
X109603743Y-89814849D01*
X111114000Y-89814849D01*
X111114000Y-90017151D01*
X111153467Y-90215565D01*
X111230885Y-90402467D01*
X111343277Y-90570674D01*
X111486326Y-90713723D01*
X111654533Y-90826115D01*
X111841435Y-90903533D01*
X112039849Y-90943000D01*
X112242151Y-90943000D01*
X112440565Y-90903533D01*
X112627467Y-90826115D01*
X112795674Y-90713723D01*
X112938723Y-90570674D01*
X113051115Y-90402467D01*
X113128533Y-90215565D01*
X113168000Y-90017151D01*
X113168000Y-89814849D01*
X113167006Y-89809849D01*
X113363000Y-89809849D01*
X113363000Y-90012151D01*
X113402467Y-90210565D01*
X113479885Y-90397467D01*
X113592277Y-90565674D01*
X113735326Y-90708723D01*
X113903533Y-90821115D01*
X114090435Y-90898533D01*
X114288849Y-90938000D01*
X114491151Y-90938000D01*
X114689565Y-90898533D01*
X114876467Y-90821115D01*
X115044674Y-90708723D01*
X115187723Y-90565674D01*
X115300115Y-90397467D01*
X115377533Y-90210565D01*
X115383244Y-90181849D01*
X132279999Y-90181849D01*
X132279999Y-90384151D01*
X132319466Y-90582565D01*
X132396884Y-90769467D01*
X132509276Y-90937674D01*
X132652325Y-91080723D01*
X132820532Y-91193115D01*
X133007434Y-91270533D01*
X133205848Y-91310000D01*
X133408150Y-91310000D01*
X133606564Y-91270533D01*
X133793466Y-91193115D01*
X133961673Y-91080723D01*
X134104722Y-90937674D01*
X134217114Y-90769467D01*
X134294532Y-90582565D01*
X134333999Y-90384151D01*
X134333999Y-90181849D01*
X134294532Y-89983435D01*
X134231743Y-89831849D01*
X135742000Y-89831849D01*
X135742000Y-90034151D01*
X135781467Y-90232565D01*
X135858885Y-90419467D01*
X135971277Y-90587674D01*
X136114326Y-90730723D01*
X136282533Y-90843115D01*
X136469435Y-90920533D01*
X136667849Y-90960000D01*
X136870151Y-90960000D01*
X137068565Y-90920533D01*
X137255467Y-90843115D01*
X137423674Y-90730723D01*
X137566723Y-90587674D01*
X137679115Y-90419467D01*
X137756533Y-90232565D01*
X137796000Y-90034151D01*
X137796000Y-89831849D01*
X137795006Y-89826849D01*
X137991000Y-89826849D01*
X137991000Y-90029151D01*
X138030467Y-90227565D01*
X138107885Y-90414467D01*
X138220277Y-90582674D01*
X138363326Y-90725723D01*
X138531533Y-90838115D01*
X138718435Y-90915533D01*
X138916849Y-90955000D01*
X139119151Y-90955000D01*
X139317565Y-90915533D01*
X139504467Y-90838115D01*
X139672674Y-90725723D01*
X139815723Y-90582674D01*
X139928115Y-90414467D01*
X139966064Y-90322849D01*
X157087999Y-90322849D01*
X157087999Y-90525151D01*
X157127466Y-90723565D01*
X157204884Y-90910467D01*
X157317276Y-91078674D01*
X157460325Y-91221723D01*
X157628532Y-91334115D01*
X157815434Y-91411533D01*
X158013848Y-91451000D01*
X158216150Y-91451000D01*
X158414564Y-91411533D01*
X158601466Y-91334115D01*
X158769673Y-91221723D01*
X158912722Y-91078674D01*
X159025114Y-90910467D01*
X159102532Y-90723565D01*
X159141999Y-90525151D01*
X159141999Y-90322849D01*
X159102532Y-90124435D01*
X159039743Y-89972849D01*
X160550000Y-89972849D01*
X160550000Y-90175151D01*
X160589467Y-90373565D01*
X160666885Y-90560467D01*
X160779277Y-90728674D01*
X160922326Y-90871723D01*
X161090533Y-90984115D01*
X161277435Y-91061533D01*
X161475849Y-91101000D01*
X161678151Y-91101000D01*
X161876565Y-91061533D01*
X162063467Y-90984115D01*
X162231674Y-90871723D01*
X162374723Y-90728674D01*
X162487115Y-90560467D01*
X162564533Y-90373565D01*
X162604000Y-90175151D01*
X162604000Y-89972849D01*
X162603006Y-89967849D01*
X162799000Y-89967849D01*
X162799000Y-90170151D01*
X162838467Y-90368565D01*
X162915885Y-90555467D01*
X163028277Y-90723674D01*
X163171326Y-90866723D01*
X163339533Y-90979115D01*
X163526435Y-91056533D01*
X163724849Y-91096000D01*
X163927151Y-91096000D01*
X164125565Y-91056533D01*
X164312467Y-90979115D01*
X164480674Y-90866723D01*
X164623723Y-90723674D01*
X164736115Y-90555467D01*
X164766194Y-90482849D01*
X181663999Y-90482849D01*
X181663999Y-90685151D01*
X181703466Y-90883565D01*
X181780884Y-91070467D01*
X181893276Y-91238674D01*
X182036325Y-91381723D01*
X182204532Y-91494115D01*
X182391434Y-91571533D01*
X182589848Y-91611000D01*
X182792150Y-91611000D01*
X182990564Y-91571533D01*
X183177466Y-91494115D01*
X183345673Y-91381723D01*
X183488722Y-91238674D01*
X183601114Y-91070467D01*
X183678532Y-90883565D01*
X183717999Y-90685151D01*
X183717999Y-90482849D01*
X183678532Y-90284435D01*
X183615743Y-90132849D01*
X185126000Y-90132849D01*
X185126000Y-90335151D01*
X185165467Y-90533565D01*
X185242885Y-90720467D01*
X185355277Y-90888674D01*
X185498326Y-91031723D01*
X185666533Y-91144115D01*
X185853435Y-91221533D01*
X186051849Y-91261000D01*
X186254151Y-91261000D01*
X186452565Y-91221533D01*
X186639467Y-91144115D01*
X186807674Y-91031723D01*
X186950723Y-90888674D01*
X187063115Y-90720467D01*
X187140533Y-90533565D01*
X187180000Y-90335151D01*
X187180000Y-90132849D01*
X187179006Y-90127849D01*
X187375000Y-90127849D01*
X187375000Y-90330151D01*
X187414467Y-90528565D01*
X187491885Y-90715467D01*
X187604277Y-90883674D01*
X187747326Y-91026723D01*
X187915533Y-91139115D01*
X188102435Y-91216533D01*
X188300849Y-91256000D01*
X188503151Y-91256000D01*
X188701565Y-91216533D01*
X188888467Y-91139115D01*
X189056674Y-91026723D01*
X189199723Y-90883674D01*
X189297828Y-90736849D01*
X205939999Y-90736849D01*
X205939999Y-90939151D01*
X205979466Y-91137565D01*
X206056884Y-91324467D01*
X206169276Y-91492674D01*
X206312325Y-91635723D01*
X206480532Y-91748115D01*
X206667434Y-91825533D01*
X206865848Y-91865000D01*
X207068150Y-91865000D01*
X207266564Y-91825533D01*
X207453466Y-91748115D01*
X207621673Y-91635723D01*
X207764722Y-91492674D01*
X207877114Y-91324467D01*
X207954532Y-91137565D01*
X207993999Y-90939151D01*
X207993999Y-90736849D01*
X207954532Y-90538435D01*
X207891743Y-90386849D01*
X209402000Y-90386849D01*
X209402000Y-90589151D01*
X209441467Y-90787565D01*
X209518885Y-90974467D01*
X209631277Y-91142674D01*
X209774326Y-91285723D01*
X209942533Y-91398115D01*
X210129435Y-91475533D01*
X210327849Y-91515000D01*
X210530151Y-91515000D01*
X210728565Y-91475533D01*
X210915467Y-91398115D01*
X211083674Y-91285723D01*
X211226723Y-91142674D01*
X211339115Y-90974467D01*
X211416533Y-90787565D01*
X211456000Y-90589151D01*
X211456000Y-90386849D01*
X211455006Y-90381849D01*
X211651000Y-90381849D01*
X211651000Y-90584151D01*
X211690467Y-90782565D01*
X211767885Y-90969467D01*
X211880277Y-91137674D01*
X212023326Y-91280723D01*
X212191533Y-91393115D01*
X212378435Y-91470533D01*
X212576849Y-91510000D01*
X212779151Y-91510000D01*
X212977565Y-91470533D01*
X213164467Y-91393115D01*
X213332674Y-91280723D01*
X213475723Y-91137674D01*
X213588115Y-90969467D01*
X213665533Y-90782565D01*
X213705000Y-90584151D01*
X213705000Y-90381849D01*
X213665533Y-90183435D01*
X213588115Y-89996533D01*
X213475723Y-89828326D01*
X213332674Y-89685277D01*
X213164467Y-89572885D01*
X213135410Y-89560849D01*
X223382000Y-89560849D01*
X223382000Y-89763151D01*
X223421467Y-89961565D01*
X223498885Y-90148467D01*
X223611277Y-90316674D01*
X223754326Y-90459723D01*
X223922533Y-90572115D01*
X224109435Y-90649533D01*
X224307849Y-90689000D01*
X224510151Y-90689000D01*
X224708565Y-90649533D01*
X224895467Y-90572115D01*
X225063674Y-90459723D01*
X225206723Y-90316674D01*
X225319115Y-90148467D01*
X225396533Y-89961565D01*
X225436000Y-89763151D01*
X225436000Y-89560849D01*
X225396533Y-89362435D01*
X225319115Y-89175533D01*
X225206723Y-89007326D01*
X225063674Y-88864277D01*
X224895467Y-88751885D01*
X224708565Y-88674467D01*
X224510151Y-88635000D01*
X224307849Y-88635000D01*
X224109435Y-88674467D01*
X223922533Y-88751885D01*
X223754326Y-88864277D01*
X223611277Y-89007326D01*
X223498885Y-89175533D01*
X223421467Y-89362435D01*
X223382000Y-89560849D01*
X213135410Y-89560849D01*
X212977565Y-89495467D01*
X212779151Y-89456000D01*
X212576849Y-89456000D01*
X212378435Y-89495467D01*
X212191533Y-89572885D01*
X212023326Y-89685277D01*
X211880277Y-89828326D01*
X211767885Y-89996533D01*
X211690467Y-90183435D01*
X211651000Y-90381849D01*
X211455006Y-90381849D01*
X211416533Y-90188435D01*
X211339115Y-90001533D01*
X211226723Y-89833326D01*
X211083674Y-89690277D01*
X210915467Y-89577885D01*
X210728565Y-89500467D01*
X210530151Y-89461000D01*
X210327849Y-89461000D01*
X210129435Y-89500467D01*
X209942533Y-89577885D01*
X209774326Y-89690277D01*
X209631277Y-89833326D01*
X209518885Y-90001533D01*
X209441467Y-90188435D01*
X209402000Y-90386849D01*
X207891743Y-90386849D01*
X207877114Y-90351533D01*
X207764722Y-90183326D01*
X207621673Y-90040277D01*
X207453466Y-89927885D01*
X207266564Y-89850467D01*
X207068150Y-89811000D01*
X206865848Y-89811000D01*
X206667434Y-89850467D01*
X206480532Y-89927885D01*
X206312325Y-90040277D01*
X206169276Y-90183326D01*
X206056884Y-90351533D01*
X205979466Y-90538435D01*
X205939999Y-90736849D01*
X189297828Y-90736849D01*
X189312115Y-90715467D01*
X189389533Y-90528565D01*
X189429000Y-90330151D01*
X189429000Y-90127849D01*
X189389533Y-89929435D01*
X189312115Y-89742533D01*
X189199723Y-89574326D01*
X189056674Y-89431277D01*
X188888467Y-89318885D01*
X188701565Y-89241467D01*
X188503151Y-89202000D01*
X188300849Y-89202000D01*
X188102435Y-89241467D01*
X187915533Y-89318885D01*
X187747326Y-89431277D01*
X187604277Y-89574326D01*
X187491885Y-89742533D01*
X187414467Y-89929435D01*
X187375000Y-90127849D01*
X187179006Y-90127849D01*
X187140533Y-89934435D01*
X187063115Y-89747533D01*
X186950723Y-89579326D01*
X186807674Y-89436277D01*
X186639467Y-89323885D01*
X186452565Y-89246467D01*
X186254151Y-89207000D01*
X186051849Y-89207000D01*
X185853435Y-89246467D01*
X185666533Y-89323885D01*
X185498326Y-89436277D01*
X185355277Y-89579326D01*
X185242885Y-89747533D01*
X185165467Y-89934435D01*
X185126000Y-90132849D01*
X183615743Y-90132849D01*
X183601114Y-90097533D01*
X183488722Y-89929326D01*
X183345673Y-89786277D01*
X183177466Y-89673885D01*
X182990564Y-89596467D01*
X182792150Y-89557000D01*
X182589848Y-89557000D01*
X182391434Y-89596467D01*
X182204532Y-89673885D01*
X182036325Y-89786277D01*
X181893276Y-89929326D01*
X181780884Y-90097533D01*
X181703466Y-90284435D01*
X181663999Y-90482849D01*
X164766194Y-90482849D01*
X164813533Y-90368565D01*
X164853000Y-90170151D01*
X164853000Y-89967849D01*
X164813533Y-89769435D01*
X164736115Y-89582533D01*
X164623723Y-89414326D01*
X164480674Y-89271277D01*
X164312467Y-89158885D01*
X164125565Y-89081467D01*
X163981693Y-89052849D01*
X174106000Y-89052849D01*
X174106000Y-89255151D01*
X174145467Y-89453565D01*
X174222885Y-89640467D01*
X174335277Y-89808674D01*
X174478326Y-89951723D01*
X174646533Y-90064115D01*
X174833435Y-90141533D01*
X175031849Y-90181000D01*
X175234151Y-90181000D01*
X175432565Y-90141533D01*
X175619467Y-90064115D01*
X175787674Y-89951723D01*
X175930723Y-89808674D01*
X176043115Y-89640467D01*
X176120533Y-89453565D01*
X176160000Y-89255151D01*
X176160000Y-89052849D01*
X176120533Y-88854435D01*
X176043115Y-88667533D01*
X175930723Y-88499326D01*
X175787674Y-88356277D01*
X175619467Y-88243885D01*
X175432565Y-88166467D01*
X175234151Y-88127000D01*
X175031849Y-88127000D01*
X174833435Y-88166467D01*
X174646533Y-88243885D01*
X174478326Y-88356277D01*
X174335277Y-88499326D01*
X174222885Y-88667533D01*
X174145467Y-88854435D01*
X174106000Y-89052849D01*
X163981693Y-89052849D01*
X163927151Y-89042000D01*
X163724849Y-89042000D01*
X163526435Y-89081467D01*
X163339533Y-89158885D01*
X163171326Y-89271277D01*
X163028277Y-89414326D01*
X162915885Y-89582533D01*
X162838467Y-89769435D01*
X162799000Y-89967849D01*
X162603006Y-89967849D01*
X162564533Y-89774435D01*
X162487115Y-89587533D01*
X162374723Y-89419326D01*
X162231674Y-89276277D01*
X162063467Y-89163885D01*
X161876565Y-89086467D01*
X161678151Y-89047000D01*
X161475849Y-89047000D01*
X161277435Y-89086467D01*
X161090533Y-89163885D01*
X160922326Y-89276277D01*
X160779277Y-89419326D01*
X160666885Y-89587533D01*
X160589467Y-89774435D01*
X160550000Y-89972849D01*
X159039743Y-89972849D01*
X159025114Y-89937533D01*
X158912722Y-89769326D01*
X158769673Y-89626277D01*
X158601466Y-89513885D01*
X158414564Y-89436467D01*
X158216150Y-89397000D01*
X158013848Y-89397000D01*
X157815434Y-89436467D01*
X157628532Y-89513885D01*
X157460325Y-89626277D01*
X157317276Y-89769326D01*
X157204884Y-89937533D01*
X157127466Y-90124435D01*
X157087999Y-90322849D01*
X139966064Y-90322849D01*
X140005533Y-90227565D01*
X140045000Y-90029151D01*
X140045000Y-89826849D01*
X140005533Y-89628435D01*
X139928115Y-89441533D01*
X139815723Y-89273326D01*
X139672674Y-89130277D01*
X139556795Y-89052849D01*
X149722000Y-89052849D01*
X149722000Y-89255151D01*
X149761467Y-89453565D01*
X149838885Y-89640467D01*
X149951277Y-89808674D01*
X150094326Y-89951723D01*
X150262533Y-90064115D01*
X150449435Y-90141533D01*
X150647849Y-90181000D01*
X150850151Y-90181000D01*
X151048565Y-90141533D01*
X151235467Y-90064115D01*
X151403674Y-89951723D01*
X151546723Y-89808674D01*
X151659115Y-89640467D01*
X151736533Y-89453565D01*
X151776000Y-89255151D01*
X151776000Y-89052849D01*
X151736533Y-88854435D01*
X151659115Y-88667533D01*
X151546723Y-88499326D01*
X151403674Y-88356277D01*
X151235467Y-88243885D01*
X151048565Y-88166467D01*
X150850151Y-88127000D01*
X150647849Y-88127000D01*
X150449435Y-88166467D01*
X150262533Y-88243885D01*
X150094326Y-88356277D01*
X149951277Y-88499326D01*
X149838885Y-88667533D01*
X149761467Y-88854435D01*
X149722000Y-89052849D01*
X139556795Y-89052849D01*
X139504467Y-89017885D01*
X139317565Y-88940467D01*
X139119151Y-88901000D01*
X138916849Y-88901000D01*
X138718435Y-88940467D01*
X138531533Y-89017885D01*
X138363326Y-89130277D01*
X138220277Y-89273326D01*
X138107885Y-89441533D01*
X138030467Y-89628435D01*
X137991000Y-89826849D01*
X137795006Y-89826849D01*
X137756533Y-89633435D01*
X137679115Y-89446533D01*
X137566723Y-89278326D01*
X137423674Y-89135277D01*
X137255467Y-89022885D01*
X137068565Y-88945467D01*
X136870151Y-88906000D01*
X136667849Y-88906000D01*
X136469435Y-88945467D01*
X136282533Y-89022885D01*
X136114326Y-89135277D01*
X135971277Y-89278326D01*
X135858885Y-89446533D01*
X135781467Y-89633435D01*
X135742000Y-89831849D01*
X134231743Y-89831849D01*
X134217114Y-89796533D01*
X134104722Y-89628326D01*
X133961673Y-89485277D01*
X133793466Y-89372885D01*
X133606564Y-89295467D01*
X133408150Y-89256000D01*
X133205848Y-89256000D01*
X133007434Y-89295467D01*
X132820532Y-89372885D01*
X132652325Y-89485277D01*
X132509276Y-89628326D01*
X132396884Y-89796533D01*
X132319466Y-89983435D01*
X132279999Y-90181849D01*
X115383244Y-90181849D01*
X115417000Y-90012151D01*
X115417000Y-89809849D01*
X115377533Y-89611435D01*
X115300115Y-89424533D01*
X115187723Y-89256326D01*
X115044674Y-89113277D01*
X114954237Y-89052849D01*
X124830000Y-89052849D01*
X124830000Y-89255151D01*
X124869467Y-89453565D01*
X124946885Y-89640467D01*
X125059277Y-89808674D01*
X125202326Y-89951723D01*
X125370533Y-90064115D01*
X125557435Y-90141533D01*
X125755849Y-90181000D01*
X125958151Y-90181000D01*
X126156565Y-90141533D01*
X126343467Y-90064115D01*
X126511674Y-89951723D01*
X126654723Y-89808674D01*
X126767115Y-89640467D01*
X126844533Y-89453565D01*
X126884000Y-89255151D01*
X126884000Y-89052849D01*
X126844533Y-88854435D01*
X126767115Y-88667533D01*
X126654723Y-88499326D01*
X126511674Y-88356277D01*
X126343467Y-88243885D01*
X126156565Y-88166467D01*
X125958151Y-88127000D01*
X125755849Y-88127000D01*
X125557435Y-88166467D01*
X125370533Y-88243885D01*
X125202326Y-88356277D01*
X125059277Y-88499326D01*
X124946885Y-88667533D01*
X124869467Y-88854435D01*
X124830000Y-89052849D01*
X114954237Y-89052849D01*
X114876467Y-89000885D01*
X114689565Y-88923467D01*
X114491151Y-88884000D01*
X114288849Y-88884000D01*
X114090435Y-88923467D01*
X113903533Y-89000885D01*
X113735326Y-89113277D01*
X113592277Y-89256326D01*
X113479885Y-89424533D01*
X113402467Y-89611435D01*
X113363000Y-89809849D01*
X113167006Y-89809849D01*
X113128533Y-89616435D01*
X113051115Y-89429533D01*
X112938723Y-89261326D01*
X112795674Y-89118277D01*
X112627467Y-89005885D01*
X112440565Y-88928467D01*
X112242151Y-88889000D01*
X112039849Y-88889000D01*
X111841435Y-88928467D01*
X111654533Y-89005885D01*
X111486326Y-89118277D01*
X111343277Y-89261326D01*
X111230885Y-89429533D01*
X111153467Y-89616435D01*
X111114000Y-89814849D01*
X109603743Y-89814849D01*
X109589114Y-89779533D01*
X109476722Y-89611326D01*
X109333673Y-89468277D01*
X109165466Y-89355885D01*
X108978564Y-89278467D01*
X108780150Y-89239000D01*
X108577848Y-89239000D01*
X108379434Y-89278467D01*
X108192532Y-89355885D01*
X108024325Y-89468277D01*
X107881276Y-89611326D01*
X107768884Y-89779533D01*
X107691466Y-89966435D01*
X107651999Y-90164849D01*
X106934000Y-90164849D01*
X106934000Y-85910349D01*
X107652000Y-85910349D01*
X107652000Y-86112651D01*
X107691467Y-86311065D01*
X107768885Y-86497967D01*
X107881277Y-86666174D01*
X108024326Y-86809223D01*
X108192533Y-86921615D01*
X108379435Y-86999033D01*
X108577849Y-87038500D01*
X108594248Y-87038500D01*
X108506435Y-87055967D01*
X108319533Y-87133385D01*
X108151326Y-87245777D01*
X108008277Y-87388826D01*
X107895885Y-87557033D01*
X107818467Y-87743935D01*
X107779000Y-87942349D01*
X107779000Y-88144651D01*
X107818467Y-88343065D01*
X107895885Y-88529967D01*
X108008277Y-88698174D01*
X108151326Y-88841223D01*
X108319533Y-88953615D01*
X108506435Y-89031033D01*
X108704849Y-89070500D01*
X108907151Y-89070500D01*
X109105565Y-89031033D01*
X109292467Y-88953615D01*
X109460674Y-88841223D01*
X109603723Y-88698174D01*
X109716115Y-88529967D01*
X109793533Y-88343065D01*
X109833000Y-88144651D01*
X109833000Y-87942349D01*
X109793533Y-87743935D01*
X109716115Y-87557033D01*
X109603723Y-87388826D01*
X109460674Y-87245777D01*
X109292467Y-87133385D01*
X109105565Y-87055967D01*
X108907151Y-87016500D01*
X108890752Y-87016500D01*
X108978565Y-86999033D01*
X109165467Y-86921615D01*
X109333674Y-86809223D01*
X109476723Y-86666174D01*
X109589115Y-86497967D01*
X109666533Y-86311065D01*
X109706000Y-86112651D01*
X109706000Y-85910349D01*
X109666533Y-85711935D01*
X109589115Y-85525033D01*
X109476723Y-85356826D01*
X109333674Y-85213777D01*
X109165467Y-85101385D01*
X108978565Y-85023967D01*
X108780151Y-84984500D01*
X108577849Y-84984500D01*
X108379435Y-85023967D01*
X108192533Y-85101385D01*
X108024326Y-85213777D01*
X107881277Y-85356826D01*
X107768885Y-85525033D01*
X107691467Y-85711935D01*
X107652000Y-85910349D01*
X106934000Y-85910349D01*
X106934000Y-82967001D01*
X119279966Y-82967001D01*
X119279966Y-86967001D01*
X119307079Y-87242280D01*
X119387374Y-87506980D01*
X119517768Y-87750929D01*
X119693248Y-87964752D01*
X119907071Y-88140232D01*
X120151020Y-88270626D01*
X120415720Y-88350921D01*
X120690999Y-88378034D01*
X120691001Y-88378034D01*
X120966280Y-88350921D01*
X121230980Y-88270626D01*
X121474929Y-88140232D01*
X121688752Y-87964752D01*
X121864232Y-87750929D01*
X121994626Y-87506980D01*
X122074921Y-87242280D01*
X122102034Y-86967001D01*
X122102034Y-84988849D01*
X125454001Y-84988849D01*
X125454001Y-85191151D01*
X125493468Y-85389565D01*
X125570886Y-85576467D01*
X125683278Y-85744674D01*
X125826327Y-85887723D01*
X125994534Y-86000115D01*
X126181436Y-86077533D01*
X126379850Y-86117000D01*
X126582152Y-86117000D01*
X126780566Y-86077533D01*
X126967468Y-86000115D01*
X127076370Y-85927349D01*
X132280000Y-85927349D01*
X132280000Y-86129651D01*
X132319467Y-86328065D01*
X132396885Y-86514967D01*
X132509277Y-86683174D01*
X132652326Y-86826223D01*
X132820533Y-86938615D01*
X133007435Y-87016033D01*
X133205849Y-87055500D01*
X133222248Y-87055500D01*
X133134435Y-87072967D01*
X132947533Y-87150385D01*
X132779326Y-87262777D01*
X132636277Y-87405826D01*
X132523885Y-87574033D01*
X132446467Y-87760935D01*
X132407000Y-87959349D01*
X132407000Y-88161651D01*
X132446467Y-88360065D01*
X132523885Y-88546967D01*
X132636277Y-88715174D01*
X132779326Y-88858223D01*
X132947533Y-88970615D01*
X133134435Y-89048033D01*
X133332849Y-89087500D01*
X133535151Y-89087500D01*
X133733565Y-89048033D01*
X133920467Y-88970615D01*
X134088674Y-88858223D01*
X134231723Y-88715174D01*
X134344115Y-88546967D01*
X134421533Y-88360065D01*
X134461000Y-88161651D01*
X134461000Y-87959349D01*
X134421533Y-87760935D01*
X134344115Y-87574033D01*
X134231723Y-87405826D01*
X134088674Y-87262777D01*
X133920467Y-87150385D01*
X133733565Y-87072967D01*
X133535151Y-87033500D01*
X133518752Y-87033500D01*
X133606565Y-87016033D01*
X133793467Y-86938615D01*
X133961674Y-86826223D01*
X134104723Y-86683174D01*
X134217115Y-86514967D01*
X134294533Y-86328065D01*
X134334000Y-86129651D01*
X134334000Y-85927349D01*
X134294533Y-85728935D01*
X134217115Y-85542033D01*
X134104723Y-85373826D01*
X133961674Y-85230777D01*
X133793467Y-85118385D01*
X133606565Y-85040967D01*
X133408151Y-85001500D01*
X133205849Y-85001500D01*
X133007435Y-85040967D01*
X132820533Y-85118385D01*
X132652326Y-85230777D01*
X132509277Y-85373826D01*
X132396885Y-85542033D01*
X132319467Y-85728935D01*
X132280000Y-85927349D01*
X127076370Y-85927349D01*
X127135675Y-85887723D01*
X127278724Y-85744674D01*
X127391116Y-85576467D01*
X127468534Y-85389565D01*
X127508001Y-85191151D01*
X127508001Y-84988849D01*
X127468534Y-84790435D01*
X127391116Y-84603533D01*
X127278724Y-84435326D01*
X127135675Y-84292277D01*
X126967468Y-84179885D01*
X126780566Y-84102467D01*
X126582152Y-84063000D01*
X126379850Y-84063000D01*
X126181436Y-84102467D01*
X125994534Y-84179885D01*
X125826327Y-84292277D01*
X125683278Y-84435326D01*
X125570886Y-84603533D01*
X125493468Y-84790435D01*
X125454001Y-84988849D01*
X122102034Y-84988849D01*
X122102034Y-83972849D01*
X127370000Y-83972849D01*
X127370000Y-84175151D01*
X127409467Y-84373565D01*
X127486885Y-84560467D01*
X127599277Y-84728674D01*
X127742326Y-84871723D01*
X127910533Y-84984115D01*
X128097435Y-85061533D01*
X128295849Y-85101000D01*
X128498151Y-85101000D01*
X128696565Y-85061533D01*
X128883467Y-84984115D01*
X129051674Y-84871723D01*
X129194723Y-84728674D01*
X129307115Y-84560467D01*
X129384533Y-84373565D01*
X129424000Y-84175151D01*
X129424000Y-83972849D01*
X129384533Y-83774435D01*
X129307115Y-83587533D01*
X129194723Y-83419326D01*
X129051674Y-83276277D01*
X128883467Y-83163885D01*
X128696565Y-83086467D01*
X128498151Y-83047000D01*
X128295849Y-83047000D01*
X128097435Y-83086467D01*
X127910533Y-83163885D01*
X127742326Y-83276277D01*
X127599277Y-83419326D01*
X127486885Y-83587533D01*
X127409467Y-83774435D01*
X127370000Y-83972849D01*
X122102034Y-83972849D01*
X122102034Y-82984001D01*
X143907966Y-82984001D01*
X143907966Y-86984001D01*
X143935079Y-87259280D01*
X144015374Y-87523980D01*
X144145768Y-87767929D01*
X144321248Y-87981752D01*
X144535071Y-88157232D01*
X144779020Y-88287626D01*
X145043720Y-88367921D01*
X145318999Y-88395034D01*
X145319001Y-88395034D01*
X145594280Y-88367921D01*
X145858980Y-88287626D01*
X146102929Y-88157232D01*
X146316752Y-87981752D01*
X146492232Y-87767929D01*
X146622626Y-87523980D01*
X146702921Y-87259280D01*
X146730034Y-86984001D01*
X146730034Y-85008850D01*
X150032000Y-85008850D01*
X150032000Y-85211152D01*
X150071467Y-85409566D01*
X150148885Y-85596468D01*
X150261277Y-85764675D01*
X150404326Y-85907724D01*
X150572533Y-86020116D01*
X150759435Y-86097534D01*
X150957849Y-86137001D01*
X151160151Y-86137001D01*
X151358565Y-86097534D01*
X151429023Y-86068349D01*
X157088000Y-86068349D01*
X157088000Y-86270651D01*
X157127467Y-86469065D01*
X157204885Y-86655967D01*
X157317277Y-86824174D01*
X157460326Y-86967223D01*
X157628533Y-87079615D01*
X157815435Y-87157033D01*
X158013849Y-87196500D01*
X158030248Y-87196500D01*
X157942435Y-87213967D01*
X157755533Y-87291385D01*
X157587326Y-87403777D01*
X157444277Y-87546826D01*
X157331885Y-87715033D01*
X157254467Y-87901935D01*
X157215000Y-88100349D01*
X157215000Y-88302651D01*
X157254467Y-88501065D01*
X157331885Y-88687967D01*
X157444277Y-88856174D01*
X157587326Y-88999223D01*
X157755533Y-89111615D01*
X157942435Y-89189033D01*
X158140849Y-89228500D01*
X158343151Y-89228500D01*
X158541565Y-89189033D01*
X158728467Y-89111615D01*
X158896674Y-88999223D01*
X159039723Y-88856174D01*
X159152115Y-88687967D01*
X159229533Y-88501065D01*
X159269000Y-88302651D01*
X159269000Y-88100349D01*
X159229533Y-87901935D01*
X159152115Y-87715033D01*
X159039723Y-87546826D01*
X158896674Y-87403777D01*
X158728467Y-87291385D01*
X158541565Y-87213967D01*
X158343151Y-87174500D01*
X158326752Y-87174500D01*
X158414565Y-87157033D01*
X158601467Y-87079615D01*
X158769674Y-86967223D01*
X158912723Y-86824174D01*
X159025115Y-86655967D01*
X159102533Y-86469065D01*
X159142000Y-86270651D01*
X159142000Y-86068349D01*
X159102533Y-85869935D01*
X159025115Y-85683033D01*
X158912723Y-85514826D01*
X158769674Y-85371777D01*
X158601467Y-85259385D01*
X158414565Y-85181967D01*
X158216151Y-85142500D01*
X158013849Y-85142500D01*
X157815435Y-85181967D01*
X157628533Y-85259385D01*
X157460326Y-85371777D01*
X157317277Y-85514826D01*
X157204885Y-85683033D01*
X157127467Y-85869935D01*
X157088000Y-86068349D01*
X151429023Y-86068349D01*
X151545467Y-86020116D01*
X151713674Y-85907724D01*
X151856723Y-85764675D01*
X151969115Y-85596468D01*
X152046533Y-85409566D01*
X152086000Y-85211152D01*
X152086000Y-85008850D01*
X152046533Y-84810436D01*
X151969115Y-84623534D01*
X151856723Y-84455327D01*
X151713674Y-84312278D01*
X151545467Y-84199886D01*
X151358565Y-84122468D01*
X151244852Y-84099849D01*
X152008000Y-84099849D01*
X152008000Y-84302151D01*
X152047467Y-84500565D01*
X152124885Y-84687467D01*
X152237277Y-84855674D01*
X152380326Y-84998723D01*
X152548533Y-85111115D01*
X152735435Y-85188533D01*
X152933849Y-85228000D01*
X153136151Y-85228000D01*
X153334565Y-85188533D01*
X153521467Y-85111115D01*
X153689674Y-84998723D01*
X153832723Y-84855674D01*
X153945115Y-84687467D01*
X154022533Y-84500565D01*
X154062000Y-84302151D01*
X154062000Y-84099849D01*
X154022533Y-83901435D01*
X153945115Y-83714533D01*
X153832723Y-83546326D01*
X153689674Y-83403277D01*
X153521467Y-83290885D01*
X153334565Y-83213467D01*
X153136151Y-83174000D01*
X152933849Y-83174000D01*
X152735435Y-83213467D01*
X152548533Y-83290885D01*
X152380326Y-83403277D01*
X152237277Y-83546326D01*
X152124885Y-83714533D01*
X152047467Y-83901435D01*
X152008000Y-84099849D01*
X151244852Y-84099849D01*
X151160151Y-84083001D01*
X150957849Y-84083001D01*
X150759435Y-84122468D01*
X150572533Y-84199886D01*
X150404326Y-84312278D01*
X150261277Y-84455327D01*
X150148885Y-84623534D01*
X150071467Y-84810436D01*
X150032000Y-85008850D01*
X146730034Y-85008850D01*
X146730034Y-83125001D01*
X168715966Y-83125001D01*
X168715966Y-87125001D01*
X168743079Y-87400280D01*
X168823374Y-87664980D01*
X168953768Y-87908929D01*
X169129248Y-88122752D01*
X169343071Y-88298232D01*
X169587020Y-88428626D01*
X169851720Y-88508921D01*
X170126999Y-88536034D01*
X170127001Y-88536034D01*
X170402280Y-88508921D01*
X170666980Y-88428626D01*
X170910929Y-88298232D01*
X171124752Y-88122752D01*
X171300232Y-87908929D01*
X171430626Y-87664980D01*
X171510921Y-87400280D01*
X171538034Y-87125001D01*
X171538034Y-85115849D01*
X174868000Y-85115849D01*
X174868000Y-85318151D01*
X174907467Y-85516565D01*
X174984885Y-85703467D01*
X175097277Y-85871674D01*
X175240326Y-86014723D01*
X175408533Y-86127115D01*
X175595435Y-86204533D01*
X175793849Y-86244000D01*
X175996151Y-86244000D01*
X176074833Y-86228349D01*
X181664000Y-86228349D01*
X181664000Y-86430651D01*
X181703467Y-86629065D01*
X181780885Y-86815967D01*
X181893277Y-86984174D01*
X182036326Y-87127223D01*
X182204533Y-87239615D01*
X182391435Y-87317033D01*
X182589849Y-87356500D01*
X182606248Y-87356500D01*
X182518435Y-87373967D01*
X182331533Y-87451385D01*
X182163326Y-87563777D01*
X182020277Y-87706826D01*
X181907885Y-87875033D01*
X181830467Y-88061935D01*
X181791000Y-88260349D01*
X181791000Y-88462651D01*
X181830467Y-88661065D01*
X181907885Y-88847967D01*
X182020277Y-89016174D01*
X182163326Y-89159223D01*
X182331533Y-89271615D01*
X182518435Y-89349033D01*
X182716849Y-89388500D01*
X182919151Y-89388500D01*
X183117565Y-89349033D01*
X183304467Y-89271615D01*
X183472674Y-89159223D01*
X183579048Y-89052849D01*
X198998000Y-89052849D01*
X198998000Y-89255151D01*
X199037467Y-89453565D01*
X199114885Y-89640467D01*
X199227277Y-89808674D01*
X199370326Y-89951723D01*
X199538533Y-90064115D01*
X199725435Y-90141533D01*
X199923849Y-90181000D01*
X200126151Y-90181000D01*
X200324565Y-90141533D01*
X200511467Y-90064115D01*
X200679674Y-89951723D01*
X200822723Y-89808674D01*
X200935115Y-89640467D01*
X201012533Y-89453565D01*
X201052000Y-89255151D01*
X201052000Y-89052849D01*
X201012533Y-88854435D01*
X200935115Y-88667533D01*
X200822723Y-88499326D01*
X200679674Y-88356277D01*
X200511467Y-88243885D01*
X200324565Y-88166467D01*
X200126151Y-88127000D01*
X199923849Y-88127000D01*
X199725435Y-88166467D01*
X199538533Y-88243885D01*
X199370326Y-88356277D01*
X199227277Y-88499326D01*
X199114885Y-88667533D01*
X199037467Y-88854435D01*
X198998000Y-89052849D01*
X183579048Y-89052849D01*
X183615723Y-89016174D01*
X183728115Y-88847967D01*
X183805533Y-88661065D01*
X183845000Y-88462651D01*
X183845000Y-88260349D01*
X183805533Y-88061935D01*
X183728115Y-87875033D01*
X183615723Y-87706826D01*
X183472674Y-87563777D01*
X183304467Y-87451385D01*
X183117565Y-87373967D01*
X182919151Y-87334500D01*
X182902752Y-87334500D01*
X182990565Y-87317033D01*
X183177467Y-87239615D01*
X183345674Y-87127223D01*
X183488723Y-86984174D01*
X183601115Y-86815967D01*
X183678533Y-86629065D01*
X183718000Y-86430651D01*
X183718000Y-86228349D01*
X183678533Y-86029935D01*
X183601115Y-85843033D01*
X183488723Y-85674826D01*
X183345674Y-85531777D01*
X183177467Y-85419385D01*
X182990565Y-85341967D01*
X182792151Y-85302500D01*
X182589849Y-85302500D01*
X182391435Y-85341967D01*
X182204533Y-85419385D01*
X182036326Y-85531777D01*
X181893277Y-85674826D01*
X181780885Y-85843033D01*
X181703467Y-86029935D01*
X181664000Y-86228349D01*
X176074833Y-86228349D01*
X176194565Y-86204533D01*
X176381467Y-86127115D01*
X176549674Y-86014723D01*
X176692723Y-85871674D01*
X176805115Y-85703467D01*
X176882533Y-85516565D01*
X176922000Y-85318151D01*
X176922000Y-85115849D01*
X176882533Y-84917435D01*
X176805115Y-84730533D01*
X176692723Y-84562326D01*
X176549674Y-84419277D01*
X176381467Y-84306885D01*
X176194565Y-84229467D01*
X176181404Y-84226849D01*
X176773000Y-84226849D01*
X176773000Y-84429151D01*
X176812467Y-84627565D01*
X176889885Y-84814467D01*
X177002277Y-84982674D01*
X177145326Y-85125723D01*
X177313533Y-85238115D01*
X177500435Y-85315533D01*
X177698849Y-85355000D01*
X177901151Y-85355000D01*
X178099565Y-85315533D01*
X178286467Y-85238115D01*
X178454674Y-85125723D01*
X178597723Y-84982674D01*
X178710115Y-84814467D01*
X178787533Y-84627565D01*
X178827000Y-84429151D01*
X178827000Y-84226849D01*
X178787533Y-84028435D01*
X178710115Y-83841533D01*
X178597723Y-83673326D01*
X178454674Y-83530277D01*
X178286467Y-83417885D01*
X178099565Y-83340467D01*
X177901151Y-83301000D01*
X177698849Y-83301000D01*
X177500435Y-83340467D01*
X177313533Y-83417885D01*
X177145326Y-83530277D01*
X177002277Y-83673326D01*
X176889885Y-83841533D01*
X176812467Y-84028435D01*
X176773000Y-84226849D01*
X176181404Y-84226849D01*
X175996151Y-84190000D01*
X175793849Y-84190000D01*
X175595435Y-84229467D01*
X175408533Y-84306885D01*
X175240326Y-84419277D01*
X175097277Y-84562326D01*
X174984885Y-84730533D01*
X174907467Y-84917435D01*
X174868000Y-85115849D01*
X171538034Y-85115849D01*
X171538034Y-83285001D01*
X193291966Y-83285001D01*
X193291966Y-87285001D01*
X193319079Y-87560280D01*
X193399374Y-87824980D01*
X193529768Y-88068929D01*
X193705248Y-88282752D01*
X193919071Y-88458232D01*
X194163020Y-88588626D01*
X194427720Y-88668921D01*
X194702999Y-88696034D01*
X194703001Y-88696034D01*
X194978280Y-88668921D01*
X195242980Y-88588626D01*
X195486929Y-88458232D01*
X195700752Y-88282752D01*
X195876232Y-88068929D01*
X196006626Y-87824980D01*
X196086921Y-87560280D01*
X196114034Y-87285001D01*
X196114034Y-86482349D01*
X205940000Y-86482349D01*
X205940000Y-86684651D01*
X205979467Y-86883065D01*
X206056885Y-87069967D01*
X206169277Y-87238174D01*
X206312326Y-87381223D01*
X206480533Y-87493615D01*
X206667435Y-87571033D01*
X206865849Y-87610500D01*
X206882248Y-87610500D01*
X206794435Y-87627967D01*
X206607533Y-87705385D01*
X206439326Y-87817777D01*
X206296277Y-87960826D01*
X206183885Y-88129033D01*
X206106467Y-88315935D01*
X206067000Y-88514349D01*
X206067000Y-88716651D01*
X206106467Y-88915065D01*
X206183885Y-89101967D01*
X206296277Y-89270174D01*
X206439326Y-89413223D01*
X206607533Y-89525615D01*
X206794435Y-89603033D01*
X206992849Y-89642500D01*
X207195151Y-89642500D01*
X207393565Y-89603033D01*
X207580467Y-89525615D01*
X207748674Y-89413223D01*
X207891723Y-89270174D01*
X208004115Y-89101967D01*
X208081533Y-88915065D01*
X208121000Y-88716651D01*
X208121000Y-88514349D01*
X208081533Y-88315935D01*
X208004115Y-88129033D01*
X207891723Y-87960826D01*
X207748674Y-87817777D01*
X207580467Y-87705385D01*
X207393565Y-87627967D01*
X207195151Y-87588500D01*
X207178752Y-87588500D01*
X207266565Y-87571033D01*
X207453467Y-87493615D01*
X207621674Y-87381223D01*
X207764723Y-87238174D01*
X207877115Y-87069967D01*
X207954533Y-86883065D01*
X207994000Y-86684651D01*
X207994000Y-86482349D01*
X207954533Y-86283935D01*
X207877115Y-86097033D01*
X207764723Y-85928826D01*
X207621674Y-85785777D01*
X207453467Y-85673385D01*
X207266565Y-85595967D01*
X207068151Y-85556500D01*
X206865849Y-85556500D01*
X206667435Y-85595967D01*
X206480533Y-85673385D01*
X206312326Y-85785777D01*
X206169277Y-85928826D01*
X206056885Y-86097033D01*
X205979467Y-86283935D01*
X205940000Y-86482349D01*
X196114034Y-86482349D01*
X196114034Y-85242849D01*
X199379000Y-85242849D01*
X199379000Y-85445151D01*
X199418467Y-85643565D01*
X199495885Y-85830467D01*
X199608277Y-85998674D01*
X199751326Y-86141723D01*
X199919533Y-86254115D01*
X200106435Y-86331533D01*
X200304849Y-86371000D01*
X200507151Y-86371000D01*
X200705565Y-86331533D01*
X200892467Y-86254115D01*
X201060674Y-86141723D01*
X201203723Y-85998674D01*
X201316115Y-85830467D01*
X201393533Y-85643565D01*
X201433000Y-85445151D01*
X201433000Y-85242849D01*
X201393533Y-85044435D01*
X201316115Y-84857533D01*
X201203723Y-84689326D01*
X201060674Y-84546277D01*
X200892467Y-84433885D01*
X200705565Y-84356467D01*
X200692404Y-84353849D01*
X201411000Y-84353849D01*
X201411000Y-84556151D01*
X201450467Y-84754565D01*
X201527885Y-84941467D01*
X201640277Y-85109674D01*
X201783326Y-85252723D01*
X201951533Y-85365115D01*
X202138435Y-85442533D01*
X202336849Y-85482000D01*
X202539151Y-85482000D01*
X202737565Y-85442533D01*
X202924467Y-85365115D01*
X203092674Y-85252723D01*
X203235723Y-85109674D01*
X203348115Y-84941467D01*
X203425533Y-84754565D01*
X203465000Y-84556151D01*
X203465000Y-84353849D01*
X203425533Y-84155435D01*
X203348115Y-83968533D01*
X203235723Y-83800326D01*
X203092674Y-83657277D01*
X202924467Y-83544885D01*
X202910262Y-83539001D01*
X217567966Y-83539001D01*
X217567966Y-87539001D01*
X217595079Y-87814280D01*
X217675374Y-88078980D01*
X217805768Y-88322929D01*
X217981248Y-88536752D01*
X218195071Y-88712232D01*
X218439020Y-88842626D01*
X218703720Y-88922921D01*
X218978999Y-88950034D01*
X218979001Y-88950034D01*
X219254280Y-88922921D01*
X219518980Y-88842626D01*
X219762929Y-88712232D01*
X219976752Y-88536752D01*
X220152232Y-88322929D01*
X220282626Y-88078980D01*
X220362921Y-87814280D01*
X220390034Y-87539001D01*
X220390034Y-85563850D01*
X223692000Y-85563850D01*
X223692000Y-85766152D01*
X223731467Y-85964566D01*
X223808885Y-86151468D01*
X223921277Y-86319675D01*
X224064326Y-86462724D01*
X224232533Y-86575116D01*
X224419435Y-86652534D01*
X224617849Y-86692001D01*
X224820151Y-86692001D01*
X225018565Y-86652534D01*
X225205467Y-86575116D01*
X225373674Y-86462724D01*
X225516723Y-86319675D01*
X225629115Y-86151468D01*
X225706533Y-85964566D01*
X225746000Y-85766152D01*
X225746000Y-85563850D01*
X225706533Y-85365436D01*
X225629115Y-85178534D01*
X225516723Y-85010327D01*
X225373674Y-84867278D01*
X225205467Y-84754886D01*
X225018565Y-84677468D01*
X224820151Y-84638001D01*
X224617849Y-84638001D01*
X224419435Y-84677468D01*
X224232533Y-84754886D01*
X224064326Y-84867278D01*
X223921277Y-85010327D01*
X223808885Y-85178534D01*
X223731467Y-85365436D01*
X223692000Y-85563850D01*
X220390034Y-85563850D01*
X220390034Y-84613850D01*
X225692000Y-84613850D01*
X225692000Y-84816152D01*
X225731467Y-85014566D01*
X225808885Y-85201468D01*
X225921277Y-85369675D01*
X226064326Y-85512724D01*
X226232533Y-85625116D01*
X226419435Y-85702534D01*
X226617849Y-85742001D01*
X226820151Y-85742001D01*
X227018565Y-85702534D01*
X227205467Y-85625116D01*
X227373674Y-85512724D01*
X227516723Y-85369675D01*
X227629115Y-85201468D01*
X227706533Y-85014566D01*
X227746000Y-84816152D01*
X227746000Y-84613850D01*
X227706533Y-84415436D01*
X227629115Y-84228534D01*
X227516723Y-84060327D01*
X227373674Y-83917278D01*
X227205467Y-83804886D01*
X227018565Y-83727468D01*
X226820151Y-83688001D01*
X226617849Y-83688001D01*
X226419435Y-83727468D01*
X226232533Y-83804886D01*
X226064326Y-83917278D01*
X225921277Y-84060327D01*
X225808885Y-84228534D01*
X225731467Y-84415436D01*
X225692000Y-84613850D01*
X220390034Y-84613850D01*
X220390034Y-83539001D01*
X220362921Y-83263722D01*
X220282626Y-82999022D01*
X220152232Y-82755073D01*
X219976752Y-82541250D01*
X219762929Y-82365770D01*
X219518980Y-82235376D01*
X219254280Y-82155081D01*
X218979001Y-82127968D01*
X218978999Y-82127968D01*
X218703720Y-82155081D01*
X218439020Y-82235376D01*
X218195071Y-82365770D01*
X217981248Y-82541250D01*
X217805768Y-82755073D01*
X217675374Y-82999022D01*
X217595079Y-83263722D01*
X217567966Y-83539001D01*
X202910262Y-83539001D01*
X202737565Y-83467467D01*
X202539151Y-83428000D01*
X202336849Y-83428000D01*
X202138435Y-83467467D01*
X201951533Y-83544885D01*
X201783326Y-83657277D01*
X201640277Y-83800326D01*
X201527885Y-83968533D01*
X201450467Y-84155435D01*
X201411000Y-84353849D01*
X200692404Y-84353849D01*
X200507151Y-84317000D01*
X200304849Y-84317000D01*
X200106435Y-84356467D01*
X199919533Y-84433885D01*
X199751326Y-84546277D01*
X199608277Y-84689326D01*
X199495885Y-84857533D01*
X199418467Y-85044435D01*
X199379000Y-85242849D01*
X196114034Y-85242849D01*
X196114034Y-83285001D01*
X196086921Y-83009722D01*
X196006626Y-82745022D01*
X195876232Y-82501073D01*
X195700752Y-82287250D01*
X195666146Y-82258849D01*
X206100000Y-82258849D01*
X206100000Y-82461151D01*
X206139467Y-82659565D01*
X206216885Y-82846467D01*
X206329277Y-83014674D01*
X206472326Y-83157723D01*
X206640533Y-83270115D01*
X206827435Y-83347533D01*
X207025849Y-83387000D01*
X207228151Y-83387000D01*
X207426565Y-83347533D01*
X207613467Y-83270115D01*
X207781674Y-83157723D01*
X207924723Y-83014674D01*
X208037115Y-82846467D01*
X208114533Y-82659565D01*
X208154000Y-82461151D01*
X208154000Y-82258849D01*
X208114533Y-82060435D01*
X208037115Y-81873533D01*
X207924723Y-81705326D01*
X207781674Y-81562277D01*
X207613467Y-81449885D01*
X207426565Y-81372467D01*
X207228151Y-81333000D01*
X207025849Y-81333000D01*
X206827435Y-81372467D01*
X206640533Y-81449885D01*
X206472326Y-81562277D01*
X206329277Y-81705326D01*
X206216885Y-81873533D01*
X206139467Y-82060435D01*
X206100000Y-82258849D01*
X195666146Y-82258849D01*
X195486929Y-82111770D01*
X195242980Y-81981376D01*
X194978280Y-81901081D01*
X194703001Y-81873968D01*
X194702999Y-81873968D01*
X194427720Y-81901081D01*
X194163020Y-81981376D01*
X193919071Y-82111770D01*
X193705248Y-82287250D01*
X193529768Y-82501073D01*
X193399374Y-82745022D01*
X193319079Y-83009722D01*
X193291966Y-83285001D01*
X171538034Y-83285001D01*
X171538034Y-83125001D01*
X171510921Y-82849722D01*
X171430626Y-82585022D01*
X171300232Y-82341073D01*
X171124752Y-82127250D01*
X170975606Y-82004849D01*
X181824000Y-82004849D01*
X181824000Y-82207151D01*
X181863467Y-82405565D01*
X181940885Y-82592467D01*
X182053277Y-82760674D01*
X182196326Y-82903723D01*
X182364533Y-83016115D01*
X182551435Y-83093533D01*
X182749849Y-83133000D01*
X182952151Y-83133000D01*
X183150565Y-83093533D01*
X183337467Y-83016115D01*
X183505674Y-82903723D01*
X183648723Y-82760674D01*
X183761115Y-82592467D01*
X183838533Y-82405565D01*
X183878000Y-82207151D01*
X183878000Y-82004849D01*
X183838533Y-81806435D01*
X183761115Y-81619533D01*
X183648723Y-81451326D01*
X183505674Y-81308277D01*
X183337467Y-81195885D01*
X183150565Y-81118467D01*
X182952151Y-81079000D01*
X182749849Y-81079000D01*
X182551435Y-81118467D01*
X182364533Y-81195885D01*
X182196326Y-81308277D01*
X182053277Y-81451326D01*
X181940885Y-81619533D01*
X181863467Y-81806435D01*
X181824000Y-82004849D01*
X170975606Y-82004849D01*
X170910929Y-81951770D01*
X170666980Y-81821376D01*
X170402280Y-81741081D01*
X170127001Y-81713968D01*
X170126999Y-81713968D01*
X169851720Y-81741081D01*
X169587020Y-81821376D01*
X169343071Y-81951770D01*
X169129248Y-82127250D01*
X168953768Y-82341073D01*
X168823374Y-82585022D01*
X168743079Y-82849722D01*
X168715966Y-83125001D01*
X146730034Y-83125001D01*
X146730034Y-82984001D01*
X146702921Y-82708722D01*
X146622626Y-82444022D01*
X146492232Y-82200073D01*
X146316752Y-81986250D01*
X146144455Y-81844849D01*
X157248000Y-81844849D01*
X157248000Y-82047151D01*
X157287467Y-82245565D01*
X157364885Y-82432467D01*
X157477277Y-82600674D01*
X157620326Y-82743723D01*
X157788533Y-82856115D01*
X157975435Y-82933533D01*
X158173849Y-82973000D01*
X158376151Y-82973000D01*
X158574565Y-82933533D01*
X158761467Y-82856115D01*
X158929674Y-82743723D01*
X159072723Y-82600674D01*
X159185115Y-82432467D01*
X159262533Y-82245565D01*
X159302000Y-82047151D01*
X159302000Y-81844849D01*
X159262533Y-81646435D01*
X159185115Y-81459533D01*
X159072723Y-81291326D01*
X158929674Y-81148277D01*
X158761467Y-81035885D01*
X158574565Y-80958467D01*
X158376151Y-80919000D01*
X158173849Y-80919000D01*
X157975435Y-80958467D01*
X157788533Y-81035885D01*
X157620326Y-81148277D01*
X157477277Y-81291326D01*
X157364885Y-81459533D01*
X157287467Y-81646435D01*
X157248000Y-81844849D01*
X146144455Y-81844849D01*
X146102929Y-81810770D01*
X145858980Y-81680376D01*
X145594280Y-81600081D01*
X145319001Y-81572968D01*
X145318999Y-81572968D01*
X145043720Y-81600081D01*
X144779020Y-81680376D01*
X144535071Y-81810770D01*
X144321248Y-81986250D01*
X144145768Y-82200073D01*
X144015374Y-82444022D01*
X143935079Y-82708722D01*
X143907966Y-82984001D01*
X122102034Y-82984001D01*
X122102034Y-82967001D01*
X122074921Y-82691722D01*
X121994626Y-82427022D01*
X121864232Y-82183073D01*
X121688752Y-81969250D01*
X121474929Y-81793770D01*
X121306700Y-81703849D01*
X132440000Y-81703849D01*
X132440000Y-81906151D01*
X132479467Y-82104565D01*
X132556885Y-82291467D01*
X132669277Y-82459674D01*
X132812326Y-82602723D01*
X132980533Y-82715115D01*
X133167435Y-82792533D01*
X133365849Y-82832000D01*
X133568151Y-82832000D01*
X133766565Y-82792533D01*
X133953467Y-82715115D01*
X134121674Y-82602723D01*
X134264723Y-82459674D01*
X134377115Y-82291467D01*
X134454533Y-82104565D01*
X134494000Y-81906151D01*
X134494000Y-81703849D01*
X134454533Y-81505435D01*
X134377115Y-81318533D01*
X134264723Y-81150326D01*
X134121674Y-81007277D01*
X133953467Y-80894885D01*
X133766565Y-80817467D01*
X133568151Y-80778000D01*
X133365849Y-80778000D01*
X133167435Y-80817467D01*
X132980533Y-80894885D01*
X132812326Y-81007277D01*
X132669277Y-81150326D01*
X132556885Y-81318533D01*
X132479467Y-81505435D01*
X132440000Y-81703849D01*
X121306700Y-81703849D01*
X121230980Y-81663376D01*
X120966280Y-81583081D01*
X120691001Y-81555968D01*
X120690999Y-81555968D01*
X120415720Y-81583081D01*
X120151020Y-81663376D01*
X119907071Y-81793770D01*
X119693248Y-81969250D01*
X119517768Y-82183073D01*
X119387374Y-82427022D01*
X119307079Y-82691722D01*
X119279966Y-82967001D01*
X106934000Y-82967001D01*
X106934000Y-81686849D01*
X107812000Y-81686849D01*
X107812000Y-81889151D01*
X107851467Y-82087565D01*
X107928885Y-82274467D01*
X108041277Y-82442674D01*
X108184326Y-82585723D01*
X108352533Y-82698115D01*
X108539435Y-82775533D01*
X108737849Y-82815000D01*
X108940151Y-82815000D01*
X109138565Y-82775533D01*
X109325467Y-82698115D01*
X109493674Y-82585723D01*
X109636723Y-82442674D01*
X109749115Y-82274467D01*
X109826533Y-82087565D01*
X109866000Y-81889151D01*
X109866000Y-81686849D01*
X109826533Y-81488435D01*
X109749115Y-81301533D01*
X109636723Y-81133326D01*
X109493674Y-80990277D01*
X109325467Y-80877885D01*
X109138565Y-80800467D01*
X108940151Y-80761000D01*
X108737849Y-80761000D01*
X108539435Y-80800467D01*
X108352533Y-80877885D01*
X108184326Y-80990277D01*
X108041277Y-81133326D01*
X107928885Y-81301533D01*
X107851467Y-81488435D01*
X107812000Y-81686849D01*
X106934000Y-81686849D01*
X106934000Y-79654849D01*
X112638000Y-79654849D01*
X112638000Y-79857151D01*
X112677467Y-80055565D01*
X112754885Y-80242467D01*
X112867277Y-80410674D01*
X113010326Y-80553723D01*
X113178533Y-80666115D01*
X113365435Y-80743533D01*
X113563849Y-80783000D01*
X113766151Y-80783000D01*
X113964565Y-80743533D01*
X114151467Y-80666115D01*
X114319674Y-80553723D01*
X114462723Y-80410674D01*
X114575115Y-80242467D01*
X114652533Y-80055565D01*
X114692000Y-79857151D01*
X114692000Y-79654849D01*
X114660572Y-79496849D01*
X124924000Y-79496849D01*
X124924000Y-79699151D01*
X124963467Y-79897565D01*
X125040885Y-80084467D01*
X125153277Y-80252674D01*
X125296326Y-80395723D01*
X125464533Y-80508115D01*
X125651435Y-80585533D01*
X125849849Y-80625000D01*
X126052151Y-80625000D01*
X126250565Y-80585533D01*
X126437467Y-80508115D01*
X126605674Y-80395723D01*
X126748723Y-80252674D01*
X126861115Y-80084467D01*
X126938533Y-79897565D01*
X126978000Y-79699151D01*
X126978000Y-79671849D01*
X137266000Y-79671849D01*
X137266000Y-79874151D01*
X137305467Y-80072565D01*
X137382885Y-80259467D01*
X137495277Y-80427674D01*
X137638326Y-80570723D01*
X137806533Y-80683115D01*
X137993435Y-80760533D01*
X138191849Y-80800000D01*
X138394151Y-80800000D01*
X138592565Y-80760533D01*
X138779467Y-80683115D01*
X138947674Y-80570723D01*
X139090723Y-80427674D01*
X139203115Y-80259467D01*
X139280533Y-80072565D01*
X139320000Y-79874151D01*
X139320000Y-79671849D01*
X139288572Y-79513849D01*
X149552000Y-79513849D01*
X149552000Y-79716151D01*
X149591467Y-79914565D01*
X149668885Y-80101467D01*
X149781277Y-80269674D01*
X149924326Y-80412723D01*
X150092533Y-80525115D01*
X150279435Y-80602533D01*
X150477849Y-80642000D01*
X150680151Y-80642000D01*
X150878565Y-80602533D01*
X151065467Y-80525115D01*
X151233674Y-80412723D01*
X151376723Y-80269674D01*
X151489115Y-80101467D01*
X151566533Y-79914565D01*
X151586765Y-79812849D01*
X162074000Y-79812849D01*
X162074000Y-80015151D01*
X162113467Y-80213565D01*
X162190885Y-80400467D01*
X162303277Y-80568674D01*
X162446326Y-80711723D01*
X162614533Y-80824115D01*
X162801435Y-80901533D01*
X162999849Y-80941000D01*
X163202151Y-80941000D01*
X163400565Y-80901533D01*
X163587467Y-80824115D01*
X163755674Y-80711723D01*
X163898723Y-80568674D01*
X164011115Y-80400467D01*
X164088533Y-80213565D01*
X164128000Y-80015151D01*
X164128000Y-79812849D01*
X164096572Y-79654849D01*
X174360000Y-79654849D01*
X174360000Y-79857151D01*
X174399467Y-80055565D01*
X174476885Y-80242467D01*
X174589277Y-80410674D01*
X174732326Y-80553723D01*
X174900533Y-80666115D01*
X175087435Y-80743533D01*
X175285849Y-80783000D01*
X175488151Y-80783000D01*
X175686565Y-80743533D01*
X175873467Y-80666115D01*
X176041674Y-80553723D01*
X176184723Y-80410674D01*
X176297115Y-80242467D01*
X176374533Y-80055565D01*
X176390986Y-79972849D01*
X186650000Y-79972849D01*
X186650000Y-80175151D01*
X186689467Y-80373565D01*
X186766885Y-80560467D01*
X186879277Y-80728674D01*
X187022326Y-80871723D01*
X187190533Y-80984115D01*
X187377435Y-81061533D01*
X187575849Y-81101000D01*
X187778151Y-81101000D01*
X187976565Y-81061533D01*
X188163467Y-80984115D01*
X188331674Y-80871723D01*
X188474723Y-80728674D01*
X188587115Y-80560467D01*
X188664533Y-80373565D01*
X188704000Y-80175151D01*
X188704000Y-79972849D01*
X188664533Y-79774435D01*
X188587115Y-79587533D01*
X188474723Y-79419326D01*
X188360236Y-79304839D01*
X197220000Y-79304839D01*
X197220000Y-79507141D01*
X197259467Y-79705555D01*
X197336885Y-79892457D01*
X197449277Y-80060664D01*
X197592326Y-80203713D01*
X197760533Y-80316105D01*
X197947435Y-80393523D01*
X198145849Y-80432990D01*
X198348151Y-80432990D01*
X198546565Y-80393523D01*
X198733467Y-80316105D01*
X198901674Y-80203713D01*
X198961258Y-80144129D01*
X198975467Y-80215565D01*
X199052885Y-80402467D01*
X199165277Y-80570674D01*
X199308326Y-80713723D01*
X199476533Y-80826115D01*
X199663435Y-80903533D01*
X199861849Y-80943000D01*
X200064151Y-80943000D01*
X200262565Y-80903533D01*
X200449467Y-80826115D01*
X200617674Y-80713723D01*
X200760723Y-80570674D01*
X200873115Y-80402467D01*
X200945858Y-80226849D01*
X210926000Y-80226849D01*
X210926000Y-80429151D01*
X210965467Y-80627565D01*
X211042885Y-80814467D01*
X211155277Y-80982674D01*
X211298326Y-81125723D01*
X211466533Y-81238115D01*
X211653435Y-81315533D01*
X211851849Y-81355000D01*
X212054151Y-81355000D01*
X212252565Y-81315533D01*
X212439467Y-81238115D01*
X212607674Y-81125723D01*
X212750723Y-80982674D01*
X212863115Y-80814467D01*
X212940533Y-80627565D01*
X212980000Y-80429151D01*
X212980000Y-80226849D01*
X212948572Y-80068849D01*
X223212000Y-80068849D01*
X223212000Y-80271151D01*
X223251467Y-80469565D01*
X223328885Y-80656467D01*
X223441277Y-80824674D01*
X223584326Y-80967723D01*
X223752533Y-81080115D01*
X223939435Y-81157533D01*
X224137849Y-81197000D01*
X224340151Y-81197000D01*
X224538565Y-81157533D01*
X224725467Y-81080115D01*
X224893674Y-80967723D01*
X225036723Y-80824674D01*
X225149115Y-80656467D01*
X225226533Y-80469565D01*
X225266000Y-80271151D01*
X225266000Y-80068849D01*
X225226533Y-79870435D01*
X225149115Y-79683533D01*
X225036723Y-79515326D01*
X224893674Y-79372277D01*
X224725467Y-79259885D01*
X224538565Y-79182467D01*
X224340151Y-79143000D01*
X224137849Y-79143000D01*
X223939435Y-79182467D01*
X223752533Y-79259885D01*
X223584326Y-79372277D01*
X223441277Y-79515326D01*
X223328885Y-79683533D01*
X223251467Y-79870435D01*
X223212000Y-80068849D01*
X212948572Y-80068849D01*
X212940533Y-80028435D01*
X212863115Y-79841533D01*
X212750723Y-79673326D01*
X212607674Y-79530277D01*
X212439467Y-79417885D01*
X212252565Y-79340467D01*
X212054151Y-79301000D01*
X211851849Y-79301000D01*
X211653435Y-79340467D01*
X211466533Y-79417885D01*
X211298326Y-79530277D01*
X211155277Y-79673326D01*
X211042885Y-79841533D01*
X210965467Y-80028435D01*
X210926000Y-80226849D01*
X200945858Y-80226849D01*
X200950533Y-80215565D01*
X200990000Y-80017151D01*
X200990000Y-79814849D01*
X200950533Y-79616435D01*
X200873115Y-79429533D01*
X200760723Y-79261326D01*
X200617674Y-79118277D01*
X200449467Y-79005885D01*
X200262565Y-78928467D01*
X200064151Y-78889000D01*
X199861849Y-78889000D01*
X199663435Y-78928467D01*
X199476533Y-79005885D01*
X199308326Y-79118277D01*
X199248742Y-79177861D01*
X199234533Y-79106425D01*
X199157115Y-78919523D01*
X199044723Y-78751316D01*
X198901674Y-78608267D01*
X198733467Y-78495875D01*
X198546565Y-78418457D01*
X198348151Y-78378990D01*
X198145849Y-78378990D01*
X197947435Y-78418457D01*
X197760533Y-78495875D01*
X197592326Y-78608267D01*
X197449277Y-78751316D01*
X197336885Y-78919523D01*
X197259467Y-79106425D01*
X197220000Y-79304839D01*
X188360236Y-79304839D01*
X188331674Y-79276277D01*
X188163467Y-79163885D01*
X187976565Y-79086467D01*
X187778151Y-79047000D01*
X187575849Y-79047000D01*
X187377435Y-79086467D01*
X187190533Y-79163885D01*
X187022326Y-79276277D01*
X186879277Y-79419326D01*
X186766885Y-79587533D01*
X186689467Y-79774435D01*
X186650000Y-79972849D01*
X176390986Y-79972849D01*
X176414000Y-79857151D01*
X176414000Y-79654849D01*
X176374533Y-79456435D01*
X176297115Y-79269533D01*
X176184723Y-79101326D01*
X176041674Y-78958277D01*
X175873467Y-78845885D01*
X175686565Y-78768467D01*
X175488151Y-78729000D01*
X175285849Y-78729000D01*
X175087435Y-78768467D01*
X174900533Y-78845885D01*
X174732326Y-78958277D01*
X174589277Y-79101326D01*
X174476885Y-79269533D01*
X174399467Y-79456435D01*
X174360000Y-79654849D01*
X164096572Y-79654849D01*
X164088533Y-79614435D01*
X164011115Y-79427533D01*
X163898723Y-79259326D01*
X163755674Y-79116277D01*
X163587467Y-79003885D01*
X163400565Y-78926467D01*
X163202151Y-78887000D01*
X162999849Y-78887000D01*
X162801435Y-78926467D01*
X162614533Y-79003885D01*
X162446326Y-79116277D01*
X162303277Y-79259326D01*
X162190885Y-79427533D01*
X162113467Y-79614435D01*
X162074000Y-79812849D01*
X151586765Y-79812849D01*
X151606000Y-79716151D01*
X151606000Y-79513849D01*
X151566533Y-79315435D01*
X151489115Y-79128533D01*
X151376723Y-78960326D01*
X151233674Y-78817277D01*
X151065467Y-78704885D01*
X150878565Y-78627467D01*
X150680151Y-78588000D01*
X150477849Y-78588000D01*
X150279435Y-78627467D01*
X150092533Y-78704885D01*
X149924326Y-78817277D01*
X149781277Y-78960326D01*
X149668885Y-79128533D01*
X149591467Y-79315435D01*
X149552000Y-79513849D01*
X139288572Y-79513849D01*
X139280533Y-79473435D01*
X139203115Y-79286533D01*
X139090723Y-79118326D01*
X138947674Y-78975277D01*
X138779467Y-78862885D01*
X138592565Y-78785467D01*
X138394151Y-78746000D01*
X138191849Y-78746000D01*
X137993435Y-78785467D01*
X137806533Y-78862885D01*
X137638326Y-78975277D01*
X137495277Y-79118326D01*
X137382885Y-79286533D01*
X137305467Y-79473435D01*
X137266000Y-79671849D01*
X126978000Y-79671849D01*
X126978000Y-79496849D01*
X126938533Y-79298435D01*
X126861115Y-79111533D01*
X126748723Y-78943326D01*
X126605674Y-78800277D01*
X126437467Y-78687885D01*
X126250565Y-78610467D01*
X126052151Y-78571000D01*
X125849849Y-78571000D01*
X125651435Y-78610467D01*
X125464533Y-78687885D01*
X125296326Y-78800277D01*
X125153277Y-78943326D01*
X125040885Y-79111533D01*
X124963467Y-79298435D01*
X124924000Y-79496849D01*
X114660572Y-79496849D01*
X114652533Y-79456435D01*
X114575115Y-79269533D01*
X114462723Y-79101326D01*
X114319674Y-78958277D01*
X114151467Y-78845885D01*
X113964565Y-78768467D01*
X113766151Y-78729000D01*
X113563849Y-78729000D01*
X113365435Y-78768467D01*
X113178533Y-78845885D01*
X113010326Y-78958277D01*
X112867277Y-79101326D01*
X112754885Y-79269533D01*
X112677467Y-79456435D01*
X112638000Y-79654849D01*
X106934000Y-79654849D01*
X106934000Y-77368849D01*
X110352000Y-77368849D01*
X110352000Y-77571151D01*
X110391467Y-77769565D01*
X110468885Y-77956467D01*
X110581277Y-78124674D01*
X110724326Y-78267723D01*
X110892533Y-78380115D01*
X111079435Y-78457533D01*
X111277849Y-78497000D01*
X111480151Y-78497000D01*
X111678565Y-78457533D01*
X111865467Y-78380115D01*
X112033674Y-78267723D01*
X112176723Y-78124674D01*
X112289115Y-77956467D01*
X112366533Y-77769565D01*
X112406000Y-77571151D01*
X112406000Y-77368849D01*
X112366533Y-77170435D01*
X112289115Y-76983533D01*
X112176723Y-76815326D01*
X112033674Y-76672277D01*
X111865467Y-76559885D01*
X111678565Y-76482467D01*
X111480151Y-76443000D01*
X111277849Y-76443000D01*
X111079435Y-76482467D01*
X110892533Y-76559885D01*
X110724326Y-76672277D01*
X110581277Y-76815326D01*
X110468885Y-76983533D01*
X110391467Y-77170435D01*
X110352000Y-77368849D01*
X106934000Y-77368849D01*
X106934000Y-75745362D01*
X117933000Y-75745362D01*
X117933000Y-76288640D01*
X118038988Y-76821480D01*
X118246892Y-77323404D01*
X118548721Y-77775124D01*
X118932877Y-78159280D01*
X119384597Y-78461109D01*
X119886521Y-78669013D01*
X120419361Y-78775001D01*
X120962639Y-78775001D01*
X121495479Y-78669013D01*
X121997403Y-78461109D01*
X122449123Y-78159280D01*
X122833279Y-77775124D01*
X123093383Y-77385849D01*
X134980000Y-77385849D01*
X134980000Y-77588151D01*
X135019467Y-77786565D01*
X135096885Y-77973467D01*
X135209277Y-78141674D01*
X135352326Y-78284723D01*
X135520533Y-78397115D01*
X135707435Y-78474533D01*
X135905849Y-78514000D01*
X136108151Y-78514000D01*
X136306565Y-78474533D01*
X136493467Y-78397115D01*
X136661674Y-78284723D01*
X136804723Y-78141674D01*
X136917115Y-77973467D01*
X136994533Y-77786565D01*
X137034000Y-77588151D01*
X137034000Y-77385849D01*
X136994533Y-77187435D01*
X136917115Y-77000533D01*
X136804723Y-76832326D01*
X136661674Y-76689277D01*
X136493467Y-76576885D01*
X136306565Y-76499467D01*
X136108151Y-76460000D01*
X135905849Y-76460000D01*
X135707435Y-76499467D01*
X135520533Y-76576885D01*
X135352326Y-76689277D01*
X135209277Y-76832326D01*
X135096885Y-77000533D01*
X135019467Y-77187435D01*
X134980000Y-77385849D01*
X123093383Y-77385849D01*
X123135108Y-77323404D01*
X123343012Y-76821480D01*
X123449000Y-76288640D01*
X123449000Y-75762362D01*
X142561000Y-75762362D01*
X142561000Y-76305640D01*
X142666988Y-76838480D01*
X142874892Y-77340404D01*
X143176721Y-77792124D01*
X143560877Y-78176280D01*
X144012597Y-78478109D01*
X144514521Y-78686013D01*
X145047361Y-78792001D01*
X145590639Y-78792001D01*
X146123479Y-78686013D01*
X146625403Y-78478109D01*
X147077123Y-78176280D01*
X147461279Y-77792124D01*
X147638529Y-77526849D01*
X159788000Y-77526849D01*
X159788000Y-77729151D01*
X159827467Y-77927565D01*
X159904885Y-78114467D01*
X160017277Y-78282674D01*
X160160326Y-78425723D01*
X160328533Y-78538115D01*
X160515435Y-78615533D01*
X160713849Y-78655000D01*
X160916151Y-78655000D01*
X161114565Y-78615533D01*
X161301467Y-78538115D01*
X161469674Y-78425723D01*
X161612723Y-78282674D01*
X161725115Y-78114467D01*
X161802533Y-77927565D01*
X161842000Y-77729151D01*
X161842000Y-77526849D01*
X161802533Y-77328435D01*
X161725115Y-77141533D01*
X161612723Y-76973326D01*
X161469674Y-76830277D01*
X161301467Y-76717885D01*
X161114565Y-76640467D01*
X160916151Y-76601000D01*
X160713849Y-76601000D01*
X160515435Y-76640467D01*
X160328533Y-76717885D01*
X160160326Y-76830277D01*
X160017277Y-76973326D01*
X159904885Y-77141533D01*
X159827467Y-77328435D01*
X159788000Y-77526849D01*
X147638529Y-77526849D01*
X147763108Y-77340404D01*
X147971012Y-76838480D01*
X148077000Y-76305640D01*
X148077000Y-75903362D01*
X167369000Y-75903362D01*
X167369000Y-76446640D01*
X167474988Y-76979480D01*
X167682892Y-77481404D01*
X167984721Y-77933124D01*
X168368877Y-78317280D01*
X168820597Y-78619109D01*
X169322521Y-78827013D01*
X169855361Y-78933001D01*
X170398639Y-78933001D01*
X170931479Y-78827013D01*
X171433403Y-78619109D01*
X171885123Y-78317280D01*
X172269279Y-77933124D01*
X172433834Y-77686849D01*
X184364000Y-77686849D01*
X184364000Y-77889151D01*
X184403467Y-78087565D01*
X184480885Y-78274467D01*
X184593277Y-78442674D01*
X184736326Y-78585723D01*
X184904533Y-78698115D01*
X185091435Y-78775533D01*
X185289849Y-78815000D01*
X185492151Y-78815000D01*
X185690565Y-78775533D01*
X185877467Y-78698115D01*
X186045674Y-78585723D01*
X186188723Y-78442674D01*
X186301115Y-78274467D01*
X186378533Y-78087565D01*
X186418000Y-77889151D01*
X186418000Y-77686849D01*
X186378533Y-77488435D01*
X186301115Y-77301533D01*
X186188723Y-77133326D01*
X186045674Y-76990277D01*
X185877467Y-76877885D01*
X185690565Y-76800467D01*
X185492151Y-76761000D01*
X185289849Y-76761000D01*
X185091435Y-76800467D01*
X184904533Y-76877885D01*
X184736326Y-76990277D01*
X184593277Y-77133326D01*
X184480885Y-77301533D01*
X184403467Y-77488435D01*
X184364000Y-77686849D01*
X172433834Y-77686849D01*
X172571108Y-77481404D01*
X172779012Y-76979480D01*
X172885000Y-76446640D01*
X172885000Y-76063362D01*
X191945000Y-76063362D01*
X191945000Y-76606640D01*
X192050988Y-77139480D01*
X192258892Y-77641404D01*
X192560721Y-78093124D01*
X192944877Y-78477280D01*
X193396597Y-78779109D01*
X193898521Y-78987013D01*
X194431361Y-79093001D01*
X194974639Y-79093001D01*
X195507479Y-78987013D01*
X196009403Y-78779109D01*
X196461123Y-78477280D01*
X196845279Y-78093124D01*
X197147108Y-77641404D01*
X197355012Y-77139480D01*
X197363816Y-77095219D01*
X197982000Y-77095219D01*
X197982000Y-77297521D01*
X198021467Y-77495935D01*
X198098885Y-77682837D01*
X198211277Y-77851044D01*
X198354326Y-77994093D01*
X198522533Y-78106485D01*
X198709435Y-78183903D01*
X198907849Y-78223370D01*
X199110151Y-78223370D01*
X199308565Y-78183903D01*
X199495467Y-78106485D01*
X199663674Y-77994093D01*
X199716918Y-77940849D01*
X208640000Y-77940849D01*
X208640000Y-78143151D01*
X208679467Y-78341565D01*
X208756885Y-78528467D01*
X208869277Y-78696674D01*
X209012326Y-78839723D01*
X209180533Y-78952115D01*
X209367435Y-79029533D01*
X209565849Y-79069000D01*
X209768151Y-79069000D01*
X209966565Y-79029533D01*
X210153467Y-78952115D01*
X210321674Y-78839723D01*
X210464723Y-78696674D01*
X210577115Y-78528467D01*
X210654533Y-78341565D01*
X210694000Y-78143151D01*
X210694000Y-77940849D01*
X210654533Y-77742435D01*
X210577115Y-77555533D01*
X210464723Y-77387326D01*
X210321674Y-77244277D01*
X210153467Y-77131885D01*
X209966565Y-77054467D01*
X209768151Y-77015000D01*
X209565849Y-77015000D01*
X209367435Y-77054467D01*
X209180533Y-77131885D01*
X209012326Y-77244277D01*
X208869277Y-77387326D01*
X208756885Y-77555533D01*
X208679467Y-77742435D01*
X208640000Y-77940849D01*
X199716918Y-77940849D01*
X199806723Y-77851044D01*
X199919115Y-77682837D01*
X199996533Y-77495935D01*
X200036000Y-77297521D01*
X200036000Y-77095219D01*
X199996533Y-76896805D01*
X199919115Y-76709903D01*
X199806723Y-76541696D01*
X199663674Y-76398647D01*
X199542023Y-76317362D01*
X216221000Y-76317362D01*
X216221000Y-76860640D01*
X216326988Y-77393480D01*
X216534892Y-77895404D01*
X216836721Y-78347124D01*
X217220877Y-78731280D01*
X217672597Y-79033109D01*
X218174521Y-79241013D01*
X218707361Y-79347001D01*
X219250639Y-79347001D01*
X219783479Y-79241013D01*
X220285403Y-79033109D01*
X220737123Y-78731280D01*
X221121279Y-78347124D01*
X221423108Y-77895404D01*
X221631012Y-77393480D01*
X221737000Y-76860640D01*
X221737000Y-76317362D01*
X221631012Y-75784522D01*
X221423108Y-75282598D01*
X221121279Y-74830878D01*
X220737123Y-74446722D01*
X220285403Y-74144893D01*
X219783479Y-73936989D01*
X219250639Y-73831001D01*
X218707361Y-73831001D01*
X218174521Y-73936989D01*
X217672597Y-74144893D01*
X217220877Y-74446722D01*
X216836721Y-74830878D01*
X216534892Y-75282598D01*
X216326988Y-75784522D01*
X216221000Y-76317362D01*
X199542023Y-76317362D01*
X199495467Y-76286255D01*
X199308565Y-76208837D01*
X199110151Y-76169370D01*
X198907849Y-76169370D01*
X198709435Y-76208837D01*
X198522533Y-76286255D01*
X198354326Y-76398647D01*
X198211277Y-76541696D01*
X198098885Y-76709903D01*
X198021467Y-76896805D01*
X197982000Y-77095219D01*
X197363816Y-77095219D01*
X197461000Y-76606640D01*
X197461000Y-76063362D01*
X197355012Y-75530522D01*
X197147108Y-75028598D01*
X196845279Y-74576878D01*
X196461123Y-74192722D01*
X196009403Y-73890893D01*
X195507479Y-73682989D01*
X194974639Y-73577001D01*
X194431361Y-73577001D01*
X193898521Y-73682989D01*
X193396597Y-73890893D01*
X192944877Y-74192722D01*
X192560721Y-74576878D01*
X192258892Y-75028598D01*
X192050988Y-75530522D01*
X191945000Y-76063362D01*
X172885000Y-76063362D01*
X172885000Y-75903362D01*
X172779012Y-75370522D01*
X172571108Y-74868598D01*
X172269279Y-74416878D01*
X171885123Y-74032722D01*
X171433403Y-73730893D01*
X170931479Y-73522989D01*
X170398639Y-73417001D01*
X169855361Y-73417001D01*
X169322521Y-73522989D01*
X168820597Y-73730893D01*
X168368877Y-74032722D01*
X167984721Y-74416878D01*
X167682892Y-74868598D01*
X167474988Y-75370522D01*
X167369000Y-75903362D01*
X148077000Y-75903362D01*
X148077000Y-75762362D01*
X147971012Y-75229522D01*
X147763108Y-74727598D01*
X147461279Y-74275878D01*
X147077123Y-73891722D01*
X146625403Y-73589893D01*
X146123479Y-73381989D01*
X145590639Y-73276001D01*
X145047361Y-73276001D01*
X144514521Y-73381989D01*
X144012597Y-73589893D01*
X143560877Y-73891722D01*
X143176721Y-74275878D01*
X142874892Y-74727598D01*
X142666988Y-75229522D01*
X142561000Y-75762362D01*
X123449000Y-75762362D01*
X123449000Y-75745362D01*
X123343012Y-75212522D01*
X123135108Y-74710598D01*
X122833279Y-74258878D01*
X122449123Y-73874722D01*
X121997403Y-73572893D01*
X121495479Y-73364989D01*
X120962639Y-73259001D01*
X120419361Y-73259001D01*
X119886521Y-73364989D01*
X119384597Y-73572893D01*
X118932877Y-73874722D01*
X118548721Y-74258878D01*
X118246892Y-74710598D01*
X118038988Y-75212522D01*
X117933000Y-75745362D01*
X106934000Y-75745362D01*
X106934000Y-74648530D01*
X106953385Y-74377496D01*
X107010181Y-74116407D01*
X107103556Y-73866060D01*
X107231605Y-73631555D01*
X107391724Y-73417662D01*
X107580662Y-73228724D01*
X107794555Y-73068605D01*
X108029060Y-72940556D01*
X108279407Y-72847181D01*
X108540496Y-72790385D01*
X108811530Y-72771000D01*
X128954423Y-72771000D01*
X129012326Y-72828903D01*
%TA.AperFunction,Conductor*%
D21*
G36*
X129012326Y-72828903D02*
G01*
X129180533Y-72941295D01*
X129367435Y-73018713D01*
X129565849Y-73058180D01*
X129768151Y-73058180D01*
X129966565Y-73018713D01*
X130153467Y-72941295D01*
X130321674Y-72828903D01*
X130379577Y-72771000D01*
X131389753Y-72771000D01*
X131390057Y-72771455D01*
X131533106Y-72914504D01*
X131701313Y-73026896D01*
X131888215Y-73104314D01*
X132086629Y-73143781D01*
X132288931Y-73143781D01*
X132487345Y-73104314D01*
X132674247Y-73026896D01*
X132842454Y-72914504D01*
X132985503Y-72771455D01*
X132985807Y-72771000D01*
X152397841Y-72771000D01*
X152450571Y-72898300D01*
X152562963Y-73066507D01*
X152706012Y-73209556D01*
X152874219Y-73321948D01*
X153061121Y-73399366D01*
X153259535Y-73438833D01*
X153461837Y-73438833D01*
X153660251Y-73399366D01*
X153847153Y-73321948D01*
X154015360Y-73209556D01*
X154070820Y-73154096D01*
X154079467Y-73197565D01*
X154156885Y-73384467D01*
X154269277Y-73552674D01*
X154412326Y-73695723D01*
X154580533Y-73808115D01*
X154767435Y-73885533D01*
X154965849Y-73925000D01*
X155168151Y-73925000D01*
X155366565Y-73885533D01*
X155553467Y-73808115D01*
X155721674Y-73695723D01*
X155864723Y-73552674D01*
X155977115Y-73384467D01*
X156054533Y-73197565D01*
X156094000Y-72999151D01*
X156094000Y-72796849D01*
X156088858Y-72771000D01*
X164581375Y-72771000D01*
X164673435Y-72809133D01*
X164871849Y-72848600D01*
X165074151Y-72848600D01*
X165272565Y-72809133D01*
X165364625Y-72771000D01*
X200955904Y-72771000D01*
X200925501Y-72923848D01*
X200925501Y-73126150D01*
X200964968Y-73324564D01*
X201042386Y-73511466D01*
X201154778Y-73679673D01*
X201297827Y-73822722D01*
X201466034Y-73935114D01*
X201652936Y-74012532D01*
X201851350Y-74051999D01*
X202053652Y-74051999D01*
X202252066Y-74012532D01*
X202438968Y-73935114D01*
X202607175Y-73822722D01*
X202750224Y-73679673D01*
X202862616Y-73511466D01*
X202940034Y-73324564D01*
X202979501Y-73126150D01*
X202979501Y-72923848D01*
X202949098Y-72771000D01*
X203219405Y-72771000D01*
X203189001Y-72923850D01*
X203189001Y-73126152D01*
X203228468Y-73324566D01*
X203305886Y-73511468D01*
X203418278Y-73679675D01*
X203561327Y-73822724D01*
X203729534Y-73935116D01*
X203916436Y-74012534D01*
X204114850Y-74052001D01*
X204317152Y-74052001D01*
X204515566Y-74012534D01*
X204702468Y-73935116D01*
X204870675Y-73822724D01*
X205013724Y-73679675D01*
X205126116Y-73511468D01*
X205203534Y-73324566D01*
X205243001Y-73126152D01*
X205243001Y-72923850D01*
X205212597Y-72771000D01*
X226722470Y-72771000D01*
X226993504Y-72790385D01*
X227254593Y-72847181D01*
X227504940Y-72940556D01*
X227739445Y-73068605D01*
X227953338Y-73228724D01*
X228142276Y-73417662D01*
X228302395Y-73631555D01*
X228430444Y-73866060D01*
X228523819Y-74116407D01*
X228580615Y-74377496D01*
X228600000Y-74648530D01*
X228600000Y-110009470D01*
X228580615Y-110280504D01*
X228523819Y-110541593D01*
X228430444Y-110791940D01*
X228302395Y-111026445D01*
X228142276Y-111240338D01*
X227953338Y-111429276D01*
X227739445Y-111589395D01*
X227504940Y-111717444D01*
X227254593Y-111810819D01*
X226993504Y-111867615D01*
X226722470Y-111887000D01*
X108811530Y-111887000D01*
X108540496Y-111867615D01*
X108279407Y-111810819D01*
X108029060Y-111717444D01*
X107794555Y-111589395D01*
X107580662Y-111429276D01*
X107391724Y-111240338D01*
X107231605Y-111026445D01*
X107103556Y-110791940D01*
X107010181Y-110541593D01*
X106953385Y-110280504D01*
X106934000Y-110009470D01*
X106934000Y-107236869D01*
X107082533Y-107336115D01*
X107269435Y-107413533D01*
X107467849Y-107453000D01*
X107670151Y-107453000D01*
X107868565Y-107413533D01*
X108055467Y-107336115D01*
X108223674Y-107223723D01*
X108366723Y-107080674D01*
X108479115Y-106912467D01*
X108556533Y-106725565D01*
X108596000Y-106527151D01*
X108596000Y-106324849D01*
X108570739Y-106197849D01*
X131180000Y-106197849D01*
X131180000Y-106400151D01*
X131219467Y-106598565D01*
X131296885Y-106785467D01*
X131409277Y-106953674D01*
X131552326Y-107096723D01*
X131720533Y-107209115D01*
X131907435Y-107286533D01*
X132105849Y-107326000D01*
X132308151Y-107326000D01*
X132506565Y-107286533D01*
X132693467Y-107209115D01*
X132861674Y-107096723D01*
X133004723Y-106953674D01*
X133117115Y-106785467D01*
X133194533Y-106598565D01*
X133234000Y-106400151D01*
X133234000Y-106197849D01*
X133194533Y-105999435D01*
X133117115Y-105812533D01*
X133004723Y-105644326D01*
X132861674Y-105501277D01*
X132693467Y-105388885D01*
X132506565Y-105311467D01*
X132308151Y-105272000D01*
X132105849Y-105272000D01*
X131907435Y-105311467D01*
X131720533Y-105388885D01*
X131552326Y-105501277D01*
X131409277Y-105644326D01*
X131296885Y-105812533D01*
X131219467Y-105999435D01*
X131180000Y-106197849D01*
X108570739Y-106197849D01*
X108556533Y-106126435D01*
X108479115Y-105939533D01*
X108366723Y-105771326D01*
X108223674Y-105628277D01*
X108055467Y-105515885D01*
X107868565Y-105438467D01*
X107670151Y-105399000D01*
X107467849Y-105399000D01*
X107269435Y-105438467D01*
X107082533Y-105515885D01*
X106934000Y-105615131D01*
X106934000Y-103145362D01*
X117933000Y-103145362D01*
X117933000Y-103688640D01*
X118038988Y-104221480D01*
X118246892Y-104723404D01*
X118548721Y-105175124D01*
X118932877Y-105559280D01*
X119384597Y-105861109D01*
X119886521Y-106069013D01*
X120419361Y-106175001D01*
X120962639Y-106175001D01*
X121495479Y-106069013D01*
X121997403Y-105861109D01*
X122449123Y-105559280D01*
X122833279Y-105175124D01*
X123135108Y-104723404D01*
X123343012Y-104221480D01*
X123449000Y-103688640D01*
X123449000Y-103162362D01*
X142561000Y-103162362D01*
X142561000Y-103705640D01*
X142666988Y-104238480D01*
X142874892Y-104740404D01*
X143176721Y-105192124D01*
X143560877Y-105576280D01*
X144012597Y-105878109D01*
X144514521Y-106086013D01*
X145047361Y-106192001D01*
X145590639Y-106192001D01*
X146123479Y-106086013D01*
X146160088Y-106070849D01*
X155818000Y-106070849D01*
X155818000Y-106273151D01*
X155857467Y-106471565D01*
X155934885Y-106658467D01*
X156047277Y-106826674D01*
X156190326Y-106969723D01*
X156358533Y-107082115D01*
X156545435Y-107159533D01*
X156743849Y-107199000D01*
X156946151Y-107199000D01*
X157144565Y-107159533D01*
X157331467Y-107082115D01*
X157499674Y-106969723D01*
X157636548Y-106832849D01*
X180710000Y-106832849D01*
X180710000Y-107035151D01*
X180749467Y-107233565D01*
X180826885Y-107420467D01*
X180939277Y-107588674D01*
X181082326Y-107731723D01*
X181250533Y-107844115D01*
X181437435Y-107921533D01*
X181635849Y-107961000D01*
X181838151Y-107961000D01*
X182036565Y-107921533D01*
X182223467Y-107844115D01*
X182391674Y-107731723D01*
X182534723Y-107588674D01*
X182647115Y-107420467D01*
X182724533Y-107233565D01*
X182764000Y-107035151D01*
X182764000Y-106832849D01*
X204840000Y-106832849D01*
X204840000Y-107035151D01*
X204879467Y-107233565D01*
X204956885Y-107420467D01*
X205069277Y-107588674D01*
X205212326Y-107731723D01*
X205380533Y-107844115D01*
X205567435Y-107921533D01*
X205765849Y-107961000D01*
X205968151Y-107961000D01*
X206166565Y-107921533D01*
X206353467Y-107844115D01*
X206521674Y-107731723D01*
X206664723Y-107588674D01*
X206777115Y-107420467D01*
X206854533Y-107233565D01*
X206894000Y-107035151D01*
X206894000Y-106832849D01*
X206854533Y-106634435D01*
X206777115Y-106447533D01*
X206664723Y-106279326D01*
X206521674Y-106136277D01*
X206353467Y-106023885D01*
X206166565Y-105946467D01*
X205968151Y-105907000D01*
X205765849Y-105907000D01*
X205567435Y-105946467D01*
X205380533Y-106023885D01*
X205212326Y-106136277D01*
X205069277Y-106279326D01*
X204956885Y-106447533D01*
X204879467Y-106634435D01*
X204840000Y-106832849D01*
X182764000Y-106832849D01*
X182724533Y-106634435D01*
X182647115Y-106447533D01*
X182534723Y-106279326D01*
X182391674Y-106136277D01*
X182223467Y-106023885D01*
X182036565Y-105946467D01*
X181838151Y-105907000D01*
X181635849Y-105907000D01*
X181437435Y-105946467D01*
X181250533Y-106023885D01*
X181082326Y-106136277D01*
X180939277Y-106279326D01*
X180826885Y-106447533D01*
X180749467Y-106634435D01*
X180710000Y-106832849D01*
X157636548Y-106832849D01*
X157642723Y-106826674D01*
X157755115Y-106658467D01*
X157832533Y-106471565D01*
X157872000Y-106273151D01*
X157872000Y-106070849D01*
X157832533Y-105872435D01*
X157755115Y-105685533D01*
X157642723Y-105517326D01*
X157499674Y-105374277D01*
X157331467Y-105261885D01*
X157144565Y-105184467D01*
X156946151Y-105145000D01*
X156743849Y-105145000D01*
X156545435Y-105184467D01*
X156358533Y-105261885D01*
X156190326Y-105374277D01*
X156047277Y-105517326D01*
X155934885Y-105685533D01*
X155857467Y-105872435D01*
X155818000Y-106070849D01*
X146160088Y-106070849D01*
X146625403Y-105878109D01*
X147077123Y-105576280D01*
X147461279Y-105192124D01*
X147763108Y-104740404D01*
X147971012Y-104238480D01*
X148077000Y-103705640D01*
X148077000Y-103303362D01*
X167369000Y-103303362D01*
X167369000Y-103846640D01*
X167474988Y-104379480D01*
X167682892Y-104881404D01*
X167984721Y-105333124D01*
X168368877Y-105717280D01*
X168820597Y-106019109D01*
X169322521Y-106227013D01*
X169855361Y-106333001D01*
X170398639Y-106333001D01*
X170931479Y-106227013D01*
X171433403Y-106019109D01*
X171885123Y-105717280D01*
X172269279Y-105333124D01*
X172571108Y-104881404D01*
X172779012Y-104379480D01*
X172885000Y-103846640D01*
X172885000Y-103463362D01*
X191945000Y-103463362D01*
X191945000Y-104006640D01*
X192050988Y-104539480D01*
X192258892Y-105041404D01*
X192560721Y-105493124D01*
X192944877Y-105877280D01*
X193396597Y-106179109D01*
X193898521Y-106387013D01*
X194431361Y-106493001D01*
X194974639Y-106493001D01*
X195507479Y-106387013D01*
X196009403Y-106179109D01*
X196461123Y-105877280D01*
X196845279Y-105493124D01*
X197147108Y-105041404D01*
X197355012Y-104539480D01*
X197461000Y-104006640D01*
X197461000Y-103717362D01*
X216221000Y-103717362D01*
X216221000Y-104260640D01*
X216326988Y-104793480D01*
X216534892Y-105295404D01*
X216836721Y-105747124D01*
X217220877Y-106131280D01*
X217672597Y-106433109D01*
X218174521Y-106641013D01*
X218707361Y-106747001D01*
X219250639Y-106747001D01*
X219783479Y-106641013D01*
X220285403Y-106433109D01*
X220737123Y-106131280D01*
X221121279Y-105747124D01*
X221423108Y-105295404D01*
X221631012Y-104793480D01*
X221737000Y-104260640D01*
X221737000Y-103717362D01*
X221631012Y-103184522D01*
X221423108Y-102682598D01*
X221121279Y-102230878D01*
X220737123Y-101846722D01*
X220285403Y-101544893D01*
X219783479Y-101336989D01*
X219250639Y-101231001D01*
X218707361Y-101231001D01*
X218174521Y-101336989D01*
X217672597Y-101544893D01*
X217220877Y-101846722D01*
X216836721Y-102230878D01*
X216534892Y-102682598D01*
X216326988Y-103184522D01*
X216221000Y-103717362D01*
X197461000Y-103717362D01*
X197461000Y-103463362D01*
X197355012Y-102930522D01*
X197147108Y-102428598D01*
X196845279Y-101976878D01*
X196461123Y-101592722D01*
X196009403Y-101290893D01*
X195507479Y-101082989D01*
X195044258Y-100990849D01*
X205475000Y-100990849D01*
X205475000Y-101193151D01*
X205514467Y-101391565D01*
X205591885Y-101578467D01*
X205704277Y-101746674D01*
X205847326Y-101889723D01*
X206015533Y-102002115D01*
X206202435Y-102079533D01*
X206400849Y-102119000D01*
X206603151Y-102119000D01*
X206801565Y-102079533D01*
X206988467Y-102002115D01*
X207156674Y-101889723D01*
X207299723Y-101746674D01*
X207412115Y-101578467D01*
X207489533Y-101391565D01*
X207529000Y-101193151D01*
X207529000Y-100990849D01*
X207489533Y-100792435D01*
X207412115Y-100605533D01*
X207299723Y-100437326D01*
X207156674Y-100294277D01*
X206988467Y-100181885D01*
X206801565Y-100104467D01*
X206603151Y-100065000D01*
X206400849Y-100065000D01*
X206202435Y-100104467D01*
X206015533Y-100181885D01*
X205847326Y-100294277D01*
X205704277Y-100437326D01*
X205591885Y-100605533D01*
X205514467Y-100792435D01*
X205475000Y-100990849D01*
X195044258Y-100990849D01*
X194974639Y-100977001D01*
X194431361Y-100977001D01*
X193898521Y-101082989D01*
X193396597Y-101290893D01*
X192944877Y-101592722D01*
X192560721Y-101976878D01*
X192258892Y-102428598D01*
X192050988Y-102930522D01*
X191945000Y-103463362D01*
X172885000Y-103463362D01*
X172885000Y-103303362D01*
X172779012Y-102770522D01*
X172571108Y-102268598D01*
X172269279Y-101816878D01*
X171885123Y-101432722D01*
X171433403Y-101130893D01*
X170931479Y-100922989D01*
X170398639Y-100817001D01*
X169855361Y-100817001D01*
X169322521Y-100922989D01*
X168820597Y-101130893D01*
X168368877Y-101432722D01*
X167984721Y-101816878D01*
X167682892Y-102268598D01*
X167474988Y-102770522D01*
X167369000Y-103303362D01*
X148077000Y-103303362D01*
X148077000Y-103162362D01*
X147971012Y-102629522D01*
X147763108Y-102127598D01*
X147461279Y-101675878D01*
X147077123Y-101291722D01*
X146625403Y-100989893D01*
X146123479Y-100781989D01*
X145590639Y-100676001D01*
X145047361Y-100676001D01*
X144514521Y-100781989D01*
X144012597Y-100989893D01*
X143560877Y-101291722D01*
X143176721Y-101675878D01*
X142874892Y-102127598D01*
X142666988Y-102629522D01*
X142561000Y-103162362D01*
X123449000Y-103162362D01*
X123449000Y-103145362D01*
X123343012Y-102612522D01*
X123135108Y-102110598D01*
X122833279Y-101658878D01*
X122449123Y-101274722D01*
X121997403Y-100972893D01*
X121495479Y-100764989D01*
X120962639Y-100659001D01*
X120419361Y-100659001D01*
X119886521Y-100764989D01*
X119384597Y-100972893D01*
X118932877Y-101274722D01*
X118548721Y-101658878D01*
X118246892Y-102110598D01*
X118038988Y-102612522D01*
X117933000Y-103145362D01*
X106934000Y-103145362D01*
X106934000Y-100482849D01*
X107177000Y-100482849D01*
X107177000Y-100685151D01*
X107216467Y-100883565D01*
X107293885Y-101070467D01*
X107406277Y-101238674D01*
X107549326Y-101381723D01*
X107717533Y-101494115D01*
X107904435Y-101571533D01*
X108102849Y-101611000D01*
X108305151Y-101611000D01*
X108503565Y-101571533D01*
X108690467Y-101494115D01*
X108858674Y-101381723D01*
X109001723Y-101238674D01*
X109114115Y-101070467D01*
X109191533Y-100883565D01*
X109231000Y-100685151D01*
X109231000Y-100482849D01*
X132069000Y-100482849D01*
X132069000Y-100685151D01*
X132108467Y-100883565D01*
X132185885Y-101070467D01*
X132298277Y-101238674D01*
X132441326Y-101381723D01*
X132609533Y-101494115D01*
X132796435Y-101571533D01*
X132994849Y-101611000D01*
X133197151Y-101611000D01*
X133395565Y-101571533D01*
X133582467Y-101494115D01*
X133750674Y-101381723D01*
X133893723Y-101238674D01*
X134006115Y-101070467D01*
X134083533Y-100883565D01*
X134123000Y-100685151D01*
X134123000Y-100482849D01*
X156707000Y-100482849D01*
X156707000Y-100685151D01*
X156746467Y-100883565D01*
X156823885Y-101070467D01*
X156936277Y-101238674D01*
X157079326Y-101381723D01*
X157247533Y-101494115D01*
X157434435Y-101571533D01*
X157632849Y-101611000D01*
X157835151Y-101611000D01*
X158033565Y-101571533D01*
X158220467Y-101494115D01*
X158388674Y-101381723D01*
X158531723Y-101238674D01*
X158644115Y-101070467D01*
X158721533Y-100883565D01*
X158750716Y-100736849D01*
X181345000Y-100736849D01*
X181345000Y-100939151D01*
X181384467Y-101137565D01*
X181461885Y-101324467D01*
X181574277Y-101492674D01*
X181717326Y-101635723D01*
X181885533Y-101748115D01*
X182072435Y-101825533D01*
X182270849Y-101865000D01*
X182473151Y-101865000D01*
X182671565Y-101825533D01*
X182858467Y-101748115D01*
X183026674Y-101635723D01*
X183169723Y-101492674D01*
X183282115Y-101324467D01*
X183359533Y-101137565D01*
X183399000Y-100939151D01*
X183399000Y-100736849D01*
X183359533Y-100538435D01*
X183282115Y-100351533D01*
X183169723Y-100183326D01*
X183026674Y-100040277D01*
X182858467Y-99927885D01*
X182671565Y-99850467D01*
X182473151Y-99811000D01*
X182270849Y-99811000D01*
X182072435Y-99850467D01*
X181885533Y-99927885D01*
X181717326Y-100040277D01*
X181574277Y-100183326D01*
X181461885Y-100351533D01*
X181384467Y-100538435D01*
X181345000Y-100736849D01*
X158750716Y-100736849D01*
X158761000Y-100685151D01*
X158761000Y-100482849D01*
X158721533Y-100284435D01*
X158644115Y-100097533D01*
X158531723Y-99929326D01*
X158388674Y-99786277D01*
X158220467Y-99673885D01*
X158033565Y-99596467D01*
X157835151Y-99557000D01*
X157632849Y-99557000D01*
X157434435Y-99596467D01*
X157247533Y-99673885D01*
X157079326Y-99786277D01*
X156936277Y-99929326D01*
X156823885Y-100097533D01*
X156746467Y-100284435D01*
X156707000Y-100482849D01*
X134123000Y-100482849D01*
X134083533Y-100284435D01*
X134006115Y-100097533D01*
X133893723Y-99929326D01*
X133750674Y-99786277D01*
X133582467Y-99673885D01*
X133395565Y-99596467D01*
X133197151Y-99557000D01*
X132994849Y-99557000D01*
X132796435Y-99596467D01*
X132609533Y-99673885D01*
X132441326Y-99786277D01*
X132298277Y-99929326D01*
X132185885Y-100097533D01*
X132108467Y-100284435D01*
X132069000Y-100482849D01*
X109231000Y-100482849D01*
X109191533Y-100284435D01*
X109114115Y-100097533D01*
X109001723Y-99929326D01*
X108858674Y-99786277D01*
X108690467Y-99673885D01*
X108503565Y-99596467D01*
X108305151Y-99557000D01*
X108102849Y-99557000D01*
X107904435Y-99596467D01*
X107717533Y-99673885D01*
X107549326Y-99786277D01*
X107406277Y-99929326D01*
X107293885Y-100097533D01*
X107216467Y-100284435D01*
X107177000Y-100482849D01*
X106934000Y-100482849D01*
X106934000Y-92467001D01*
X119279966Y-92467001D01*
X119279966Y-96467001D01*
X119307079Y-96742280D01*
X119387374Y-97006980D01*
X119517768Y-97250929D01*
X119693248Y-97464752D01*
X119907071Y-97640232D01*
X120151020Y-97770626D01*
X120415720Y-97850921D01*
X120690999Y-97878034D01*
X120691001Y-97878034D01*
X120966280Y-97850921D01*
X121230980Y-97770626D01*
X121474929Y-97640232D01*
X121688752Y-97464752D01*
X121864232Y-97250929D01*
X121994626Y-97006980D01*
X122074921Y-96742280D01*
X122102034Y-96467001D01*
X122102034Y-92484001D01*
X143907966Y-92484001D01*
X143907966Y-96484001D01*
X143935079Y-96759280D01*
X144015374Y-97023980D01*
X144145768Y-97267929D01*
X144321248Y-97481752D01*
X144535071Y-97657232D01*
X144779020Y-97787626D01*
X145043720Y-97867921D01*
X145318999Y-97895034D01*
X145319001Y-97895034D01*
X145594280Y-97867921D01*
X145858980Y-97787626D01*
X146102929Y-97657232D01*
X146316752Y-97481752D01*
X146492232Y-97267929D01*
X146622626Y-97023980D01*
X146702921Y-96759280D01*
X146730034Y-96484001D01*
X146730034Y-92625001D01*
X168715966Y-92625001D01*
X168715966Y-96625001D01*
X168743079Y-96900280D01*
X168823374Y-97164980D01*
X168953768Y-97408929D01*
X169129248Y-97622752D01*
X169343071Y-97798232D01*
X169587020Y-97928626D01*
X169851720Y-98008921D01*
X170126999Y-98036034D01*
X170127001Y-98036034D01*
X170402280Y-98008921D01*
X170666980Y-97928626D01*
X170910929Y-97798232D01*
X171124752Y-97622752D01*
X171300232Y-97408929D01*
X171430626Y-97164980D01*
X171510921Y-96900280D01*
X171538034Y-96625001D01*
X171538034Y-92785001D01*
X193291966Y-92785001D01*
X193291966Y-96785001D01*
X193319079Y-97060280D01*
X193399374Y-97324980D01*
X193529768Y-97568929D01*
X193705248Y-97782752D01*
X193919071Y-97958232D01*
X194163020Y-98088626D01*
X194427720Y-98168921D01*
X194702999Y-98196034D01*
X194703001Y-98196034D01*
X194978280Y-98168921D01*
X195242980Y-98088626D01*
X195486929Y-97958232D01*
X195700752Y-97782752D01*
X195876232Y-97568929D01*
X196006626Y-97324980D01*
X196086921Y-97060280D01*
X196114034Y-96785001D01*
X196114034Y-93039001D01*
X217567966Y-93039001D01*
X217567966Y-97039001D01*
X217595079Y-97314280D01*
X217675374Y-97578980D01*
X217805768Y-97822929D01*
X217981248Y-98036752D01*
X218195071Y-98212232D01*
X218439020Y-98342626D01*
X218703720Y-98422921D01*
X218978999Y-98450034D01*
X218979001Y-98450034D01*
X219254280Y-98422921D01*
X219518980Y-98342626D01*
X219762929Y-98212232D01*
X219976752Y-98036752D01*
X220152232Y-97822929D01*
X220282626Y-97578980D01*
X220362921Y-97314280D01*
X220390034Y-97039001D01*
X220390034Y-93039001D01*
X220362921Y-92763722D01*
X220282626Y-92499022D01*
X220152232Y-92255073D01*
X219976752Y-92041250D01*
X219762929Y-91865770D01*
X219518980Y-91735376D01*
X219254280Y-91655081D01*
X218979001Y-91627968D01*
X218978999Y-91627968D01*
X218703720Y-91655081D01*
X218439020Y-91735376D01*
X218195071Y-91865770D01*
X217981248Y-92041250D01*
X217805768Y-92255073D01*
X217675374Y-92499022D01*
X217595079Y-92763722D01*
X217567966Y-93039001D01*
X196114034Y-93039001D01*
X196114034Y-92785001D01*
X196086921Y-92509722D01*
X196006626Y-92245022D01*
X195876232Y-92001073D01*
X195700752Y-91787250D01*
X195486929Y-91611770D01*
X195242980Y-91481376D01*
X194978280Y-91401081D01*
X194703001Y-91373968D01*
X194702999Y-91373968D01*
X194427720Y-91401081D01*
X194163020Y-91481376D01*
X193919071Y-91611770D01*
X193705248Y-91787250D01*
X193529768Y-92001073D01*
X193399374Y-92245022D01*
X193319079Y-92509722D01*
X193291966Y-92785001D01*
X171538034Y-92785001D01*
X171538034Y-92625001D01*
X171510921Y-92349722D01*
X171430626Y-92085022D01*
X171300232Y-91841073D01*
X171124752Y-91627250D01*
X170910929Y-91451770D01*
X170666980Y-91321376D01*
X170402280Y-91241081D01*
X170127001Y-91213968D01*
X170126999Y-91213968D01*
X169851720Y-91241081D01*
X169587020Y-91321376D01*
X169343071Y-91451770D01*
X169129248Y-91627250D01*
X168953768Y-91841073D01*
X168823374Y-92085022D01*
X168743079Y-92349722D01*
X168715966Y-92625001D01*
X146730034Y-92625001D01*
X146730034Y-92484001D01*
X146702921Y-92208722D01*
X146622626Y-91944022D01*
X146492232Y-91700073D01*
X146316752Y-91486250D01*
X146102929Y-91310770D01*
X145858980Y-91180376D01*
X145594280Y-91100081D01*
X145319001Y-91072968D01*
X145318999Y-91072968D01*
X145043720Y-91100081D01*
X144779020Y-91180376D01*
X144535071Y-91310770D01*
X144321248Y-91486250D01*
X144145768Y-91700073D01*
X144015374Y-91944022D01*
X143935079Y-92208722D01*
X143907966Y-92484001D01*
X122102034Y-92484001D01*
X122102034Y-92467001D01*
X122074921Y-92191722D01*
X121994626Y-91927022D01*
X121864232Y-91683073D01*
X121688752Y-91469250D01*
X121474929Y-91293770D01*
X121230980Y-91163376D01*
X120966280Y-91083081D01*
X120691001Y-91055968D01*
X120690999Y-91055968D01*
X120415720Y-91083081D01*
X120151020Y-91163376D01*
X119907071Y-91293770D01*
X119693248Y-91469250D01*
X119517768Y-91683073D01*
X119387374Y-91927022D01*
X119307079Y-92191722D01*
X119279966Y-92467001D01*
X106934000Y-92467001D01*
X106934000Y-90164849D01*
X107651999Y-90164849D01*
X107651999Y-90367151D01*
X107691466Y-90565565D01*
X107768884Y-90752467D01*
X107881276Y-90920674D01*
X108024325Y-91063723D01*
X108192532Y-91176115D01*
X108379434Y-91253533D01*
X108577848Y-91293000D01*
X108780150Y-91293000D01*
X108978564Y-91253533D01*
X109165466Y-91176115D01*
X109333673Y-91063723D01*
X109476722Y-90920674D01*
X109589114Y-90752467D01*
X109666532Y-90565565D01*
X109705999Y-90367151D01*
X109705999Y-90164849D01*
X109666532Y-89966435D01*
X109603743Y-89814849D01*
X111114000Y-89814849D01*
X111114000Y-90017151D01*
X111153467Y-90215565D01*
X111230885Y-90402467D01*
X111343277Y-90570674D01*
X111486326Y-90713723D01*
X111654533Y-90826115D01*
X111841435Y-90903533D01*
X112039849Y-90943000D01*
X112242151Y-90943000D01*
X112440565Y-90903533D01*
X112627467Y-90826115D01*
X112795674Y-90713723D01*
X112938723Y-90570674D01*
X113051115Y-90402467D01*
X113128533Y-90215565D01*
X113168000Y-90017151D01*
X113168000Y-89814849D01*
X113167006Y-89809849D01*
X113363000Y-89809849D01*
X113363000Y-90012151D01*
X113402467Y-90210565D01*
X113479885Y-90397467D01*
X113592277Y-90565674D01*
X113735326Y-90708723D01*
X113903533Y-90821115D01*
X114090435Y-90898533D01*
X114288849Y-90938000D01*
X114491151Y-90938000D01*
X114689565Y-90898533D01*
X114876467Y-90821115D01*
X115044674Y-90708723D01*
X115187723Y-90565674D01*
X115300115Y-90397467D01*
X115377533Y-90210565D01*
X115383244Y-90181849D01*
X132279999Y-90181849D01*
X132279999Y-90384151D01*
X132319466Y-90582565D01*
X132396884Y-90769467D01*
X132509276Y-90937674D01*
X132652325Y-91080723D01*
X132820532Y-91193115D01*
X133007434Y-91270533D01*
X133205848Y-91310000D01*
X133408150Y-91310000D01*
X133606564Y-91270533D01*
X133793466Y-91193115D01*
X133961673Y-91080723D01*
X134104722Y-90937674D01*
X134217114Y-90769467D01*
X134294532Y-90582565D01*
X134333999Y-90384151D01*
X134333999Y-90181849D01*
X134294532Y-89983435D01*
X134231743Y-89831849D01*
X135742000Y-89831849D01*
X135742000Y-90034151D01*
X135781467Y-90232565D01*
X135858885Y-90419467D01*
X135971277Y-90587674D01*
X136114326Y-90730723D01*
X136282533Y-90843115D01*
X136469435Y-90920533D01*
X136667849Y-90960000D01*
X136870151Y-90960000D01*
X137068565Y-90920533D01*
X137255467Y-90843115D01*
X137423674Y-90730723D01*
X137566723Y-90587674D01*
X137679115Y-90419467D01*
X137756533Y-90232565D01*
X137796000Y-90034151D01*
X137796000Y-89831849D01*
X137795006Y-89826849D01*
X137991000Y-89826849D01*
X137991000Y-90029151D01*
X138030467Y-90227565D01*
X138107885Y-90414467D01*
X138220277Y-90582674D01*
X138363326Y-90725723D01*
X138531533Y-90838115D01*
X138718435Y-90915533D01*
X138916849Y-90955000D01*
X139119151Y-90955000D01*
X139317565Y-90915533D01*
X139504467Y-90838115D01*
X139672674Y-90725723D01*
X139815723Y-90582674D01*
X139928115Y-90414467D01*
X139966064Y-90322849D01*
X157087999Y-90322849D01*
X157087999Y-90525151D01*
X157127466Y-90723565D01*
X157204884Y-90910467D01*
X157317276Y-91078674D01*
X157460325Y-91221723D01*
X157628532Y-91334115D01*
X157815434Y-91411533D01*
X158013848Y-91451000D01*
X158216150Y-91451000D01*
X158414564Y-91411533D01*
X158601466Y-91334115D01*
X158769673Y-91221723D01*
X158912722Y-91078674D01*
X159025114Y-90910467D01*
X159102532Y-90723565D01*
X159141999Y-90525151D01*
X159141999Y-90322849D01*
X159102532Y-90124435D01*
X159039743Y-89972849D01*
X160550000Y-89972849D01*
X160550000Y-90175151D01*
X160589467Y-90373565D01*
X160666885Y-90560467D01*
X160779277Y-90728674D01*
X160922326Y-90871723D01*
X161090533Y-90984115D01*
X161277435Y-91061533D01*
X161475849Y-91101000D01*
X161678151Y-91101000D01*
X161876565Y-91061533D01*
X162063467Y-90984115D01*
X162231674Y-90871723D01*
X162374723Y-90728674D01*
X162487115Y-90560467D01*
X162564533Y-90373565D01*
X162604000Y-90175151D01*
X162604000Y-89972849D01*
X162603006Y-89967849D01*
X162799000Y-89967849D01*
X162799000Y-90170151D01*
X162838467Y-90368565D01*
X162915885Y-90555467D01*
X163028277Y-90723674D01*
X163171326Y-90866723D01*
X163339533Y-90979115D01*
X163526435Y-91056533D01*
X163724849Y-91096000D01*
X163927151Y-91096000D01*
X164125565Y-91056533D01*
X164312467Y-90979115D01*
X164480674Y-90866723D01*
X164623723Y-90723674D01*
X164736115Y-90555467D01*
X164766194Y-90482849D01*
X181663999Y-90482849D01*
X181663999Y-90685151D01*
X181703466Y-90883565D01*
X181780884Y-91070467D01*
X181893276Y-91238674D01*
X182036325Y-91381723D01*
X182204532Y-91494115D01*
X182391434Y-91571533D01*
X182589848Y-91611000D01*
X182792150Y-91611000D01*
X182990564Y-91571533D01*
X183177466Y-91494115D01*
X183345673Y-91381723D01*
X183488722Y-91238674D01*
X183601114Y-91070467D01*
X183678532Y-90883565D01*
X183717999Y-90685151D01*
X183717999Y-90482849D01*
X183678532Y-90284435D01*
X183615743Y-90132849D01*
X185126000Y-90132849D01*
X185126000Y-90335151D01*
X185165467Y-90533565D01*
X185242885Y-90720467D01*
X185355277Y-90888674D01*
X185498326Y-91031723D01*
X185666533Y-91144115D01*
X185853435Y-91221533D01*
X186051849Y-91261000D01*
X186254151Y-91261000D01*
X186452565Y-91221533D01*
X186639467Y-91144115D01*
X186807674Y-91031723D01*
X186950723Y-90888674D01*
X187063115Y-90720467D01*
X187140533Y-90533565D01*
X187180000Y-90335151D01*
X187180000Y-90132849D01*
X187179006Y-90127849D01*
X187375000Y-90127849D01*
X187375000Y-90330151D01*
X187414467Y-90528565D01*
X187491885Y-90715467D01*
X187604277Y-90883674D01*
X187747326Y-91026723D01*
X187915533Y-91139115D01*
X188102435Y-91216533D01*
X188300849Y-91256000D01*
X188503151Y-91256000D01*
X188701565Y-91216533D01*
X188888467Y-91139115D01*
X189056674Y-91026723D01*
X189199723Y-90883674D01*
X189297828Y-90736849D01*
X205939999Y-90736849D01*
X205939999Y-90939151D01*
X205979466Y-91137565D01*
X206056884Y-91324467D01*
X206169276Y-91492674D01*
X206312325Y-91635723D01*
X206480532Y-91748115D01*
X206667434Y-91825533D01*
X206865848Y-91865000D01*
X207068150Y-91865000D01*
X207266564Y-91825533D01*
X207453466Y-91748115D01*
X207621673Y-91635723D01*
X207764722Y-91492674D01*
X207877114Y-91324467D01*
X207954532Y-91137565D01*
X207993999Y-90939151D01*
X207993999Y-90736849D01*
X207954532Y-90538435D01*
X207891743Y-90386849D01*
X209402000Y-90386849D01*
X209402000Y-90589151D01*
X209441467Y-90787565D01*
X209518885Y-90974467D01*
X209631277Y-91142674D01*
X209774326Y-91285723D01*
X209942533Y-91398115D01*
X210129435Y-91475533D01*
X210327849Y-91515000D01*
X210530151Y-91515000D01*
X210728565Y-91475533D01*
X210915467Y-91398115D01*
X211083674Y-91285723D01*
X211226723Y-91142674D01*
X211339115Y-90974467D01*
X211416533Y-90787565D01*
X211456000Y-90589151D01*
X211456000Y-90386849D01*
X211455006Y-90381849D01*
X211651000Y-90381849D01*
X211651000Y-90584151D01*
X211690467Y-90782565D01*
X211767885Y-90969467D01*
X211880277Y-91137674D01*
X212023326Y-91280723D01*
X212191533Y-91393115D01*
X212378435Y-91470533D01*
X212576849Y-91510000D01*
X212779151Y-91510000D01*
X212977565Y-91470533D01*
X213164467Y-91393115D01*
X213332674Y-91280723D01*
X213475723Y-91137674D01*
X213588115Y-90969467D01*
X213665533Y-90782565D01*
X213705000Y-90584151D01*
X213705000Y-90381849D01*
X213665533Y-90183435D01*
X213588115Y-89996533D01*
X213475723Y-89828326D01*
X213332674Y-89685277D01*
X213164467Y-89572885D01*
X213135410Y-89560849D01*
X223382000Y-89560849D01*
X223382000Y-89763151D01*
X223421467Y-89961565D01*
X223498885Y-90148467D01*
X223611277Y-90316674D01*
X223754326Y-90459723D01*
X223922533Y-90572115D01*
X224109435Y-90649533D01*
X224307849Y-90689000D01*
X224510151Y-90689000D01*
X224708565Y-90649533D01*
X224895467Y-90572115D01*
X225063674Y-90459723D01*
X225206723Y-90316674D01*
X225319115Y-90148467D01*
X225396533Y-89961565D01*
X225436000Y-89763151D01*
X225436000Y-89560849D01*
X225396533Y-89362435D01*
X225319115Y-89175533D01*
X225206723Y-89007326D01*
X225063674Y-88864277D01*
X224895467Y-88751885D01*
X224708565Y-88674467D01*
X224510151Y-88635000D01*
X224307849Y-88635000D01*
X224109435Y-88674467D01*
X223922533Y-88751885D01*
X223754326Y-88864277D01*
X223611277Y-89007326D01*
X223498885Y-89175533D01*
X223421467Y-89362435D01*
X223382000Y-89560849D01*
X213135410Y-89560849D01*
X212977565Y-89495467D01*
X212779151Y-89456000D01*
X212576849Y-89456000D01*
X212378435Y-89495467D01*
X212191533Y-89572885D01*
X212023326Y-89685277D01*
X211880277Y-89828326D01*
X211767885Y-89996533D01*
X211690467Y-90183435D01*
X211651000Y-90381849D01*
X211455006Y-90381849D01*
X211416533Y-90188435D01*
X211339115Y-90001533D01*
X211226723Y-89833326D01*
X211083674Y-89690277D01*
X210915467Y-89577885D01*
X210728565Y-89500467D01*
X210530151Y-89461000D01*
X210327849Y-89461000D01*
X210129435Y-89500467D01*
X209942533Y-89577885D01*
X209774326Y-89690277D01*
X209631277Y-89833326D01*
X209518885Y-90001533D01*
X209441467Y-90188435D01*
X209402000Y-90386849D01*
X207891743Y-90386849D01*
X207877114Y-90351533D01*
X207764722Y-90183326D01*
X207621673Y-90040277D01*
X207453466Y-89927885D01*
X207266564Y-89850467D01*
X207068150Y-89811000D01*
X206865848Y-89811000D01*
X206667434Y-89850467D01*
X206480532Y-89927885D01*
X206312325Y-90040277D01*
X206169276Y-90183326D01*
X206056884Y-90351533D01*
X205979466Y-90538435D01*
X205939999Y-90736849D01*
X189297828Y-90736849D01*
X189312115Y-90715467D01*
X189389533Y-90528565D01*
X189429000Y-90330151D01*
X189429000Y-90127849D01*
X189389533Y-89929435D01*
X189312115Y-89742533D01*
X189199723Y-89574326D01*
X189056674Y-89431277D01*
X188888467Y-89318885D01*
X188701565Y-89241467D01*
X188503151Y-89202000D01*
X188300849Y-89202000D01*
X188102435Y-89241467D01*
X187915533Y-89318885D01*
X187747326Y-89431277D01*
X187604277Y-89574326D01*
X187491885Y-89742533D01*
X187414467Y-89929435D01*
X187375000Y-90127849D01*
X187179006Y-90127849D01*
X187140533Y-89934435D01*
X187063115Y-89747533D01*
X186950723Y-89579326D01*
X186807674Y-89436277D01*
X186639467Y-89323885D01*
X186452565Y-89246467D01*
X186254151Y-89207000D01*
X186051849Y-89207000D01*
X185853435Y-89246467D01*
X185666533Y-89323885D01*
X185498326Y-89436277D01*
X185355277Y-89579326D01*
X185242885Y-89747533D01*
X185165467Y-89934435D01*
X185126000Y-90132849D01*
X183615743Y-90132849D01*
X183601114Y-90097533D01*
X183488722Y-89929326D01*
X183345673Y-89786277D01*
X183177466Y-89673885D01*
X182990564Y-89596467D01*
X182792150Y-89557000D01*
X182589848Y-89557000D01*
X182391434Y-89596467D01*
X182204532Y-89673885D01*
X182036325Y-89786277D01*
X181893276Y-89929326D01*
X181780884Y-90097533D01*
X181703466Y-90284435D01*
X181663999Y-90482849D01*
X164766194Y-90482849D01*
X164813533Y-90368565D01*
X164853000Y-90170151D01*
X164853000Y-89967849D01*
X164813533Y-89769435D01*
X164736115Y-89582533D01*
X164623723Y-89414326D01*
X164480674Y-89271277D01*
X164312467Y-89158885D01*
X164125565Y-89081467D01*
X163981693Y-89052849D01*
X174106000Y-89052849D01*
X174106000Y-89255151D01*
X174145467Y-89453565D01*
X174222885Y-89640467D01*
X174335277Y-89808674D01*
X174478326Y-89951723D01*
X174646533Y-90064115D01*
X174833435Y-90141533D01*
X175031849Y-90181000D01*
X175234151Y-90181000D01*
X175432565Y-90141533D01*
X175619467Y-90064115D01*
X175787674Y-89951723D01*
X175930723Y-89808674D01*
X176043115Y-89640467D01*
X176120533Y-89453565D01*
X176160000Y-89255151D01*
X176160000Y-89052849D01*
X176120533Y-88854435D01*
X176043115Y-88667533D01*
X175930723Y-88499326D01*
X175787674Y-88356277D01*
X175619467Y-88243885D01*
X175432565Y-88166467D01*
X175234151Y-88127000D01*
X175031849Y-88127000D01*
X174833435Y-88166467D01*
X174646533Y-88243885D01*
X174478326Y-88356277D01*
X174335277Y-88499326D01*
X174222885Y-88667533D01*
X174145467Y-88854435D01*
X174106000Y-89052849D01*
X163981693Y-89052849D01*
X163927151Y-89042000D01*
X163724849Y-89042000D01*
X163526435Y-89081467D01*
X163339533Y-89158885D01*
X163171326Y-89271277D01*
X163028277Y-89414326D01*
X162915885Y-89582533D01*
X162838467Y-89769435D01*
X162799000Y-89967849D01*
X162603006Y-89967849D01*
X162564533Y-89774435D01*
X162487115Y-89587533D01*
X162374723Y-89419326D01*
X162231674Y-89276277D01*
X162063467Y-89163885D01*
X161876565Y-89086467D01*
X161678151Y-89047000D01*
X161475849Y-89047000D01*
X161277435Y-89086467D01*
X161090533Y-89163885D01*
X160922326Y-89276277D01*
X160779277Y-89419326D01*
X160666885Y-89587533D01*
X160589467Y-89774435D01*
X160550000Y-89972849D01*
X159039743Y-89972849D01*
X159025114Y-89937533D01*
X158912722Y-89769326D01*
X158769673Y-89626277D01*
X158601466Y-89513885D01*
X158414564Y-89436467D01*
X158216150Y-89397000D01*
X158013848Y-89397000D01*
X157815434Y-89436467D01*
X157628532Y-89513885D01*
X157460325Y-89626277D01*
X157317276Y-89769326D01*
X157204884Y-89937533D01*
X157127466Y-90124435D01*
X157087999Y-90322849D01*
X139966064Y-90322849D01*
X140005533Y-90227565D01*
X140045000Y-90029151D01*
X140045000Y-89826849D01*
X140005533Y-89628435D01*
X139928115Y-89441533D01*
X139815723Y-89273326D01*
X139672674Y-89130277D01*
X139556795Y-89052849D01*
X149722000Y-89052849D01*
X149722000Y-89255151D01*
X149761467Y-89453565D01*
X149838885Y-89640467D01*
X149951277Y-89808674D01*
X150094326Y-89951723D01*
X150262533Y-90064115D01*
X150449435Y-90141533D01*
X150647849Y-90181000D01*
X150850151Y-90181000D01*
X151048565Y-90141533D01*
X151235467Y-90064115D01*
X151403674Y-89951723D01*
X151546723Y-89808674D01*
X151659115Y-89640467D01*
X151736533Y-89453565D01*
X151776000Y-89255151D01*
X151776000Y-89052849D01*
X151736533Y-88854435D01*
X151659115Y-88667533D01*
X151546723Y-88499326D01*
X151403674Y-88356277D01*
X151235467Y-88243885D01*
X151048565Y-88166467D01*
X150850151Y-88127000D01*
X150647849Y-88127000D01*
X150449435Y-88166467D01*
X150262533Y-88243885D01*
X150094326Y-88356277D01*
X149951277Y-88499326D01*
X149838885Y-88667533D01*
X149761467Y-88854435D01*
X149722000Y-89052849D01*
X139556795Y-89052849D01*
X139504467Y-89017885D01*
X139317565Y-88940467D01*
X139119151Y-88901000D01*
X138916849Y-88901000D01*
X138718435Y-88940467D01*
X138531533Y-89017885D01*
X138363326Y-89130277D01*
X138220277Y-89273326D01*
X138107885Y-89441533D01*
X138030467Y-89628435D01*
X137991000Y-89826849D01*
X137795006Y-89826849D01*
X137756533Y-89633435D01*
X137679115Y-89446533D01*
X137566723Y-89278326D01*
X137423674Y-89135277D01*
X137255467Y-89022885D01*
X137068565Y-88945467D01*
X136870151Y-88906000D01*
X136667849Y-88906000D01*
X136469435Y-88945467D01*
X136282533Y-89022885D01*
X136114326Y-89135277D01*
X135971277Y-89278326D01*
X135858885Y-89446533D01*
X135781467Y-89633435D01*
X135742000Y-89831849D01*
X134231743Y-89831849D01*
X134217114Y-89796533D01*
X134104722Y-89628326D01*
X133961673Y-89485277D01*
X133793466Y-89372885D01*
X133606564Y-89295467D01*
X133408150Y-89256000D01*
X133205848Y-89256000D01*
X133007434Y-89295467D01*
X132820532Y-89372885D01*
X132652325Y-89485277D01*
X132509276Y-89628326D01*
X132396884Y-89796533D01*
X132319466Y-89983435D01*
X132279999Y-90181849D01*
X115383244Y-90181849D01*
X115417000Y-90012151D01*
X115417000Y-89809849D01*
X115377533Y-89611435D01*
X115300115Y-89424533D01*
X115187723Y-89256326D01*
X115044674Y-89113277D01*
X114954237Y-89052849D01*
X124830000Y-89052849D01*
X124830000Y-89255151D01*
X124869467Y-89453565D01*
X124946885Y-89640467D01*
X125059277Y-89808674D01*
X125202326Y-89951723D01*
X125370533Y-90064115D01*
X125557435Y-90141533D01*
X125755849Y-90181000D01*
X125958151Y-90181000D01*
X126156565Y-90141533D01*
X126343467Y-90064115D01*
X126511674Y-89951723D01*
X126654723Y-89808674D01*
X126767115Y-89640467D01*
X126844533Y-89453565D01*
X126884000Y-89255151D01*
X126884000Y-89052849D01*
X126844533Y-88854435D01*
X126767115Y-88667533D01*
X126654723Y-88499326D01*
X126511674Y-88356277D01*
X126343467Y-88243885D01*
X126156565Y-88166467D01*
X125958151Y-88127000D01*
X125755849Y-88127000D01*
X125557435Y-88166467D01*
X125370533Y-88243885D01*
X125202326Y-88356277D01*
X125059277Y-88499326D01*
X124946885Y-88667533D01*
X124869467Y-88854435D01*
X124830000Y-89052849D01*
X114954237Y-89052849D01*
X114876467Y-89000885D01*
X114689565Y-88923467D01*
X114491151Y-88884000D01*
X114288849Y-88884000D01*
X114090435Y-88923467D01*
X113903533Y-89000885D01*
X113735326Y-89113277D01*
X113592277Y-89256326D01*
X113479885Y-89424533D01*
X113402467Y-89611435D01*
X113363000Y-89809849D01*
X113167006Y-89809849D01*
X113128533Y-89616435D01*
X113051115Y-89429533D01*
X112938723Y-89261326D01*
X112795674Y-89118277D01*
X112627467Y-89005885D01*
X112440565Y-88928467D01*
X112242151Y-88889000D01*
X112039849Y-88889000D01*
X111841435Y-88928467D01*
X111654533Y-89005885D01*
X111486326Y-89118277D01*
X111343277Y-89261326D01*
X111230885Y-89429533D01*
X111153467Y-89616435D01*
X111114000Y-89814849D01*
X109603743Y-89814849D01*
X109589114Y-89779533D01*
X109476722Y-89611326D01*
X109333673Y-89468277D01*
X109165466Y-89355885D01*
X108978564Y-89278467D01*
X108780150Y-89239000D01*
X108577848Y-89239000D01*
X108379434Y-89278467D01*
X108192532Y-89355885D01*
X108024325Y-89468277D01*
X107881276Y-89611326D01*
X107768884Y-89779533D01*
X107691466Y-89966435D01*
X107651999Y-90164849D01*
X106934000Y-90164849D01*
X106934000Y-85910349D01*
X107652000Y-85910349D01*
X107652000Y-86112651D01*
X107691467Y-86311065D01*
X107768885Y-86497967D01*
X107881277Y-86666174D01*
X108024326Y-86809223D01*
X108192533Y-86921615D01*
X108379435Y-86999033D01*
X108577849Y-87038500D01*
X108594248Y-87038500D01*
X108506435Y-87055967D01*
X108319533Y-87133385D01*
X108151326Y-87245777D01*
X108008277Y-87388826D01*
X107895885Y-87557033D01*
X107818467Y-87743935D01*
X107779000Y-87942349D01*
X107779000Y-88144651D01*
X107818467Y-88343065D01*
X107895885Y-88529967D01*
X108008277Y-88698174D01*
X108151326Y-88841223D01*
X108319533Y-88953615D01*
X108506435Y-89031033D01*
X108704849Y-89070500D01*
X108907151Y-89070500D01*
X109105565Y-89031033D01*
X109292467Y-88953615D01*
X109460674Y-88841223D01*
X109603723Y-88698174D01*
X109716115Y-88529967D01*
X109793533Y-88343065D01*
X109833000Y-88144651D01*
X109833000Y-87942349D01*
X109793533Y-87743935D01*
X109716115Y-87557033D01*
X109603723Y-87388826D01*
X109460674Y-87245777D01*
X109292467Y-87133385D01*
X109105565Y-87055967D01*
X108907151Y-87016500D01*
X108890752Y-87016500D01*
X108978565Y-86999033D01*
X109165467Y-86921615D01*
X109333674Y-86809223D01*
X109476723Y-86666174D01*
X109589115Y-86497967D01*
X109666533Y-86311065D01*
X109706000Y-86112651D01*
X109706000Y-85910349D01*
X109666533Y-85711935D01*
X109589115Y-85525033D01*
X109476723Y-85356826D01*
X109333674Y-85213777D01*
X109165467Y-85101385D01*
X108978565Y-85023967D01*
X108780151Y-84984500D01*
X108577849Y-84984500D01*
X108379435Y-85023967D01*
X108192533Y-85101385D01*
X108024326Y-85213777D01*
X107881277Y-85356826D01*
X107768885Y-85525033D01*
X107691467Y-85711935D01*
X107652000Y-85910349D01*
X106934000Y-85910349D01*
X106934000Y-82967001D01*
X119279966Y-82967001D01*
X119279966Y-86967001D01*
X119307079Y-87242280D01*
X119387374Y-87506980D01*
X119517768Y-87750929D01*
X119693248Y-87964752D01*
X119907071Y-88140232D01*
X120151020Y-88270626D01*
X120415720Y-88350921D01*
X120690999Y-88378034D01*
X120691001Y-88378034D01*
X120966280Y-88350921D01*
X121230980Y-88270626D01*
X121474929Y-88140232D01*
X121688752Y-87964752D01*
X121864232Y-87750929D01*
X121994626Y-87506980D01*
X122074921Y-87242280D01*
X122102034Y-86967001D01*
X122102034Y-84988849D01*
X125454001Y-84988849D01*
X125454001Y-85191151D01*
X125493468Y-85389565D01*
X125570886Y-85576467D01*
X125683278Y-85744674D01*
X125826327Y-85887723D01*
X125994534Y-86000115D01*
X126181436Y-86077533D01*
X126379850Y-86117000D01*
X126582152Y-86117000D01*
X126780566Y-86077533D01*
X126967468Y-86000115D01*
X127076370Y-85927349D01*
X132280000Y-85927349D01*
X132280000Y-86129651D01*
X132319467Y-86328065D01*
X132396885Y-86514967D01*
X132509277Y-86683174D01*
X132652326Y-86826223D01*
X132820533Y-86938615D01*
X133007435Y-87016033D01*
X133205849Y-87055500D01*
X133222248Y-87055500D01*
X133134435Y-87072967D01*
X132947533Y-87150385D01*
X132779326Y-87262777D01*
X132636277Y-87405826D01*
X132523885Y-87574033D01*
X132446467Y-87760935D01*
X132407000Y-87959349D01*
X132407000Y-88161651D01*
X132446467Y-88360065D01*
X132523885Y-88546967D01*
X132636277Y-88715174D01*
X132779326Y-88858223D01*
X132947533Y-88970615D01*
X133134435Y-89048033D01*
X133332849Y-89087500D01*
X133535151Y-89087500D01*
X133733565Y-89048033D01*
X133920467Y-88970615D01*
X134088674Y-88858223D01*
X134231723Y-88715174D01*
X134344115Y-88546967D01*
X134421533Y-88360065D01*
X134461000Y-88161651D01*
X134461000Y-87959349D01*
X134421533Y-87760935D01*
X134344115Y-87574033D01*
X134231723Y-87405826D01*
X134088674Y-87262777D01*
X133920467Y-87150385D01*
X133733565Y-87072967D01*
X133535151Y-87033500D01*
X133518752Y-87033500D01*
X133606565Y-87016033D01*
X133793467Y-86938615D01*
X133961674Y-86826223D01*
X134104723Y-86683174D01*
X134217115Y-86514967D01*
X134294533Y-86328065D01*
X134334000Y-86129651D01*
X134334000Y-85927349D01*
X134294533Y-85728935D01*
X134217115Y-85542033D01*
X134104723Y-85373826D01*
X133961674Y-85230777D01*
X133793467Y-85118385D01*
X133606565Y-85040967D01*
X133408151Y-85001500D01*
X133205849Y-85001500D01*
X133007435Y-85040967D01*
X132820533Y-85118385D01*
X132652326Y-85230777D01*
X132509277Y-85373826D01*
X132396885Y-85542033D01*
X132319467Y-85728935D01*
X132280000Y-85927349D01*
X127076370Y-85927349D01*
X127135675Y-85887723D01*
X127278724Y-85744674D01*
X127391116Y-85576467D01*
X127468534Y-85389565D01*
X127508001Y-85191151D01*
X127508001Y-84988849D01*
X127468534Y-84790435D01*
X127391116Y-84603533D01*
X127278724Y-84435326D01*
X127135675Y-84292277D01*
X126967468Y-84179885D01*
X126780566Y-84102467D01*
X126582152Y-84063000D01*
X126379850Y-84063000D01*
X126181436Y-84102467D01*
X125994534Y-84179885D01*
X125826327Y-84292277D01*
X125683278Y-84435326D01*
X125570886Y-84603533D01*
X125493468Y-84790435D01*
X125454001Y-84988849D01*
X122102034Y-84988849D01*
X122102034Y-83972849D01*
X127370000Y-83972849D01*
X127370000Y-84175151D01*
X127409467Y-84373565D01*
X127486885Y-84560467D01*
X127599277Y-84728674D01*
X127742326Y-84871723D01*
X127910533Y-84984115D01*
X128097435Y-85061533D01*
X128295849Y-85101000D01*
X128498151Y-85101000D01*
X128696565Y-85061533D01*
X128883467Y-84984115D01*
X129051674Y-84871723D01*
X129194723Y-84728674D01*
X129307115Y-84560467D01*
X129384533Y-84373565D01*
X129424000Y-84175151D01*
X129424000Y-83972849D01*
X129384533Y-83774435D01*
X129307115Y-83587533D01*
X129194723Y-83419326D01*
X129051674Y-83276277D01*
X128883467Y-83163885D01*
X128696565Y-83086467D01*
X128498151Y-83047000D01*
X128295849Y-83047000D01*
X128097435Y-83086467D01*
X127910533Y-83163885D01*
X127742326Y-83276277D01*
X127599277Y-83419326D01*
X127486885Y-83587533D01*
X127409467Y-83774435D01*
X127370000Y-83972849D01*
X122102034Y-83972849D01*
X122102034Y-82984001D01*
X143907966Y-82984001D01*
X143907966Y-86984001D01*
X143935079Y-87259280D01*
X144015374Y-87523980D01*
X144145768Y-87767929D01*
X144321248Y-87981752D01*
X144535071Y-88157232D01*
X144779020Y-88287626D01*
X145043720Y-88367921D01*
X145318999Y-88395034D01*
X145319001Y-88395034D01*
X145594280Y-88367921D01*
X145858980Y-88287626D01*
X146102929Y-88157232D01*
X146316752Y-87981752D01*
X146492232Y-87767929D01*
X146622626Y-87523980D01*
X146702921Y-87259280D01*
X146730034Y-86984001D01*
X146730034Y-85008850D01*
X150032000Y-85008850D01*
X150032000Y-85211152D01*
X150071467Y-85409566D01*
X150148885Y-85596468D01*
X150261277Y-85764675D01*
X150404326Y-85907724D01*
X150572533Y-86020116D01*
X150759435Y-86097534D01*
X150957849Y-86137001D01*
X151160151Y-86137001D01*
X151358565Y-86097534D01*
X151429023Y-86068349D01*
X157088000Y-86068349D01*
X157088000Y-86270651D01*
X157127467Y-86469065D01*
X157204885Y-86655967D01*
X157317277Y-86824174D01*
X157460326Y-86967223D01*
X157628533Y-87079615D01*
X157815435Y-87157033D01*
X158013849Y-87196500D01*
X158030248Y-87196500D01*
X157942435Y-87213967D01*
X157755533Y-87291385D01*
X157587326Y-87403777D01*
X157444277Y-87546826D01*
X157331885Y-87715033D01*
X157254467Y-87901935D01*
X157215000Y-88100349D01*
X157215000Y-88302651D01*
X157254467Y-88501065D01*
X157331885Y-88687967D01*
X157444277Y-88856174D01*
X157587326Y-88999223D01*
X157755533Y-89111615D01*
X157942435Y-89189033D01*
X158140849Y-89228500D01*
X158343151Y-89228500D01*
X158541565Y-89189033D01*
X158728467Y-89111615D01*
X158896674Y-88999223D01*
X159039723Y-88856174D01*
X159152115Y-88687967D01*
X159229533Y-88501065D01*
X159269000Y-88302651D01*
X159269000Y-88100349D01*
X159229533Y-87901935D01*
X159152115Y-87715033D01*
X159039723Y-87546826D01*
X158896674Y-87403777D01*
X158728467Y-87291385D01*
X158541565Y-87213967D01*
X158343151Y-87174500D01*
X158326752Y-87174500D01*
X158414565Y-87157033D01*
X158601467Y-87079615D01*
X158769674Y-86967223D01*
X158912723Y-86824174D01*
X159025115Y-86655967D01*
X159102533Y-86469065D01*
X159142000Y-86270651D01*
X159142000Y-86068349D01*
X159102533Y-85869935D01*
X159025115Y-85683033D01*
X158912723Y-85514826D01*
X158769674Y-85371777D01*
X158601467Y-85259385D01*
X158414565Y-85181967D01*
X158216151Y-85142500D01*
X158013849Y-85142500D01*
X157815435Y-85181967D01*
X157628533Y-85259385D01*
X157460326Y-85371777D01*
X157317277Y-85514826D01*
X157204885Y-85683033D01*
X157127467Y-85869935D01*
X157088000Y-86068349D01*
X151429023Y-86068349D01*
X151545467Y-86020116D01*
X151713674Y-85907724D01*
X151856723Y-85764675D01*
X151969115Y-85596468D01*
X152046533Y-85409566D01*
X152086000Y-85211152D01*
X152086000Y-85008850D01*
X152046533Y-84810436D01*
X151969115Y-84623534D01*
X151856723Y-84455327D01*
X151713674Y-84312278D01*
X151545467Y-84199886D01*
X151358565Y-84122468D01*
X151244852Y-84099849D01*
X152008000Y-84099849D01*
X152008000Y-84302151D01*
X152047467Y-84500565D01*
X152124885Y-84687467D01*
X152237277Y-84855674D01*
X152380326Y-84998723D01*
X152548533Y-85111115D01*
X152735435Y-85188533D01*
X152933849Y-85228000D01*
X153136151Y-85228000D01*
X153334565Y-85188533D01*
X153521467Y-85111115D01*
X153689674Y-84998723D01*
X153832723Y-84855674D01*
X153945115Y-84687467D01*
X154022533Y-84500565D01*
X154062000Y-84302151D01*
X154062000Y-84099849D01*
X154022533Y-83901435D01*
X153945115Y-83714533D01*
X153832723Y-83546326D01*
X153689674Y-83403277D01*
X153521467Y-83290885D01*
X153334565Y-83213467D01*
X153136151Y-83174000D01*
X152933849Y-83174000D01*
X152735435Y-83213467D01*
X152548533Y-83290885D01*
X152380326Y-83403277D01*
X152237277Y-83546326D01*
X152124885Y-83714533D01*
X152047467Y-83901435D01*
X152008000Y-84099849D01*
X151244852Y-84099849D01*
X151160151Y-84083001D01*
X150957849Y-84083001D01*
X150759435Y-84122468D01*
X150572533Y-84199886D01*
X150404326Y-84312278D01*
X150261277Y-84455327D01*
X150148885Y-84623534D01*
X150071467Y-84810436D01*
X150032000Y-85008850D01*
X146730034Y-85008850D01*
X146730034Y-83125001D01*
X168715966Y-83125001D01*
X168715966Y-87125001D01*
X168743079Y-87400280D01*
X168823374Y-87664980D01*
X168953768Y-87908929D01*
X169129248Y-88122752D01*
X169343071Y-88298232D01*
X169587020Y-88428626D01*
X169851720Y-88508921D01*
X170126999Y-88536034D01*
X170127001Y-88536034D01*
X170402280Y-88508921D01*
X170666980Y-88428626D01*
X170910929Y-88298232D01*
X171124752Y-88122752D01*
X171300232Y-87908929D01*
X171430626Y-87664980D01*
X171510921Y-87400280D01*
X171538034Y-87125001D01*
X171538034Y-85115849D01*
X174868000Y-85115849D01*
X174868000Y-85318151D01*
X174907467Y-85516565D01*
X174984885Y-85703467D01*
X175097277Y-85871674D01*
X175240326Y-86014723D01*
X175408533Y-86127115D01*
X175595435Y-86204533D01*
X175793849Y-86244000D01*
X175996151Y-86244000D01*
X176074833Y-86228349D01*
X181664000Y-86228349D01*
X181664000Y-86430651D01*
X181703467Y-86629065D01*
X181780885Y-86815967D01*
X181893277Y-86984174D01*
X182036326Y-87127223D01*
X182204533Y-87239615D01*
X182391435Y-87317033D01*
X182589849Y-87356500D01*
X182606248Y-87356500D01*
X182518435Y-87373967D01*
X182331533Y-87451385D01*
X182163326Y-87563777D01*
X182020277Y-87706826D01*
X181907885Y-87875033D01*
X181830467Y-88061935D01*
X181791000Y-88260349D01*
X181791000Y-88462651D01*
X181830467Y-88661065D01*
X181907885Y-88847967D01*
X182020277Y-89016174D01*
X182163326Y-89159223D01*
X182331533Y-89271615D01*
X182518435Y-89349033D01*
X182716849Y-89388500D01*
X182919151Y-89388500D01*
X183117565Y-89349033D01*
X183304467Y-89271615D01*
X183472674Y-89159223D01*
X183579048Y-89052849D01*
X198998000Y-89052849D01*
X198998000Y-89255151D01*
X199037467Y-89453565D01*
X199114885Y-89640467D01*
X199227277Y-89808674D01*
X199370326Y-89951723D01*
X199538533Y-90064115D01*
X199725435Y-90141533D01*
X199923849Y-90181000D01*
X200126151Y-90181000D01*
X200324565Y-90141533D01*
X200511467Y-90064115D01*
X200679674Y-89951723D01*
X200822723Y-89808674D01*
X200935115Y-89640467D01*
X201012533Y-89453565D01*
X201052000Y-89255151D01*
X201052000Y-89052849D01*
X201012533Y-88854435D01*
X200935115Y-88667533D01*
X200822723Y-88499326D01*
X200679674Y-88356277D01*
X200511467Y-88243885D01*
X200324565Y-88166467D01*
X200126151Y-88127000D01*
X199923849Y-88127000D01*
X199725435Y-88166467D01*
X199538533Y-88243885D01*
X199370326Y-88356277D01*
X199227277Y-88499326D01*
X199114885Y-88667533D01*
X199037467Y-88854435D01*
X198998000Y-89052849D01*
X183579048Y-89052849D01*
X183615723Y-89016174D01*
X183728115Y-88847967D01*
X183805533Y-88661065D01*
X183845000Y-88462651D01*
X183845000Y-88260349D01*
X183805533Y-88061935D01*
X183728115Y-87875033D01*
X183615723Y-87706826D01*
X183472674Y-87563777D01*
X183304467Y-87451385D01*
X183117565Y-87373967D01*
X182919151Y-87334500D01*
X182902752Y-87334500D01*
X182990565Y-87317033D01*
X183177467Y-87239615D01*
X183345674Y-87127223D01*
X183488723Y-86984174D01*
X183601115Y-86815967D01*
X183678533Y-86629065D01*
X183718000Y-86430651D01*
X183718000Y-86228349D01*
X183678533Y-86029935D01*
X183601115Y-85843033D01*
X183488723Y-85674826D01*
X183345674Y-85531777D01*
X183177467Y-85419385D01*
X182990565Y-85341967D01*
X182792151Y-85302500D01*
X182589849Y-85302500D01*
X182391435Y-85341967D01*
X182204533Y-85419385D01*
X182036326Y-85531777D01*
X181893277Y-85674826D01*
X181780885Y-85843033D01*
X181703467Y-86029935D01*
X181664000Y-86228349D01*
X176074833Y-86228349D01*
X176194565Y-86204533D01*
X176381467Y-86127115D01*
X176549674Y-86014723D01*
X176692723Y-85871674D01*
X176805115Y-85703467D01*
X176882533Y-85516565D01*
X176922000Y-85318151D01*
X176922000Y-85115849D01*
X176882533Y-84917435D01*
X176805115Y-84730533D01*
X176692723Y-84562326D01*
X176549674Y-84419277D01*
X176381467Y-84306885D01*
X176194565Y-84229467D01*
X176181404Y-84226849D01*
X176773000Y-84226849D01*
X176773000Y-84429151D01*
X176812467Y-84627565D01*
X176889885Y-84814467D01*
X177002277Y-84982674D01*
X177145326Y-85125723D01*
X177313533Y-85238115D01*
X177500435Y-85315533D01*
X177698849Y-85355000D01*
X177901151Y-85355000D01*
X178099565Y-85315533D01*
X178286467Y-85238115D01*
X178454674Y-85125723D01*
X178597723Y-84982674D01*
X178710115Y-84814467D01*
X178787533Y-84627565D01*
X178827000Y-84429151D01*
X178827000Y-84226849D01*
X178787533Y-84028435D01*
X178710115Y-83841533D01*
X178597723Y-83673326D01*
X178454674Y-83530277D01*
X178286467Y-83417885D01*
X178099565Y-83340467D01*
X177901151Y-83301000D01*
X177698849Y-83301000D01*
X177500435Y-83340467D01*
X177313533Y-83417885D01*
X177145326Y-83530277D01*
X177002277Y-83673326D01*
X176889885Y-83841533D01*
X176812467Y-84028435D01*
X176773000Y-84226849D01*
X176181404Y-84226849D01*
X175996151Y-84190000D01*
X175793849Y-84190000D01*
X175595435Y-84229467D01*
X175408533Y-84306885D01*
X175240326Y-84419277D01*
X175097277Y-84562326D01*
X174984885Y-84730533D01*
X174907467Y-84917435D01*
X174868000Y-85115849D01*
X171538034Y-85115849D01*
X171538034Y-83285001D01*
X193291966Y-83285001D01*
X193291966Y-87285001D01*
X193319079Y-87560280D01*
X193399374Y-87824980D01*
X193529768Y-88068929D01*
X193705248Y-88282752D01*
X193919071Y-88458232D01*
X194163020Y-88588626D01*
X194427720Y-88668921D01*
X194702999Y-88696034D01*
X194703001Y-88696034D01*
X194978280Y-88668921D01*
X195242980Y-88588626D01*
X195486929Y-88458232D01*
X195700752Y-88282752D01*
X195876232Y-88068929D01*
X196006626Y-87824980D01*
X196086921Y-87560280D01*
X196114034Y-87285001D01*
X196114034Y-86482349D01*
X205940000Y-86482349D01*
X205940000Y-86684651D01*
X205979467Y-86883065D01*
X206056885Y-87069967D01*
X206169277Y-87238174D01*
X206312326Y-87381223D01*
X206480533Y-87493615D01*
X206667435Y-87571033D01*
X206865849Y-87610500D01*
X206882248Y-87610500D01*
X206794435Y-87627967D01*
X206607533Y-87705385D01*
X206439326Y-87817777D01*
X206296277Y-87960826D01*
X206183885Y-88129033D01*
X206106467Y-88315935D01*
X206067000Y-88514349D01*
X206067000Y-88716651D01*
X206106467Y-88915065D01*
X206183885Y-89101967D01*
X206296277Y-89270174D01*
X206439326Y-89413223D01*
X206607533Y-89525615D01*
X206794435Y-89603033D01*
X206992849Y-89642500D01*
X207195151Y-89642500D01*
X207393565Y-89603033D01*
X207580467Y-89525615D01*
X207748674Y-89413223D01*
X207891723Y-89270174D01*
X208004115Y-89101967D01*
X208081533Y-88915065D01*
X208121000Y-88716651D01*
X208121000Y-88514349D01*
X208081533Y-88315935D01*
X208004115Y-88129033D01*
X207891723Y-87960826D01*
X207748674Y-87817777D01*
X207580467Y-87705385D01*
X207393565Y-87627967D01*
X207195151Y-87588500D01*
X207178752Y-87588500D01*
X207266565Y-87571033D01*
X207453467Y-87493615D01*
X207621674Y-87381223D01*
X207764723Y-87238174D01*
X207877115Y-87069967D01*
X207954533Y-86883065D01*
X207994000Y-86684651D01*
X207994000Y-86482349D01*
X207954533Y-86283935D01*
X207877115Y-86097033D01*
X207764723Y-85928826D01*
X207621674Y-85785777D01*
X207453467Y-85673385D01*
X207266565Y-85595967D01*
X207068151Y-85556500D01*
X206865849Y-85556500D01*
X206667435Y-85595967D01*
X206480533Y-85673385D01*
X206312326Y-85785777D01*
X206169277Y-85928826D01*
X206056885Y-86097033D01*
X205979467Y-86283935D01*
X205940000Y-86482349D01*
X196114034Y-86482349D01*
X196114034Y-85242849D01*
X199379000Y-85242849D01*
X199379000Y-85445151D01*
X199418467Y-85643565D01*
X199495885Y-85830467D01*
X199608277Y-85998674D01*
X199751326Y-86141723D01*
X199919533Y-86254115D01*
X200106435Y-86331533D01*
X200304849Y-86371000D01*
X200507151Y-86371000D01*
X200705565Y-86331533D01*
X200892467Y-86254115D01*
X201060674Y-86141723D01*
X201203723Y-85998674D01*
X201316115Y-85830467D01*
X201393533Y-85643565D01*
X201433000Y-85445151D01*
X201433000Y-85242849D01*
X201393533Y-85044435D01*
X201316115Y-84857533D01*
X201203723Y-84689326D01*
X201060674Y-84546277D01*
X200892467Y-84433885D01*
X200705565Y-84356467D01*
X200692404Y-84353849D01*
X201411000Y-84353849D01*
X201411000Y-84556151D01*
X201450467Y-84754565D01*
X201527885Y-84941467D01*
X201640277Y-85109674D01*
X201783326Y-85252723D01*
X201951533Y-85365115D01*
X202138435Y-85442533D01*
X202336849Y-85482000D01*
X202539151Y-85482000D01*
X202737565Y-85442533D01*
X202924467Y-85365115D01*
X203092674Y-85252723D01*
X203235723Y-85109674D01*
X203348115Y-84941467D01*
X203425533Y-84754565D01*
X203465000Y-84556151D01*
X203465000Y-84353849D01*
X203425533Y-84155435D01*
X203348115Y-83968533D01*
X203235723Y-83800326D01*
X203092674Y-83657277D01*
X202924467Y-83544885D01*
X202910262Y-83539001D01*
X217567966Y-83539001D01*
X217567966Y-87539001D01*
X217595079Y-87814280D01*
X217675374Y-88078980D01*
X217805768Y-88322929D01*
X217981248Y-88536752D01*
X218195071Y-88712232D01*
X218439020Y-88842626D01*
X218703720Y-88922921D01*
X218978999Y-88950034D01*
X218979001Y-88950034D01*
X219254280Y-88922921D01*
X219518980Y-88842626D01*
X219762929Y-88712232D01*
X219976752Y-88536752D01*
X220152232Y-88322929D01*
X220282626Y-88078980D01*
X220362921Y-87814280D01*
X220390034Y-87539001D01*
X220390034Y-85563850D01*
X223692000Y-85563850D01*
X223692000Y-85766152D01*
X223731467Y-85964566D01*
X223808885Y-86151468D01*
X223921277Y-86319675D01*
X224064326Y-86462724D01*
X224232533Y-86575116D01*
X224419435Y-86652534D01*
X224617849Y-86692001D01*
X224820151Y-86692001D01*
X225018565Y-86652534D01*
X225205467Y-86575116D01*
X225373674Y-86462724D01*
X225516723Y-86319675D01*
X225629115Y-86151468D01*
X225706533Y-85964566D01*
X225746000Y-85766152D01*
X225746000Y-85563850D01*
X225706533Y-85365436D01*
X225629115Y-85178534D01*
X225516723Y-85010327D01*
X225373674Y-84867278D01*
X225205467Y-84754886D01*
X225018565Y-84677468D01*
X224820151Y-84638001D01*
X224617849Y-84638001D01*
X224419435Y-84677468D01*
X224232533Y-84754886D01*
X224064326Y-84867278D01*
X223921277Y-85010327D01*
X223808885Y-85178534D01*
X223731467Y-85365436D01*
X223692000Y-85563850D01*
X220390034Y-85563850D01*
X220390034Y-84613850D01*
X225692000Y-84613850D01*
X225692000Y-84816152D01*
X225731467Y-85014566D01*
X225808885Y-85201468D01*
X225921277Y-85369675D01*
X226064326Y-85512724D01*
X226232533Y-85625116D01*
X226419435Y-85702534D01*
X226617849Y-85742001D01*
X226820151Y-85742001D01*
X227018565Y-85702534D01*
X227205467Y-85625116D01*
X227373674Y-85512724D01*
X227516723Y-85369675D01*
X227629115Y-85201468D01*
X227706533Y-85014566D01*
X227746000Y-84816152D01*
X227746000Y-84613850D01*
X227706533Y-84415436D01*
X227629115Y-84228534D01*
X227516723Y-84060327D01*
X227373674Y-83917278D01*
X227205467Y-83804886D01*
X227018565Y-83727468D01*
X226820151Y-83688001D01*
X226617849Y-83688001D01*
X226419435Y-83727468D01*
X226232533Y-83804886D01*
X226064326Y-83917278D01*
X225921277Y-84060327D01*
X225808885Y-84228534D01*
X225731467Y-84415436D01*
X225692000Y-84613850D01*
X220390034Y-84613850D01*
X220390034Y-83539001D01*
X220362921Y-83263722D01*
X220282626Y-82999022D01*
X220152232Y-82755073D01*
X219976752Y-82541250D01*
X219762929Y-82365770D01*
X219518980Y-82235376D01*
X219254280Y-82155081D01*
X218979001Y-82127968D01*
X218978999Y-82127968D01*
X218703720Y-82155081D01*
X218439020Y-82235376D01*
X218195071Y-82365770D01*
X217981248Y-82541250D01*
X217805768Y-82755073D01*
X217675374Y-82999022D01*
X217595079Y-83263722D01*
X217567966Y-83539001D01*
X202910262Y-83539001D01*
X202737565Y-83467467D01*
X202539151Y-83428000D01*
X202336849Y-83428000D01*
X202138435Y-83467467D01*
X201951533Y-83544885D01*
X201783326Y-83657277D01*
X201640277Y-83800326D01*
X201527885Y-83968533D01*
X201450467Y-84155435D01*
X201411000Y-84353849D01*
X200692404Y-84353849D01*
X200507151Y-84317000D01*
X200304849Y-84317000D01*
X200106435Y-84356467D01*
X199919533Y-84433885D01*
X199751326Y-84546277D01*
X199608277Y-84689326D01*
X199495885Y-84857533D01*
X199418467Y-85044435D01*
X199379000Y-85242849D01*
X196114034Y-85242849D01*
X196114034Y-83285001D01*
X196086921Y-83009722D01*
X196006626Y-82745022D01*
X195876232Y-82501073D01*
X195700752Y-82287250D01*
X195666146Y-82258849D01*
X206100000Y-82258849D01*
X206100000Y-82461151D01*
X206139467Y-82659565D01*
X206216885Y-82846467D01*
X206329277Y-83014674D01*
X206472326Y-83157723D01*
X206640533Y-83270115D01*
X206827435Y-83347533D01*
X207025849Y-83387000D01*
X207228151Y-83387000D01*
X207426565Y-83347533D01*
X207613467Y-83270115D01*
X207781674Y-83157723D01*
X207924723Y-83014674D01*
X208037115Y-82846467D01*
X208114533Y-82659565D01*
X208154000Y-82461151D01*
X208154000Y-82258849D01*
X208114533Y-82060435D01*
X208037115Y-81873533D01*
X207924723Y-81705326D01*
X207781674Y-81562277D01*
X207613467Y-81449885D01*
X207426565Y-81372467D01*
X207228151Y-81333000D01*
X207025849Y-81333000D01*
X206827435Y-81372467D01*
X206640533Y-81449885D01*
X206472326Y-81562277D01*
X206329277Y-81705326D01*
X206216885Y-81873533D01*
X206139467Y-82060435D01*
X206100000Y-82258849D01*
X195666146Y-82258849D01*
X195486929Y-82111770D01*
X195242980Y-81981376D01*
X194978280Y-81901081D01*
X194703001Y-81873968D01*
X194702999Y-81873968D01*
X194427720Y-81901081D01*
X194163020Y-81981376D01*
X193919071Y-82111770D01*
X193705248Y-82287250D01*
X193529768Y-82501073D01*
X193399374Y-82745022D01*
X193319079Y-83009722D01*
X193291966Y-83285001D01*
X171538034Y-83285001D01*
X171538034Y-83125001D01*
X171510921Y-82849722D01*
X171430626Y-82585022D01*
X171300232Y-82341073D01*
X171124752Y-82127250D01*
X170975606Y-82004849D01*
X181824000Y-82004849D01*
X181824000Y-82207151D01*
X181863467Y-82405565D01*
X181940885Y-82592467D01*
X182053277Y-82760674D01*
X182196326Y-82903723D01*
X182364533Y-83016115D01*
X182551435Y-83093533D01*
X182749849Y-83133000D01*
X182952151Y-83133000D01*
X183150565Y-83093533D01*
X183337467Y-83016115D01*
X183505674Y-82903723D01*
X183648723Y-82760674D01*
X183761115Y-82592467D01*
X183838533Y-82405565D01*
X183878000Y-82207151D01*
X183878000Y-82004849D01*
X183838533Y-81806435D01*
X183761115Y-81619533D01*
X183648723Y-81451326D01*
X183505674Y-81308277D01*
X183337467Y-81195885D01*
X183150565Y-81118467D01*
X182952151Y-81079000D01*
X182749849Y-81079000D01*
X182551435Y-81118467D01*
X182364533Y-81195885D01*
X182196326Y-81308277D01*
X182053277Y-81451326D01*
X181940885Y-81619533D01*
X181863467Y-81806435D01*
X181824000Y-82004849D01*
X170975606Y-82004849D01*
X170910929Y-81951770D01*
X170666980Y-81821376D01*
X170402280Y-81741081D01*
X170127001Y-81713968D01*
X170126999Y-81713968D01*
X169851720Y-81741081D01*
X169587020Y-81821376D01*
X169343071Y-81951770D01*
X169129248Y-82127250D01*
X168953768Y-82341073D01*
X168823374Y-82585022D01*
X168743079Y-82849722D01*
X168715966Y-83125001D01*
X146730034Y-83125001D01*
X146730034Y-82984001D01*
X146702921Y-82708722D01*
X146622626Y-82444022D01*
X146492232Y-82200073D01*
X146316752Y-81986250D01*
X146144455Y-81844849D01*
X157248000Y-81844849D01*
X157248000Y-82047151D01*
X157287467Y-82245565D01*
X157364885Y-82432467D01*
X157477277Y-82600674D01*
X157620326Y-82743723D01*
X157788533Y-82856115D01*
X157975435Y-82933533D01*
X158173849Y-82973000D01*
X158376151Y-82973000D01*
X158574565Y-82933533D01*
X158761467Y-82856115D01*
X158929674Y-82743723D01*
X159072723Y-82600674D01*
X159185115Y-82432467D01*
X159262533Y-82245565D01*
X159302000Y-82047151D01*
X159302000Y-81844849D01*
X159262533Y-81646435D01*
X159185115Y-81459533D01*
X159072723Y-81291326D01*
X158929674Y-81148277D01*
X158761467Y-81035885D01*
X158574565Y-80958467D01*
X158376151Y-80919000D01*
X158173849Y-80919000D01*
X157975435Y-80958467D01*
X157788533Y-81035885D01*
X157620326Y-81148277D01*
X157477277Y-81291326D01*
X157364885Y-81459533D01*
X157287467Y-81646435D01*
X157248000Y-81844849D01*
X146144455Y-81844849D01*
X146102929Y-81810770D01*
X145858980Y-81680376D01*
X145594280Y-81600081D01*
X145319001Y-81572968D01*
X145318999Y-81572968D01*
X145043720Y-81600081D01*
X144779020Y-81680376D01*
X144535071Y-81810770D01*
X144321248Y-81986250D01*
X144145768Y-82200073D01*
X144015374Y-82444022D01*
X143935079Y-82708722D01*
X143907966Y-82984001D01*
X122102034Y-82984001D01*
X122102034Y-82967001D01*
X122074921Y-82691722D01*
X121994626Y-82427022D01*
X121864232Y-82183073D01*
X121688752Y-81969250D01*
X121474929Y-81793770D01*
X121306700Y-81703849D01*
X132440000Y-81703849D01*
X132440000Y-81906151D01*
X132479467Y-82104565D01*
X132556885Y-82291467D01*
X132669277Y-82459674D01*
X132812326Y-82602723D01*
X132980533Y-82715115D01*
X133167435Y-82792533D01*
X133365849Y-82832000D01*
X133568151Y-82832000D01*
X133766565Y-82792533D01*
X133953467Y-82715115D01*
X134121674Y-82602723D01*
X134264723Y-82459674D01*
X134377115Y-82291467D01*
X134454533Y-82104565D01*
X134494000Y-81906151D01*
X134494000Y-81703849D01*
X134454533Y-81505435D01*
X134377115Y-81318533D01*
X134264723Y-81150326D01*
X134121674Y-81007277D01*
X133953467Y-80894885D01*
X133766565Y-80817467D01*
X133568151Y-80778000D01*
X133365849Y-80778000D01*
X133167435Y-80817467D01*
X132980533Y-80894885D01*
X132812326Y-81007277D01*
X132669277Y-81150326D01*
X132556885Y-81318533D01*
X132479467Y-81505435D01*
X132440000Y-81703849D01*
X121306700Y-81703849D01*
X121230980Y-81663376D01*
X120966280Y-81583081D01*
X120691001Y-81555968D01*
X120690999Y-81555968D01*
X120415720Y-81583081D01*
X120151020Y-81663376D01*
X119907071Y-81793770D01*
X119693248Y-81969250D01*
X119517768Y-82183073D01*
X119387374Y-82427022D01*
X119307079Y-82691722D01*
X119279966Y-82967001D01*
X106934000Y-82967001D01*
X106934000Y-81686849D01*
X107812000Y-81686849D01*
X107812000Y-81889151D01*
X107851467Y-82087565D01*
X107928885Y-82274467D01*
X108041277Y-82442674D01*
X108184326Y-82585723D01*
X108352533Y-82698115D01*
X108539435Y-82775533D01*
X108737849Y-82815000D01*
X108940151Y-82815000D01*
X109138565Y-82775533D01*
X109325467Y-82698115D01*
X109493674Y-82585723D01*
X109636723Y-82442674D01*
X109749115Y-82274467D01*
X109826533Y-82087565D01*
X109866000Y-81889151D01*
X109866000Y-81686849D01*
X109826533Y-81488435D01*
X109749115Y-81301533D01*
X109636723Y-81133326D01*
X109493674Y-80990277D01*
X109325467Y-80877885D01*
X109138565Y-80800467D01*
X108940151Y-80761000D01*
X108737849Y-80761000D01*
X108539435Y-80800467D01*
X108352533Y-80877885D01*
X108184326Y-80990277D01*
X108041277Y-81133326D01*
X107928885Y-81301533D01*
X107851467Y-81488435D01*
X107812000Y-81686849D01*
X106934000Y-81686849D01*
X106934000Y-79654849D01*
X112638000Y-79654849D01*
X112638000Y-79857151D01*
X112677467Y-80055565D01*
X112754885Y-80242467D01*
X112867277Y-80410674D01*
X113010326Y-80553723D01*
X113178533Y-80666115D01*
X113365435Y-80743533D01*
X113563849Y-80783000D01*
X113766151Y-80783000D01*
X113964565Y-80743533D01*
X114151467Y-80666115D01*
X114319674Y-80553723D01*
X114462723Y-80410674D01*
X114575115Y-80242467D01*
X114652533Y-80055565D01*
X114692000Y-79857151D01*
X114692000Y-79654849D01*
X114660572Y-79496849D01*
X124924000Y-79496849D01*
X124924000Y-79699151D01*
X124963467Y-79897565D01*
X125040885Y-80084467D01*
X125153277Y-80252674D01*
X125296326Y-80395723D01*
X125464533Y-80508115D01*
X125651435Y-80585533D01*
X125849849Y-80625000D01*
X126052151Y-80625000D01*
X126250565Y-80585533D01*
X126437467Y-80508115D01*
X126605674Y-80395723D01*
X126748723Y-80252674D01*
X126861115Y-80084467D01*
X126938533Y-79897565D01*
X126978000Y-79699151D01*
X126978000Y-79671849D01*
X137266000Y-79671849D01*
X137266000Y-79874151D01*
X137305467Y-80072565D01*
X137382885Y-80259467D01*
X137495277Y-80427674D01*
X137638326Y-80570723D01*
X137806533Y-80683115D01*
X137993435Y-80760533D01*
X138191849Y-80800000D01*
X138394151Y-80800000D01*
X138592565Y-80760533D01*
X138779467Y-80683115D01*
X138947674Y-80570723D01*
X139090723Y-80427674D01*
X139203115Y-80259467D01*
X139280533Y-80072565D01*
X139320000Y-79874151D01*
X139320000Y-79671849D01*
X139288572Y-79513849D01*
X149552000Y-79513849D01*
X149552000Y-79716151D01*
X149591467Y-79914565D01*
X149668885Y-80101467D01*
X149781277Y-80269674D01*
X149924326Y-80412723D01*
X150092533Y-80525115D01*
X150279435Y-80602533D01*
X150477849Y-80642000D01*
X150680151Y-80642000D01*
X150878565Y-80602533D01*
X151065467Y-80525115D01*
X151233674Y-80412723D01*
X151376723Y-80269674D01*
X151489115Y-80101467D01*
X151566533Y-79914565D01*
X151586765Y-79812849D01*
X162074000Y-79812849D01*
X162074000Y-80015151D01*
X162113467Y-80213565D01*
X162190885Y-80400467D01*
X162303277Y-80568674D01*
X162446326Y-80711723D01*
X162614533Y-80824115D01*
X162801435Y-80901533D01*
X162999849Y-80941000D01*
X163202151Y-80941000D01*
X163400565Y-80901533D01*
X163587467Y-80824115D01*
X163755674Y-80711723D01*
X163898723Y-80568674D01*
X164011115Y-80400467D01*
X164088533Y-80213565D01*
X164128000Y-80015151D01*
X164128000Y-79812849D01*
X164096572Y-79654849D01*
X174360000Y-79654849D01*
X174360000Y-79857151D01*
X174399467Y-80055565D01*
X174476885Y-80242467D01*
X174589277Y-80410674D01*
X174732326Y-80553723D01*
X174900533Y-80666115D01*
X175087435Y-80743533D01*
X175285849Y-80783000D01*
X175488151Y-80783000D01*
X175686565Y-80743533D01*
X175873467Y-80666115D01*
X176041674Y-80553723D01*
X176184723Y-80410674D01*
X176297115Y-80242467D01*
X176374533Y-80055565D01*
X176390986Y-79972849D01*
X186650000Y-79972849D01*
X186650000Y-80175151D01*
X186689467Y-80373565D01*
X186766885Y-80560467D01*
X186879277Y-80728674D01*
X187022326Y-80871723D01*
X187190533Y-80984115D01*
X187377435Y-81061533D01*
X187575849Y-81101000D01*
X187778151Y-81101000D01*
X187976565Y-81061533D01*
X188163467Y-80984115D01*
X188331674Y-80871723D01*
X188474723Y-80728674D01*
X188587115Y-80560467D01*
X188664533Y-80373565D01*
X188704000Y-80175151D01*
X188704000Y-79972849D01*
X188664533Y-79774435D01*
X188587115Y-79587533D01*
X188474723Y-79419326D01*
X188360236Y-79304839D01*
X197220000Y-79304839D01*
X197220000Y-79507141D01*
X197259467Y-79705555D01*
X197336885Y-79892457D01*
X197449277Y-80060664D01*
X197592326Y-80203713D01*
X197760533Y-80316105D01*
X197947435Y-80393523D01*
X198145849Y-80432990D01*
X198348151Y-80432990D01*
X198546565Y-80393523D01*
X198733467Y-80316105D01*
X198901674Y-80203713D01*
X198961258Y-80144129D01*
X198975467Y-80215565D01*
X199052885Y-80402467D01*
X199165277Y-80570674D01*
X199308326Y-80713723D01*
X199476533Y-80826115D01*
X199663435Y-80903533D01*
X199861849Y-80943000D01*
X200064151Y-80943000D01*
X200262565Y-80903533D01*
X200449467Y-80826115D01*
X200617674Y-80713723D01*
X200760723Y-80570674D01*
X200873115Y-80402467D01*
X200945858Y-80226849D01*
X210926000Y-80226849D01*
X210926000Y-80429151D01*
X210965467Y-80627565D01*
X211042885Y-80814467D01*
X211155277Y-80982674D01*
X211298326Y-81125723D01*
X211466533Y-81238115D01*
X211653435Y-81315533D01*
X211851849Y-81355000D01*
X212054151Y-81355000D01*
X212252565Y-81315533D01*
X212439467Y-81238115D01*
X212607674Y-81125723D01*
X212750723Y-80982674D01*
X212863115Y-80814467D01*
X212940533Y-80627565D01*
X212980000Y-80429151D01*
X212980000Y-80226849D01*
X212948572Y-80068849D01*
X223212000Y-80068849D01*
X223212000Y-80271151D01*
X223251467Y-80469565D01*
X223328885Y-80656467D01*
X223441277Y-80824674D01*
X223584326Y-80967723D01*
X223752533Y-81080115D01*
X223939435Y-81157533D01*
X224137849Y-81197000D01*
X224340151Y-81197000D01*
X224538565Y-81157533D01*
X224725467Y-81080115D01*
X224893674Y-80967723D01*
X225036723Y-80824674D01*
X225149115Y-80656467D01*
X225226533Y-80469565D01*
X225266000Y-80271151D01*
X225266000Y-80068849D01*
X225226533Y-79870435D01*
X225149115Y-79683533D01*
X225036723Y-79515326D01*
X224893674Y-79372277D01*
X224725467Y-79259885D01*
X224538565Y-79182467D01*
X224340151Y-79143000D01*
X224137849Y-79143000D01*
X223939435Y-79182467D01*
X223752533Y-79259885D01*
X223584326Y-79372277D01*
X223441277Y-79515326D01*
X223328885Y-79683533D01*
X223251467Y-79870435D01*
X223212000Y-80068849D01*
X212948572Y-80068849D01*
X212940533Y-80028435D01*
X212863115Y-79841533D01*
X212750723Y-79673326D01*
X212607674Y-79530277D01*
X212439467Y-79417885D01*
X212252565Y-79340467D01*
X212054151Y-79301000D01*
X211851849Y-79301000D01*
X211653435Y-79340467D01*
X211466533Y-79417885D01*
X211298326Y-79530277D01*
X211155277Y-79673326D01*
X211042885Y-79841533D01*
X210965467Y-80028435D01*
X210926000Y-80226849D01*
X200945858Y-80226849D01*
X200950533Y-80215565D01*
X200990000Y-80017151D01*
X200990000Y-79814849D01*
X200950533Y-79616435D01*
X200873115Y-79429533D01*
X200760723Y-79261326D01*
X200617674Y-79118277D01*
X200449467Y-79005885D01*
X200262565Y-78928467D01*
X200064151Y-78889000D01*
X199861849Y-78889000D01*
X199663435Y-78928467D01*
X199476533Y-79005885D01*
X199308326Y-79118277D01*
X199248742Y-79177861D01*
X199234533Y-79106425D01*
X199157115Y-78919523D01*
X199044723Y-78751316D01*
X198901674Y-78608267D01*
X198733467Y-78495875D01*
X198546565Y-78418457D01*
X198348151Y-78378990D01*
X198145849Y-78378990D01*
X197947435Y-78418457D01*
X197760533Y-78495875D01*
X197592326Y-78608267D01*
X197449277Y-78751316D01*
X197336885Y-78919523D01*
X197259467Y-79106425D01*
X197220000Y-79304839D01*
X188360236Y-79304839D01*
X188331674Y-79276277D01*
X188163467Y-79163885D01*
X187976565Y-79086467D01*
X187778151Y-79047000D01*
X187575849Y-79047000D01*
X187377435Y-79086467D01*
X187190533Y-79163885D01*
X187022326Y-79276277D01*
X186879277Y-79419326D01*
X186766885Y-79587533D01*
X186689467Y-79774435D01*
X186650000Y-79972849D01*
X176390986Y-79972849D01*
X176414000Y-79857151D01*
X176414000Y-79654849D01*
X176374533Y-79456435D01*
X176297115Y-79269533D01*
X176184723Y-79101326D01*
X176041674Y-78958277D01*
X175873467Y-78845885D01*
X175686565Y-78768467D01*
X175488151Y-78729000D01*
X175285849Y-78729000D01*
X175087435Y-78768467D01*
X174900533Y-78845885D01*
X174732326Y-78958277D01*
X174589277Y-79101326D01*
X174476885Y-79269533D01*
X174399467Y-79456435D01*
X174360000Y-79654849D01*
X164096572Y-79654849D01*
X164088533Y-79614435D01*
X164011115Y-79427533D01*
X163898723Y-79259326D01*
X163755674Y-79116277D01*
X163587467Y-79003885D01*
X163400565Y-78926467D01*
X163202151Y-78887000D01*
X162999849Y-78887000D01*
X162801435Y-78926467D01*
X162614533Y-79003885D01*
X162446326Y-79116277D01*
X162303277Y-79259326D01*
X162190885Y-79427533D01*
X162113467Y-79614435D01*
X162074000Y-79812849D01*
X151586765Y-79812849D01*
X151606000Y-79716151D01*
X151606000Y-79513849D01*
X151566533Y-79315435D01*
X151489115Y-79128533D01*
X151376723Y-78960326D01*
X151233674Y-78817277D01*
X151065467Y-78704885D01*
X150878565Y-78627467D01*
X150680151Y-78588000D01*
X150477849Y-78588000D01*
X150279435Y-78627467D01*
X150092533Y-78704885D01*
X149924326Y-78817277D01*
X149781277Y-78960326D01*
X149668885Y-79128533D01*
X149591467Y-79315435D01*
X149552000Y-79513849D01*
X139288572Y-79513849D01*
X139280533Y-79473435D01*
X139203115Y-79286533D01*
X139090723Y-79118326D01*
X138947674Y-78975277D01*
X138779467Y-78862885D01*
X138592565Y-78785467D01*
X138394151Y-78746000D01*
X138191849Y-78746000D01*
X137993435Y-78785467D01*
X137806533Y-78862885D01*
X137638326Y-78975277D01*
X137495277Y-79118326D01*
X137382885Y-79286533D01*
X137305467Y-79473435D01*
X137266000Y-79671849D01*
X126978000Y-79671849D01*
X126978000Y-79496849D01*
X126938533Y-79298435D01*
X126861115Y-79111533D01*
X126748723Y-78943326D01*
X126605674Y-78800277D01*
X126437467Y-78687885D01*
X126250565Y-78610467D01*
X126052151Y-78571000D01*
X125849849Y-78571000D01*
X125651435Y-78610467D01*
X125464533Y-78687885D01*
X125296326Y-78800277D01*
X125153277Y-78943326D01*
X125040885Y-79111533D01*
X124963467Y-79298435D01*
X124924000Y-79496849D01*
X114660572Y-79496849D01*
X114652533Y-79456435D01*
X114575115Y-79269533D01*
X114462723Y-79101326D01*
X114319674Y-78958277D01*
X114151467Y-78845885D01*
X113964565Y-78768467D01*
X113766151Y-78729000D01*
X113563849Y-78729000D01*
X113365435Y-78768467D01*
X113178533Y-78845885D01*
X113010326Y-78958277D01*
X112867277Y-79101326D01*
X112754885Y-79269533D01*
X112677467Y-79456435D01*
X112638000Y-79654849D01*
X106934000Y-79654849D01*
X106934000Y-77368849D01*
X110352000Y-77368849D01*
X110352000Y-77571151D01*
X110391467Y-77769565D01*
X110468885Y-77956467D01*
X110581277Y-78124674D01*
X110724326Y-78267723D01*
X110892533Y-78380115D01*
X111079435Y-78457533D01*
X111277849Y-78497000D01*
X111480151Y-78497000D01*
X111678565Y-78457533D01*
X111865467Y-78380115D01*
X112033674Y-78267723D01*
X112176723Y-78124674D01*
X112289115Y-77956467D01*
X112366533Y-77769565D01*
X112406000Y-77571151D01*
X112406000Y-77368849D01*
X112366533Y-77170435D01*
X112289115Y-76983533D01*
X112176723Y-76815326D01*
X112033674Y-76672277D01*
X111865467Y-76559885D01*
X111678565Y-76482467D01*
X111480151Y-76443000D01*
X111277849Y-76443000D01*
X111079435Y-76482467D01*
X110892533Y-76559885D01*
X110724326Y-76672277D01*
X110581277Y-76815326D01*
X110468885Y-76983533D01*
X110391467Y-77170435D01*
X110352000Y-77368849D01*
X106934000Y-77368849D01*
X106934000Y-75745362D01*
X117933000Y-75745362D01*
X117933000Y-76288640D01*
X118038988Y-76821480D01*
X118246892Y-77323404D01*
X118548721Y-77775124D01*
X118932877Y-78159280D01*
X119384597Y-78461109D01*
X119886521Y-78669013D01*
X120419361Y-78775001D01*
X120962639Y-78775001D01*
X121495479Y-78669013D01*
X121997403Y-78461109D01*
X122449123Y-78159280D01*
X122833279Y-77775124D01*
X123093383Y-77385849D01*
X134980000Y-77385849D01*
X134980000Y-77588151D01*
X135019467Y-77786565D01*
X135096885Y-77973467D01*
X135209277Y-78141674D01*
X135352326Y-78284723D01*
X135520533Y-78397115D01*
X135707435Y-78474533D01*
X135905849Y-78514000D01*
X136108151Y-78514000D01*
X136306565Y-78474533D01*
X136493467Y-78397115D01*
X136661674Y-78284723D01*
X136804723Y-78141674D01*
X136917115Y-77973467D01*
X136994533Y-77786565D01*
X137034000Y-77588151D01*
X137034000Y-77385849D01*
X136994533Y-77187435D01*
X136917115Y-77000533D01*
X136804723Y-76832326D01*
X136661674Y-76689277D01*
X136493467Y-76576885D01*
X136306565Y-76499467D01*
X136108151Y-76460000D01*
X135905849Y-76460000D01*
X135707435Y-76499467D01*
X135520533Y-76576885D01*
X135352326Y-76689277D01*
X135209277Y-76832326D01*
X135096885Y-77000533D01*
X135019467Y-77187435D01*
X134980000Y-77385849D01*
X123093383Y-77385849D01*
X123135108Y-77323404D01*
X123343012Y-76821480D01*
X123449000Y-76288640D01*
X123449000Y-75762362D01*
X142561000Y-75762362D01*
X142561000Y-76305640D01*
X142666988Y-76838480D01*
X142874892Y-77340404D01*
X143176721Y-77792124D01*
X143560877Y-78176280D01*
X144012597Y-78478109D01*
X144514521Y-78686013D01*
X145047361Y-78792001D01*
X145590639Y-78792001D01*
X146123479Y-78686013D01*
X146625403Y-78478109D01*
X147077123Y-78176280D01*
X147461279Y-77792124D01*
X147638529Y-77526849D01*
X159788000Y-77526849D01*
X159788000Y-77729151D01*
X159827467Y-77927565D01*
X159904885Y-78114467D01*
X160017277Y-78282674D01*
X160160326Y-78425723D01*
X160328533Y-78538115D01*
X160515435Y-78615533D01*
X160713849Y-78655000D01*
X160916151Y-78655000D01*
X161114565Y-78615533D01*
X161301467Y-78538115D01*
X161469674Y-78425723D01*
X161612723Y-78282674D01*
X161725115Y-78114467D01*
X161802533Y-77927565D01*
X161842000Y-77729151D01*
X161842000Y-77526849D01*
X161802533Y-77328435D01*
X161725115Y-77141533D01*
X161612723Y-76973326D01*
X161469674Y-76830277D01*
X161301467Y-76717885D01*
X161114565Y-76640467D01*
X160916151Y-76601000D01*
X160713849Y-76601000D01*
X160515435Y-76640467D01*
X160328533Y-76717885D01*
X160160326Y-76830277D01*
X160017277Y-76973326D01*
X159904885Y-77141533D01*
X159827467Y-77328435D01*
X159788000Y-77526849D01*
X147638529Y-77526849D01*
X147763108Y-77340404D01*
X147971012Y-76838480D01*
X148077000Y-76305640D01*
X148077000Y-75903362D01*
X167369000Y-75903362D01*
X167369000Y-76446640D01*
X167474988Y-76979480D01*
X167682892Y-77481404D01*
X167984721Y-77933124D01*
X168368877Y-78317280D01*
X168820597Y-78619109D01*
X169322521Y-78827013D01*
X169855361Y-78933001D01*
X170398639Y-78933001D01*
X170931479Y-78827013D01*
X171433403Y-78619109D01*
X171885123Y-78317280D01*
X172269279Y-77933124D01*
X172433834Y-77686849D01*
X184364000Y-77686849D01*
X184364000Y-77889151D01*
X184403467Y-78087565D01*
X184480885Y-78274467D01*
X184593277Y-78442674D01*
X184736326Y-78585723D01*
X184904533Y-78698115D01*
X185091435Y-78775533D01*
X185289849Y-78815000D01*
X185492151Y-78815000D01*
X185690565Y-78775533D01*
X185877467Y-78698115D01*
X186045674Y-78585723D01*
X186188723Y-78442674D01*
X186301115Y-78274467D01*
X186378533Y-78087565D01*
X186418000Y-77889151D01*
X186418000Y-77686849D01*
X186378533Y-77488435D01*
X186301115Y-77301533D01*
X186188723Y-77133326D01*
X186045674Y-76990277D01*
X185877467Y-76877885D01*
X185690565Y-76800467D01*
X185492151Y-76761000D01*
X185289849Y-76761000D01*
X185091435Y-76800467D01*
X184904533Y-76877885D01*
X184736326Y-76990277D01*
X184593277Y-77133326D01*
X184480885Y-77301533D01*
X184403467Y-77488435D01*
X184364000Y-77686849D01*
X172433834Y-77686849D01*
X172571108Y-77481404D01*
X172779012Y-76979480D01*
X172885000Y-76446640D01*
X172885000Y-76063362D01*
X191945000Y-76063362D01*
X191945000Y-76606640D01*
X192050988Y-77139480D01*
X192258892Y-77641404D01*
X192560721Y-78093124D01*
X192944877Y-78477280D01*
X193396597Y-78779109D01*
X193898521Y-78987013D01*
X194431361Y-79093001D01*
X194974639Y-79093001D01*
X195507479Y-78987013D01*
X196009403Y-78779109D01*
X196461123Y-78477280D01*
X196845279Y-78093124D01*
X197147108Y-77641404D01*
X197355012Y-77139480D01*
X197363816Y-77095219D01*
X197982000Y-77095219D01*
X197982000Y-77297521D01*
X198021467Y-77495935D01*
X198098885Y-77682837D01*
X198211277Y-77851044D01*
X198354326Y-77994093D01*
X198522533Y-78106485D01*
X198709435Y-78183903D01*
X198907849Y-78223370D01*
X199110151Y-78223370D01*
X199308565Y-78183903D01*
X199495467Y-78106485D01*
X199663674Y-77994093D01*
X199716918Y-77940849D01*
X208640000Y-77940849D01*
X208640000Y-78143151D01*
X208679467Y-78341565D01*
X208756885Y-78528467D01*
X208869277Y-78696674D01*
X209012326Y-78839723D01*
X209180533Y-78952115D01*
X209367435Y-79029533D01*
X209565849Y-79069000D01*
X209768151Y-79069000D01*
X209966565Y-79029533D01*
X210153467Y-78952115D01*
X210321674Y-78839723D01*
X210464723Y-78696674D01*
X210577115Y-78528467D01*
X210654533Y-78341565D01*
X210694000Y-78143151D01*
X210694000Y-77940849D01*
X210654533Y-77742435D01*
X210577115Y-77555533D01*
X210464723Y-77387326D01*
X210321674Y-77244277D01*
X210153467Y-77131885D01*
X209966565Y-77054467D01*
X209768151Y-77015000D01*
X209565849Y-77015000D01*
X209367435Y-77054467D01*
X209180533Y-77131885D01*
X209012326Y-77244277D01*
X208869277Y-77387326D01*
X208756885Y-77555533D01*
X208679467Y-77742435D01*
X208640000Y-77940849D01*
X199716918Y-77940849D01*
X199806723Y-77851044D01*
X199919115Y-77682837D01*
X199996533Y-77495935D01*
X200036000Y-77297521D01*
X200036000Y-77095219D01*
X199996533Y-76896805D01*
X199919115Y-76709903D01*
X199806723Y-76541696D01*
X199663674Y-76398647D01*
X199542023Y-76317362D01*
X216221000Y-76317362D01*
X216221000Y-76860640D01*
X216326988Y-77393480D01*
X216534892Y-77895404D01*
X216836721Y-78347124D01*
X217220877Y-78731280D01*
X217672597Y-79033109D01*
X218174521Y-79241013D01*
X218707361Y-79347001D01*
X219250639Y-79347001D01*
X219783479Y-79241013D01*
X220285403Y-79033109D01*
X220737123Y-78731280D01*
X221121279Y-78347124D01*
X221423108Y-77895404D01*
X221631012Y-77393480D01*
X221737000Y-76860640D01*
X221737000Y-76317362D01*
X221631012Y-75784522D01*
X221423108Y-75282598D01*
X221121279Y-74830878D01*
X220737123Y-74446722D01*
X220285403Y-74144893D01*
X219783479Y-73936989D01*
X219250639Y-73831001D01*
X218707361Y-73831001D01*
X218174521Y-73936989D01*
X217672597Y-74144893D01*
X217220877Y-74446722D01*
X216836721Y-74830878D01*
X216534892Y-75282598D01*
X216326988Y-75784522D01*
X216221000Y-76317362D01*
X199542023Y-76317362D01*
X199495467Y-76286255D01*
X199308565Y-76208837D01*
X199110151Y-76169370D01*
X198907849Y-76169370D01*
X198709435Y-76208837D01*
X198522533Y-76286255D01*
X198354326Y-76398647D01*
X198211277Y-76541696D01*
X198098885Y-76709903D01*
X198021467Y-76896805D01*
X197982000Y-77095219D01*
X197363816Y-77095219D01*
X197461000Y-76606640D01*
X197461000Y-76063362D01*
X197355012Y-75530522D01*
X197147108Y-75028598D01*
X196845279Y-74576878D01*
X196461123Y-74192722D01*
X196009403Y-73890893D01*
X195507479Y-73682989D01*
X194974639Y-73577001D01*
X194431361Y-73577001D01*
X193898521Y-73682989D01*
X193396597Y-73890893D01*
X192944877Y-74192722D01*
X192560721Y-74576878D01*
X192258892Y-75028598D01*
X192050988Y-75530522D01*
X191945000Y-76063362D01*
X172885000Y-76063362D01*
X172885000Y-75903362D01*
X172779012Y-75370522D01*
X172571108Y-74868598D01*
X172269279Y-74416878D01*
X171885123Y-74032722D01*
X171433403Y-73730893D01*
X170931479Y-73522989D01*
X170398639Y-73417001D01*
X169855361Y-73417001D01*
X169322521Y-73522989D01*
X168820597Y-73730893D01*
X168368877Y-74032722D01*
X167984721Y-74416878D01*
X167682892Y-74868598D01*
X167474988Y-75370522D01*
X167369000Y-75903362D01*
X148077000Y-75903362D01*
X148077000Y-75762362D01*
X147971012Y-75229522D01*
X147763108Y-74727598D01*
X147461279Y-74275878D01*
X147077123Y-73891722D01*
X146625403Y-73589893D01*
X146123479Y-73381989D01*
X145590639Y-73276001D01*
X145047361Y-73276001D01*
X144514521Y-73381989D01*
X144012597Y-73589893D01*
X143560877Y-73891722D01*
X143176721Y-74275878D01*
X142874892Y-74727598D01*
X142666988Y-75229522D01*
X142561000Y-75762362D01*
X123449000Y-75762362D01*
X123449000Y-75745362D01*
X123343012Y-75212522D01*
X123135108Y-74710598D01*
X122833279Y-74258878D01*
X122449123Y-73874722D01*
X121997403Y-73572893D01*
X121495479Y-73364989D01*
X120962639Y-73259001D01*
X120419361Y-73259001D01*
X119886521Y-73364989D01*
X119384597Y-73572893D01*
X118932877Y-73874722D01*
X118548721Y-74258878D01*
X118246892Y-74710598D01*
X118038988Y-75212522D01*
X117933000Y-75745362D01*
X106934000Y-75745362D01*
X106934000Y-74648530D01*
X106953385Y-74377496D01*
X107010181Y-74116407D01*
X107103556Y-73866060D01*
X107231605Y-73631555D01*
X107391724Y-73417662D01*
X107580662Y-73228724D01*
X107794555Y-73068605D01*
X108029060Y-72940556D01*
X108279407Y-72847181D01*
X108540496Y-72790385D01*
X108811530Y-72771000D01*
X128954423Y-72771000D01*
X129012326Y-72828903D01*
G37*
%TD.AperFunction*%
%TD*%
M02*
