%TF.GenerationSoftware,KiCad,Pcbnew,(5.1.9-0-10_14)*%
%TF.CreationDate,2021-02-15T20:52:16+08:00*%
%TF.ProjectId,pdm,70646d2e-6b69-4636-9164-5f7063625858,rev?*%
%TF.SameCoordinates,Original*%
%TF.FileFunction,Soldermask,Bot*%
%TF.FilePolarity,Negative*%
%FSLAX46Y46*%
G04 Gerber Fmt 4.6, Leading zero omitted, Abs format (unit mm)*
G04 Created by KiCad (PCBNEW (5.1.9-0-10_14)) date 2021-02-15 20:52:16*
%MOMM*%
%LPD*%
G01*
G04 APERTURE LIST*
%ADD10R,2.715000X2.715000*%
%ADD11C,2.715000*%
%ADD12C,2.990000*%
%ADD13O,2.000000X1.700000*%
%ADD14C,6.000000*%
%ADD15C,0.800000*%
%ADD16C,4.262000*%
%ADD17C,2.640000*%
%ADD18R,2.640000X2.640000*%
%ADD19C,2.000000*%
%ADD20C,0.254000*%
%ADD21C,0.100000*%
G04 APERTURE END LIST*
D10*
%TO.C,J4*%
X176972000Y-122174000D03*
D11*
X181417000Y-122174000D03*
X185862000Y-122174000D03*
X190312000Y-122174000D03*
X194757000Y-122174000D03*
X199202000Y-122174000D03*
X199202000Y-128524000D03*
X194757000Y-128524000D03*
D12*
X170547000Y-123184000D03*
X205627000Y-123184000D03*
X188087000Y-134624000D03*
D11*
X190312000Y-128524000D03*
X185862000Y-128524000D03*
X181417000Y-128524000D03*
X176972000Y-128524000D03*
%TD*%
%TO.C,M2*%
G36*
G01*
X111010000Y-119419000D02*
X112510000Y-119419000D01*
G75*
G02*
X112760000Y-119669000I0J-250000D01*
G01*
X112760000Y-120869000D01*
G75*
G02*
X112510000Y-121119000I-250000J0D01*
G01*
X111010000Y-121119000D01*
G75*
G02*
X110760000Y-120869000I0J250000D01*
G01*
X110760000Y-119669000D01*
G75*
G02*
X111010000Y-119419000I250000J0D01*
G01*
G37*
D13*
X111760000Y-122769000D03*
%TD*%
%TO.C,M1*%
G36*
G01*
X118376000Y-119429233D02*
X119876000Y-119429233D01*
G75*
G02*
X120126000Y-119679233I0J-250000D01*
G01*
X120126000Y-120879233D01*
G75*
G02*
X119876000Y-121129233I-250000J0D01*
G01*
X118376000Y-121129233D01*
G75*
G02*
X118126000Y-120879233I0J250000D01*
G01*
X118126000Y-119679233D01*
G75*
G02*
X118376000Y-119429233I250000J0D01*
G01*
G37*
X119126000Y-122779233D03*
%TD*%
D14*
%TO.C,H4*%
X227457000Y-133604000D03*
D15*
X229707000Y-133604000D03*
X229047990Y-135194990D03*
X227457000Y-135854000D03*
X225866010Y-135194990D03*
X225207000Y-133604000D03*
X225866010Y-132013010D03*
X227457000Y-131354000D03*
X229047990Y-132013010D03*
%TD*%
D14*
%TO.C,H3*%
X227457000Y-54864000D03*
D15*
X229707000Y-54864000D03*
X229047990Y-56454990D03*
X227457000Y-57114000D03*
X225866010Y-56454990D03*
X225207000Y-54864000D03*
X225866010Y-53273010D03*
X227457000Y-52614000D03*
X229047990Y-53273010D03*
%TD*%
D14*
%TO.C,H2*%
X110617000Y-133604000D03*
D15*
X112867000Y-133604000D03*
X112207990Y-135194990D03*
X110617000Y-135854000D03*
X109026010Y-135194990D03*
X108367000Y-133604000D03*
X109026010Y-132013010D03*
X110617000Y-131354000D03*
X112207990Y-132013010D03*
%TD*%
D14*
%TO.C,H1*%
X110617000Y-54864000D03*
D15*
X112867000Y-54864000D03*
X112207990Y-56454990D03*
X110617000Y-57114000D03*
X109026010Y-56454990D03*
X108367000Y-54864000D03*
X109026010Y-53273010D03*
X110617000Y-52614000D03*
X112207990Y-53273010D03*
%TD*%
%TO.C,F2*%
G36*
G01*
X194703000Y-97566001D02*
X194703000Y-97566001D01*
G75*
G02*
X193922000Y-96785001I0J781000D01*
G01*
X193922000Y-92785001D01*
G75*
G02*
X194703000Y-92004001I781000J0D01*
G01*
X194703000Y-92004001D01*
G75*
G02*
X195484000Y-92785001I0J-781000D01*
G01*
X195484000Y-96785001D01*
G75*
G02*
X194703000Y-97566001I-781000J0D01*
G01*
G37*
G36*
G01*
X194703000Y-88066001D02*
X194703000Y-88066001D01*
G75*
G02*
X193922000Y-87285001I0J781000D01*
G01*
X193922000Y-83285001D01*
G75*
G02*
X194703000Y-82504001I781000J0D01*
G01*
X194703000Y-82504001D01*
G75*
G02*
X195484000Y-83285001I0J-781000D01*
G01*
X195484000Y-87285001D01*
G75*
G02*
X194703000Y-88066001I-781000J0D01*
G01*
G37*
D16*
X194703000Y-103735001D03*
X194703000Y-76335001D03*
%TD*%
%TO.C,F5*%
G36*
G01*
X145319000Y-97265001D02*
X145319000Y-97265001D01*
G75*
G02*
X144538000Y-96484001I0J781000D01*
G01*
X144538000Y-92484001D01*
G75*
G02*
X145319000Y-91703001I781000J0D01*
G01*
X145319000Y-91703001D01*
G75*
G02*
X146100000Y-92484001I0J-781000D01*
G01*
X146100000Y-96484001D01*
G75*
G02*
X145319000Y-97265001I-781000J0D01*
G01*
G37*
G36*
G01*
X145319000Y-87765001D02*
X145319000Y-87765001D01*
G75*
G02*
X144538000Y-86984001I0J781000D01*
G01*
X144538000Y-82984001D01*
G75*
G02*
X145319000Y-82203001I781000J0D01*
G01*
X145319000Y-82203001D01*
G75*
G02*
X146100000Y-82984001I0J-781000D01*
G01*
X146100000Y-86984001D01*
G75*
G02*
X145319000Y-87765001I-781000J0D01*
G01*
G37*
X145319000Y-103434001D03*
X145319000Y-76034001D03*
%TD*%
%TO.C,F3*%
G36*
G01*
X218979000Y-97820001D02*
X218979000Y-97820001D01*
G75*
G02*
X218198000Y-97039001I0J781000D01*
G01*
X218198000Y-93039001D01*
G75*
G02*
X218979000Y-92258001I781000J0D01*
G01*
X218979000Y-92258001D01*
G75*
G02*
X219760000Y-93039001I0J-781000D01*
G01*
X219760000Y-97039001D01*
G75*
G02*
X218979000Y-97820001I-781000J0D01*
G01*
G37*
G36*
G01*
X218979000Y-88320001D02*
X218979000Y-88320001D01*
G75*
G02*
X218198000Y-87539001I0J781000D01*
G01*
X218198000Y-83539001D01*
G75*
G02*
X218979000Y-82758001I781000J0D01*
G01*
X218979000Y-82758001D01*
G75*
G02*
X219760000Y-83539001I0J-781000D01*
G01*
X219760000Y-87539001D01*
G75*
G02*
X218979000Y-88320001I-781000J0D01*
G01*
G37*
X218979000Y-103989001D03*
X218979000Y-76589001D03*
%TD*%
%TO.C,F4*%
G36*
G01*
X120691000Y-97248001D02*
X120691000Y-97248001D01*
G75*
G02*
X119910000Y-96467001I0J781000D01*
G01*
X119910000Y-92467001D01*
G75*
G02*
X120691000Y-91686001I781000J0D01*
G01*
X120691000Y-91686001D01*
G75*
G02*
X121472000Y-92467001I0J-781000D01*
G01*
X121472000Y-96467001D01*
G75*
G02*
X120691000Y-97248001I-781000J0D01*
G01*
G37*
G36*
G01*
X120691000Y-87748001D02*
X120691000Y-87748001D01*
G75*
G02*
X119910000Y-86967001I0J781000D01*
G01*
X119910000Y-82967001D01*
G75*
G02*
X120691000Y-82186001I781000J0D01*
G01*
X120691000Y-82186001D01*
G75*
G02*
X121472000Y-82967001I0J-781000D01*
G01*
X121472000Y-86967001D01*
G75*
G02*
X120691000Y-87748001I-781000J0D01*
G01*
G37*
X120691000Y-103417001D03*
X120691000Y-76017001D03*
%TD*%
%TO.C,F1*%
G36*
G01*
X170127000Y-97406001D02*
X170127000Y-97406001D01*
G75*
G02*
X169346000Y-96625001I0J781000D01*
G01*
X169346000Y-92625001D01*
G75*
G02*
X170127000Y-91844001I781000J0D01*
G01*
X170127000Y-91844001D01*
G75*
G02*
X170908000Y-92625001I0J-781000D01*
G01*
X170908000Y-96625001D01*
G75*
G02*
X170127000Y-97406001I-781000J0D01*
G01*
G37*
G36*
G01*
X170127000Y-87906001D02*
X170127000Y-87906001D01*
G75*
G02*
X169346000Y-87125001I0J781000D01*
G01*
X169346000Y-83125001D01*
G75*
G02*
X170127000Y-82344001I781000J0D01*
G01*
X170127000Y-82344001D01*
G75*
G02*
X170908000Y-83125001I0J-781000D01*
G01*
X170908000Y-87125001D01*
G75*
G02*
X170127000Y-87906001I-781000J0D01*
G01*
G37*
X170127000Y-103575001D03*
X170127000Y-76175001D03*
%TD*%
D12*
%TO.C,J1*%
X136967000Y-134324000D03*
X128317000Y-122894000D03*
X145617000Y-122894000D03*
D17*
X134742000Y-128224000D03*
X139192000Y-128224000D03*
D18*
X134742000Y-121874000D03*
D17*
X139192000Y-121874000D03*
%TD*%
D19*
%TO.C,SW1*%
X149558501Y-57224000D03*
X149558501Y-61724000D03*
X143058501Y-57224000D03*
X143058501Y-61724000D03*
%TD*%
D20*
X136017000Y-57277000D02*
X132588000Y-57277000D01*
X132563224Y-57279440D01*
X132539399Y-57286667D01*
X132517443Y-57298403D01*
X132498197Y-57314197D01*
X132482403Y-57333443D01*
X132470667Y-57355399D01*
X132463440Y-57379224D01*
X132461000Y-57404000D01*
X132461000Y-62357000D01*
X120523000Y-62357000D01*
X120523000Y-57404000D01*
X120520560Y-57379224D01*
X120513333Y-57355399D01*
X120501597Y-57333443D01*
X120485803Y-57314197D01*
X120466557Y-57298403D01*
X120444601Y-57286667D01*
X120420776Y-57279440D01*
X120396000Y-57277000D01*
X116967000Y-57277000D01*
X116967000Y-48514000D01*
X136017000Y-48514000D01*
X136017000Y-57277000D01*
D21*
G36*
X136017000Y-57277000D02*
G01*
X132588000Y-57277000D01*
X132563224Y-57279440D01*
X132539399Y-57286667D01*
X132517443Y-57298403D01*
X132498197Y-57314197D01*
X132482403Y-57333443D01*
X132470667Y-57355399D01*
X132463440Y-57379224D01*
X132461000Y-57404000D01*
X132461000Y-62357000D01*
X120523000Y-62357000D01*
X120523000Y-57404000D01*
X120520560Y-57379224D01*
X120513333Y-57355399D01*
X120501597Y-57333443D01*
X120485803Y-57314197D01*
X120466557Y-57298403D01*
X120444601Y-57286667D01*
X120420776Y-57279440D01*
X120396000Y-57277000D01*
X116967000Y-57277000D01*
X116967000Y-48514000D01*
X136017000Y-48514000D01*
X136017000Y-57277000D01*
G37*
M02*
