M48
; DRILL file {KiCad (5.1.9-0-10_14)} date Monday, February 15, 2021 at 08:52:21 PM
; FORMAT={-:-/ absolute / inch / decimal}
; #@! TF.CreationDate,2021-02-15T20:52:21+08:00
; #@! TF.GenerationSoftware,Kicad,Pcbnew,(5.1.9-0-10_14)
; #@! TF.FileFunction,Plated,1,4,PTH
FMAT,2
INCH
T1C0.0157
T2C0.0197
T3C0.0394
T4C0.0433
T5C0.0693
T6C0.0713
T7C0.1181
T8C0.1378
%
G90
G05
T1
X4.235Y-4.19
X4.26Y-3.96
X4.2787Y-3.5538
X4.2787Y-3.3863
X4.2837Y-3.4663
X4.285Y-3.22
X4.335Y-3.97
X4.335Y-4.02
X4.335Y-4.07
X4.335Y-4.12
X4.365Y-3.68
X4.365Y-3.73
X4.365Y-3.84
X4.365Y-3.9
X4.385Y-3.05
X4.385Y-3.97
X4.385Y-4.02
X4.385Y-4.07
X4.385Y-4.12
X4.415Y-3.54
X4.415Y-3.68
X4.415Y-3.73
X4.415Y-3.84
X4.415Y-3.9
X4.435Y-3.97
X4.435Y-4.02
X4.435Y-4.07
X4.435Y-4.12
X4.475Y-3.14
X4.485Y-3.97
X4.485Y-4.02
X4.485Y-4.07
X4.485Y-4.12
X4.5035Y-3.5398
X4.505Y-3.68
X4.505Y-3.73
X4.505Y-3.84
X4.505Y-3.9
X4.535Y-3.97
X4.535Y-4.02
X4.535Y-4.07
X4.535Y-4.12
X4.555Y-3.68
X4.555Y-3.73
X4.555Y-3.84
X4.555Y-3.9
X4.585Y-2.68
X4.585Y-3.97
X4.585Y-4.02
X4.585Y-4.07
X4.585Y-4.12
X4.635Y-2.89
X4.675Y-2.22
X4.6758Y-2.5992
X4.68Y-1.96
X4.68Y-2.01
X4.68Y-2.06
X4.68Y-2.11
X4.68Y-2.16
X4.73Y-1.96
X4.73Y-2.01
X4.73Y-2.06
X4.73Y-2.11
X4.73Y-2.16
X4.78Y-1.96
X4.78Y-2.01
X4.805Y-2.09
X4.805Y-2.14
X4.805Y-2.19
X4.805Y-2.28
X4.805Y-2.33
X4.805Y-2.38
X4.83Y-1.96
X4.83Y-2.01
X4.855Y-2.09
X4.855Y-2.14
X4.855Y-2.19
X4.855Y-2.28
X4.855Y-2.38
X4.855Y-2.33
X4.88Y-1.96
X4.88Y-2.01
X4.905Y-2.09
X4.905Y-2.14
X4.905Y-2.19
X4.905Y-2.28
X4.905Y-2.33
X4.905Y-2.38
X4.93Y-1.96
X4.93Y-2.01
X4.955Y-3.51
X4.9587Y-3.1338
X4.9793Y-2.5957
X4.9796Y-3.35
X4.98Y-1.96
X4.98Y-2.01
X4.9807Y-2.2355
X5.03Y-1.96
X5.03Y-2.01
X5.055Y-2.09
X5.055Y-2.14
X5.055Y-2.19
X5.055Y-2.33
X5.055Y-2.38
X5.055Y-3.31
X5.055Y-2.28
X5.08Y-1.96
X5.08Y-2.01
X5.0807Y-2.5957
X5.105Y-2.09
X5.105Y-2.14
X5.105Y-2.19
X5.105Y-2.28
X5.105Y-2.33
X5.105Y-2.38
X5.105Y-2.8359
X5.13Y-1.96
X5.13Y-2.01
X5.155Y-2.09
X5.155Y-2.14
X5.155Y-2.19
X5.155Y-2.28
X5.155Y-2.33
X5.155Y-2.38
X5.18Y-1.96
X5.18Y-2.01
X5.2042Y-2.8392
X5.205Y-4.185
X5.23Y-1.96
X5.23Y-2.01
X5.23Y-2.06
X5.23Y-2.11
X5.23Y-2.16
X5.24Y-3.96
X5.2482Y-2.5668
X5.2483Y-3.5544
X5.2483Y-3.3869
X5.2533Y-3.4669
X5.2546Y-3.2207
X5.255Y-2.68
X5.275Y-2.22
X5.275Y-2.46
X5.28Y-1.96
X5.28Y-2.01
X5.28Y-2.06
X5.28Y-2.11
X5.28Y-2.16
X5.295Y-2.7648
X5.3046Y-3.9707
X5.3046Y-4.0207
X5.3046Y-4.0707
X5.3046Y-4.1207
X5.3346Y-3.6807
X5.3346Y-3.7307
X5.3346Y-3.8407
X5.3346Y-3.9007
X5.3546Y-3.0507
X5.3546Y-3.9707
X5.3546Y-4.0207
X5.3546Y-4.0707
X5.3546Y-4.1207
X5.3846Y-3.5407
X5.3846Y-3.6807
X5.3846Y-3.7307
X5.3846Y-3.8407
X5.3846Y-3.9007
X5.4046Y-3.9707
X5.4046Y-4.0207
X5.4046Y-4.0707
X5.4046Y-4.1207
X5.4446Y-3.1407
X5.4546Y-3.9707
X5.4546Y-4.0207
X5.4546Y-4.0707
X5.4546Y-4.1207
X5.4731Y-3.5405
X5.4746Y-3.6807
X5.4746Y-3.7307
X5.4746Y-3.8407
X5.4746Y-3.9007
X5.5046Y-3.9707
X5.5046Y-4.0207
X5.5046Y-4.0707
X5.5046Y-4.1207
X5.5225Y-2.375
X5.5246Y-3.6807
X5.5246Y-3.7307
X5.5246Y-3.8407
X5.5246Y-3.9007
X5.5546Y-3.9707
X5.5546Y-4.0207
X5.5546Y-4.0707
X5.5546Y-4.1207
X5.6125Y-2.145
X5.7125Y-2.145
X5.905Y-2.53
X5.9283Y-3.1344
X5.935Y-3.51
X5.9472Y-3.3508
X6.025Y-3.315
X6.0378Y-2.8509
X6.038Y-2.733
X6.0712Y-2.3719
X6.099Y-2.344
X6.105Y-2.8306
X6.105Y-2.87
X6.1603Y-2.4732
X6.175Y-4.18
X6.1907Y-2.4433
X6.21Y-3.96
X6.225Y-3.56
X6.225Y-3.3925
X6.23Y-3.4725
X6.2313Y-3.2262
X6.275Y-2.53
X6.2813Y-3.9762
X6.2813Y-4.0262
X6.2813Y-4.0762
X6.2813Y-4.1262
X6.3062Y-2.6546
X6.3113Y-3.6862
X6.3113Y-3.7362
X6.3113Y-3.8462
X6.3113Y-3.9062
X6.3313Y-3.0562
X6.3313Y-3.9762
X6.3313Y-4.0262
X6.3313Y-4.0762
X6.3313Y-4.1262
X6.348Y-2.733
X6.3613Y-3.5462
X6.3613Y-3.6862
X6.3613Y-3.7362
X6.3613Y-3.8462
X6.3613Y-3.9062
X6.3782Y-2.7
X6.3813Y-3.9762
X6.3813Y-4.0262
X6.3813Y-4.0762
X6.3813Y-4.1262
X6.3858Y-4.8904
X6.395Y-2.47
X6.4Y-2.17
X6.4102Y-2.6128
X6.4213Y-3.1462
X6.4245Y-2.7795
X6.4313Y-3.9762
X6.4313Y-4.0262
X6.4313Y-4.0762
X6.4313Y-4.1262
X6.4344Y-2.47
X6.4456Y-2.63
X6.4498Y-3.546
X6.4513Y-3.6862
X6.4513Y-3.7362
X6.4513Y-3.8462
X6.4513Y-3.9062
X6.4524Y-2.7517
X6.48Y-2.17
X6.4813Y-3.9762
X6.4813Y-4.0262
X6.4813Y-4.0762
X6.4813Y-4.1262
X6.495Y-2.8276
X6.5013Y-3.6862
X6.5013Y-3.7362
X6.5013Y-3.8462
X6.5013Y-3.9062
X6.5174Y-2.5525
X6.5313Y-3.9762
X6.5313Y-4.0262
X6.5313Y-4.0762
X6.5313Y-4.1262
X6.575Y-2.6735
X6.58Y-2.26
X6.67Y-2.15
X6.7577Y-2.5828
X6.875Y-2.3
X6.895Y-3.51
X6.905Y-3.14
X6.925Y-3.355
X7.0Y-3.32
X7.005Y-2.2
X7.0102Y-2.4
X7.1112Y-2.7606
X7.1112Y-2.8
X7.1265Y-2.5106
X7.1336Y-2.3714
X7.155Y-4.21
X7.1636Y-2.4014
X7.18Y-3.97
X7.1926Y-3.5663
X7.1926Y-3.3988
X7.1976Y-3.4788
X7.1982Y-2.54
X7.1989Y-3.2325
X7.2459Y-2.7606
X7.2459Y-2.8
X7.2489Y-3.9825
X7.2489Y-4.0325
X7.2489Y-4.0825
X7.2489Y-4.1325
X7.2789Y-3.6925
X7.2789Y-3.7425
X7.2789Y-3.8525
X7.2789Y-3.9125
X7.2989Y-3.0625
X7.2989Y-3.9825
X7.2989Y-4.0325
X7.2989Y-4.0825
X7.2989Y-4.1325
X7.3289Y-3.5525
X7.3289Y-3.6925
X7.3289Y-3.7425
X7.3289Y-3.8525
X7.3289Y-3.9125
X7.3489Y-3.9825
X7.3489Y-4.0325
X7.3489Y-4.0825
X7.3489Y-4.1325
X7.3889Y-3.1525
X7.3989Y-3.9825
X7.3989Y-4.0325
X7.3989Y-4.0825
X7.3989Y-4.1325
X7.4174Y-3.5523
X7.4189Y-3.6925
X7.4189Y-3.7425
X7.4189Y-3.8525
X7.4189Y-3.9125
X7.4489Y-3.9825
X7.4489Y-4.0325
X7.4489Y-4.0825
X7.4489Y-4.1325
X7.4689Y-3.6925
X7.4689Y-3.7425
X7.4689Y-3.8525
X7.4689Y-3.9125
X7.4989Y-3.9825
X7.4989Y-4.0325
X7.4989Y-4.0825
X7.4989Y-4.1325
X7.805Y-3.1262
X7.835Y-3.0392
X7.8726Y-3.1463
X7.875Y-3.51
X7.89Y-3.36
X7.895Y-2.69
X7.895Y-2.75
X7.9509Y-2.875
X7.97Y-3.325
X8.04Y-2.875
X8.085Y-2.64
X8.085Y-2.79
X8.105Y-4.21
X8.13Y-3.98
X8.1483Y-3.5763
X8.1483Y-3.4088
X8.1533Y-3.4888
X8.1546Y-3.2425
X8.2046Y-3.9925
X8.2046Y-4.0425
X8.2046Y-4.0925
X8.2046Y-4.1425
X8.2346Y-3.7025
X8.2346Y-3.7525
X8.2346Y-3.8625
X8.2346Y-3.9225
X8.2546Y-3.0725
X8.2546Y-3.9925
X8.2546Y-4.0425
X8.2546Y-4.0925
X8.2546Y-4.1425
X8.2846Y-3.5625
X8.2846Y-3.7025
X8.2846Y-3.7525
X8.2846Y-3.8625
X8.2846Y-3.9225
X8.3046Y-3.9925
X8.3046Y-4.0425
X8.3046Y-4.0925
X8.3046Y-4.1425
X8.3446Y-3.1625
X8.3546Y-3.9925
X8.3546Y-4.0425
X8.3546Y-4.0925
X8.3546Y-4.1425
X8.3731Y-3.5623
X8.3746Y-3.7025
X8.3746Y-3.7525
X8.3746Y-3.8625
X8.3746Y-3.9225
X8.4046Y-3.9925
X8.4046Y-4.0425
X8.4046Y-4.0925
X8.4046Y-4.1425
X8.4246Y-3.7025
X8.4246Y-3.7525
X8.4246Y-3.8625
X8.4246Y-3.9225
X8.4546Y-3.9925
X8.4546Y-4.0425
X8.4546Y-4.0925
X8.4546Y-4.1425
X8.475Y-2.59
X8.4798Y-2.39
X8.605Y-2.69
X8.6102Y-2.49
X8.8283Y-3.1563
X8.835Y-3.53
X8.8472Y-3.3726
X8.9259Y-3.3352
T2
X4.2664Y-2.16
X4.2664Y-5.26
X4.2924Y-2.0974
X4.2924Y-2.2226
X4.2924Y-5.1974
X4.2924Y-5.3226
X4.355Y-2.0714
X4.355Y-2.2486
X4.355Y-5.1714
X4.355Y-5.3486
X4.4176Y-2.0974
X4.4176Y-2.2226
X4.4176Y-5.1974
X4.4176Y-5.3226
X4.4436Y-2.16
X4.4436Y-5.26
X8.8664Y-2.16
X8.8664Y-5.26
X8.8924Y-2.0974
X8.8924Y-2.2226
X8.8924Y-5.1974
X8.8924Y-5.3226
X8.955Y-2.0714
X8.955Y-2.2486
X8.955Y-5.1714
X8.955Y-5.3486
X9.0176Y-2.0974
X9.0176Y-2.2226
X9.0176Y-5.1974
X9.0176Y-5.3226
X9.0436Y-2.16
X9.0436Y-5.26
T3
X4.4Y-4.735
X4.4Y-4.8334
X4.69Y-4.7354
X4.69Y-4.8338
T4
X5.6322Y-2.2529
X5.6322Y-2.4301
X5.8881Y-2.2529
X5.8881Y-2.4301
T5
X5.3048Y-4.7982
X5.3048Y-5.0482
X5.48Y-4.7982
X5.48Y-5.0482
T6
X6.9674Y-4.81
X6.9674Y-5.06
X7.1424Y-4.81
X7.1424Y-5.06
X7.3174Y-4.81
X7.3174Y-5.06
X7.4926Y-4.81
X7.4926Y-5.06
X7.6676Y-4.81
X7.6676Y-5.06
X7.8426Y-4.81
X7.8426Y-5.06
T7
X4.355Y-2.16
X4.355Y-5.26
X8.955Y-2.16
X8.955Y-5.26
T8
X4.7516Y-2.9928
X4.7516Y-4.0715
X5.7212Y-2.9935
X5.7212Y-4.0722
X6.6979Y-2.999
X6.6979Y-4.0778
X7.6655Y-3.0053
X7.6655Y-4.0841
X8.6212Y-3.0153
X8.6212Y-4.0941
T3
G00X4.7516Y-3.4239
M15
G01X4.7516Y-3.2664
M16
G05
G00X4.7516Y-3.7979
M15
G01X4.7516Y-3.6404
M16
G05
G00X5.7212Y-3.4246
M15
G01X5.7212Y-3.2671
M16
G05
G00X5.7212Y-3.7986
M15
G01X5.7212Y-3.6411
M16
G05
G00X6.6979Y-3.4301
M15
G01X6.6979Y-3.2726
M16
G05
G00X6.6979Y-3.8041
M15
G01X6.6979Y-3.6467
M16
G05
G00X7.6655Y-3.4364
M15
G01X7.6655Y-3.2789
M16
G05
G00X7.6655Y-3.8104
M15
G01X7.6655Y-3.653
M16
G05
G00X8.6212Y-3.4464
M15
G01X8.6212Y-3.2889
M16
G05
G00X8.6212Y-3.8204
M15
G01X8.6212Y-3.663
M16
G05
T0
M30
